M48
INCH
T01C0.013
T02C0.0402
%
T01
X+013684Y+009550
X+014275Y+010239
X+015062Y+010633
X+015456Y+010731
X+016046Y+010338
X+017031Y+010042
X+017326Y+010534
X+016939Y+011065
X+016903Y+011583
X+015849Y+011814
X+015554Y+011519
X+015259Y+011814
X+014176Y+011814
X+014176Y+011420
X+013192Y+011814
X+012109Y+011814
X+011814Y+011519
X+011519Y+011814
X+011125Y+010830
X+010830Y+010534
X+011125Y+010239
X+010830Y+009944
X+011322Y+009649
X+011617Y+009944
X+011912Y+010239
X+012208Y+010534
X+012503Y+010830
X+012995Y+010239
X+012405Y+009944
X+012700Y+009255
X+012306Y+009157
X+011912Y+009157
X+011519Y+009157
X+011125Y+008861
X+010731Y+008861
X+010633Y+007975
X+010928Y+007483
X+010633Y+007188
X+010928Y+006893
X+011223Y+007779
X+011519Y+008074
X+012011Y+007779
X+011716Y+007483
X+012011Y+007188
X+012306Y+006893
X+012995Y+007286
X+013389Y+007090
X+013979Y+007582
X+014373Y+007483
X+015259Y+006893
X+015554Y+006204
X+015259Y+005909
X+015849Y+005909
X+016932Y+005810
X+016932Y+006499
X+016145Y+007483
X+014373Y+008566
X+012601Y+008271
X+011814Y+006204
X+012109Y+005909
X+011519Y+005909
X+010436Y+005909
X+009452Y+005909
X+008369Y+005909
X+008074Y+006204
X+007779Y+005909
X+006712Y+006073
X+006777Y+005032
X+006401Y+004235
X+005909Y+004826
X+005515Y+004826
X+005121Y+004826
X+005318Y+004235
X+004334Y+004629
X+004235Y+006007
X+005220Y+006794
X+005220Y+007188
X+005220Y+008074
X+004235Y+008763
X+004939Y+009252
X+004502Y+010252
X+004826Y+010928
X+005220Y+010928
X+005515Y+010534
X+004235Y+011027
X+004246Y+011969
X+006752Y+011815
X+007779Y+011814
X+008074Y+011519
X+008369Y+011814
X+008377Y+012878
X+007245Y+013100
X+009452Y+011814
X+010436Y+011814
X+010436Y+011420
X+009550Y+009452
X+008861Y+009846
X+008369Y+010042
X+007779Y+010042
X+007483Y+010042
X+008861Y+008763
X+008861Y+007779
X+009846Y+007483
X+009046Y+004438
X+007582Y+004432
X+013192Y+005909
X+014176Y+005909
X+015561Y+004477
X+016637Y+004466
X+018605Y+004235
X+019294Y+004629
X+019393Y+006007
X+019393Y+007582
X+018212Y+007975
X+018212Y+007188
X+018212Y+008763
X+018212Y+009550
X+019393Y+009157
X+019393Y+010534
X+019196Y+011716
X+019418Y+012611
X+017947Y+011874
X+018008Y+011189
X+016402Y+013056
T02
X+009814Y+004432
X+010814Y+004432
X+011814Y+004432
X+012814Y+004432
X+013814Y+004432
X+013814Y+013290
X+014814Y+013290
X+015814Y+013290
X+012814Y+013290
X+011814Y+013290
X+010814Y+013290
X+009814Y+013290
X+008814Y+013290
X+007814Y+013290
T00
M30
