G04 DipTrace 3.2.0.1*
G04 td_display_uBraidsII_bigtrans.GTS*
%MOIN*%
G04 #@! TF.FileFunction,Soldermask,Top*
G04 #@! TF.Part,Single*
%AMOUTLINE1*
4,1,40,
0.029591,0.019367,
0.029448,0.021002,
0.028978,0.022754,
0.028211,0.024399,
0.027169,0.025887,
0.025887,0.027169,
0.024399,0.028211,
0.022754,0.028978,
0.021002,0.029448,
0.019367,0.029591,
-0.019367,0.029591,
-0.021002,0.029448,
-0.022754,0.028978,
-0.024399,0.028211,
-0.025887,0.027169,
-0.027169,0.025887,
-0.028211,0.024399,
-0.028978,0.022754,
-0.029448,0.021002,
-0.029591,0.019367,
-0.029591,-0.019367,
-0.029448,-0.021002,
-0.028978,-0.022754,
-0.028211,-0.024399,
-0.027169,-0.025887,
-0.025887,-0.027169,
-0.024399,-0.028211,
-0.022754,-0.028978,
-0.021002,-0.029448,
-0.019367,-0.029591,
0.019367,-0.029591,
0.021002,-0.029448,
0.022754,-0.028978,
0.024399,-0.028211,
0.025887,-0.027169,
0.027169,-0.025887,
0.028211,-0.024399,
0.028978,-0.022754,
0.029448,-0.021002,
0.029591,-0.019367,
0.029591,0.019367,
0*%
%ADD31C,0.078866*%
%ADD33R,0.078866X0.078866*%
%ADD38OUTLINE1*%
%FSLAX26Y26*%
G04*
G70*
G90*
G75*
G01*
G04 TopMask*
%LPD*%
D38*
X470772Y535732D3*
X545575D3*
X620378D3*
X695181D3*
X769984D3*
X722740Y606598D3*
X620378D3*
X518016D3*
Y1165654D3*
X620378D3*
X722740D3*
X769984Y1236520D3*
X695181D3*
X620378D3*
X545575D3*
X470772D3*
X844787Y535732D3*
X919591D3*
X994394D3*
X1069197D3*
X1144000D3*
X1096756Y606598D3*
X994394D3*
X892031D3*
Y1165654D3*
X994394D3*
X1096756D3*
X1144000Y1236520D3*
X1069197D3*
X994394D3*
X919591D3*
X844787D3*
X1218803Y535732D3*
X1293606D3*
X1368409D3*
X1443213D3*
X1518016D3*
X1470772Y606598D3*
X1368409D3*
X1266047D3*
Y1165654D3*
X1368409D3*
X1470772D3*
X1518016Y1236520D3*
X1443213D3*
X1368409D3*
X1293606D3*
X1218803D3*
X1592819Y535732D3*
X1667622D3*
X1742425D3*
X1817228D3*
X1892031D3*
X1844787Y606598D3*
X1742425D3*
X1640063D3*
Y1165654D3*
X1742425D3*
X1844787D3*
X1892031Y1236520D3*
X1817228D3*
X1742425D3*
X1667622D3*
X1592819D3*
D33*
X981402Y443213D3*
D31*
X1081402D3*
X1181402D3*
X1281402D3*
X1381402D3*
D33*
X1581402Y1329039D3*
D31*
X1481402D3*
X1381402D3*
X1281402D3*
X1181402D3*
X1081402D3*
X981402D3*
X881402D3*
X781402D3*
M02*
