G04 DipTrace 3.2.0.1*
G04 td_display_uBraidsII_bigtrans.GKO*
%MOIN*%
G04 #@! TF.FileFunction,Profile*
G04 #@! TF.Part,Single*
%ADD11C,0.005512*%
%FSLAX26Y26*%
G04*
G70*
G90*
G75*
G01*
G04 BoardOutline*
%LPD*%
X1600861Y1378046D2*
D11*
X752871Y1378593D1*
G03X705409Y1358041I4573J-75639D01*
G01*
G02X646434Y1289509I-63608J-4903D01*
G01*
X425685D1*
G03X394000Y1260142I-980J-30720D01*
G01*
Y512110D1*
X394647Y499764D1*
X396581Y487554D1*
X399781Y475612D1*
X404211Y464071D1*
X409824Y453055D1*
X416556Y442686D1*
X424337Y433079D1*
X433079Y424337D1*
X442686Y416556D1*
X453055Y409824D1*
X464071Y404211D1*
X475612Y399781D1*
X487554Y396581D1*
X499764Y394647D1*
X512110Y394000D1*
X1850693D1*
X1863039Y394648D1*
X1875249Y396581D1*
X1887192Y399782D1*
X1898732Y404211D1*
X1909748Y409824D1*
X1920117Y416558D1*
X1929724Y424337D1*
X1938466Y433079D1*
X1946247Y442686D1*
X1952979Y453055D1*
X1958592Y464071D1*
X1963022Y475613D1*
X1966222Y487554D1*
X1968156Y499764D1*
X1968803Y512110D1*
Y1260142D1*
G03X1943917Y1287751I-30108J-2119D01*
G01*
X1706417D1*
G02X1654262Y1353252I11485J62660D01*
G01*
G03X1600861Y1378046I-56014J-50739D01*
G01*
M02*
