G04 DipTrace 3.2.0.1*
G04 td_display_uBraidsII_bigtrans.GTL*
%MOIN*%
G04 #@! TF.FileFunction,Copper,L1,Top*
G04 #@! TF.Part,Single*
%AMOUTLINE0*
4,1,40,
0.025591,0.019193,
0.025493,0.020304,
0.025205,0.021381,
0.024734,0.022391,
0.024093,0.023306,
0.023306,0.024093,
0.022391,0.024734,
0.021381,0.025205,
0.020304,0.025493,
0.019193,0.025591,
-0.019193,0.025591,
-0.020304,0.025493,
-0.021381,0.025205,
-0.022391,0.024734,
-0.023306,0.024093,
-0.024093,0.023306,
-0.024734,0.022391,
-0.025205,0.021381,
-0.025493,0.020304,
-0.025591,0.019193,
-0.025591,-0.019193,
-0.025493,-0.020304,
-0.025205,-0.021381,
-0.024734,-0.022391,
-0.024093,-0.023306,
-0.023306,-0.024093,
-0.022391,-0.024734,
-0.021381,-0.025205,
-0.020304,-0.025493,
-0.019193,-0.025591,
0.019193,-0.025591,
0.020304,-0.025493,
0.021381,-0.025205,
0.022391,-0.024734,
0.023306,-0.024093,
0.024093,-0.023306,
0.024734,-0.022391,
0.025205,-0.021381,
0.025493,-0.020304,
0.025591,-0.019193,
0.025591,0.019193,
0*%
G04 #@! TA.AperFunction,Conductor*
%ADD10C,0.009843*%
%ADD14C,0.008*%
G04 #@! TA.AperFunction,CopperBalancing*
%ADD15C,0.005*%
G04 #@! TA.AperFunction,ComponentPad*
%ADD19R,0.070866X0.070866*%
%ADD20C,0.070866*%
G04 #@! TA.AperFunction,ViaPad*
%ADD24C,0.027*%
%ADD37OUTLINE0*%
%FSLAX26Y26*%
G04*
G70*
G90*
G75*
G01*
G04 Top*
%LPD*%
X1063291Y797543D2*
D10*
X1102661D1*
X1142031Y836913D1*
X1161717D1*
X1171559Y827071D1*
X1220772D1*
X1250299Y797543D1*
X1329039D1*
X1348724Y777858D1*
X1368409D1*
X1388094Y758173D1*
X1397937D1*
X1417622Y777858D1*
X1624315D1*
X1644000Y758173D1*
X1722740D1*
X1771953Y807386D1*
Y817228D1*
X1791638Y836913D1*
Y964866D1*
X1771953Y984551D1*
X1722740D1*
X1712898Y974709D1*
X1693213D1*
X1673528Y994394D1*
Y1014079D1*
X1693213Y1033764D1*
X1712898D1*
X1722740Y1023921D1*
X1791638D1*
X1811323Y1004236D1*
X1840850D1*
X1870378Y974709D1*
Y925496D1*
X1890063Y905811D1*
Y610535D1*
X1934354Y566244D1*
Y507189D1*
X1919591Y492425D1*
X1762110D1*
X1742425Y472740D1*
X1410929D1*
X1381402Y443213D1*
X1329039Y797543D2*
Y915654D1*
X1368409Y955024D1*
X955024Y945181D2*
X964866D1*
X1063291Y846756D1*
Y797543D1*
X620378Y1165654D2*
X644000Y1142031D1*
X674512D1*
X723724Y1092819D1*
X1102661D1*
X1112504Y1082976D1*
X994394Y1165654D2*
X1018016Y1142031D1*
X1043606D1*
X1368409Y1165654D2*
X1392031Y1142031D1*
X1417622D1*
X1742425Y1165654D2*
X1770969Y1137110D1*
X1782583D1*
X1800807Y1118886D1*
X1250299Y1082976D2*
X1260142Y1092819D1*
X1525890D1*
X1545575Y1073134D1*
X1112504Y1082976D2*
X1250299D1*
X620378Y1236520D2*
X675167Y1181731D1*
Y1181500D1*
X994394Y1236520D2*
X1043606Y1187307D1*
Y1181402D1*
X1368409Y1236520D2*
X1417622Y1187307D1*
Y1181402D1*
X1742425Y1236520D2*
X1791547Y1187398D1*
X1794747D1*
X722740Y1165654D2*
Y1123331D1*
X733567Y1112504D1*
X1092819D1*
X1466835D1*
X1676383D1*
X1688152Y1100735D1*
X1693917Y1106500D1*
X1700168Y1100249D1*
X1784207D1*
X1796706Y1087751D1*
X1806255D1*
X1844787Y1126283D1*
Y1165654D1*
X1096756D2*
X1092819Y1161717D1*
Y1112504D1*
X1470772Y1165654D2*
X1466835Y1161717D1*
Y1112504D1*
X1470772Y606598D2*
X1510142D1*
X1525890Y590850D1*
X1151874Y807386D2*
X1210929D1*
X1240457Y777858D1*
X1319197D1*
X1338882Y758173D1*
X1358567D1*
X1397937Y718803D1*
X1486520D1*
X1506205Y738488D1*
X1545575D1*
X1584945Y699118D1*
X1752268D1*
X1821165Y768016D1*
X1831008D1*
X1850693Y787701D1*
Y886126D1*
X1821165Y915654D1*
Y955024D1*
X722740Y606598D2*
X762110D1*
X777858Y590850D1*
X1096756Y606598D2*
X1136126D1*
X1151874Y590850D1*
X1844787Y606598D2*
X1752268Y699118D1*
X620378Y606598D2*
Y649906D1*
X630220Y659748D1*
X994394D1*
X1368409D1*
X1683370D1*
X1693213Y649906D1*
X1821165Y876283D2*
Y836913D1*
X1791638Y807386D1*
Y797543D1*
X1732583Y738488D1*
X1624315D1*
X1614472Y748331D1*
X994394Y606598D2*
Y659748D1*
X1368409Y606598D2*
Y659748D1*
X1693213Y649906D2*
X1703055Y659748D1*
X1732583D1*
X1742425Y649906D1*
Y606598D1*
X981402Y443213D2*
X951874Y472740D1*
X726020D1*
X705499Y452219D1*
X650741D1*
X649906Y453055D1*
X482583D1*
X428449Y507189D1*
Y566244D1*
X453055Y590850D1*
Y640063D1*
X492425Y679433D1*
Y728646D1*
X512110Y748331D1*
X541638D1*
X571165Y777858D1*
X630220D1*
X827071Y974709D1*
X876283D1*
X886126Y984551D1*
X1073134Y886126D2*
X1102661Y856598D1*
X1171559D1*
X1181402Y846756D1*
X1230614D1*
X1250299Y827071D1*
X1260142D1*
X521953Y679433D2*
X531795D1*
X590850Y738488D1*
X649906D1*
X846756Y935339D1*
X905811D1*
X945181Y974709D1*
X964866D1*
X1053449Y886126D1*
X1073134D1*
X521953Y718803D2*
X541638D1*
X581008Y758173D1*
X640063D1*
X836913Y955024D1*
X895969D1*
X935339Y994394D1*
X974709D1*
X1053449Y915654D1*
X1082976D1*
X1112504Y886126D1*
X518016Y606598D2*
X610535Y699118D1*
X1043606D1*
X1063291Y718803D1*
X836913Y590850D2*
X852661Y606598D1*
X892031D1*
X1210929Y590850D2*
X1226677Y606598D1*
X1266047D1*
X1584945Y590850D2*
X1600693Y606598D1*
X1640063D1*
X1821165Y797543D2*
X1742425Y718803D1*
X1594787D1*
X1555417Y758173D1*
X1496362D1*
X1476677Y738488D1*
X1447150D1*
X1437307Y748331D1*
X1201087Y718803D2*
X1240457D1*
X1260142Y699118D1*
X1329039D1*
X1338882Y708961D1*
X1063291Y718803D2*
X1201087D1*
X470772Y1236520D2*
Y1144000D1*
X492425Y1122346D1*
X531795D1*
X571165Y1082976D1*
X644984D1*
X694197Y1033764D1*
X1033764D1*
X1073134Y994394D1*
X1082976D1*
X1821165Y718803D2*
Y738488D1*
X1831008Y748331D1*
X1840850D1*
X1870378Y777858D1*
Y895969D1*
X1850693Y915654D1*
Y964866D1*
X1831008Y984551D1*
X1801480D1*
X1781795Y1004236D1*
X1703055D1*
X844787Y1236520D2*
X807386Y1199118D1*
Y1151874D1*
X1218803Y1236520D2*
X1181402Y1199118D1*
Y1151874D1*
X1592819Y1236520D2*
X1555417Y1199118D1*
Y1151874D1*
X1161717Y994394D2*
X1240457D1*
X1082976D2*
X1161717D1*
X518016Y1165654D2*
X581008Y1102661D1*
X654827D1*
X704039Y1053449D1*
X1043606D1*
X1073134Y1023921D1*
X1112504D1*
X836913Y1181402D2*
X852661Y1165654D1*
X892031D1*
X1266047D2*
X1226677D1*
X1210929Y1181402D1*
X1640063Y1165654D2*
X1600693D1*
X1584945Y1181402D1*
X1191244Y1023921D2*
X1299512D1*
X1112504D2*
X1191244D1*
X545575Y1236520D2*
X571165Y1210929D1*
Y1142031D1*
X590850Y1122346D1*
X664669D1*
X713882Y1073134D1*
X1063291D1*
X1082976Y1053449D1*
X945181Y1181402D2*
Y1210929D1*
X919591Y1236520D1*
X1293606D2*
X1319197Y1210929D1*
Y1181402D1*
X1667622Y1236520D2*
X1690322Y1213820D1*
Y1158276D1*
X1220772Y1053449D2*
X1260142D1*
X1279827Y1073134D1*
X1496362D1*
X1506205Y1063291D1*
X1082976Y1053449D2*
X1220772D1*
X837667Y1287751D2*
X829743Y1279827D1*
X1073134D1*
X1447150D1*
Y1272677D1*
D14*
X1778433D1*
D10*
X1817228Y1233882D1*
Y1236520D1*
X521953Y807386D2*
Y1092819D1*
X695181Y1236520D2*
X738488Y1279827D1*
X829743D1*
X1069197Y1236520D2*
X1073134Y1240457D1*
Y1279827D1*
X1443213Y1236520D2*
X1447150Y1240457D1*
Y1272677D1*
X1892031Y1236520D2*
Y1144000D1*
X1817031Y1069000D1*
X1785929D1*
X1773429Y1081500D1*
X1593311D1*
X1555417Y1043606D1*
X1525890D1*
X1516047Y1033764D1*
X1496362D1*
X1476677Y1053449D1*
X1368409D1*
X1309354Y994394D1*
X1279827D1*
X1250299Y964866D1*
X1132189D1*
X769984Y1236520D2*
Y1189276D1*
X777858Y1181402D1*
X1144000Y1236520D2*
Y1189276D1*
X1151874Y1181402D1*
X1518016Y1236520D2*
Y1189276D1*
X1525890Y1181402D1*
X1417622Y590850D2*
Y561323D1*
X1443213Y535732D1*
X1817228D2*
X1791638Y561323D1*
Y630220D1*
X1742425Y679433D1*
X1575102D1*
X1535732Y718803D1*
X1516047D1*
X1496362Y699118D1*
X1388094D1*
X1348724Y738488D1*
X1329039D1*
X1309354Y758173D1*
X1230614D1*
X1210929Y777858D1*
X1201087D1*
X695181Y535732D2*
Y520734D1*
X677690Y503243D1*
X1069197Y535732D2*
X1043606Y561323D1*
Y590850D1*
X695181Y535732D2*
D3*
X1122346Y777858D2*
X1082976D1*
X1073134Y768016D1*
X1043606D1*
X1023921Y748331D1*
X984551D1*
X1201087Y777858D2*
X1122346D1*
X695181Y535732D2*
X671239Y559675D1*
Y607340D1*
X620378Y535732D2*
X590850Y506205D1*
Y482583D1*
X649906D1*
X657184Y475304D1*
X696161D1*
X713282Y492425D1*
X994394D1*
X1368409D1*
X1732583D1*
X1742425Y502268D1*
Y535732D1*
X994394D2*
Y492425D1*
X1368409Y535732D2*
Y492425D1*
X551480Y482583D2*
X545575Y486520D1*
Y535732D1*
X1319197Y590850D2*
Y561323D1*
X1293606Y535732D1*
X919591D2*
X945181Y561323D1*
Y590850D1*
X1667622Y535732D2*
X1693213Y561323D1*
Y581008D1*
X545575Y535732D2*
Y488488D1*
X551480Y482583D1*
X1230614Y689276D2*
X1240457Y679433D1*
X1516047D1*
X1525890Y689276D1*
X1092819D2*
X1230614D1*
X545575Y535732D2*
X571165Y561323D1*
Y630220D1*
X620378Y679433D1*
X1082976D1*
X1092819Y689276D1*
X512110Y482583D2*
X482583D1*
X470772Y494394D1*
Y535732D1*
X807386Y620378D2*
Y573134D1*
X844787Y535732D1*
X1181402Y620378D2*
Y573134D1*
X1218803Y535732D1*
X1555417Y620378D2*
Y573134D1*
X1592819Y535732D1*
X1171559Y748331D2*
X1210929D1*
X1220772Y738488D1*
X1250299D1*
X1260142Y728646D1*
X1299512D1*
X1092819Y748331D2*
X1171559D1*
X470772Y535732D2*
Y579039D1*
X472740Y581008D1*
Y630220D1*
X492425Y649906D1*
X531795D1*
X600693Y718803D1*
X1023921D1*
X1053449Y748331D1*
X1092819D1*
D24*
X1368409Y955024D3*
X1397937Y758173D3*
X955024Y945181D3*
X1063291Y797543D3*
X1250299Y1082976D3*
X1545575Y1073134D3*
X1112504Y1082976D3*
X1043606Y1142031D3*
X1417622D3*
X1800807Y1118886D3*
X675167Y1181500D3*
X1043606Y1181402D3*
X1417622D3*
X1794747Y1187398D3*
X1693917Y1106500D3*
X777858Y590850D3*
X1151874D3*
X1525890D3*
X1151874Y807386D3*
X1821165Y955024D3*
X1693213Y649906D3*
X1821165Y876283D3*
X1614472Y748331D3*
X886126Y984551D3*
X1073134Y886126D3*
X1260142Y827071D3*
X521953Y679433D3*
Y718803D3*
X1112504Y886126D3*
X836913Y590850D3*
X1063291Y718803D3*
X1210929Y590850D3*
X1201087Y718803D3*
X1584945Y590850D3*
X1338882Y708961D3*
X1821165Y797543D3*
X1437307Y748331D3*
X807386Y1151874D3*
X1082976Y994394D3*
X1181402Y1151874D3*
X1161717Y994394D3*
X1555417Y1151874D3*
X1240457Y994394D3*
X1821165Y718803D3*
X1703055Y1004236D3*
X1112504Y1023921D3*
X1191244D3*
X1299512D3*
X836913Y1181402D3*
X1210929D3*
X1584945D3*
X1860535Y423528D3*
X1437307Y856598D3*
X748331Y1004236D3*
X886126Y876283D3*
Y777858D3*
X724472Y1309982D3*
X777858Y1004236D3*
X424575Y1196864D3*
X423528Y876283D3*
X482583Y1092819D3*
X423528Y1102661D3*
X433370Y462898D3*
X640063Y423528D3*
X758173Y443213D3*
X904598Y443818D3*
X1663685Y446613D3*
X1640196Y1305633D3*
X1151874Y915654D3*
X1191244D3*
X1269984Y925496D3*
X1230614Y915654D3*
X1929433Y462898D3*
X1427465Y1023921D3*
X1604630Y1033764D3*
X551480Y1053449D3*
X493917Y925249D3*
X1732583Y1053449D3*
X836913Y1004236D3*
X531795Y423528D3*
X1556070Y447713D3*
X1919591Y1171559D3*
X1941753Y1261109D3*
X450167Y1025249D3*
X423528Y600693D3*
X1939276Y1053449D3*
Y915654D3*
Y758173D3*
Y600693D3*
X945181Y1181402D3*
X1082976Y1053449D3*
X1319197Y1181402D3*
X1220772Y1053449D3*
X1506205Y1063291D3*
X1690322Y1158276D3*
X521953Y807386D3*
X837667Y1287751D3*
X521953Y1092819D3*
X777858Y1181402D3*
X1132189Y964866D3*
X1151874Y1181402D3*
X1525890D3*
X1417622Y590850D3*
X671239Y607340D3*
X984551Y748331D3*
X1043606Y590850D3*
X1122346Y777858D3*
X1201087D3*
X677690Y503243D3*
X590850Y482583D3*
X945181Y590850D3*
X1092819Y689276D3*
X1319197Y590850D3*
X1230614Y689276D3*
X1693213Y581008D3*
X1525890Y689276D3*
X551480Y482583D3*
X807386Y620378D3*
X1092819Y748331D3*
X1181402Y620378D3*
X1171559Y748331D3*
X1555417Y620378D3*
X1299512Y728646D3*
X512110Y482583D3*
X733591Y1360224D2*
D15*
X746907D1*
X915896D2*
X1246907D1*
X1315896D2*
X1534769D1*
X724519Y1355356D2*
X743011D1*
X919792D2*
X1243011D1*
X1319792D2*
X1534769D1*
X719021Y1350487D2*
X740062D1*
X922741D2*
X1240062D1*
X1322741D2*
X1534769D1*
X1628034D2*
X1637005D1*
X718757Y1345618D2*
X737854D1*
X924948D2*
X1237854D1*
X1324948D2*
X1534769D1*
X1628034D2*
X1640794D1*
X718493Y1340749D2*
X736282D1*
X926521D2*
X1236282D1*
X1326521D2*
X1534769D1*
X1628034D2*
X1641165D1*
X717409Y1335881D2*
X735276D1*
X927526D2*
X1235276D1*
X1327526D2*
X1534769D1*
X1628034D2*
X1641526D1*
X715817Y1331012D2*
X734808D1*
X927995D2*
X1234808D1*
X1327995D2*
X1534769D1*
X1628034D2*
X1643011D1*
X714216Y1326143D2*
X734856D1*
X927946D2*
X1234856D1*
X1327946D2*
X1534769D1*
X1628034D2*
X1644593D1*
X712624Y1321274D2*
X735423D1*
X927380D2*
X1235423D1*
X1327380D2*
X1534769D1*
X1628034D2*
X1646165D1*
X709987Y1316406D2*
X736536D1*
X926267D2*
X1236536D1*
X1326267D2*
X1534769D1*
X1628034D2*
X1648196D1*
X706794Y1311537D2*
X738216D1*
X924587D2*
X1238216D1*
X1324587D2*
X1534769D1*
X1628034D2*
X1651204D1*
X703610Y1306668D2*
X740560D1*
X922243D2*
X1240560D1*
X1322243D2*
X1534769D1*
X1628034D2*
X1654212D1*
X700036Y1301799D2*
X743665D1*
X919138D2*
X1243665D1*
X1319138D2*
X1534769D1*
X1628034D2*
X1657396D1*
X694587Y1296930D2*
X747776D1*
X915026D2*
X1247776D1*
X1315026D2*
X1534769D1*
X1628034D2*
X1662327D1*
X689128Y1292062D2*
X728274D1*
X1457360D2*
X1534769D1*
X1628034D2*
X1667259D1*
X681989Y1287193D2*
X723265D1*
X672321Y1282324D2*
X718392D1*
X655310Y1277455D2*
X713528D1*
X415310Y1272587D2*
X448323D1*
X493220D2*
X523128D1*
X568024D2*
X597933D1*
X642819D2*
X672737D1*
X1839675D2*
X1869583D1*
X1914479D2*
X1945950D1*
X410632Y1267718D2*
X438938D1*
X502604D2*
X513743D1*
X577409D2*
X588548D1*
X652214D2*
X663353D1*
X1849060D2*
X1860198D1*
X1923864D2*
X1951546D1*
X408679Y1262849D2*
X435569D1*
X505974D2*
X510374D1*
X580778D2*
X585179D1*
X655583D2*
X659974D1*
X1852429D2*
X1856829D1*
X1927233D2*
X1954075D1*
X408005Y1257980D2*
X434144D1*
X1928659D2*
X1954808D1*
X408005Y1253112D2*
X433978D1*
X1928825D2*
X1954808D1*
X408005Y1248243D2*
X433978D1*
X1928825D2*
X1954808D1*
X408005Y1243374D2*
X433978D1*
X1928825D2*
X1954808D1*
X408005Y1238505D2*
X433978D1*
X1928825D2*
X1954808D1*
X408005Y1233636D2*
X433978D1*
X1928825D2*
X1954808D1*
X408005Y1228768D2*
X433978D1*
X1928825D2*
X1954808D1*
X408005Y1223899D2*
X433978D1*
X1928825D2*
X1954808D1*
X408005Y1219030D2*
X433978D1*
X1928825D2*
X1954808D1*
X408005Y1214161D2*
X434280D1*
X1928522D2*
X1954808D1*
X408005Y1209293D2*
X435989D1*
X505554D2*
X510794D1*
X1852009D2*
X1857249D1*
X1926813D2*
X1954808D1*
X408005Y1204424D2*
X439866D1*
X501677D2*
X514671D1*
X1848142D2*
X1861126D1*
X1922937D2*
X1954808D1*
X408005Y1199555D2*
X454651D1*
X1908151D2*
X1954808D1*
X408005Y1194686D2*
X454651D1*
X1908151D2*
X1954808D1*
X408005Y1189818D2*
X454651D1*
X1908151D2*
X1954808D1*
X408005Y1184949D2*
X454651D1*
X1908151D2*
X1954808D1*
X408005Y1180080D2*
X454651D1*
X1908151D2*
X1954808D1*
X408005Y1175211D2*
X454651D1*
X1908151D2*
X1954808D1*
X408005Y1170343D2*
X454651D1*
X1908151D2*
X1954808D1*
X408005Y1165474D2*
X454651D1*
X1908151D2*
X1954808D1*
X408005Y1160605D2*
X454651D1*
X1908151D2*
X1954808D1*
X408005Y1155736D2*
X454651D1*
X1908151D2*
X1954808D1*
X408005Y1150867D2*
X454651D1*
X1908151D2*
X1954808D1*
X408005Y1145999D2*
X454651D1*
X1908151D2*
X1954808D1*
X408005Y1141130D2*
X454915D1*
X1907888D2*
X1954808D1*
X408005Y1136261D2*
X456702D1*
X1906101D2*
X1954808D1*
X408005Y1131392D2*
X460784D1*
X1902019D2*
X1954808D1*
X408005Y1126524D2*
X465657D1*
X1897146D2*
X1954808D1*
X408005Y1121655D2*
X470521D1*
X1892282D2*
X1954808D1*
X408005Y1116786D2*
X475394D1*
X1887409D2*
X1954808D1*
X408005Y1111917D2*
X480267D1*
X1882536D2*
X1954808D1*
X408005Y1107049D2*
X488763D1*
X1877673D2*
X1954808D1*
X408005Y1102180D2*
X499134D1*
X1872800D2*
X1954808D1*
X408005Y1097311D2*
X497669D1*
X1867937D2*
X1954808D1*
X408005Y1092442D2*
X497259D1*
X1863063D2*
X1954808D1*
X408005Y1087573D2*
X497825D1*
X1858200D2*
X1954808D1*
X408005Y1082705D2*
X499466D1*
X544440D2*
X548841D1*
X1853327D2*
X1954808D1*
X408005Y1077836D2*
X502444D1*
X541452D2*
X553714D1*
X1848464D2*
X1954808D1*
X408005Y1072967D2*
X505833D1*
X538073D2*
X558587D1*
X1843591D2*
X1954808D1*
X408005Y1068098D2*
X505833D1*
X538073D2*
X565901D1*
X1838718D2*
X1954808D1*
X408005Y1063230D2*
X505833D1*
X538073D2*
X642142D1*
X1597634D2*
X1769104D1*
X1833854D2*
X1954808D1*
X408005Y1058361D2*
X505833D1*
X538073D2*
X647005D1*
X1592761D2*
X1773978D1*
X1828981D2*
X1954808D1*
X408005Y1053492D2*
X505833D1*
X538073D2*
X651878D1*
X1587897D2*
X1783548D1*
X1819411D2*
X1954808D1*
X408005Y1048623D2*
X505833D1*
X538073D2*
X656741D1*
X1583024D2*
X1687894D1*
X1718220D2*
X1954808D1*
X408005Y1043755D2*
X505833D1*
X538073D2*
X661614D1*
X1578161D2*
X1680608D1*
X1725495D2*
X1954808D1*
X408005Y1038886D2*
X505833D1*
X538073D2*
X666487D1*
X1573288D2*
X1675745D1*
X1796618D2*
X1954808D1*
X408005Y1034017D2*
X505833D1*
X538073D2*
X671351D1*
X1371569D2*
X1473519D1*
X1568425D2*
X1670872D1*
X1804138D2*
X1954808D1*
X408005Y1029148D2*
X505833D1*
X538073D2*
X676224D1*
X1366696D2*
X1478382D1*
X1561833D2*
X1666009D1*
X1809001D2*
X1954808D1*
X408005Y1024280D2*
X505833D1*
X538073D2*
X681087D1*
X1361833D2*
X1483255D1*
X1529157D2*
X1661194D1*
X1813874D2*
X1954808D1*
X408005Y1019411D2*
X505833D1*
X538073D2*
X687532D1*
X1356960D2*
X1489700D1*
X1522712D2*
X1658343D1*
X1845056D2*
X1954808D1*
X408005Y1014542D2*
X505833D1*
X538073D2*
X1030394D1*
X1352097D2*
X1657415D1*
X1853132D2*
X1954808D1*
X408005Y1009673D2*
X505833D1*
X538073D2*
X931585D1*
X978454D2*
X1035267D1*
X1347224D2*
X1657405D1*
X1858005D2*
X1954808D1*
X408005Y1004804D2*
X505833D1*
X538073D2*
X872376D1*
X899870D2*
X923157D1*
X986892D2*
X1040130D1*
X1342360D2*
X1657405D1*
X1862878D2*
X1954808D1*
X408005Y999936D2*
X505833D1*
X538073D2*
X866946D1*
X905310D2*
X918284D1*
X991755D2*
X1045003D1*
X1337487D2*
X1657405D1*
X1867741D2*
X1954808D1*
X408005Y995067D2*
X505833D1*
X538073D2*
X863831D1*
X908425D2*
X913421D1*
X996628D2*
X1049866D1*
X1332624D2*
X1657405D1*
X1872614D2*
X1954808D1*
X408005Y990198D2*
X505833D1*
X538073D2*
X824544D1*
X1001491D2*
X1054739D1*
X1327751D2*
X1657981D1*
X1877478D2*
X1954808D1*
X408005Y985329D2*
X505833D1*
X538073D2*
X815101D1*
X1006364D2*
X1059603D1*
X1322878D2*
X1660306D1*
X1882331D2*
X1954808D1*
X408005Y980461D2*
X505833D1*
X538073D2*
X810228D1*
X1011237D2*
X1062688D1*
X1316921D2*
X1664866D1*
X1885397D2*
X1954808D1*
X408005Y975592D2*
X505833D1*
X538073D2*
X805364D1*
X1016101D2*
X1067239D1*
X1098708D2*
X1109993D1*
X1283620D2*
X1355159D1*
X1381657D2*
X1669739D1*
X1886472D2*
X1954808D1*
X408005Y970723D2*
X505833D1*
X538073D2*
X800491D1*
X1020974D2*
X1077444D1*
X1088513D2*
X1108206D1*
X1278747D2*
X1349495D1*
X1387321D2*
X1674603D1*
X1886501D2*
X1954808D1*
X408005Y965854D2*
X505833D1*
X538073D2*
X795628D1*
X1025837D2*
X1107513D1*
X1273884D2*
X1346272D1*
X1390554D2*
X1679476D1*
X1726638D2*
X1768060D1*
X1886501D2*
X1954808D1*
X408005Y960986D2*
X505833D1*
X538073D2*
X790755D1*
X1030710D2*
X1107806D1*
X1269011D2*
X1344456D1*
X1392360D2*
X1685247D1*
X1720856D2*
X1772923D1*
X1886501D2*
X1954808D1*
X408005Y956117D2*
X505833D1*
X538073D2*
X785892D1*
X1035573D2*
X1109124D1*
X1264138D2*
X1343733D1*
X1393083D2*
X1775521D1*
X1886501D2*
X1954808D1*
X408005Y951248D2*
X505833D1*
X538073D2*
X781019D1*
X1040446D2*
X1111683D1*
X1258454D2*
X1342044D1*
X1392810D2*
X1775521D1*
X1886501D2*
X1954808D1*
X408005Y946379D2*
X505833D1*
X538073D2*
X776146D1*
X1045319D2*
X1116077D1*
X1148308D2*
X1337171D1*
X1391511D2*
X1775521D1*
X1886501D2*
X1954808D1*
X408005Y941510D2*
X505833D1*
X538073D2*
X771282D1*
X1050183D2*
X1125354D1*
X1139030D2*
X1332308D1*
X1388981D2*
X1775521D1*
X1886501D2*
X1954808D1*
X408005Y936642D2*
X505833D1*
X538073D2*
X766409D1*
X1055056D2*
X1327435D1*
X1384646D2*
X1775521D1*
X1886501D2*
X1954808D1*
X408005Y931773D2*
X505833D1*
X538073D2*
X761546D1*
X924841D2*
X934378D1*
X1059919D2*
X1322571D1*
X1375622D2*
X1775521D1*
X1886696D2*
X1954808D1*
X408005Y926904D2*
X505833D1*
X538073D2*
X756673D1*
X919968D2*
X938665D1*
X1094313D2*
X1317698D1*
X1362878D2*
X1775521D1*
X1891560D2*
X1954808D1*
X408005Y922035D2*
X505833D1*
X538073D2*
X751810D1*
X914499D2*
X947454D1*
X962585D2*
X965423D1*
X1099187D2*
X1314280D1*
X1358015D2*
X1775521D1*
X1896433D2*
X1954808D1*
X408005Y917167D2*
X505833D1*
X538073D2*
X746937D1*
X851179D2*
X970286D1*
X1104060D2*
X1312991D1*
X1353142D2*
X1775521D1*
X1901296D2*
X1954808D1*
X408005Y912298D2*
X505833D1*
X538073D2*
X742063D1*
X846306D2*
X975159D1*
X1108923D2*
X1312923D1*
X1348278D2*
X1775521D1*
X1904772D2*
X1954808D1*
X408005Y907429D2*
X505833D1*
X538073D2*
X737200D1*
X841442D2*
X980022D1*
X1124489D2*
X1312923D1*
X1345163D2*
X1775521D1*
X1906101D2*
X1954808D1*
X408005Y902560D2*
X505833D1*
X538073D2*
X732327D1*
X836569D2*
X984896D1*
X1130769D2*
X1312923D1*
X1345163D2*
X1775521D1*
X1906188D2*
X1954808D1*
X408005Y897692D2*
X505833D1*
X538073D2*
X727464D1*
X831696D2*
X989769D1*
X1134265D2*
X1312923D1*
X1345163D2*
X1775521D1*
X1906188D2*
X1954808D1*
X408005Y892823D2*
X505833D1*
X538073D2*
X722591D1*
X826833D2*
X994632D1*
X1136257D2*
X1312923D1*
X1345163D2*
X1775521D1*
X1906188D2*
X1954808D1*
X408005Y887954D2*
X505833D1*
X538073D2*
X717728D1*
X821960D2*
X999505D1*
X1137136D2*
X1312923D1*
X1345163D2*
X1775521D1*
X1906188D2*
X1954808D1*
X408005Y883085D2*
X505833D1*
X538073D2*
X712854D1*
X817097D2*
X1004368D1*
X1137009D2*
X1312923D1*
X1345163D2*
X1775521D1*
X1906188D2*
X1954808D1*
X408005Y878217D2*
X505833D1*
X538073D2*
X707991D1*
X812224D2*
X1009241D1*
X1135876D2*
X1312923D1*
X1345163D2*
X1775521D1*
X1906188D2*
X1954808D1*
X408005Y873348D2*
X505833D1*
X538073D2*
X703118D1*
X807360D2*
X1014104D1*
X1133552D2*
X1312923D1*
X1345163D2*
X1775521D1*
X1906188D2*
X1954808D1*
X408005Y868479D2*
X505833D1*
X538073D2*
X698245D1*
X802487D2*
X1018978D1*
X1182204D2*
X1312923D1*
X1345163D2*
X1775521D1*
X1906188D2*
X1954808D1*
X408005Y863610D2*
X505833D1*
X538073D2*
X693382D1*
X797624D2*
X1023841D1*
X1187136D2*
X1312923D1*
X1345163D2*
X1775521D1*
X1906188D2*
X1954808D1*
X408005Y858741D2*
X505833D1*
X538073D2*
X688509D1*
X792751D2*
X1028714D1*
X1241130D2*
X1312923D1*
X1345163D2*
X1775521D1*
X1906188D2*
X1954808D1*
X408005Y853873D2*
X505833D1*
X538073D2*
X683646D1*
X787878D2*
X1033587D1*
X1246091D2*
X1312923D1*
X1345163D2*
X1775521D1*
X1906188D2*
X1954808D1*
X408005Y849004D2*
X505833D1*
X538073D2*
X678772D1*
X783015D2*
X1038450D1*
X1270866D2*
X1312923D1*
X1345163D2*
X1775521D1*
X1906188D2*
X1954808D1*
X408005Y844135D2*
X505833D1*
X538073D2*
X673909D1*
X778142D2*
X1043323D1*
X1277800D2*
X1312923D1*
X1345163D2*
X1775521D1*
X1906188D2*
X1954808D1*
X408005Y839266D2*
X505833D1*
X538073D2*
X669036D1*
X773278D2*
X1047171D1*
X1281540D2*
X1312923D1*
X1345163D2*
X1771399D1*
X1906188D2*
X1954808D1*
X408005Y834398D2*
X505833D1*
X538073D2*
X664173D1*
X768405D2*
X1047171D1*
X1283708D2*
X1312923D1*
X1345163D2*
X1766526D1*
X1906188D2*
X1954808D1*
X408005Y829529D2*
X505833D1*
X538073D2*
X659300D1*
X763542D2*
X1047171D1*
X1284714D2*
X1312923D1*
X1345163D2*
X1761663D1*
X1906188D2*
X1954808D1*
X408005Y824660D2*
X504505D1*
X539401D2*
X654427D1*
X758669D2*
X1047171D1*
X1284724D2*
X1312923D1*
X1345163D2*
X1757708D1*
X1906188D2*
X1954808D1*
X408005Y819791D2*
X500677D1*
X543229D2*
X649563D1*
X753796D2*
X1047171D1*
X1283718D2*
X1312923D1*
X1345163D2*
X1756048D1*
X1906188D2*
X1954808D1*
X408005Y814923D2*
X498460D1*
X545446D2*
X644690D1*
X748933D2*
X1045950D1*
X1281569D2*
X1312923D1*
X1345163D2*
X1755833D1*
X1906188D2*
X1954808D1*
X408005Y810054D2*
X497396D1*
X546501D2*
X639827D1*
X744060D2*
X1042073D1*
X1345163D2*
X1752024D1*
X1906188D2*
X1954808D1*
X408005Y805185D2*
X497356D1*
X546550D2*
X634954D1*
X739196D2*
X1039827D1*
X1345163D2*
X1747161D1*
X1906188D2*
X1954808D1*
X408005Y800316D2*
X498304D1*
X545593D2*
X630091D1*
X734323D2*
X1038753D1*
X1348854D2*
X1742288D1*
X1906188D2*
X1954808D1*
X408005Y795448D2*
X500403D1*
X543503D2*
X625218D1*
X729460D2*
X1038685D1*
X1353728D2*
X1737425D1*
X1906188D2*
X1954808D1*
X408005Y790579D2*
X504046D1*
X539860D2*
X561595D1*
X724587D2*
X1039612D1*
X1377976D2*
X1408050D1*
X1633884D2*
X1732552D1*
X1906188D2*
X1954808D1*
X408005Y785710D2*
X510696D1*
X533210D2*
X556429D1*
X719724D2*
X1041683D1*
X1383151D2*
X1402884D1*
X1639060D2*
X1727688D1*
X1906188D2*
X1954808D1*
X408005Y780841D2*
X551556D1*
X714851D2*
X1034192D1*
X1643923D2*
X1722815D1*
X1906188D2*
X1954808D1*
X408005Y775972D2*
X546692D1*
X709978D2*
X1028968D1*
X1648796D2*
X1717952D1*
X1906188D2*
X1954808D1*
X408005Y771104D2*
X541819D1*
X705114D2*
X975862D1*
X993239D2*
X1024104D1*
X1906188D2*
X1954808D1*
X408005Y766235D2*
X536946D1*
X700241D2*
X967767D1*
X1001335D2*
X1019231D1*
X1906188D2*
X1954808D1*
X408005Y761366D2*
X503001D1*
X695378D2*
X963665D1*
X1906188D2*
X1954808D1*
X408005Y756497D2*
X497688D1*
X690505D2*
X961272D1*
X1906188D2*
X1954808D1*
X408005Y751629D2*
X492815D1*
X685642D2*
X960081D1*
X1906188D2*
X1954808D1*
X408005Y746760D2*
X487952D1*
X680769D2*
X959905D1*
X1906188D2*
X1954808D1*
X408005Y741891D2*
X483079D1*
X675896D2*
X960726D1*
X1906188D2*
X1954808D1*
X408005Y737022D2*
X478743D1*
X671032D2*
X962659D1*
X1906188D2*
X1954808D1*
X408005Y732154D2*
X476702D1*
X1906188D2*
X1954808D1*
X408005Y727285D2*
X476302D1*
X1906188D2*
X1954808D1*
X408005Y722416D2*
X476302D1*
X1906188D2*
X1954808D1*
X408005Y717547D2*
X476302D1*
X1906188D2*
X1954808D1*
X408005Y712678D2*
X476302D1*
X1906188D2*
X1954808D1*
X408005Y707810D2*
X476302D1*
X1906188D2*
X1954808D1*
X408005Y702941D2*
X476302D1*
X1906188D2*
X1954808D1*
X408005Y698072D2*
X476302D1*
X1906188D2*
X1954808D1*
X408005Y693203D2*
X476302D1*
X1906188D2*
X1954808D1*
X408005Y688335D2*
X476302D1*
X1906188D2*
X1954808D1*
X408005Y683466D2*
X473870D1*
X1906188D2*
X1954808D1*
X408005Y678597D2*
X468997D1*
X1906188D2*
X1954808D1*
X408005Y673728D2*
X464124D1*
X1906188D2*
X1954808D1*
X408005Y668860D2*
X459261D1*
X1906188D2*
X1954808D1*
X408005Y663991D2*
X454388D1*
X1906188D2*
X1954808D1*
X408005Y659122D2*
X449524D1*
X1906188D2*
X1954808D1*
X408005Y654253D2*
X444651D1*
X1906188D2*
X1954808D1*
X408005Y649385D2*
X440022D1*
X1906188D2*
X1954808D1*
X408005Y644516D2*
X437581D1*
X1906188D2*
X1954808D1*
X408005Y639647D2*
X436937D1*
X1906188D2*
X1954808D1*
X408005Y634778D2*
X436937D1*
X1906188D2*
X1954808D1*
X408005Y629909D2*
X436937D1*
X1906188D2*
X1954808D1*
X408005Y625041D2*
X436937D1*
X1906188D2*
X1954808D1*
X408005Y620172D2*
X436937D1*
X1906188D2*
X1954808D1*
X408005Y615303D2*
X436937D1*
X1907888D2*
X1954808D1*
X408005Y610434D2*
X436937D1*
X1912761D2*
X1954808D1*
X408005Y605566D2*
X436937D1*
X1917624D2*
X1954808D1*
X408005Y600697D2*
X436937D1*
X1922497D2*
X1954808D1*
X408005Y595828D2*
X435442D1*
X1927360D2*
X1954808D1*
X408005Y590959D2*
X430569D1*
X1932233D2*
X1954808D1*
X408005Y586091D2*
X425706D1*
X1937097D2*
X1954808D1*
X408005Y581222D2*
X420833D1*
X1941970D2*
X1954808D1*
X408005Y576353D2*
X416038D1*
X1946765D2*
X1954808D1*
X408005Y571484D2*
X413235D1*
X1949567D2*
X1954808D1*
X408005Y566615D2*
X412327D1*
X1950476D2*
X1954808D1*
X408005Y561747D2*
X412327D1*
X1950476D2*
X1954808D1*
X408005Y556878D2*
X412327D1*
X1950476D2*
X1954808D1*
X408005Y552009D2*
X412327D1*
X1950476D2*
X1954808D1*
X408005Y547140D2*
X412327D1*
X1950476D2*
X1954808D1*
X408005Y542272D2*
X412327D1*
X1950476D2*
X1954808D1*
X408005Y537403D2*
X412327D1*
X1950476D2*
X1954808D1*
X408005Y532534D2*
X412327D1*
X1950476D2*
X1954808D1*
X408005Y527665D2*
X412327D1*
X1950476D2*
X1954808D1*
X408005Y522797D2*
X412327D1*
X1950476D2*
X1954808D1*
X408005Y517928D2*
X412327D1*
X1950476D2*
X1954808D1*
X408000Y513059D2*
X412327D1*
X1950476D2*
X1954808D1*
X408220Y508190D2*
X412327D1*
X1950476D2*
X1954583D1*
X408483Y503322D2*
X412815D1*
X1949987D2*
X1954319D1*
X409021Y498453D2*
X415003D1*
X1947800D2*
X1953782D1*
X409792Y493584D2*
X419466D1*
X1943337D2*
X1953011D1*
X410749Y488715D2*
X424329D1*
X1938474D2*
X1952054D1*
X412048Y483846D2*
X429202D1*
X1933601D2*
X1950755D1*
X413454Y478978D2*
X434065D1*
X1928044D2*
X1949349D1*
X415319Y474109D2*
X438938D1*
X1216159D2*
X1346644D1*
X1766384D2*
X1947483D1*
X417233Y469240D2*
X443802D1*
X1219987D2*
X1342815D1*
X1761521D2*
X1945569D1*
X419714Y464371D2*
X448675D1*
X1222897D2*
X1339905D1*
X1756647D2*
X1943089D1*
X422233Y459503D2*
X453548D1*
X1225065D2*
X1337737D1*
X1751218D2*
X1940569D1*
X425397Y454634D2*
X458411D1*
X730505D2*
X934769D1*
X1226599D2*
X1336204D1*
X1426599D2*
X1937405D1*
X428698Y449765D2*
X463284D1*
X725632D2*
X934769D1*
X1227565D2*
X1335237D1*
X1427565D2*
X1934104D1*
X432634Y444896D2*
X468147D1*
X720769D2*
X934769D1*
X1228005D2*
X1334798D1*
X1428005D2*
X1930169D1*
X436979Y440028D2*
X473460D1*
X715769D2*
X934769D1*
X1227927D2*
X1334876D1*
X1427927D2*
X1925823D1*
X441853Y435159D2*
X934769D1*
X1227331D2*
X1335481D1*
X1427331D2*
X1920950D1*
X447683Y430290D2*
X934769D1*
X1226188D2*
X1336614D1*
X1426188D2*
X1915120D1*
X454323Y425421D2*
X934769D1*
X1224470D2*
X1338333D1*
X1424470D2*
X1908479D1*
X462233Y420552D2*
X934769D1*
X1222087D2*
X1340716D1*
X1422087D2*
X1900569D1*
X472360Y415684D2*
X934769D1*
X1218923D2*
X1343880D1*
X1418923D2*
X1890442D1*
X487097Y410815D2*
X934769D1*
X1214743D2*
X1348060D1*
X1414743D2*
X1875706D1*
X498833Y1201944D2*
X518864Y1201994D1*
X517198Y1202917D1*
X515463Y1204170D1*
X513916Y1205648D1*
X512823Y1206927D1*
X511621Y1208698D1*
X510672Y1210618D1*
X510084Y1212194D1*
X509561Y1214262D1*
X509325Y1216395D1*
X509284Y1224827D1*
X509344Y1256866D1*
X509528Y1258589D1*
X510036Y1260673D1*
X510598Y1262258D1*
X511528Y1264179D1*
X512716Y1265962D1*
X513787Y1267260D1*
X515320Y1268749D1*
X517201Y1270124D1*
X519066Y1271140D1*
X520448Y1271747D1*
X522498Y1272348D1*
X524152Y1272655D1*
X526293Y1272810D1*
X565921Y1272750D1*
X567644Y1272567D1*
X569728Y1272059D1*
X571314Y1271497D1*
X573234Y1270567D1*
X575018Y1269378D1*
X576315Y1268308D1*
X577804Y1266775D1*
X579074Y1265048D1*
X579927Y1263598D1*
X580802Y1261647D1*
X581403Y1259597D1*
X581710Y1257943D1*
X581865Y1255801D1*
Y1222324D1*
X583044Y1221074D1*
X584087Y1219827D1*
X584147Y1256866D1*
X584331Y1258589D1*
X584839Y1260673D1*
X585401Y1262258D1*
X586331Y1264179D1*
X587628Y1266115D1*
X589034Y1267707D1*
X590123Y1268749D1*
X591850Y1270019D1*
X593300Y1270872D1*
X595251Y1271747D1*
X597301Y1272348D1*
X598955Y1272654D1*
X601096Y1272810D1*
X640724Y1272750D1*
X642447Y1272567D1*
X644531Y1272059D1*
X646117Y1271497D1*
X648037Y1270566D1*
X649821Y1269378D1*
X651119Y1268308D1*
X652608Y1266775D1*
X653877Y1265048D1*
X654730Y1263598D1*
X655605Y1261647D1*
X656206Y1259597D1*
X656513Y1257943D1*
X656668Y1255801D1*
X656669Y1222324D1*
X658886Y1220103D1*
X658924Y1256555D1*
X659134Y1258589D1*
X659691Y1260849D1*
X660467Y1262826D1*
X661134Y1264179D1*
X662323Y1265962D1*
X663393Y1267260D1*
X664926Y1268749D1*
X666653Y1270019D1*
X668103Y1270872D1*
X670054Y1271747D1*
X672104Y1272348D1*
X673758Y1272654D1*
X675899Y1272810D1*
X709377D1*
X728343Y1291705D1*
X730326Y1293146D1*
X732510Y1294259D1*
X734841Y1295017D1*
X737263Y1295400D1*
X743488Y1295448D1*
X749787D1*
X747873Y1297352D1*
X746206Y1299214D1*
X744642Y1301164D1*
X743187Y1303196D1*
X741843Y1305304D1*
X740615Y1307482D1*
X739508Y1309722D1*
X738523Y1312020D1*
X737664Y1314367D1*
X736933Y1316758D1*
X736333Y1319185D1*
X735866Y1321640D1*
X735532Y1324117D1*
X735333Y1326609D1*
X735269Y1329108D1*
X735340Y1331607D1*
X735547Y1334098D1*
X735888Y1336574D1*
X736363Y1339028D1*
X736970Y1341453D1*
X737708Y1343842D1*
X738574Y1346186D1*
X739565Y1348481D1*
X740680Y1350719D1*
X741914Y1352892D1*
X743264Y1354996D1*
X744726Y1357024D1*
X746295Y1358969D1*
X747968Y1360827D1*
X749739Y1362591D1*
X752464Y1364947D1*
X746515Y1364242D1*
X739484Y1362563D1*
X732702Y1360082D1*
X726252Y1356831D1*
X719819Y1352515D1*
X718572Y1351467D1*
X717836Y1338729D1*
X711494Y1319491D1*
X700375Y1302559D1*
X685244Y1289092D1*
X667135Y1280012D1*
X647758Y1276015D1*
X426345Y1276009D1*
X420838Y1275468D1*
X416689Y1273917D1*
X413072Y1271350D1*
X410236Y1267940D1*
X408371Y1263916D1*
X407501Y1258962D1*
X407500Y512460D1*
X408092Y501181D1*
X409805Y490361D1*
X412639Y479786D1*
X416563Y469566D1*
X421533Y459810D1*
X427496Y450629D1*
X434385Y442121D1*
X442126Y434380D1*
X450634Y427492D1*
X459816Y421530D1*
X469572Y416560D1*
X479793Y412637D1*
X490368Y409804D1*
X501181Y408092D1*
X512464Y407500D1*
X935259D1*
X935269Y457128D1*
X732489Y457119D1*
X715644Y440341D1*
X713661Y438900D1*
X711477Y437787D1*
X709145Y437029D1*
X706724Y436646D1*
X700499Y436598D1*
X649516Y436646D1*
X647095Y437029D1*
X645910Y437364D1*
X642406Y437434D1*
X481357Y437482D1*
X478936Y437865D1*
X476605Y438623D1*
X474421Y439736D1*
X472437Y441177D1*
X468001Y445545D1*
X416570Y497044D1*
X415129Y499027D1*
X414017Y501211D1*
X413259Y503542D1*
X412876Y505963D1*
X412827Y512189D1*
X412876Y567470D1*
X413259Y569891D1*
X414017Y572222D1*
X415129Y574406D1*
X416570Y576389D1*
X420938Y580826D1*
X437435Y597322D1*
X437482Y641289D1*
X437865Y643710D1*
X438623Y646041D1*
X439736Y648225D1*
X441177Y650208D1*
X445545Y654645D1*
X476805Y685905D1*
X476852Y729871D1*
X477235Y732292D1*
X477993Y734624D1*
X479106Y736808D1*
X480547Y738791D1*
X484915Y743227D1*
X501965Y760209D1*
X503948Y761650D1*
X506132Y762763D1*
X508464Y763520D1*
X510885Y763904D1*
X517110Y763952D1*
X535167D1*
X561020Y789737D1*
X563003Y791178D1*
X565187Y792290D1*
X567519Y793048D1*
X569940Y793431D1*
X576165Y793480D1*
X623753D1*
X816926Y986587D1*
X818909Y988028D1*
X821093Y989141D1*
X823424Y989898D1*
X825845Y990282D1*
X832071Y990330D1*
X862628D1*
X863110Y992029D1*
X863768Y993812D1*
X864564Y995538D1*
X865492Y997196D1*
X866548Y998776D1*
X867724Y1000268D1*
X869014Y1001663D1*
X870409Y1002953D1*
X871902Y1004129D1*
X873482Y1005185D1*
X875139Y1006114D1*
X876865Y1006909D1*
X878648Y1007567D1*
X880477Y1008083D1*
X882340Y1008453D1*
X884227Y1008677D1*
X886126Y1008751D1*
X888025Y1008677D1*
X889912Y1008453D1*
X891775Y1008083D1*
X893604Y1007567D1*
X895387Y1006909D1*
X897113Y1006114D1*
X898770Y1005185D1*
X900350Y1004129D1*
X901843Y1002953D1*
X903238Y1001663D1*
X904528Y1000268D1*
X905704Y998776D1*
X906760Y997196D1*
X907688Y995538D1*
X908484Y993812D1*
X909142Y992029D1*
X909526Y990665D1*
X925193Y1006272D1*
X927176Y1007713D1*
X929361Y1008826D1*
X931692Y1009583D1*
X934113Y1009967D1*
X940339Y1010015D1*
X975934Y1009967D1*
X978355Y1009583D1*
X980687Y1008826D1*
X982871Y1007713D1*
X984854Y1006272D1*
X989290Y1001904D1*
X1059925Y931269D1*
X1084202Y931227D1*
X1086623Y930843D1*
X1088954Y930086D1*
X1091139Y928973D1*
X1093122Y927532D1*
X1097558Y923164D1*
X1110478Y910244D1*
X1112504Y910326D1*
X1114403Y910251D1*
X1116290Y910028D1*
X1118153Y909657D1*
X1119982Y909142D1*
X1121765Y908484D1*
X1123491Y907688D1*
X1125148Y906760D1*
X1126728Y905704D1*
X1128221Y904528D1*
X1129616Y903238D1*
X1130906Y901843D1*
X1132082Y900350D1*
X1133138Y898770D1*
X1134066Y897113D1*
X1134862Y895387D1*
X1135520Y893604D1*
X1136035Y891775D1*
X1136406Y889912D1*
X1136629Y888025D1*
X1136704Y886126D1*
X1136629Y884227D1*
X1136406Y882340D1*
X1136035Y880477D1*
X1135520Y878648D1*
X1134862Y876865D1*
X1134066Y875139D1*
X1133138Y873482D1*
X1132292Y872216D1*
X1172785Y872172D1*
X1175206Y871788D1*
X1177537Y871031D1*
X1179721Y869918D1*
X1181704Y868477D1*
X1186141Y864109D1*
X1187874Y862376D1*
X1231840Y862329D1*
X1234261Y861946D1*
X1236592Y861188D1*
X1238776Y860075D1*
X1240759Y858634D1*
X1245196Y854266D1*
X1250285Y849177D1*
X1252664Y850086D1*
X1254492Y850602D1*
X1256356Y850973D1*
X1258243Y851196D1*
X1260142Y851271D1*
X1262040Y851196D1*
X1263927Y850973D1*
X1265791Y850602D1*
X1267620Y850086D1*
X1269403Y849429D1*
X1271128Y848633D1*
X1272786Y847705D1*
X1274366Y846649D1*
X1275858Y845473D1*
X1277254Y844183D1*
X1278544Y842788D1*
X1279720Y841295D1*
X1280776Y839715D1*
X1281704Y838057D1*
X1282500Y836332D1*
X1283157Y834549D1*
X1283673Y832720D1*
X1284044Y830857D1*
X1284267Y828970D1*
X1284342Y827071D1*
X1284267Y825172D1*
X1284044Y823285D1*
X1283673Y821421D1*
X1283157Y819593D1*
X1282500Y817810D1*
X1281704Y816084D1*
X1280776Y814426D1*
X1279930Y813161D1*
X1313414Y813165D1*
X1313466Y916879D1*
X1313850Y919300D1*
X1314607Y921632D1*
X1315720Y923816D1*
X1317161Y925799D1*
X1321529Y930235D1*
X1344296Y953002D1*
X1344209Y955024D1*
X1344284Y956922D1*
X1344507Y958809D1*
X1344878Y960673D1*
X1345394Y962502D1*
X1346052Y964285D1*
X1346847Y966010D1*
X1347776Y967668D1*
X1348831Y969248D1*
X1350008Y970740D1*
X1351297Y972136D1*
X1352693Y973425D1*
X1354185Y974602D1*
X1355765Y975658D1*
X1357423Y976586D1*
X1359149Y977382D1*
X1360931Y978039D1*
X1362760Y978555D1*
X1364624Y978926D1*
X1366511Y979149D1*
X1368409Y979224D1*
X1370308Y979149D1*
X1372195Y978926D1*
X1374059Y978555D1*
X1375888Y978039D1*
X1377670Y977382D1*
X1379396Y976586D1*
X1381054Y975658D1*
X1382634Y974602D1*
X1384126Y973425D1*
X1385521Y972136D1*
X1386811Y970740D1*
X1387988Y969248D1*
X1389043Y967668D1*
X1389972Y966010D1*
X1390767Y964285D1*
X1391425Y962502D1*
X1391941Y960673D1*
X1392312Y958809D1*
X1392535Y956922D1*
X1392609Y955024D1*
X1392535Y953125D1*
X1392312Y951238D1*
X1391941Y949374D1*
X1391425Y947545D1*
X1390767Y945763D1*
X1389972Y944037D1*
X1389043Y942379D1*
X1387988Y940799D1*
X1386811Y939307D1*
X1385521Y937912D1*
X1384126Y936622D1*
X1382634Y935445D1*
X1381054Y934390D1*
X1379396Y933461D1*
X1377670Y932666D1*
X1375888Y932008D1*
X1374059Y931492D1*
X1372195Y931122D1*
X1370308Y930898D1*
X1368409Y930824D1*
X1366385Y930913D1*
X1344659Y909182D1*
X1344661Y804023D1*
X1355201Y793473D1*
X1369635Y793431D1*
X1372056Y793048D1*
X1374387Y792291D1*
X1376572Y791178D1*
X1378555Y789737D1*
X1382991Y785369D1*
X1388080Y780279D1*
X1390459Y781189D1*
X1392288Y781705D1*
X1394151Y782075D1*
X1396038Y782299D1*
X1397937Y782373D1*
X1399961Y782284D1*
X1407477Y789737D1*
X1409460Y791178D1*
X1411644Y792291D1*
X1413975Y793048D1*
X1416396Y793432D1*
X1422622Y793480D1*
X1625541Y793432D1*
X1627962Y793048D1*
X1630293Y792291D1*
X1632477Y791178D1*
X1634460Y789737D1*
X1638896Y785369D1*
X1650477Y773788D1*
X1716275Y773795D1*
X1756337Y813862D1*
X1756380Y818454D1*
X1756763Y820875D1*
X1757521Y823206D1*
X1758633Y825390D1*
X1760074Y827374D1*
X1764442Y831810D1*
X1776023Y843390D1*
X1776017Y958388D1*
X1765476Y968936D1*
X1729209Y968930D1*
X1723043Y962830D1*
X1721060Y961389D1*
X1718876Y960276D1*
X1716544Y959519D1*
X1714123Y959136D1*
X1707898Y959087D1*
X1691987Y959136D1*
X1689566Y959519D1*
X1687235Y960276D1*
X1685050Y961389D1*
X1683067Y962830D1*
X1678631Y967198D1*
X1661649Y984248D1*
X1660208Y986232D1*
X1659095Y988416D1*
X1658338Y990747D1*
X1657954Y993168D1*
X1657906Y999394D1*
X1657954Y1015304D1*
X1658338Y1017725D1*
X1659095Y1020057D1*
X1660208Y1022241D1*
X1661649Y1024224D1*
X1666017Y1028660D1*
X1683067Y1045642D1*
X1685050Y1047083D1*
X1687235Y1048196D1*
X1689566Y1048953D1*
X1691987Y1049337D1*
X1698213Y1049385D1*
X1714123Y1049337D1*
X1716544Y1048954D1*
X1718876Y1048196D1*
X1721060Y1047083D1*
X1723043Y1045642D1*
X1727479Y1041274D1*
X1729212Y1039541D1*
X1792863Y1039494D1*
X1795285Y1039111D1*
X1797616Y1038354D1*
X1799800Y1037241D1*
X1801783Y1035800D1*
X1806219Y1031432D1*
X1817800Y1019851D1*
X1842076Y1019809D1*
X1844497Y1019426D1*
X1846828Y1018668D1*
X1849013Y1017556D1*
X1850996Y1016115D1*
X1855432Y1011747D1*
X1882257Y984854D1*
X1883697Y982871D1*
X1884810Y980687D1*
X1885568Y978355D1*
X1885951Y975934D1*
X1885999Y969709D1*
Y931965D1*
X1901942Y915956D1*
X1903382Y913973D1*
X1904495Y911789D1*
X1905253Y909458D1*
X1905636Y907037D1*
X1905684Y900811D1*
Y617012D1*
X1946233Y576389D1*
X1947674Y574406D1*
X1948787Y572222D1*
X1949544Y569891D1*
X1949928Y567470D1*
X1949976Y561244D1*
X1949928Y505963D1*
X1949544Y503542D1*
X1948787Y501211D1*
X1947674Y499027D1*
X1946233Y497044D1*
X1941865Y492608D1*
X1929736Y480547D1*
X1927753Y479106D1*
X1925569Y477993D1*
X1923237Y477236D1*
X1920816Y476852D1*
X1914591Y476804D1*
X1768585D1*
X1752570Y460862D1*
X1750587Y459421D1*
X1748403Y458308D1*
X1746072Y457550D1*
X1743651Y457167D1*
X1737425Y457119D1*
X1425384D1*
X1426484Y453000D1*
X1426948Y450544D1*
X1427279Y448066D1*
X1427474Y445574D1*
X1427535Y443213D1*
X1427467Y440714D1*
X1427264Y438222D1*
X1426926Y435746D1*
X1426455Y433291D1*
X1425852Y430865D1*
X1425117Y428476D1*
X1424255Y426129D1*
X1423267Y423833D1*
X1422156Y421594D1*
X1420925Y419418D1*
X1419578Y417313D1*
X1418119Y415283D1*
X1416552Y413335D1*
X1414883Y411475D1*
X1413114Y409708D1*
X1410575Y407495D1*
X1850339Y407500D1*
X1861622Y408092D1*
X1872442Y409805D1*
X1883017Y412640D1*
X1893237Y416563D1*
X1902991Y421533D1*
X1912174Y427497D1*
X1920682Y434386D1*
X1928423Y442127D1*
X1935311Y450634D1*
X1941273Y459816D1*
X1946243Y469572D1*
X1950166Y479794D1*
X1953000Y490368D1*
X1954712Y501181D1*
X1955303Y512464D1*
Y1258919D1*
X1954596Y1262789D1*
X1953163Y1266159D1*
X1951027Y1269134D1*
X1948289Y1271569D1*
X1945087Y1273342D1*
X1941987Y1274249D1*
X1798955Y1274250D1*
X1800396Y1272806D1*
X1837264Y1272777D1*
X1839298Y1272567D1*
X1841382Y1272059D1*
X1842967Y1271497D1*
X1844888Y1270566D1*
X1846824Y1269269D1*
X1848415Y1267864D1*
X1849458Y1266775D1*
X1850727Y1265048D1*
X1851581Y1263598D1*
X1852456Y1261647D1*
X1853056Y1259597D1*
X1853363Y1257943D1*
X1853519Y1255801D1*
X1853459Y1216173D1*
X1853275Y1214450D1*
X1852768Y1212366D1*
X1852205Y1210781D1*
X1851275Y1208860D1*
X1850087Y1207077D1*
X1849016Y1205779D1*
X1847483Y1204290D1*
X1845756Y1203021D1*
X1844307Y1202167D1*
X1843832Y1201944D1*
X1865134Y1201884D1*
X1865654Y1201839D1*
X1864372Y1202473D1*
X1862589Y1203661D1*
X1861291Y1204732D1*
X1859802Y1206265D1*
X1858533Y1207992D1*
X1857679Y1209441D1*
X1856804Y1211392D1*
X1856203Y1213443D1*
X1855897Y1215097D1*
X1855741Y1217238D1*
X1855801Y1256866D1*
X1855985Y1258589D1*
X1856492Y1260673D1*
X1857055Y1262258D1*
X1857985Y1264179D1*
X1859173Y1265962D1*
X1860243Y1267260D1*
X1861777Y1268749D1*
X1863504Y1270019D1*
X1864953Y1270872D1*
X1866904Y1271747D1*
X1868954Y1272348D1*
X1870608Y1272654D1*
X1872750Y1272810D1*
X1912378Y1272750D1*
X1914101Y1272567D1*
X1916361Y1272010D1*
X1918338Y1271234D1*
X1919691Y1270567D1*
X1921474Y1269378D1*
X1922772Y1268308D1*
X1924261Y1266775D1*
X1925530Y1265048D1*
X1926384Y1263598D1*
X1927259Y1261647D1*
X1927860Y1259597D1*
X1928166Y1257943D1*
X1928322Y1255801D1*
X1928262Y1216173D1*
X1928078Y1214450D1*
X1927571Y1212366D1*
X1927008Y1210781D1*
X1926078Y1208860D1*
X1924890Y1207077D1*
X1923820Y1205779D1*
X1922286Y1204290D1*
X1920559Y1203021D1*
X1919110Y1202167D1*
X1917159Y1201292D1*
X1915109Y1200692D1*
X1913455Y1200385D1*
X1911313Y1200230D1*
X1907660Y1200229D1*
X1907653Y1144000D1*
X1907460Y1141556D1*
X1906888Y1139173D1*
X1905950Y1136908D1*
X1904669Y1134818D1*
X1903077Y1132954D1*
X1827177Y1057121D1*
X1825194Y1055681D1*
X1823010Y1054568D1*
X1820678Y1053810D1*
X1818257Y1053427D1*
X1812031Y1053379D1*
X1784704Y1053427D1*
X1782282Y1053810D1*
X1779951Y1054568D1*
X1777767Y1055681D1*
X1775784Y1057121D1*
X1771348Y1061490D1*
X1766963Y1065875D1*
X1599787Y1065879D1*
X1565563Y1031728D1*
X1563579Y1030287D1*
X1561395Y1029174D1*
X1559064Y1028417D1*
X1556643Y1028033D1*
X1550417Y1027985D1*
X1532361D1*
X1526192Y1021885D1*
X1524209Y1020444D1*
X1522025Y1019332D1*
X1519694Y1018574D1*
X1517273Y1018191D1*
X1511047Y1018142D1*
X1495137Y1018191D1*
X1492715Y1018574D1*
X1490384Y1019332D1*
X1488200Y1020444D1*
X1486217Y1021885D1*
X1481781Y1026253D1*
X1470200Y1037834D1*
X1374871Y1037827D1*
X1320400Y983348D1*
X1318536Y981756D1*
X1316446Y980475D1*
X1314182Y979537D1*
X1311798Y978965D1*
X1309354Y978772D1*
X1286298D1*
X1260444Y952988D1*
X1258461Y951547D1*
X1256277Y950434D1*
X1253946Y949676D1*
X1251525Y949293D1*
X1245299Y949245D1*
X1150680D1*
X1149301Y947754D1*
X1147906Y946464D1*
X1146413Y945288D1*
X1144833Y944232D1*
X1143176Y943304D1*
X1141450Y942508D1*
X1139667Y941851D1*
X1137838Y941335D1*
X1135975Y940964D1*
X1134088Y940741D1*
X1132189Y940666D1*
X1130290Y940741D1*
X1128403Y940964D1*
X1126540Y941335D1*
X1124711Y941851D1*
X1122928Y942508D1*
X1121202Y943304D1*
X1119545Y944232D1*
X1117965Y945288D1*
X1116472Y946464D1*
X1115077Y947754D1*
X1113787Y949149D1*
X1112611Y950642D1*
X1111555Y952222D1*
X1110627Y953880D1*
X1109831Y955605D1*
X1109173Y957388D1*
X1108658Y959217D1*
X1108287Y961080D1*
X1108064Y962967D1*
X1107989Y964866D1*
X1108064Y966765D1*
X1108287Y968652D1*
X1108658Y970516D1*
X1109173Y972344D1*
X1109831Y974127D1*
X1110627Y975853D1*
X1111555Y977511D1*
X1112400Y978776D1*
X1101453Y978772D1*
X1100088Y977282D1*
X1098693Y975992D1*
X1097201Y974815D1*
X1095621Y973760D1*
X1093963Y972831D1*
X1092237Y972036D1*
X1090455Y971378D1*
X1088626Y970862D1*
X1086762Y970492D1*
X1084875Y970268D1*
X1082976Y970194D1*
X1081078Y970268D1*
X1079191Y970492D1*
X1077327Y970862D1*
X1075498Y971378D1*
X1073715Y972036D1*
X1071990Y972831D1*
X1070332Y973760D1*
X1068752Y974815D1*
X1067260Y975992D1*
X1065864Y977282D1*
X1064575Y978677D1*
X1063398Y980169D1*
X1062342Y981749D1*
X1060889Y984546D1*
X1027292Y1018144D1*
X692971Y1018191D1*
X690550Y1018574D1*
X688219Y1019331D1*
X686035Y1020444D1*
X684052Y1021885D1*
X679615Y1026253D1*
X638508Y1067361D1*
X571165Y1067355D1*
X568722Y1067547D1*
X566338Y1068120D1*
X564073Y1069058D1*
X561983Y1070338D1*
X560116Y1071934D1*
X545363Y1086687D1*
X544311Y1083558D1*
X543515Y1081832D1*
X542587Y1080174D1*
X541531Y1078594D1*
X540355Y1077102D1*
X539065Y1075707D1*
X537570Y1074339D1*
X537574Y825876D1*
X539065Y824498D1*
X540355Y823102D1*
X541531Y821610D1*
X542587Y820030D1*
X543515Y818372D1*
X544311Y816647D1*
X544968Y814864D1*
X545484Y813035D1*
X545855Y811172D1*
X546078Y809285D1*
X546153Y807386D1*
X546078Y805487D1*
X545855Y803600D1*
X545484Y801736D1*
X544968Y799908D1*
X544311Y798125D1*
X543515Y796399D1*
X542587Y794741D1*
X541531Y793161D1*
X540355Y791669D1*
X539065Y790274D1*
X537669Y788984D1*
X536177Y787808D1*
X534597Y786752D1*
X532939Y785823D1*
X531214Y785028D1*
X529431Y784370D1*
X527602Y783854D1*
X525738Y783484D1*
X523851Y783260D1*
X521953Y783186D1*
X520054Y783260D1*
X518167Y783484D1*
X516303Y783854D1*
X514475Y784370D1*
X512692Y785028D1*
X510966Y785823D1*
X509308Y786752D1*
X507728Y787808D1*
X506236Y788984D1*
X504841Y790274D1*
X503551Y791669D1*
X502375Y793161D1*
X501319Y794741D1*
X500390Y796399D1*
X499595Y798125D1*
X498937Y799908D1*
X498421Y801736D1*
X498051Y803600D1*
X497827Y805487D1*
X497753Y807386D1*
X497827Y809285D1*
X498051Y811172D1*
X498421Y813035D1*
X498937Y814864D1*
X499595Y816647D1*
X500390Y818372D1*
X501319Y820030D1*
X502375Y821610D1*
X503551Y823102D1*
X504841Y824498D1*
X506335Y825866D1*
X506331Y1074329D1*
X504841Y1075707D1*
X503551Y1077102D1*
X502375Y1078594D1*
X501319Y1080174D1*
X500390Y1081832D1*
X499595Y1083558D1*
X498937Y1085341D1*
X498421Y1087170D1*
X498051Y1089033D1*
X497827Y1090920D1*
X497753Y1092819D1*
X497827Y1094718D1*
X498051Y1096605D1*
X498421Y1098468D1*
X498937Y1100297D1*
X499595Y1102080D1*
X500390Y1103805D1*
X501319Y1105463D1*
X502164Y1106729D1*
X491200Y1106773D1*
X488778Y1107157D1*
X486447Y1107914D1*
X484263Y1109027D1*
X482280Y1110468D1*
X477844Y1114836D1*
X458893Y1133855D1*
X457452Y1135838D1*
X456339Y1138022D1*
X455582Y1140353D1*
X455198Y1142774D1*
X455150Y1149000D1*
Y1200221D1*
X450425Y1200289D1*
X448702Y1200473D1*
X446618Y1200980D1*
X445033Y1201543D1*
X443112Y1202473D1*
X441329Y1203661D1*
X440031Y1204732D1*
X438542Y1206265D1*
X437273Y1207992D1*
X436419Y1209441D1*
X435544Y1211392D1*
X434944Y1213443D1*
X434637Y1215097D1*
X434482Y1217238D1*
X434541Y1256866D1*
X434725Y1258589D1*
X435232Y1260673D1*
X435795Y1262258D1*
X436725Y1264179D1*
X437913Y1265962D1*
X438984Y1267260D1*
X440517Y1268749D1*
X442244Y1270018D1*
X443693Y1270872D1*
X445644Y1271747D1*
X447880Y1272396D1*
X449981Y1272712D1*
X451490Y1272810D1*
X491118Y1272750D1*
X492841Y1272567D1*
X494925Y1272059D1*
X496510Y1271497D1*
X498431Y1270567D1*
X500214Y1269378D1*
X501512Y1268308D1*
X503001Y1266775D1*
X504271Y1265048D1*
X505124Y1263598D1*
X505999Y1261647D1*
X506600Y1259597D1*
X506906Y1257943D1*
X507062Y1255801D1*
X507002Y1216173D1*
X506819Y1214450D1*
X506311Y1212366D1*
X505749Y1210781D1*
X504818Y1208860D1*
X503630Y1207077D1*
X502560Y1205779D1*
X501027Y1204290D1*
X499300Y1203021D1*
X497850Y1202167D1*
X497225Y1201845D1*
X498734Y1201944D1*
X1928322Y1249515D2*
Y1249509D1*
X1855741D2*
X1853519D1*
X1928322Y1236917D2*
Y1236910D1*
X1855741D2*
X1853519D1*
X1928322Y1224318D2*
Y1224312D1*
X1855741D2*
X1853519D1*
X1227467Y440714D2*
X1227264Y438222D1*
X1226926Y435746D1*
X1226455Y433291D1*
X1225852Y430865D1*
X1225117Y428476D1*
X1224255Y426129D1*
X1223267Y423833D1*
X1222156Y421594D1*
X1220925Y419418D1*
X1219578Y417313D1*
X1218119Y415283D1*
X1216552Y413335D1*
X1214883Y411475D1*
X1213114Y409708D1*
X1210575Y407495D1*
X1352193Y407500D1*
X1349639Y409755D1*
X1347873Y411525D1*
X1346206Y413387D1*
X1344642Y415337D1*
X1343187Y417369D1*
X1341843Y419477D1*
X1340615Y421655D1*
X1339508Y423896D1*
X1338523Y426193D1*
X1337664Y428541D1*
X1336933Y430931D1*
X1336333Y433358D1*
X1335866Y435813D1*
X1335532Y438291D1*
X1335333Y440782D1*
X1335269Y443281D1*
X1335340Y445780D1*
X1335547Y448271D1*
X1335888Y450747D1*
X1336363Y453202D1*
X1336970Y455626D1*
X1337708Y458015D1*
X1338574Y460360D1*
X1339565Y462654D1*
X1340680Y464892D1*
X1341914Y467066D1*
X1343264Y469169D1*
X1344726Y471197D1*
X1346295Y473143D1*
X1347968Y475000D1*
X1349790Y476810D1*
X1213029Y476804D1*
X1214977Y474850D1*
X1216641Y472985D1*
X1218202Y471033D1*
X1219655Y468999D1*
X1220996Y466889D1*
X1222220Y464710D1*
X1223324Y462467D1*
X1224306Y460168D1*
X1225161Y457819D1*
X1225888Y455428D1*
X1226484Y453000D1*
X1226948Y450544D1*
X1227279Y448066D1*
X1227474Y445574D1*
X1227535Y443213D1*
X1227467Y440714D1*
X1627535Y1357057D2*
Y1287370D1*
X1673780Y1287377D1*
X1670487Y1289385D1*
X1657382Y1302352D1*
X1647725Y1318047D1*
X1642060Y1335581D1*
X1641186Y1347113D1*
X1638282Y1349919D1*
X1631630Y1354817D1*
X1627537Y1357059D1*
X1535269Y1287369D2*
Y1364596D1*
X1310620Y1364733D1*
X1313214Y1362449D1*
X1314977Y1360677D1*
X1316641Y1358812D1*
X1318202Y1356860D1*
X1319655Y1354826D1*
X1320996Y1352716D1*
X1322220Y1350536D1*
X1323324Y1348294D1*
X1324306Y1345995D1*
X1325161Y1343646D1*
X1325888Y1341255D1*
X1326484Y1338827D1*
X1326948Y1336371D1*
X1327279Y1333893D1*
X1327474Y1331401D1*
X1327535Y1329039D1*
X1327467Y1326541D1*
X1327264Y1324049D1*
X1326926Y1321572D1*
X1326455Y1319117D1*
X1325852Y1316692D1*
X1325117Y1314302D1*
X1324255Y1311956D1*
X1323267Y1309660D1*
X1322156Y1307421D1*
X1320925Y1305245D1*
X1319578Y1303139D1*
X1318119Y1301110D1*
X1316552Y1299162D1*
X1314883Y1297302D1*
X1313020Y1295450D1*
X1448375Y1295400D1*
X1450796Y1295016D1*
X1453128Y1294259D1*
X1455312Y1293146D1*
X1457295Y1291705D1*
X1459028Y1289972D1*
X1460471Y1287985D1*
X1462150Y1287377D1*
X1535265D1*
X1249791Y1295445D2*
X1247873Y1297352D1*
X1246206Y1299214D1*
X1244642Y1301164D1*
X1243187Y1303196D1*
X1241843Y1305304D1*
X1240615Y1307482D1*
X1239508Y1309722D1*
X1238523Y1312020D1*
X1237664Y1314367D1*
X1236933Y1316758D1*
X1236333Y1319185D1*
X1235866Y1321640D1*
X1235532Y1324117D1*
X1235333Y1326609D1*
X1235269Y1329108D1*
X1235340Y1331607D1*
X1235547Y1334098D1*
X1235888Y1336574D1*
X1236363Y1339028D1*
X1236970Y1341453D1*
X1237708Y1343842D1*
X1238574Y1346186D1*
X1239565Y1348481D1*
X1240680Y1350719D1*
X1241914Y1352892D1*
X1243264Y1354996D1*
X1244726Y1357024D1*
X1246295Y1358969D1*
X1247968Y1360827D1*
X1249739Y1362591D1*
X1252250Y1364776D1*
X910308Y1364992D1*
X913214Y1362449D1*
X914977Y1360677D1*
X916641Y1358812D1*
X918202Y1356860D1*
X919655Y1354826D1*
X920996Y1352716D1*
X922220Y1350536D1*
X923324Y1348294D1*
X924306Y1345995D1*
X925161Y1343646D1*
X925888Y1341255D1*
X926484Y1338827D1*
X926948Y1336371D1*
X927279Y1333893D1*
X927474Y1331401D1*
X927535Y1329039D1*
X927467Y1326541D1*
X927264Y1324049D1*
X926926Y1321572D1*
X926455Y1319117D1*
X925852Y1316692D1*
X925117Y1314302D1*
X924255Y1311956D1*
X923267Y1309660D1*
X922156Y1307421D1*
X920925Y1305245D1*
X919578Y1303139D1*
X918119Y1301110D1*
X916552Y1299162D1*
X914883Y1297302D1*
X913020Y1295450D1*
X1249784Y1295448D1*
X964871Y923094D2*
X962502Y922166D1*
X960673Y921650D1*
X958809Y921279D1*
X956922Y921056D1*
X955024Y920981D1*
X953125Y921056D1*
X951238Y921279D1*
X949374Y921650D1*
X947545Y922166D1*
X945763Y922823D1*
X944037Y923619D1*
X942379Y924547D1*
X940799Y925603D1*
X939307Y926779D1*
X937912Y928069D1*
X936622Y929464D1*
X935445Y930957D1*
X934390Y932537D1*
X933461Y934195D1*
X932666Y935920D1*
X932008Y937703D1*
X931623Y939067D1*
X915956Y923460D1*
X913973Y922019D1*
X911789Y920906D1*
X909458Y920149D1*
X907037Y919765D1*
X900811Y919717D1*
X853223D1*
X667940Y734430D1*
X964746Y734425D1*
X962989Y737344D1*
X962193Y739070D1*
X961536Y740852D1*
X961020Y742681D1*
X960649Y744545D1*
X960426Y746432D1*
X960351Y748331D1*
X960426Y750229D1*
X960649Y752116D1*
X961020Y753980D1*
X961536Y755809D1*
X962193Y757592D1*
X962989Y759317D1*
X963917Y760975D1*
X964973Y762555D1*
X966149Y764047D1*
X967439Y765443D1*
X968835Y766733D1*
X970327Y767909D1*
X971907Y768965D1*
X973565Y769893D1*
X975290Y770689D1*
X977073Y771346D1*
X978902Y771862D1*
X980765Y772233D1*
X982652Y772456D1*
X984551Y772531D1*
X986450Y772456D1*
X988337Y772233D1*
X990201Y771862D1*
X992029Y771346D1*
X993812Y770689D1*
X995538Y769893D1*
X997196Y768965D1*
X998776Y767909D1*
X1000268Y766733D1*
X1001663Y765443D1*
X1003031Y763948D1*
X1017452Y763952D1*
X1033461Y779894D1*
X1035444Y781335D1*
X1037628Y782448D1*
X1039960Y783205D1*
X1042385Y783589D1*
X1042657Y784899D1*
X1041729Y786557D1*
X1040933Y788282D1*
X1040276Y790065D1*
X1039760Y791894D1*
X1039389Y793758D1*
X1039166Y795645D1*
X1039091Y797543D1*
X1039166Y799442D1*
X1039389Y801329D1*
X1039760Y803193D1*
X1040276Y805022D1*
X1040933Y806804D1*
X1041729Y808530D1*
X1042657Y810188D1*
X1043713Y811768D1*
X1044890Y813260D1*
X1046179Y814655D1*
X1047674Y816023D1*
X1047670Y840287D1*
X964872Y923083D1*
D37*
X470772Y535732D3*
X545575D3*
X620378D3*
X695181D3*
X769984D3*
X722740Y606598D3*
X620378D3*
X518016D3*
Y1165654D3*
X620378D3*
X722740D3*
X769984Y1236520D3*
X695181D3*
X620378D3*
X545575D3*
X470772D3*
X844787Y535732D3*
X919591D3*
X994394D3*
X1069197D3*
X1144000D3*
X1096756Y606598D3*
X994394D3*
X892031D3*
Y1165654D3*
X994394D3*
X1096756D3*
X1144000Y1236520D3*
X1069197D3*
X994394D3*
X919591D3*
X844787D3*
X1218803Y535732D3*
X1293606D3*
X1368409D3*
X1443213D3*
X1518016D3*
X1470772Y606598D3*
X1368409D3*
X1266047D3*
Y1165654D3*
X1368409D3*
X1470772D3*
X1518016Y1236520D3*
X1443213D3*
X1368409D3*
X1293606D3*
X1218803D3*
X1592819Y535732D3*
X1667622D3*
X1742425D3*
X1817228D3*
X1892031D3*
X1844787Y606598D3*
X1742425D3*
X1640063D3*
Y1165654D3*
X1742425D3*
X1844787D3*
X1892031Y1236520D3*
X1817228D3*
X1742425D3*
X1667622D3*
X1592819D3*
D19*
X981402Y443213D3*
D20*
X1081402D3*
X1181402D3*
X1281402D3*
X1381402D3*
D19*
X1581402Y1329039D3*
D20*
X1481402D3*
X1381402D3*
X1281402D3*
X1181402D3*
X1081402D3*
X981402D3*
X881402D3*
X781402D3*
M02*
