M48
INCH
T01C0.015
T02C0.024
T03C0.0394
T04C0.04
T05C0.043
T06C0.052
T07C0.084
T08C0.1102
T09C0.122
%
T01
X+017378Y+041311
X+016941Y+040752
X+016941Y+040065
X+015503Y+039811
X+015066Y+040124
X+014691Y+040374
X+014816Y+040999
X+014504Y+041486
X+013809Y+042065
X+012964Y+041365
X+012747Y+041015
X+012483Y+040718
X+012128Y+040440
X+011753Y+040815
X+012503Y+040003
X+012816Y+039690
X+013004Y+040555
X+011503Y+039628
X+011316Y+039315
X+010963Y+039927
X+009835Y+040124
X+009457Y+040712
X+008457Y+041416
X+009954Y+042188
X+010483Y+041750
X+011809Y+042345
X+011556Y+042864
X+011698Y+043844
X+012572Y+043844
X+012713Y+042892
X+012691Y+042326
X+014628Y+044373
X+014941Y+044686
X+018921Y+041967
X+017884Y+037804
X+016815Y+036437
X+017249Y+033985
X+018318Y+033390
X+019190Y+032874
X+017690Y+032500
X+017066Y+032753
X+016702Y+032845
X+016440Y+032562
X+016801Y+032404
X+016253Y+032187
X+016455Y+031716
X+015323Y+031835
X+015551Y+032679
X+014242Y+033188
X+013753Y+033249
X+013066Y+033249
X+013106Y+032709
X+012511Y+032569
X+011530Y+032638
X+011501Y+033891
X+012702Y+033843
X+009878Y+033568
X+010191Y+032312
X+009379Y+032062
X+009379Y+031000
X+010129Y+030562
X+007447Y+030493
X+006378Y+031815
X+006066Y+032190
X+005816Y+032690
X+006164Y+029231
X+005112Y+026866
X+005014Y+026033
X+004524Y+024253
X+005162Y+023629
X+004936Y+022948
X+005482Y+022598
X+005217Y+020371
X+005678Y+020363
X+004699Y+020295
X+007441Y+020439
X+008446Y+020772
X+008816Y+021751
X+008412Y+022839
X+007629Y+021563
X+009954Y+023369
X+010349Y+023684
X+009759Y+024555
X+011321Y+024306
X+011711Y+025231
X+011695Y+025983
X+010770Y+026157
X+011358Y+027117
X+012520Y+027440
X+012728Y+027979
X+013281Y+028094
X+013679Y+028731
X+013834Y+029462
X+014503Y+030375
X+015066Y+030476
X+014958Y+029655
X+014958Y+028778
X+014989Y+028066
X+015674Y+028054
X+016419Y+028543
X+017737Y+027869
X+017737Y+027148
X+018759Y+026740
X+018878Y+026313
X+018815Y+025563
X+019202Y+025053
X+019181Y+024030
X+019235Y+023177
X+019235Y+022237
X+017780Y+022238
X+017179Y+022051
X+016389Y+022356
X+016044Y+021831
X+017362Y+021207
X+017317Y+020137
X+017233Y+019623
X+017927Y+019836
X+016388Y+019545
X+015010Y+020130
X+013691Y+020751
X+013347Y+020128
X+012738Y+020608
X+010882Y+019957
X+011316Y+018876
X+010521Y+018091
X+009754Y+017314
X+011220Y+016757
X+011987Y+016683
X+012998Y+017078
X+012316Y+017814
X+014548Y+017369
X+015753Y+017626
X+015753Y+016814
X+017014Y+016474
X+017355Y+017263
X+019233Y+017229
X+016753Y+013252
X+016190Y+013501
X+015503Y+013252
X+014878Y+012939
X+015867Y+010973
X+016604Y+010138
X+017225Y+010399
X+017592Y+011786
X+017918Y+005537
X+006472Y+006827
X+005935Y+006644
X+006791Y+010080
X+005569Y+012464
X+006067Y+013626
X+005320Y+014480
X+004919Y+015841
X+005212Y+016629
X+004764Y+016884
X+005658Y+016356
X+007834Y+015007
X+007825Y+014198
X+008385Y+013191
X+009063Y+013203
X+011352Y+022173
X+011717Y+022782
X+012716Y+023209
X+012664Y+024107
X+013305Y+024780
X+013679Y+025106
X+014022Y+025692
X+013959Y+026845
X+013944Y+027622
X+014938Y+027234
X+015363Y+026696
X+016045Y+025888
X+015503Y+025063
X+015170Y+024185
X+015170Y+023231
X+014203Y+022815
X+013708Y+024128
X+017585Y+024627
X+017735Y+024098
X+017754Y+023231
X+017772Y+026032
X+018743Y+028256
X+019171Y+028822
X+019192Y+029832
X+017743Y+029824
X+017162Y+030405
X+018003Y+030812
X+017876Y+028878
X+013308Y+030714
X+009491Y+026471
X+010103Y+037256
X+009954Y+038785
X+009400Y+039447
X+006756Y+038643
X+006441Y+038128
X+006128Y+037690
X+005816Y+037378
X+004662Y+036961
X+014135Y+038654
T02
X+018441Y+039190
X+017941Y+039190
X+017941Y+039690
X+018441Y+039690
X+018441Y+040190
X+017941Y+040190
X+017941Y+040690
X+018441Y+040690
X+018441Y+041190
X+017941Y+041190
T03
X+013878Y+036502
X+012878Y+036502
X+011878Y+036502
X+010878Y+036502
X+009878Y+036502
X+010831Y+034549
X+010831Y+033565
X+010831Y+032581
X+005123Y+032581
X+005123Y+034549
X+006903Y+024910
X+007883Y+024907
X+008863Y+024910
X+008863Y+018550
X+007883Y+018547
X+006903Y+018550
X+006903Y+012253
X+007883Y+012250
X+008863Y+012253
X+014898Y+012240
X+015878Y+012237
X+016858Y+012240
X+015878Y+045361
X+014878Y+045361
X+013878Y+045361
X+012878Y+045361
X+011878Y+045361
X+010878Y+045361
X+009878Y+045361
X+008878Y+045361
X+007878Y+045361
T04
X+004441Y+009440
X+004446Y+005753
X+009508Y+005753
X+009508Y+009440
X+011441Y+011690
X+012441Y+011690
X+012441Y+012690
X+011441Y+012690
X+011441Y+013690
X+012441Y+013690
X+012441Y+014690
X+011441Y+014690
X+011441Y+015690
X+012441Y+015690
X+014571Y+009440
X+014571Y+005753
T05
X+018253Y+018876
X+019253Y+018876
X+017253Y+018876
X+016253Y+018876
X+015503Y+018876
X+014503Y+018876
X+013503Y+018876
X+012503Y+018876
X+012503Y+034624
X+014503Y+034624
X+016253Y+034624
X+018253Y+034624
T06
X+005441Y+009440
X+008691Y+009440
X+010508Y+009440
X+013758Y+009440
X+015571Y+009440
X+018821Y+009440
X+018821Y+005753
X+015571Y+005753
X+013758Y+005753
X+010508Y+005753
X+008696Y+005753
X+005446Y+005753
T07
X+006013Y+021500
X+009753Y+021500
X+009753Y+015203
X+006013Y+015203
X+014008Y+015190
X+017748Y+015190
X+009753Y+027860
X+006013Y+027860
T08
X+007878Y+035494
X+007878Y+031636
T09
X+005378Y+045940
X+018378Y+045940
T00
M30
