G04 DipTrace 3.2.0.1*
G04 ubraids_IIa.GTS*
%MOIN*%
G04 #@! TF.FileFunction,Soldermask,Top*
G04 #@! TF.Part,Single*
%AMOUTLINE0*
4,1,4,
0.051181,0.027559,
-0.051181,0.027559,
-0.051181,-0.027559,
0.051181,-0.027559,
0.051181,0.027559,
0*%
%AMOUTLINE1*
4,1,4,
-0.027559,0.051181,
-0.027559,-0.051181,
0.027559,-0.051181,
0.027559,0.051181,
-0.027559,0.051181,
0*%
%AMOUTLINE2*
4,1,4,
-0.027559,0.043307,
-0.027559,-0.043307,
0.027559,-0.043307,
0.027559,0.043307,
-0.027559,0.043307,
0*%
%AMOUTLINE3*
4,1,4,
-0.059055,-0.027559,
0.059055,-0.027559,
0.059055,0.027559,
-0.059055,0.027559,
-0.059055,-0.027559,
0*%
%AMOUTLINE4*
4,1,4,
-0.019685,0.01378,
-0.019685,-0.01378,
0.019685,-0.01378,
0.019685,0.01378,
-0.019685,0.01378,
0*%
%AMOUTLINE5*
4,1,4,
0.008071,0.020079,
-0.008071,0.020079,
-0.008071,-0.020079,
0.008071,-0.020079,
0.008071,0.020079,
0*%
%AMOUTLINE6*
4,1,4,
0.01378,0.019685,
-0.01378,0.019685,
-0.01378,-0.019685,
0.01378,-0.019685,
0.01378,0.019685,
0*%
%AMOUTLINE7*
4,1,8,
0.014159,0.034184,
0.034184,0.014159,
0.034184,-0.014159,
0.014159,-0.034184,
-0.014159,-0.034184,
-0.034184,-0.014159,
-0.034184,0.014159,
-0.014159,0.034184,
0.014159,0.034184,
0*%
%AMOUTLINE8*
4,1,8,
0.008419,0.020325,
0.020325,0.008419,
0.020325,-0.008419,
0.008419,-0.020325,
-0.008419,-0.020325,
-0.020325,-0.008419,
-0.020325,0.008419,
-0.008419,0.020325,
0.008419,0.020325,
0*%
%AMOUTLINE9*
4,1,4,
0.105,0.038,
-0.105,0.038,
-0.105,-0.038,
0.105,-0.038,
0.105,0.038,
0*%
%AMOUTLINE10*
4,1,4,
0.019685,0.027559,
-0.019685,0.027559,
-0.019685,-0.027559,
0.019685,-0.027559,
0.019685,0.027559,
0*%
%AMOUTLINE11*
4,1,4,
0.031496,0.035492,
-0.031496,0.035492,
-0.031496,-0.035492,
0.031496,-0.035492,
0.031496,0.035492,
0*%
%AMOUTLINE12*
4,1,8,
0.028747,-0.0694,
0.0694,-0.028747,
0.0694,0.028747,
0.028747,0.0694,
-0.028747,0.0694,
-0.0694,0.028747,
-0.0694,-0.028747,
-0.028747,-0.0694,
0.028747,-0.0694,
0*%
%AMOUTLINE13*
4,1,4,
-0.005,-0.019685,
0.005,-0.019685,
0.005,0.019685,
-0.005,0.019685,
-0.005,-0.019685,
0*%
%AMOUTLINE14*
4,1,4,
-0.019685,-0.005,
0.019685,-0.005,
0.019685,0.005,
-0.019685,0.005,
-0.019685,-0.005,
0*%
%ADD28R,0.068898X0.068898*%
%ADD29C,0.068898*%
%ADD30R,0.043307X0.03937*%
%ADD38R,0.084646X0.037402*%
%ADD45R,0.05937X0.05937*%
%ADD50C,0.122047*%
%ADD60O,0.063X0.098*%
%ADD62R,0.031622X0.08674*%
%ADD66O,0.108X0.143*%
%ADD68R,0.045402X0.04737*%
%ADD70C,0.073*%
%ADD72O,0.083X0.093*%
%ADD74R,0.092646X0.135953*%
%ADD78R,0.023748X0.078866*%
%ADD80R,0.04737X0.094614*%
%ADD82R,0.04737X0.051307*%
%ADD84R,0.051307X0.04737*%
%ADD96OUTLINE0*%
%ADD97OUTLINE1*%
%ADD98OUTLINE2*%
%ADD99OUTLINE3*%
%ADD100OUTLINE4*%
%ADD101OUTLINE5*%
%ADD102OUTLINE6*%
%ADD103OUTLINE7*%
%ADD104OUTLINE8*%
%ADD105OUTLINE9*%
%ADD106OUTLINE10*%
%ADD107OUTLINE11*%
%ADD108OUTLINE12*%
%ADD109OUTLINE13*%
%ADD110OUTLINE14*%
%FSLAX26Y26*%
G04*
G70*
G90*
G75*
G01*
G04 TopMask*
%LPD*%
D28*
X1387841Y3650249D3*
D29*
X1287841D3*
X1187841D3*
X1087841D3*
X987841D3*
D28*
X787841Y4536076D3*
D29*
X887841D3*
X987841D3*
X1087841D3*
X1187841D3*
X1287841D3*
X1387841D3*
X1487841D3*
X1587841D3*
D84*
X1748126Y1321215D3*
X1815055D3*
D82*
X466876Y2952465D3*
Y2885535D3*
D84*
X1354376Y1677465D3*
X1421305D3*
X994090Y4187751D3*
X927161D3*
X969090Y3875251D3*
X902161D3*
X1406591Y3831500D3*
X1473521D3*
D82*
X469090Y3075251D3*
Y3142180D3*
D84*
X1394069Y3168709D3*
X1460998D3*
D82*
X1581590Y4287751D3*
Y4354680D3*
X844090Y4287751D3*
Y4354680D3*
D84*
X1425341Y4194000D3*
X1492270D3*
X1494059Y3368688D3*
X1427129D3*
X1394408Y2894000D3*
X1461337D3*
X1894090Y2981500D3*
X1827161D3*
D96*
X956615Y3356189D3*
X795198D3*
D84*
X1394408Y2712751D3*
X1461337D3*
X1894090Y2706500D3*
X1827161D3*
X1666368Y2641009D3*
X1599439D3*
D97*
X781049Y2880959D3*
Y2719542D3*
D84*
X1593102Y2431500D3*
X1660031D3*
D82*
X462720Y2363602D3*
Y2296673D3*
D84*
X669091Y1994000D3*
X736021D3*
X1606153Y2006024D3*
X1673082D3*
D98*
X781098Y1680702D3*
Y1554718D3*
D99*
X1081590Y2556500D3*
X1270566D3*
D84*
X1831523Y3374937D3*
X1898452D3*
D82*
X662841Y1683320D3*
Y1750249D3*
X469094Y2068331D3*
Y2135260D3*
X490056Y1473035D3*
Y1539965D3*
D99*
X1087841Y2275251D3*
X1276817D3*
D84*
X806590Y4125251D3*
X739661D3*
D80*
X1125341Y1969000D3*
X1025341D3*
Y1744197D3*
X1125341D3*
D100*
X1347245Y3285134D3*
Y3359937D3*
X1260631Y3322535D3*
D78*
X1569091Y3119007D3*
X1594682D3*
X1620272D3*
X1645863D3*
X1671454D3*
X1697044D3*
X1722635Y3119014D3*
Y3347353D3*
X1697044D3*
X1671454D3*
X1645863D3*
X1620272D3*
X1594682D3*
X1569091D3*
D101*
X556591Y2962749D3*
X582182D3*
X607772D3*
X633363D3*
Y3151726D3*
X607772D3*
X582182D3*
X556591D3*
D38*
X948515Y3144787D3*
Y3054236D3*
Y2963685D3*
D74*
X1176862Y3054236D3*
D78*
X1570101Y2737175D3*
X1595691D3*
X1621282D3*
X1646872D3*
X1672463D3*
X1698053D3*
X1723644Y2737182D3*
Y2965521D3*
X1698053D3*
X1672463D3*
X1646872D3*
X1621282D3*
X1595691D3*
X1570101D3*
D102*
X757837Y2109037D3*
X832640D3*
X795238Y2195651D3*
D78*
X1556837Y2094780D3*
X1582427D3*
X1608018D3*
X1633608D3*
X1659199D3*
X1684790D3*
X1710380Y2094787D3*
Y2323126D3*
X1684790D3*
X1659199D3*
X1633608D3*
X1608018D3*
X1582427D3*
X1556837D3*
X481591Y1744000D3*
X507182D3*
X532772D3*
X558363D3*
Y1972346D3*
X532772D3*
X507182D3*
X481591D3*
D72*
X544052Y944000D3*
X869052D3*
D70*
X444052D3*
D72*
X1050841Y575251D3*
X1375841D3*
D70*
X950841D3*
D72*
X1557090Y944000D3*
X1882090D3*
D70*
X1457090D3*
D72*
X544590Y575251D3*
X869590D3*
D70*
X444590D3*
D72*
X1557090D3*
X1882090D3*
D70*
X1457090D3*
D72*
X1050841Y944000D3*
X1375841D3*
D70*
X950841D3*
D103*
X1244091Y1169000D3*
X1144091D3*
X1244091Y1269000D3*
X1144091D3*
X1244091Y1369000D3*
X1144091D3*
X1244091Y1469000D3*
X1144091D3*
X1244091Y1569000D3*
X1144091D3*
D104*
X1844091Y3919000D3*
X1794091D3*
X1844091Y3969000D3*
X1794091D3*
X1844091Y4019000D3*
X1794091D3*
X1844091Y4069000D3*
X1794091D3*
X1844091Y4119000D3*
X1794091D3*
D68*
X1275923Y2015592D3*
X1212931D3*
X974849Y2425251D3*
X1037841D3*
X1137841Y2744000D3*
X1200833D3*
D105*
X1025341Y4350249D3*
X1405341D3*
D106*
X738038Y3926135D3*
X775439Y4012749D3*
X812841Y3926135D3*
D84*
X1681539Y3612412D3*
X1748468D3*
D30*
X1769090Y900251D3*
X1702161D3*
D84*
X1775341Y987751D3*
X1708412D3*
X1319077Y3543669D3*
X1386006D3*
X1260889Y1003634D3*
X1193960D3*
X1265318Y884366D3*
X1198389D3*
D70*
X886301Y1855009D3*
X788301Y1854734D3*
X690301Y1855009D3*
D66*
X601301Y2150009D3*
X975301D3*
D70*
X886301Y1225283D3*
X788301Y1225008D3*
X690301Y1225283D3*
D66*
X601301Y1520283D3*
X975301D3*
D70*
X886301Y2490986D3*
X788301Y2490710D3*
X690301Y2490986D3*
D66*
X601301Y2785986D3*
X975301D3*
D84*
X1787841Y4194000D3*
X1854770D3*
X1394408Y3071353D3*
X1461337D3*
X765055Y908715D3*
X698126D3*
X1394408Y2975251D3*
X1461337D3*
X1894090Y2887751D3*
X1827161D3*
X881862Y4009613D3*
X948791D3*
X1461337Y2512751D3*
X1394408D3*
X537841Y3912751D3*
X604770D3*
X1461337Y2412751D3*
X1394408D3*
X1827161Y2406500D3*
X1894090D3*
X1827161Y2506500D3*
X1894090D3*
X1681539Y4168604D3*
X1614610D3*
X1394408Y2794000D3*
X1461337D3*
X1894090D3*
X1827161D3*
D70*
X1685841Y1224000D3*
X1587841Y1223724D3*
X1489841Y1224000D3*
D66*
X1400841Y1519000D3*
X1774841D3*
D84*
X1461337Y2604285D3*
X1394408D3*
X1894090Y2606500D3*
X1827161D3*
Y2131500D3*
X1894090D3*
X1462812Y2075073D3*
X1395883D3*
X1394408Y2325251D3*
X1461337D3*
X1894090Y2319000D3*
X1827161D3*
D82*
X469090Y2606500D3*
Y2673429D3*
X572321Y2295984D3*
Y2362913D3*
D84*
X1827161Y2225251D3*
X1894090D3*
X1775341Y1100251D3*
X1708412D3*
D107*
X1112845Y2844000D3*
X1224813D3*
D84*
X716876Y1383715D3*
X783805D3*
X905321Y2313886D3*
X838392D3*
X1395818Y2145193D3*
X1462748D3*
X1894090Y2050251D3*
X1827161D3*
X1827803Y1983591D3*
X1894732D3*
D82*
X575338Y1287751D3*
Y1354680D3*
X487841Y1287751D3*
Y1354680D3*
D45*
X1083116Y3454925D3*
Y3258075D3*
Y3356500D3*
X512250Y3454925D3*
Y3258075D3*
D108*
X787841Y3549413D3*
Y3163587D3*
D62*
X1519140Y1406451D3*
X1569140D3*
X1619140D3*
X1669140D3*
Y1619050D3*
X1619140D3*
X1569140D3*
X1519140D3*
D109*
X1306590Y4181500D3*
X1286905D3*
X1267220D3*
X1247535D3*
X1227850D3*
X1208165D3*
X1188480D3*
X1168795D3*
X1149110D3*
X1129425D3*
X1109740D3*
X1090055D3*
D110*
X1031000Y4122445D3*
Y4102760D3*
Y4083075D3*
Y4063390D3*
Y4043705D3*
Y4024020D3*
Y4004335D3*
Y3984650D3*
Y3964965D3*
Y3945280D3*
Y3925594D3*
Y3905909D3*
D109*
X1090055Y3846854D3*
X1109740D3*
X1129425D3*
X1149110D3*
X1168795D3*
X1188480D3*
X1208165D3*
X1227850D3*
X1247535D3*
X1267220D3*
X1286905D3*
X1306590D3*
D110*
X1365645Y3905909D3*
Y3925594D3*
Y3945280D3*
Y3964965D3*
Y3984650D3*
Y4004335D3*
Y4024020D3*
Y4043705D3*
Y4063390D3*
Y4083075D3*
Y4102760D3*
Y4122445D3*
D60*
X1825274Y1887593D3*
X1925274D3*
X1825274Y3462396D3*
X1725274Y1887593D3*
X1625274Y3462396D3*
Y1887593D3*
X1450313D3*
X1550313D3*
X1450313Y3462396D3*
X1350313Y1887593D3*
X1250313Y3462396D3*
Y1887593D3*
D50*
X537841Y4594000D3*
X1837841D3*
G36*
X1131597Y2912486D2*
Y3212454D1*
X1337825D1*
Y2937483D1*
X1312828Y2912486D1*
D1*
X1131597D1*
G37*
M02*
