G04 DipTrace 3.2.0.1*
G04 uBraidsII_panel.GTS*
%MOIN*%
G04 #@! TF.FileFunction,Soldermask,Top*
G04 #@! TF.Part,Single*
%ADD12C,0.001*%
%ADD18C,0.003937*%
%ADD22C,0.007874*%
%ADD25C,0.127*%
%ADD30O,0.307213X0.185165*%
%ADD32C,0.342646*%
%FSLAX26Y26*%
G04*
G70*
G90*
G75*
G01*
G04 TopMask*
%LPD*%
D25*
X532735Y4962270D3*
X1832598D3*
D32*
X1182067Y954530D3*
X675281Y954610D3*
X674528Y1323210D3*
X1182140Y1323545D3*
X1689295Y1323360D3*
D30*
X1689000Y512058D3*
X689000D3*
D32*
X1689067Y953936D3*
D30*
X689000Y5334892D3*
X1689000D3*
G36*
X1450541Y2305593D2*
X1460434Y2299882D1*
X1498514Y2365839D1*
X1488621Y2371551D1*
X1450541Y2305593D1*
G37*
G36*
X1450598Y2936819D2*
X1460492Y2931109D1*
X1498572Y2997066D1*
X1488678Y3002777D1*
X1450598Y2936819D1*
G37*
G36*
X1384648Y2993352D2*
X1392181Y2984764D1*
X1449441Y3034978D1*
X1441909Y3043568D1*
X1384648Y2993352D1*
G37*
G36*
X1340369Y3068083D2*
X1344741Y3057529D1*
X1415104Y3086672D1*
X1410732Y3097228D1*
X1340369Y3068083D1*
G37*
G36*
X1384591Y2362125D2*
X1392123Y2353537D1*
X1449383Y2403752D1*
X1441852Y2412341D1*
X1384591Y2362125D1*
G37*
G36*
X1322461Y3153080D2*
X1323209Y3141681D1*
X1399206Y3146661D1*
X1398459Y3158062D1*
X1322461Y3153080D1*
G37*
G36*
X1332825Y3239323D2*
X1329869Y3228289D1*
X1403434Y3208576D1*
X1406391Y3219610D1*
X1332825Y3239323D1*
G37*
G36*
X1370361Y3317657D2*
X1364014Y3308160D1*
X1427340Y3265846D1*
X1433686Y3275344D1*
X1370361Y3317657D1*
G37*
G36*
X1340311Y2436856D2*
X1344684Y2426302D1*
X1415046Y2455446D1*
X1410675Y2466001D1*
X1340311Y2436856D1*
G37*
G36*
X1431085Y3379770D2*
X1422022Y3372815D1*
X1468386Y3312394D1*
X1477449Y3319348D1*
X1431085Y3379770D1*
G37*
G36*
X1508552Y3419066D2*
X1497734Y3415394D1*
X1522215Y3343276D1*
X1533033Y3346948D1*
X1508552Y3419066D1*
G37*
G36*
X1594539Y3431377D2*
X1583114D1*
Y3355217D1*
X1594539D1*
Y3431377D1*
G37*
G36*
X1322403Y2521853D2*
X1323151Y2510454D1*
X1399148Y2515434D1*
X1398402Y2526835D1*
X1322403Y2521853D1*
G37*
G36*
X1679920Y3415394D2*
X1669102Y3419066D1*
X1644621Y3346948D1*
X1655438Y3343276D1*
X1679920Y3415394D1*
G37*
G36*
X1755631Y3372815D2*
X1746568Y3379770D1*
X1700205Y3319348D1*
X1709268Y3312394D1*
X1755631Y3372815D1*
G37*
G36*
X1813639Y3308160D2*
X1807293Y3317657D1*
X1743967Y3275346D1*
X1750314Y3265846D1*
X1813639Y3308160D1*
G37*
G36*
X1332768Y2608097D2*
X1329811Y2597062D1*
X1403377Y2577350D1*
X1406333Y2588385D1*
X1332768Y2608097D1*
G37*
G36*
X1847785Y3228289D2*
X1844828Y3239323D1*
X1771262Y3219610D1*
X1774219Y3208576D1*
X1847785Y3228289D1*
G37*
G36*
X1854445Y3141681D2*
X1855193Y3153080D1*
X1779194Y3158062D1*
X1778448Y3146661D1*
X1854445Y3141681D1*
G37*
G36*
X1832913Y3057529D2*
X1837285Y3068083D1*
X1766921Y3097228D1*
X1762550Y3086672D1*
X1832913Y3057529D1*
G37*
G36*
X1370303Y2686432D2*
X1363957Y2676933D1*
X1427282Y2634619D1*
X1433629Y2644118D1*
X1370303Y2686432D1*
G37*
G36*
X1785472Y2984762D2*
X1793005Y2993352D1*
X1735745Y3043568D1*
X1728213Y3034978D1*
X1785472Y2984762D1*
G37*
G36*
X1717161Y2931109D2*
X1727055Y2936819D1*
X1688975Y3002777D1*
X1679081Y2997066D1*
X1717161Y2931109D1*
G37*
G36*
X1431028Y2748543D2*
X1421965Y2741589D1*
X1468328Y2681167D1*
X1477391Y2688121D1*
X1431028Y2748543D1*
G37*
G36*
X1508495Y2787840D2*
X1497676Y2784168D1*
X1522157Y2712049D1*
X1532975Y2715722D1*
X1508495Y2787840D1*
G37*
G36*
X1594482Y2800151D2*
X1583056D1*
Y2723990D1*
X1594482D1*
Y2800151D1*
G37*
G36*
X1679862Y2784168D2*
X1669045Y2787840D1*
X1644563Y2715722D1*
X1655381Y2712049D1*
X1679862Y2784168D1*
G37*
G36*
X1755573Y2741589D2*
X1746510Y2748543D1*
X1700147Y2688121D1*
X1709210Y2681167D1*
X1755573Y2741589D1*
G37*
G36*
X1813581Y2676933D2*
X1807235Y2686432D1*
X1743909Y2644119D1*
X1750256Y2634619D1*
X1813581Y2676933D1*
G37*
G36*
X1847727Y2597062D2*
X1844770Y2608097D1*
X1771205Y2588385D1*
X1774161Y2577350D1*
X1847727Y2597062D1*
G37*
G36*
X1854387Y2510454D2*
X1855135Y2521853D1*
X1779136Y2526835D1*
X1778390Y2515434D1*
X1854387Y2510454D1*
G37*
G36*
X1832856Y2426302D2*
X1837227Y2436856D1*
X1766864Y2466001D1*
X1762492Y2455446D1*
X1832856Y2426302D1*
G37*
G36*
X1785415Y2353535D2*
X1792948Y2362125D1*
X1735688Y2412341D1*
X1728155Y2403752D1*
X1785415Y2353535D1*
G37*
G36*
X1717104Y2299882D2*
X1726997Y2305593D1*
X1688917Y2371551D1*
X1679024Y2365839D1*
X1717104Y2299882D1*
G37*
X782307Y2027465D2*
D22*
Y2145575D1*
X943528Y2083055D2*
X881953D1*
X682543D2*
X620969D1*
X912740Y2113843D2*
Y2052268D1*
X782486Y2146735D2*
X593152Y2330399D1*
X782307Y2047150D2*
D18*
Y2125890D1*
X873370Y2083055D2*
X952110D1*
X912740Y2043685D2*
Y2122425D1*
X612386Y2083055D2*
X691126D1*
G36*
X1450541Y1655593D2*
X1460434Y1649882D1*
X1498514Y1715839D1*
X1488621Y1721551D1*
X1450541Y1655593D1*
G37*
G36*
X1384591Y1712125D2*
X1392123Y1703537D1*
X1449383Y1753752D1*
X1441852Y1762341D1*
X1384591Y1712125D1*
G37*
G36*
X1340311Y1786856D2*
X1344684Y1776302D1*
X1415046Y1805446D1*
X1410675Y1816001D1*
X1340311Y1786856D1*
G37*
G36*
X1322403Y1871853D2*
X1323151Y1860454D1*
X1399148Y1865434D1*
X1398402Y1876835D1*
X1322403Y1871853D1*
G37*
G36*
X1332768Y1958097D2*
X1329811Y1947062D1*
X1403377Y1927350D1*
X1406333Y1938385D1*
X1332768Y1958097D1*
G37*
G36*
X1370303Y2036432D2*
X1363957Y2026933D1*
X1427282Y1984619D1*
X1433629Y1994118D1*
X1370303Y2036432D1*
G37*
G36*
X1431028Y2098543D2*
X1421965Y2091589D1*
X1468328Y2031167D1*
X1477391Y2038121D1*
X1431028Y2098543D1*
G37*
G36*
X1508495Y2137840D2*
X1497676Y2134168D1*
X1522157Y2062049D1*
X1532975Y2065722D1*
X1508495Y2137840D1*
G37*
G36*
X1594482Y2150151D2*
X1583056D1*
Y2073990D1*
X1594482D1*
Y2150151D1*
G37*
G36*
X1679862Y2134168D2*
X1669045Y2137840D1*
X1644563Y2065722D1*
X1655381Y2062049D1*
X1679862Y2134168D1*
G37*
G36*
X1755573Y2091589D2*
X1746510Y2098543D1*
X1700147Y2038121D1*
X1709210Y2031167D1*
X1755573Y2091589D1*
G37*
G36*
X1813581Y2026933D2*
X1807235Y2036432D1*
X1743909Y1994119D1*
X1750256Y1984619D1*
X1813581Y2026933D1*
G37*
G36*
X1847727Y1947062D2*
X1844770Y1958097D1*
X1771205Y1938385D1*
X1774161Y1927350D1*
X1847727Y1947062D1*
G37*
G36*
X1854387Y1860454D2*
X1855135Y1871853D1*
X1779136Y1876835D1*
X1778390Y1865434D1*
X1854387Y1860454D1*
G37*
G36*
X1832856Y1776302D2*
X1837227Y1786856D1*
X1766864Y1816001D1*
X1762492Y1805446D1*
X1832856Y1776302D1*
G37*
G36*
X1785415Y1703535D2*
X1792948Y1712125D1*
X1735688Y1762341D1*
X1728155Y1753752D1*
X1785415Y1703535D1*
G37*
G36*
X1717104Y1649882D2*
X1726997Y1655593D1*
X1688917Y1721551D1*
X1679024Y1715839D1*
X1717104Y1649882D1*
G37*
X1296883Y5411948D2*
D12*
X1306883D1*
X1296883Y5410948D2*
X1306883D1*
X1296883Y5409948D2*
X1306883D1*
X1296883Y5408948D2*
X1306883D1*
X1296883Y5407948D2*
X1306883D1*
X1296883Y5406948D2*
X1306883D1*
X1296883Y5405948D2*
X1306883D1*
X990883Y5404948D2*
X1034883D1*
X1296883D2*
X1306883D1*
X1438883D2*
X1448883D1*
X1469883D2*
X1479883D1*
X990883Y5403948D2*
X1039068D1*
X1296883D2*
X1306883D1*
X1438883D2*
X1448883D1*
X1469883D2*
X1479883D1*
X990883Y5402948D2*
X1042479D1*
X1296883D2*
X1306883D1*
X1438883D2*
X1448883D1*
X1469883D2*
X1479883D1*
X990883Y5401948D2*
X1045118D1*
X1296883D2*
X1306883D1*
X1438883D2*
X1448883D1*
X1469883D2*
X1479883D1*
X990883Y5400948D2*
X1047196D1*
X1296883D2*
X1306883D1*
X1438883D2*
X1448883D1*
X1469883D2*
X1479883D1*
X990883Y5399948D2*
X1048917D1*
X1296883D2*
X1306883D1*
X1438883D2*
X1448883D1*
X1469883D2*
X1479883D1*
X990883Y5398948D2*
X1050359D1*
X1214883D2*
X1225883D1*
X1296883D2*
X1306883D1*
X1438883D2*
X1448883D1*
X1469883D2*
X1479883D1*
X990883Y5397948D2*
X1051498D1*
X1214422D2*
X1226345D1*
X1296883D2*
X1306883D1*
X1438883D2*
X1448883D1*
X1469883D2*
X1479883D1*
X990883Y5396948D2*
X1052383D1*
X1214134D2*
X1226632D1*
X1296883D2*
X1306883D1*
X1438883D2*
X1448883D1*
X1469883D2*
X1479883D1*
X990883Y5395948D2*
X1053147D1*
X1213989D2*
X1226777D1*
X1296883D2*
X1306883D1*
X1438883D2*
X1448883D1*
X1469883D2*
X1479883D1*
X990883Y5394948D2*
X1053863D1*
X1213925D2*
X1226842D1*
X1296883D2*
X1306883D1*
X1438883D2*
X1448883D1*
X1469883D2*
X1479883D1*
X990883Y5393948D2*
X1000883D1*
X1035603D2*
X1054504D1*
X1213899D2*
X1226868D1*
X1296883D2*
X1306883D1*
X1438883D2*
X1448883D1*
X1469883D2*
X1479883D1*
X990883Y5392948D2*
X1000883D1*
X1038853D2*
X1055077D1*
X1213889D2*
X1226878D1*
X1296883D2*
X1306883D1*
X1438883D2*
X1448883D1*
X1469883D2*
X1479883D1*
X990883Y5391948D2*
X1000883D1*
X1041376D2*
X1055611D1*
X1213885D2*
X1226881D1*
X1296883D2*
X1306883D1*
X1438883D2*
X1448883D1*
X1469883D2*
X1479883D1*
X990883Y5390948D2*
X1000883D1*
X1043209D2*
X1056124D1*
X1213884D2*
X1226883D1*
X1296883D2*
X1306883D1*
X1438883D2*
X1448883D1*
X1469883D2*
X1479883D1*
X990883Y5389948D2*
X1000883D1*
X1044571D2*
X1056627D1*
X1213883D2*
X1226879D1*
X1296883D2*
X1306883D1*
X1438883D2*
X1448883D1*
X1469883D2*
X1479883D1*
X990883Y5388948D2*
X1000883D1*
X1045608D2*
X1057097D1*
X1213891D2*
X1226840D1*
X1296883D2*
X1306883D1*
X1438883D2*
X1448883D1*
X1469883D2*
X1479883D1*
X990883Y5387948D2*
X1000883D1*
X1046400D2*
X1057502D1*
X1213967D2*
X1226674D1*
X1296883D2*
X1306883D1*
X1438883D2*
X1448883D1*
X1469883D2*
X1479883D1*
X990883Y5386948D2*
X1000883D1*
X1047037D2*
X1057854D1*
X1214149D2*
X1226272D1*
X1296883D2*
X1306883D1*
X1438883D2*
X1448883D1*
X1469883D2*
X1479883D1*
X990883Y5385948D2*
X1000883D1*
X1047593D2*
X1058207D1*
X1214928D2*
X1225632D1*
X1296883D2*
X1306883D1*
X1438883D2*
X1448883D1*
X1469883D2*
X1479883D1*
X990883Y5384948D2*
X1000883D1*
X1048080D2*
X1058513D1*
X1215883D2*
X1224883D1*
X1296883D2*
X1306883D1*
X1438883D2*
X1448883D1*
X1469883D2*
X1479883D1*
X990883Y5383948D2*
X1000883D1*
X1048458D2*
X1058708D1*
X1296883D2*
X1306883D1*
X1438883D2*
X1448883D1*
X1469883D2*
X1479883D1*
X990883Y5382948D2*
X1000883D1*
X1048686D2*
X1058812D1*
X1296883D2*
X1306883D1*
X1438883D2*
X1448883D1*
X1469883D2*
X1479883D1*
X990883Y5381948D2*
X1000883D1*
X1048804D2*
X1058893D1*
X1296883D2*
X1306883D1*
X1438883D2*
X1448883D1*
X1469883D2*
X1479883D1*
X990883Y5380948D2*
X1000883D1*
X1048890D2*
X1059039D1*
X1296883D2*
X1306883D1*
X1438883D2*
X1448883D1*
X1469883D2*
X1479883D1*
X990883Y5379948D2*
X1000883D1*
X1049038D2*
X1059285D1*
X1296883D2*
X1306883D1*
X1438883D2*
X1448883D1*
X1469883D2*
X1479883D1*
X990883Y5378948D2*
X1000883D1*
X1049281D2*
X1059544D1*
X1296883D2*
X1306883D1*
X1438883D2*
X1448883D1*
X1469883D2*
X1479883D1*
X990883Y5377948D2*
X1000883D1*
X1049505D2*
X1059716D1*
X1296883D2*
X1306883D1*
X1438883D2*
X1448883D1*
X1469883D2*
X1479883D1*
X990883Y5376948D2*
X1000883D1*
X1049553D2*
X1059774D1*
X1174883D2*
X1177883D1*
X1296883D2*
X1306883D1*
X1438883D2*
X1448883D1*
X1469883D2*
X1479883D1*
X990883Y5375948D2*
X1000883D1*
X1049407D2*
X1059689D1*
X1109883D2*
X1122883D1*
X1156883D2*
X1182030D1*
X1260883D2*
X1275883D1*
X1296883D2*
X1306883D1*
X1336883D2*
X1352883D1*
X1438883D2*
X1448883D1*
X1469883D2*
X1479883D1*
X906883Y5374948D2*
X916883D1*
X959883D2*
X969883D1*
X990883D2*
X1000883D1*
X1049193D2*
X1059467D1*
X1075883D2*
X1082883D1*
X1106464D2*
X1124268D1*
X1150945D2*
X1185313D1*
X1214883D2*
X1224883D1*
X1258464D2*
X1280963D1*
X1296871D2*
X1306883D1*
X1333777D2*
X1367883D1*
X1438883D2*
X1448883D1*
X1469883D2*
X1479883D1*
X906883Y5373948D2*
X916883D1*
X959883D2*
X969883D1*
X990883D2*
X1000883D1*
X1049036D2*
X1059217D1*
X1075883D2*
X1083229D1*
X1103344D2*
X1125294D1*
X1146028D2*
X1187713D1*
X1214883D2*
X1224883D1*
X1256344D2*
X1285535D1*
X1296757D2*
X1306883D1*
X1331195D2*
X1373303D1*
X1438883D2*
X1448883D1*
X1469883D2*
X1479883D1*
X906883Y5372948D2*
X916883D1*
X959883D2*
X969883D1*
X990883D2*
X1000883D1*
X1048946D2*
X1059045D1*
X1075883D2*
X1083562D1*
X1100608D2*
X1125607D1*
X1142598D2*
X1189529D1*
X1214883D2*
X1224883D1*
X1254604D2*
X1289816D1*
X1296485D2*
X1306883D1*
X1329176D2*
X1377397D1*
X1438883D2*
X1448883D1*
X1469883D2*
X1479883D1*
X906883Y5371948D2*
X916883D1*
X959883D2*
X969883D1*
X990883D2*
X1000883D1*
X1048871D2*
X1058953D1*
X1075883D2*
X1083879D1*
X1098242D2*
X1125769D1*
X1140213D2*
X1191045D1*
X1214883D2*
X1224883D1*
X1253202D2*
X1294249D1*
X1295316D2*
X1306883D1*
X1327657D2*
X1378941D1*
X1438883D2*
X1448883D1*
X1469883D2*
X1479883D1*
X906883Y5370948D2*
X916883D1*
X959883D2*
X969883D1*
X990883D2*
X1000883D1*
X1048727D2*
X1058907D1*
X1075883D2*
X1084220D1*
X1096180D2*
X1125840D1*
X1139386D2*
X1192302D1*
X1214883D2*
X1224883D1*
X1252017D2*
X1306883D1*
X1326560D2*
X1379550D1*
X1438883D2*
X1448883D1*
X1469883D2*
X1479883D1*
X906883Y5369948D2*
X916883D1*
X959883D2*
X969883D1*
X990883D2*
X1000883D1*
X1048477D2*
X1058855D1*
X1075883D2*
X1084568D1*
X1094331D2*
X1125868D1*
X1139113D2*
X1193283D1*
X1214883D2*
X1224883D1*
X1250972D2*
X1306883D1*
X1325697D2*
X1379735D1*
X1438883D2*
X1448883D1*
X1469883D2*
X1479883D1*
X906883Y5368948D2*
X916883D1*
X959883D2*
X969883D1*
X990883D2*
X1000883D1*
X1048179D2*
X1058720D1*
X1075883D2*
X1085002D1*
X1092480D2*
X1125878D1*
X1138975D2*
X1194102D1*
X1214883D2*
X1224883D1*
X1250072D2*
X1306883D1*
X1324967D2*
X1379825D1*
X1438883D2*
X1448883D1*
X1469883D2*
X1479883D1*
X906883Y5367948D2*
X916883D1*
X959883D2*
X969883D1*
X990883D2*
X1000883D1*
X1047841D2*
X1058475D1*
X1075883D2*
X1085617D1*
X1090334D2*
X1125881D1*
X1138917D2*
X1194845D1*
X1214883D2*
X1224883D1*
X1249335D2*
X1306883D1*
X1324404D2*
X1379862D1*
X1438883D2*
X1448883D1*
X1469883D2*
X1479883D1*
X906883Y5366948D2*
X916883D1*
X959883D2*
X969883D1*
X990883D2*
X1000883D1*
X1047377D2*
X1058182D1*
X1075883D2*
X1087135D1*
X1087744D2*
X1125883D1*
X1138895D2*
X1195493D1*
X1214883D2*
X1224883D1*
X1248718D2*
X1306883D1*
X1323972D2*
X1379876D1*
X1438883D2*
X1448883D1*
X1469883D2*
X1479883D1*
X906883Y5365948D2*
X916883D1*
X959883D2*
X969883D1*
X990883D2*
X1000883D1*
X1046796D2*
X1057876D1*
X1075883D2*
X1125883D1*
X1138887D2*
X1159883D1*
X1179641D2*
X1196039D1*
X1214883D2*
X1224883D1*
X1248166D2*
X1306883D1*
X1323583D2*
X1379883D1*
X1438883D2*
X1448883D1*
X1469883D2*
X1479883D1*
X906883Y5364948D2*
X916883D1*
X959883D2*
X969883D1*
X990883D2*
X1000883D1*
X1046142D2*
X1057509D1*
X1075883D2*
X1109126D1*
X1123883D2*
X1125883D1*
X1138883D2*
X1142883D1*
X1182023D2*
X1196479D1*
X1214883D2*
X1224883D1*
X1247646D2*
X1262080D1*
X1281629D2*
X1306883D1*
X1323258D2*
X1336118D1*
X1438883D2*
X1448883D1*
X1469883D2*
X1479883D1*
X906883Y5363948D2*
X916883D1*
X959883D2*
X969883D1*
X990883D2*
X1000883D1*
X1045296D2*
X1057078D1*
X1075883D2*
X1104747D1*
X1183821D2*
X1196846D1*
X1214883D2*
X1224883D1*
X1247141D2*
X1260499D1*
X1286890D2*
X1306883D1*
X1323022D2*
X1334665D1*
X1438883D2*
X1448883D1*
X1469883D2*
X1479883D1*
X906883Y5362948D2*
X916883D1*
X959883D2*
X969883D1*
X990883D2*
X1000883D1*
X1044090D2*
X1056612D1*
X1075883D2*
X1100985D1*
X1185046D2*
X1197204D1*
X1214883D2*
X1224883D1*
X1246670D2*
X1259199D1*
X1291153D2*
X1306883D1*
X1322792D2*
X1333609D1*
X1438883D2*
X1448883D1*
X1469883D2*
X1479883D1*
X906883Y5361948D2*
X916883D1*
X959883D2*
X969883D1*
X990883D2*
X1000883D1*
X1042530D2*
X1056125D1*
X1075883D2*
X1097887D1*
X1185892D2*
X1197512D1*
X1214883D2*
X1224883D1*
X1246265D2*
X1258164D1*
X1294511D2*
X1306883D1*
X1322507D2*
X1332869D1*
X1438883D2*
X1448883D1*
X1469883D2*
X1479883D1*
X906883Y5360948D2*
X916883D1*
X959883D2*
X969883D1*
X990883D2*
X1000883D1*
X1040739D2*
X1055627D1*
X1075883D2*
X1095281D1*
X1186537D2*
X1197708D1*
X1214883D2*
X1224883D1*
X1245912D2*
X1257337D1*
X1295942D2*
X1306883D1*
X1322232D2*
X1332380D1*
X1438883D2*
X1448883D1*
X1469883D2*
X1479883D1*
X906883Y5359948D2*
X916883D1*
X959883D2*
X969883D1*
X990883D2*
X1000883D1*
X1038831D2*
X1055089D1*
X1075883D2*
X1092900D1*
X1187060D2*
X1197808D1*
X1214883D2*
X1224883D1*
X1245560D2*
X1256605D1*
X1296446D2*
X1306883D1*
X1322050D2*
X1332107D1*
X1438883D2*
X1448883D1*
X1469883D2*
X1479883D1*
X906883Y5358948D2*
X916883D1*
X959883D2*
X969883D1*
X990883D2*
X1054424D1*
X1075883D2*
X1090629D1*
X1187451D2*
X1197854D1*
X1214883D2*
X1224883D1*
X1245249D2*
X1255931D1*
X1296705D2*
X1306883D1*
X1321955D2*
X1331976D1*
X1438883D2*
X1448883D1*
X1469883D2*
X1479883D1*
X906883Y5357948D2*
X916883D1*
X959883D2*
X969883D1*
X990883D2*
X1053517D1*
X1075883D2*
X1088664D1*
X1187684D2*
X1197872D1*
X1214883D2*
X1224883D1*
X1245019D2*
X1255391D1*
X1296816D2*
X1306883D1*
X1321912D2*
X1331919D1*
X1438883D2*
X1448883D1*
X1469883D2*
X1479883D1*
X906883Y5356948D2*
X916883D1*
X959883D2*
X969883D1*
X990883D2*
X1052356D1*
X1075883D2*
X1087063D1*
X1187799D2*
X1197879D1*
X1214883D2*
X1224883D1*
X1244791D2*
X1254967D1*
X1296859D2*
X1306883D1*
X1321894D2*
X1331896D1*
X1438883D2*
X1448883D1*
X1469883D2*
X1479883D1*
X906883Y5355948D2*
X916883D1*
X959883D2*
X969883D1*
X990883D2*
X1051021D1*
X1075883D2*
X1086354D1*
X1187851D2*
X1197882D1*
X1214883D2*
X1224883D1*
X1244507D2*
X1254582D1*
X1296875D2*
X1306883D1*
X1321887D2*
X1331888D1*
X1438883D2*
X1448883D1*
X1469883D2*
X1479883D1*
X906883Y5354948D2*
X916883D1*
X959883D2*
X969883D1*
X990883D2*
X1049619D1*
X1075883D2*
X1086102D1*
X1187871D2*
X1197883D1*
X1214883D2*
X1224883D1*
X1244232D2*
X1254261D1*
X1296880D2*
X1306883D1*
X1321885D2*
X1331885D1*
X1438883D2*
X1448883D1*
X1469883D2*
X1479883D1*
X906883Y5353948D2*
X916883D1*
X959883D2*
X969883D1*
X990883D2*
X1048231D1*
X1075883D2*
X1085973D1*
X1187879D2*
X1197883D1*
X1214883D2*
X1224883D1*
X1244046D2*
X1254057D1*
X1296882D2*
X1306883D1*
X1321884D2*
X1331884D1*
X1438883D2*
X1448883D1*
X1469883D2*
X1479883D1*
X906883Y5352948D2*
X916883D1*
X959883D2*
X969883D1*
X990883D2*
X1046883D1*
X1075883D2*
X1085917D1*
X1187882D2*
X1197883D1*
X1214883D2*
X1224883D1*
X1243916D2*
X1253920D1*
X1296883D2*
X1306883D1*
X1321883D2*
X1331883D1*
X1438883D2*
X1448883D1*
X1469883D2*
X1479883D1*
X906883Y5351948D2*
X916883D1*
X959883D2*
X969883D1*
X990883D2*
X1048687D1*
X1075883D2*
X1085895D1*
X1187883D2*
X1197883D1*
X1214883D2*
X1224883D1*
X1243745D2*
X1253747D1*
X1296883D2*
X1306883D1*
X1321883D2*
X1331883D1*
X1438883D2*
X1448883D1*
X1469883D2*
X1479883D1*
X906883Y5350948D2*
X916883D1*
X959883D2*
X969883D1*
X990883D2*
X1050272D1*
X1075883D2*
X1085887D1*
X1187883D2*
X1197883D1*
X1214883D2*
X1224883D1*
X1243488D2*
X1253488D1*
X1296883D2*
X1306883D1*
X1321883D2*
X1331883D1*
X1438883D2*
X1448883D1*
X1469883D2*
X1479883D1*
X906883Y5349948D2*
X916883D1*
X959883D2*
X969883D1*
X990883D2*
X1051606D1*
X1075883D2*
X1085885D1*
X1187883D2*
X1197883D1*
X1214883D2*
X1224883D1*
X1243225D2*
X1253225D1*
X1296883D2*
X1306883D1*
X1321883D2*
X1331887D1*
X1438883D2*
X1448883D1*
X1469883D2*
X1479883D1*
X906883Y5348948D2*
X916883D1*
X959883D2*
X969883D1*
X990883D2*
X1052765D1*
X1075883D2*
X1085884D1*
X1187883D2*
X1197883D1*
X1214883D2*
X1224883D1*
X1243048D2*
X1253048D1*
X1296883D2*
X1306883D1*
X1321883D2*
X1331922D1*
X1438883D2*
X1448883D1*
X1469883D2*
X1479883D1*
X906883Y5347948D2*
X916883D1*
X959883D2*
X969883D1*
X990883D2*
X1000883D1*
X1035448D2*
X1053800D1*
X1075883D2*
X1085883D1*
X1187883D2*
X1197883D1*
X1214883D2*
X1224883D1*
X1242954D2*
X1252954D1*
X1296883D2*
X1306883D1*
X1321887D2*
X1332054D1*
X1438883D2*
X1448883D1*
X1469883D2*
X1479883D1*
X906883Y5346948D2*
X916883D1*
X959883D2*
X969883D1*
X990883D2*
X1000883D1*
X1038451D2*
X1054697D1*
X1075883D2*
X1085883D1*
X1187883D2*
X1197883D1*
X1214883D2*
X1224883D1*
X1242911D2*
X1252911D1*
X1296883D2*
X1306883D1*
X1321922D2*
X1332332D1*
X1438883D2*
X1448883D1*
X1469883D2*
X1479883D1*
X906883Y5345948D2*
X916883D1*
X959883D2*
X969883D1*
X990883D2*
X1000883D1*
X1040714D2*
X1055432D1*
X1075883D2*
X1085883D1*
X1187883D2*
X1197883D1*
X1214883D2*
X1224883D1*
X1242894D2*
X1252894D1*
X1296883D2*
X1306883D1*
X1322050D2*
X1332763D1*
X1438883D2*
X1448883D1*
X1469883D2*
X1479883D1*
X906883Y5344948D2*
X916883D1*
X959883D2*
X969883D1*
X990883D2*
X1000883D1*
X1042377D2*
X1056048D1*
X1075883D2*
X1085883D1*
X1187883D2*
X1197883D1*
X1214883D2*
X1224883D1*
X1242887D2*
X1252887D1*
X1296883D2*
X1306883D1*
X1322289D2*
X1333421D1*
X1438883D2*
X1448883D1*
X1469883D2*
X1479883D1*
X906883Y5343948D2*
X916883D1*
X959883D2*
X969883D1*
X990883D2*
X1000883D1*
X1043676D2*
X1056597D1*
X1075883D2*
X1085883D1*
X1149883D2*
X1197883D1*
X1214883D2*
X1224883D1*
X1242884D2*
X1252884D1*
X1296883D2*
X1306883D1*
X1322550D2*
X1334509D1*
X1438883D2*
X1448883D1*
X1469883D2*
X1479883D1*
X906883Y5342948D2*
X916883D1*
X959883D2*
X969883D1*
X990883D2*
X1000883D1*
X1044768D2*
X1057085D1*
X1075883D2*
X1085883D1*
X1147464D2*
X1197883D1*
X1214883D2*
X1224883D1*
X1242884D2*
X1252884D1*
X1296883D2*
X1306883D1*
X1322759D2*
X1336193D1*
X1438883D2*
X1448883D1*
X1469883D2*
X1479883D1*
X906883Y5341948D2*
X916883D1*
X959883D2*
X969883D1*
X990883D2*
X1000883D1*
X1045685D2*
X1057498D1*
X1075883D2*
X1085883D1*
X1145344D2*
X1197883D1*
X1214883D2*
X1224883D1*
X1242883D2*
X1252883D1*
X1296883D2*
X1306883D1*
X1322983D2*
X1338417D1*
X1438883D2*
X1448883D1*
X1469883D2*
X1479883D1*
X906883Y5340948D2*
X916883D1*
X959883D2*
X969883D1*
X990883D2*
X1000883D1*
X1046429D2*
X1057853D1*
X1075883D2*
X1085883D1*
X1143604D2*
X1197883D1*
X1214883D2*
X1224883D1*
X1242883D2*
X1252883D1*
X1296883D2*
X1306883D1*
X1323300D2*
X1370883D1*
X1438883D2*
X1448883D1*
X1469883D2*
X1479883D1*
X906883Y5339948D2*
X916883D1*
X959883D2*
X969883D1*
X990883D2*
X1000883D1*
X1047047D2*
X1058206D1*
X1075883D2*
X1085883D1*
X1142206D2*
X1197883D1*
X1214883D2*
X1224883D1*
X1242883D2*
X1252883D1*
X1296883D2*
X1306883D1*
X1323706D2*
X1373182D1*
X1438883D2*
X1448883D1*
X1469883D2*
X1479883D1*
X906883Y5338948D2*
X916883D1*
X959883D2*
X969883D1*
X990883D2*
X1000883D1*
X1047596D2*
X1058517D1*
X1075883D2*
X1085883D1*
X1141052D2*
X1197883D1*
X1214883D2*
X1224883D1*
X1242883D2*
X1252883D1*
X1296883D2*
X1306883D1*
X1324165D2*
X1375148D1*
X1438883D2*
X1448883D1*
X1469883D2*
X1479883D1*
X906883Y5337948D2*
X916883D1*
X959883D2*
X969883D1*
X990883D2*
X1000883D1*
X1048081D2*
X1058747D1*
X1075883D2*
X1085883D1*
X1140103D2*
X1197883D1*
X1214883D2*
X1224883D1*
X1242883D2*
X1252883D1*
X1296883D2*
X1306883D1*
X1324683D2*
X1376740D1*
X1438883D2*
X1448883D1*
X1469883D2*
X1479883D1*
X906883Y5336948D2*
X916883D1*
X959883D2*
X969883D1*
X990883D2*
X1000883D1*
X1048463D2*
X1058975D1*
X1075883D2*
X1085883D1*
X1139346D2*
X1197883D1*
X1214883D2*
X1224883D1*
X1242883D2*
X1252883D1*
X1296883D2*
X1306883D1*
X1325311D2*
X1377984D1*
X1438883D2*
X1448883D1*
X1469883D2*
X1479883D1*
X906883Y5335948D2*
X916883D1*
X959883D2*
X969883D1*
X990883D2*
X1000883D1*
X1048725D2*
X1059260D1*
X1075883D2*
X1085883D1*
X1138722D2*
X1197883D1*
X1214883D2*
X1224883D1*
X1242883D2*
X1252883D1*
X1296883D2*
X1306883D1*
X1326127D2*
X1378994D1*
X1438883D2*
X1448883D1*
X1469883D2*
X1479883D1*
X906883Y5334948D2*
X916883D1*
X959883D2*
X969883D1*
X990883D2*
X1000883D1*
X1048967D2*
X1059535D1*
X1075883D2*
X1085883D1*
X1138171D2*
X1173883D1*
X1187883D2*
X1197883D1*
X1214883D2*
X1224883D1*
X1242883D2*
X1252883D1*
X1296883D2*
X1306883D1*
X1327230D2*
X1379911D1*
X1438883D2*
X1448883D1*
X1469883D2*
X1479883D1*
X906883Y5333948D2*
X916883D1*
X959883D2*
X969883D1*
X990883D2*
X1000883D1*
X1049257D2*
X1059716D1*
X1075883D2*
X1085883D1*
X1137685D2*
X1161104D1*
X1187883D2*
X1197883D1*
X1214883D2*
X1224883D1*
X1242883D2*
X1252883D1*
X1296883D2*
X1306883D1*
X1328866D2*
X1380713D1*
X1438883D2*
X1448883D1*
X1469883D2*
X1479883D1*
X906883Y5332948D2*
X916883D1*
X959883D2*
X969883D1*
X990883D2*
X1000883D1*
X1049534D2*
X1059811D1*
X1075883D2*
X1085883D1*
X1137304D2*
X1155763D1*
X1187883D2*
X1197883D1*
X1214883D2*
X1224883D1*
X1242883D2*
X1252883D1*
X1296883D2*
X1306883D1*
X1331373D2*
X1381322D1*
X1438883D2*
X1448883D1*
X1469883D2*
X1479883D1*
X906883Y5331948D2*
X916883D1*
X959883D2*
X969883D1*
X990883D2*
X1000883D1*
X1049716D2*
X1059855D1*
X1075883D2*
X1085883D1*
X1137041D2*
X1152163D1*
X1187883D2*
X1197883D1*
X1214883D2*
X1224883D1*
X1242883D2*
X1252883D1*
X1296883D2*
X1306883D1*
X1334859D2*
X1381778D1*
X1438883D2*
X1448883D1*
X1469883D2*
X1479883D1*
X906883Y5330948D2*
X916883D1*
X959883D2*
X969883D1*
X990883D2*
X1000883D1*
X1049811D2*
X1059873D1*
X1075883D2*
X1085883D1*
X1136800D2*
X1149890D1*
X1187883D2*
X1197883D1*
X1214883D2*
X1224883D1*
X1242883D2*
X1252883D1*
X1296883D2*
X1306883D1*
X1338883D2*
X1382181D1*
X1438883D2*
X1448883D1*
X1469883D2*
X1479883D1*
X906883Y5329948D2*
X916883D1*
X959883D2*
X969883D1*
X990883D2*
X1000883D1*
X1049855D2*
X1059879D1*
X1075883D2*
X1085883D1*
X1136510D2*
X1148257D1*
X1187883D2*
X1197883D1*
X1214883D2*
X1224883D1*
X1242883D2*
X1252883D1*
X1296883D2*
X1306883D1*
X1369649D2*
X1382541D1*
X1438883D2*
X1448883D1*
X1469883D2*
X1479883D1*
X906883Y5328948D2*
X916883D1*
X959883D2*
X969883D1*
X990883D2*
X1000883D1*
X1049873D2*
X1059882D1*
X1075883D2*
X1085883D1*
X1136233D2*
X1147548D1*
X1187883D2*
X1197883D1*
X1214883D2*
X1224883D1*
X1242883D2*
X1252883D1*
X1296883D2*
X1306883D1*
X1371101D2*
X1382871D1*
X1438883D2*
X1448883D1*
X1469883D2*
X1479883D1*
X906883Y5327948D2*
X916883D1*
X959883D2*
X969883D1*
X990883D2*
X1000883D1*
X1049879D2*
X1059883D1*
X1075883D2*
X1085883D1*
X1136051D2*
X1147032D1*
X1187883D2*
X1197883D1*
X1214883D2*
X1224883D1*
X1242883D2*
X1252887D1*
X1296883D2*
X1306883D1*
X1372157D2*
X1383213D1*
X1438883D2*
X1448883D1*
X1469883D2*
X1479883D1*
X906883Y5326948D2*
X916883D1*
X959883D2*
X969883D1*
X990883D2*
X1000883D1*
X1049882D2*
X1059883D1*
X1075883D2*
X1085883D1*
X1135955D2*
X1146606D1*
X1187883D2*
X1197883D1*
X1214883D2*
X1224883D1*
X1242887D2*
X1252922D1*
X1296883D2*
X1306883D1*
X1372897D2*
X1383516D1*
X1438883D2*
X1448883D1*
X1469883D2*
X1479883D1*
X906883Y5325948D2*
X916883D1*
X959883D2*
X969883D1*
X990883D2*
X1000883D1*
X1049883D2*
X1059883D1*
X1075883D2*
X1085883D1*
X1135912D2*
X1146270D1*
X1187883D2*
X1197883D1*
X1214883D2*
X1224883D1*
X1242922D2*
X1253050D1*
X1296883D2*
X1306883D1*
X1373387D2*
X1383709D1*
X1438883D2*
X1448883D1*
X1469883D2*
X1479883D1*
X906883Y5324948D2*
X916883D1*
X959883D2*
X969883D1*
X990883D2*
X1000883D1*
X1049879D2*
X1059883D1*
X1075883D2*
X1085883D1*
X1135894D2*
X1146064D1*
X1187883D2*
X1197883D1*
X1214883D2*
X1224883D1*
X1243050D2*
X1253289D1*
X1296883D2*
X1306883D1*
X1373660D2*
X1383809D1*
X1438883D2*
X1448883D1*
X1469883D2*
X1479883D1*
X906883Y5323948D2*
X916883D1*
X959883D2*
X969883D1*
X990883D2*
X1000883D1*
X1049844D2*
X1059883D1*
X1075883D2*
X1085883D1*
X1135887D2*
X1145960D1*
X1187883D2*
X1197883D1*
X1214883D2*
X1224883D1*
X1243289D2*
X1253546D1*
X1296883D2*
X1306883D1*
X1373791D2*
X1383854D1*
X1438883D2*
X1448883D1*
X1469883D2*
X1479883D1*
X906883Y5322948D2*
X916883D1*
X959883D2*
X969883D1*
X990883D2*
X1000883D1*
X1049717D2*
X1059879D1*
X1075883D2*
X1085883D1*
X1135885D2*
X1145913D1*
X1187883D2*
X1197883D1*
X1214883D2*
X1224883D1*
X1243546D2*
X1253724D1*
X1296883D2*
X1306883D1*
X1373848D2*
X1383872D1*
X1438883D2*
X1448883D1*
X1469883D2*
X1479883D1*
X906883Y5321948D2*
X916883D1*
X959883D2*
X969883D1*
X990883D2*
X1000883D1*
X1049477D2*
X1059844D1*
X1075883D2*
X1085883D1*
X1135884D2*
X1145894D1*
X1187883D2*
X1197883D1*
X1214883D2*
X1224883D1*
X1243724D2*
X1253852D1*
X1296883D2*
X1306883D1*
X1373870D2*
X1383879D1*
X1438883D2*
X1448883D1*
X1469883D2*
X1479883D1*
X906883Y5320948D2*
X916883D1*
X959883D2*
X969883D1*
X990883D2*
X1000883D1*
X1049217D2*
X1059717D1*
X1075883D2*
X1085883D1*
X1135883D2*
X1145887D1*
X1187883D2*
X1197883D1*
X1214883D2*
X1224883D1*
X1243852D2*
X1254022D1*
X1296883D2*
X1306883D1*
X1373879D2*
X1383882D1*
X1438883D2*
X1448883D1*
X1469883D2*
X1479883D1*
X906883Y5319948D2*
X916883D1*
X959883D2*
X969883D1*
X990883D2*
X1000883D1*
X1049007D2*
X1059477D1*
X1075883D2*
X1085883D1*
X1135883D2*
X1145885D1*
X1187883D2*
X1197883D1*
X1214883D2*
X1224883D1*
X1244022D2*
X1254283D1*
X1296883D2*
X1306883D1*
X1373882D2*
X1383883D1*
X1438883D2*
X1448883D1*
X1469883D2*
X1479883D1*
X906883Y5318948D2*
X916887D1*
X959879D2*
X969883D1*
X990883D2*
X1000883D1*
X1048783D2*
X1059217D1*
X1075883D2*
X1085883D1*
X1135883D2*
X1145884D1*
X1187883D2*
X1197883D1*
X1214883D2*
X1224883D1*
X1244279D2*
X1254581D1*
X1296883D2*
X1306883D1*
X1373883D2*
X1383883D1*
X1438883D2*
X1448883D1*
X1469883D2*
X1479883D1*
X906883Y5317948D2*
X916922D1*
X959836D2*
X969883D1*
X990883D2*
X1000883D1*
X1048462D2*
X1059007D1*
X1075883D2*
X1085883D1*
X1135883D2*
X1145883D1*
X1187871D2*
X1197883D1*
X1214883D2*
X1224883D1*
X1244546D2*
X1254889D1*
X1296879D2*
X1306883D1*
X1373883D2*
X1383883D1*
X1438883D2*
X1448883D1*
X1469883D2*
X1479883D1*
X906887Y5316948D2*
X917054D1*
X959731D2*
X969883D1*
X990883D2*
X1000883D1*
X1048022D2*
X1058787D1*
X1075883D2*
X1085883D1*
X1135883D2*
X1145887D1*
X1187754D2*
X1197883D1*
X1214883D2*
X1224883D1*
X1244758D2*
X1255257D1*
X1296836D2*
X1306883D1*
X1373883D2*
X1383883D1*
X1438883D2*
X1448883D1*
X1469883D2*
X1479883D1*
X906922Y5315948D2*
X917328D1*
X959209D2*
X969883D1*
X990883D2*
X1000883D1*
X1047435D2*
X1058501D1*
X1075883D2*
X1085883D1*
X1135883D2*
X1145922D1*
X1187473D2*
X1197883D1*
X1214883D2*
X1224883D1*
X1244983D2*
X1255688D1*
X1296731D2*
X1306883D1*
X1373879D2*
X1383883D1*
X1438883D2*
X1448883D1*
X1469883D2*
X1479883D1*
X907050Y5314948D2*
X917716D1*
X957871D2*
X969883D1*
X990883D2*
X1000883D1*
X1046677D2*
X1058192D1*
X1075883D2*
X1085883D1*
X1135887D2*
X1146050D1*
X1186087D2*
X1197883D1*
X1214883D2*
X1224883D1*
X1245300D2*
X1256158D1*
X1296209D2*
X1306883D1*
X1373844D2*
X1383883D1*
X1438883D2*
X1448883D1*
X1469883D2*
X1479883D1*
X907293Y5313948D2*
X918169D1*
X956093D2*
X969883D1*
X990883D2*
X1000883D1*
X1045793D2*
X1057880D1*
X1075883D2*
X1085883D1*
X1135922D2*
X1146293D1*
X1184020D2*
X1197883D1*
X1214883D2*
X1224883D1*
X1245702D2*
X1256681D1*
X1294829D2*
X1306883D1*
X1373713D2*
X1383879D1*
X1438883D2*
X1448883D1*
X1469883D2*
X1479883D1*
X907585Y5312948D2*
X918685D1*
X954022D2*
X969883D1*
X990883D2*
X1000883D1*
X1044803D2*
X1057510D1*
X1075883D2*
X1085883D1*
X1136050D2*
X1146589D1*
X1181333D2*
X1197883D1*
X1214883D2*
X1224883D1*
X1246126D2*
X1257306D1*
X1292883D2*
X1306883D1*
X1373434D2*
X1383844D1*
X1438883D2*
X1448883D1*
X1469883D2*
X1479883D1*
X907890Y5311948D2*
X919311D1*
X951773D2*
X969883D1*
X990883D2*
X1000883D1*
X1043618D2*
X1057079D1*
X1075883D2*
X1085883D1*
X1136289D2*
X1146933D1*
X1178132D2*
X1197883D1*
X1214883D2*
X1224883D1*
X1246513D2*
X1258087D1*
X1290399D2*
X1306883D1*
X1373004D2*
X1383717D1*
X1438883D2*
X1448883D1*
X1469883D2*
X1479883D1*
X908258Y5310948D2*
X920123D1*
X949274D2*
X969883D1*
X990883D2*
X1000883D1*
X1042054D2*
X1056608D1*
X1075883D2*
X1085883D1*
X1136550D2*
X1147370D1*
X1174475D2*
X1197883D1*
X1214883D2*
X1224883D1*
X1246862D2*
X1259091D1*
X1287374D2*
X1306883D1*
X1372345D2*
X1383477D1*
X1438883D2*
X1448883D1*
X1469883D2*
X1479883D1*
X908688Y5309948D2*
X921175D1*
X946417D2*
X969883D1*
X990883D2*
X1000883D1*
X1039993D2*
X1056089D1*
X1075883D2*
X1085883D1*
X1136759D2*
X1148368D1*
X1170122D2*
X1197883D1*
X1214883D2*
X1224883D1*
X1247251D2*
X1260333D1*
X1283364D2*
X1306883D1*
X1371257D2*
X1383217D1*
X1438883D2*
X1448883D1*
X1469883D2*
X1479883D1*
X909158Y5308948D2*
X922527D1*
X943165D2*
X969883D1*
X990883D2*
X1000883D1*
X1037526D2*
X1055499D1*
X1075883D2*
X1085883D1*
X1136983D2*
X1151466D1*
X1164256D2*
X1197883D1*
X1214883D2*
X1224883D1*
X1247719D2*
X1263979D1*
X1277394D2*
X1306883D1*
X1369573D2*
X1383007D1*
X1438883D2*
X1448883D1*
X1469883D2*
X1479883D1*
X909681Y5307948D2*
X924146D1*
X939593D2*
X969883D1*
X990883D2*
X1054853D1*
X1075883D2*
X1085883D1*
X1137304D2*
X1156531D1*
X1156231D2*
X1197883D1*
X1214883D2*
X1224883D1*
X1248285D2*
X1269747D1*
X1268883D2*
X1306883D1*
X1367349D2*
X1382783D1*
X1438883D2*
X1448883D1*
X1469883D2*
X1479883D1*
X910306Y5306948D2*
X969883D1*
X990883D2*
X1054206D1*
X1075883D2*
X1085883D1*
X1137741D2*
X1197883D1*
X1214883D2*
X1224883D1*
X1248920D2*
X1306883D1*
X1324883D2*
X1382466D1*
X1438883D2*
X1448883D1*
X1469883D2*
X1479883D1*
X911080Y5305948D2*
X957887D1*
X959921D2*
X969883D1*
X990883D2*
X1053509D1*
X1075883D2*
X1085883D1*
X1138293D2*
X1186080D1*
X1188887D2*
X1197883D1*
X1214883D2*
X1224883D1*
X1249562D2*
X1306883D1*
X1324883D2*
X1382061D1*
X1438883D2*
X1448883D1*
X1469883D2*
X1479883D1*
X911966Y5304948D2*
X955922D1*
X960053D2*
X969883D1*
X990883D2*
X1052669D1*
X1075883D2*
X1085883D1*
X1138927D2*
X1183491D1*
X1188922D2*
X1197883D1*
X1214883D2*
X1224883D1*
X1250254D2*
X1293649D1*
X1297921D2*
X1306883D1*
X1324883D2*
X1381601D1*
X1438883D2*
X1448883D1*
X1469883D2*
X1479883D1*
X912916Y5303948D2*
X954050D1*
X960328D2*
X969883D1*
X990883D2*
X1051638D1*
X1075883D2*
X1085883D1*
X1139602D2*
X1181121D1*
X1189050D2*
X1197883D1*
X1214883D2*
X1224883D1*
X1251063D2*
X1292101D1*
X1298049D2*
X1306883D1*
X1324883D2*
X1381083D1*
X1438883D2*
X1448883D1*
X1469883D2*
X1479883D1*
X913899Y5302948D2*
X952285D1*
X960712D2*
X969883D1*
X990883D2*
X1050401D1*
X1075883D2*
X1085883D1*
X1140425D2*
X1178823D1*
X1189293D2*
X1197883D1*
X1214883D2*
X1224883D1*
X1251997D2*
X1290157D1*
X1298293D2*
X1306883D1*
X1324883D2*
X1380455D1*
X1438883D2*
X1448883D1*
X1469883D2*
X1479883D1*
X914930Y5301948D2*
X950507D1*
X961130D2*
X969883D1*
X990883D2*
X1048953D1*
X1075883D2*
X1085883D1*
X1141508D2*
X1176439D1*
X1189585D2*
X1197883D1*
X1214883D2*
X1224883D1*
X1253087D2*
X1287897D1*
X1298585D2*
X1306883D1*
X1324883D2*
X1379640D1*
X1438883D2*
X1448883D1*
X1469883D2*
X1479883D1*
X916098Y5300948D2*
X948546D1*
X961517D2*
X969883D1*
X990883D2*
X1047176D1*
X1075883D2*
X1085883D1*
X1142834D2*
X1173853D1*
X1189887D2*
X1197883D1*
X1214883D2*
X1224883D1*
X1254386D2*
X1285379D1*
X1298887D2*
X1306883D1*
X1324883D2*
X1378544D1*
X1438883D2*
X1448883D1*
X1469883D2*
X1479883D1*
X917541Y5299948D2*
X946323D1*
X961889D2*
X969883D1*
X990883D2*
X1044867D1*
X1075883D2*
X1085883D1*
X1144407D2*
X1170946D1*
X1190228D2*
X1197883D1*
X1214883D2*
X1224883D1*
X1255968D2*
X1282576D1*
X1299228D2*
X1306883D1*
X1324883D2*
X1376984D1*
X1438883D2*
X1448883D1*
X1469883D2*
X1479883D1*
X919357Y5298948D2*
X943797D1*
X962347D2*
X969883D1*
X990883D2*
X1042013D1*
X1075883D2*
X1085883D1*
X1146297D2*
X1167620D1*
X1190570D2*
X1197883D1*
X1214883D2*
X1224883D1*
X1257946D2*
X1279398D1*
X1299570D2*
X1306883D1*
X1333227D2*
X1374786D1*
X1438883D2*
X1448883D1*
X1469883D2*
X1479883D1*
X921527Y5297948D2*
X940942D1*
X962883D2*
X969883D1*
X990883D2*
X1038883D1*
X1075883D2*
X1085883D1*
X1148505D2*
X1163873D1*
X1190883D2*
X1197883D1*
X1214883D2*
X1224883D1*
X1260322D2*
X1275773D1*
X1299883D2*
X1306883D1*
X1341883D2*
X1371984D1*
X1438883D2*
X1448883D1*
X1469883D2*
X1479883D1*
X923883Y5296948D2*
X937883D1*
X1150883D2*
X1159883D1*
X1262883D2*
X1271883D1*
X1355883D2*
X1368883D1*
X1042841Y568948D2*
X1050841D1*
X1198841D2*
X1206841D1*
X1042841Y567948D2*
X1050841D1*
X1198841D2*
X1206841D1*
X1042841Y566948D2*
X1050841D1*
X1198841D2*
X1206841D1*
X1042841Y565948D2*
X1050841D1*
X1198841D2*
X1206841D1*
X1042841Y564948D2*
X1050841D1*
X1198841D2*
X1206841D1*
X1042841Y563948D2*
X1050841D1*
X1198841D2*
X1206841D1*
X959841Y562948D2*
X966841D1*
X1042841D2*
X1050841D1*
X1130841D2*
X1168841D1*
X1198841D2*
X1206841D1*
X959841Y561948D2*
X966841D1*
X1042841D2*
X1050841D1*
X1130841D2*
X1172184D1*
X1198841D2*
X1206841D1*
X959841Y560948D2*
X966841D1*
X1042841D2*
X1050841D1*
X1130841D2*
X1174878D1*
X1198841D2*
X1206841D1*
X959841Y559948D2*
X966841D1*
X1042841D2*
X1050841D1*
X1130841D2*
X1176908D1*
X1198841D2*
X1206841D1*
X959841Y558948D2*
X966841D1*
X1042841D2*
X1050841D1*
X1130841D2*
X1178435D1*
X1198841D2*
X1206841D1*
X959841Y557948D2*
X966841D1*
X1042841D2*
X1050841D1*
X1130841D2*
X1179642D1*
X1198841D2*
X1206841D1*
X959841Y556948D2*
X966841D1*
X1042841D2*
X1050841D1*
X1130841D2*
X1180610D1*
X1198841D2*
X1206841D1*
X959841Y555948D2*
X966841D1*
X1042841D2*
X1050841D1*
X1130841D2*
X1181374D1*
X1198841D2*
X1206841D1*
X959841Y554948D2*
X966841D1*
X1042841D2*
X1050841D1*
X1130841D2*
X1182001D1*
X1198841D2*
X1206841D1*
X959841Y553948D2*
X966841D1*
X1042841D2*
X1050841D1*
X1130841D2*
X1138841D1*
X1169799D2*
X1182557D1*
X1198841D2*
X1206841D1*
X959841Y552948D2*
X966841D1*
X1042841D2*
X1050841D1*
X1130841D2*
X1138841D1*
X1171628D2*
X1183078D1*
X1198841D2*
X1206841D1*
X959841Y551948D2*
X966841D1*
X1042841D2*
X1050841D1*
X1130841D2*
X1138841D1*
X1173187D2*
X1183583D1*
X1198841D2*
X1206841D1*
X959841Y550948D2*
X966841D1*
X1042841D2*
X1050841D1*
X1130841D2*
X1138841D1*
X1174393D2*
X1184050D1*
X1198841D2*
X1206841D1*
X959841Y549948D2*
X966841D1*
X1042841D2*
X1050841D1*
X1130841D2*
X1138841D1*
X1175278D2*
X1184425D1*
X1198841D2*
X1206841D1*
X959841Y548948D2*
X966841D1*
X1042841D2*
X1050841D1*
X1130841D2*
X1138841D1*
X1175925D2*
X1184685D1*
X1198841D2*
X1206841D1*
X959841Y547948D2*
X966841D1*
X1042841D2*
X1050841D1*
X1130841D2*
X1138841D1*
X1176377D2*
X1184925D1*
X1198841D2*
X1206841D1*
X959841Y546948D2*
X966841D1*
X1042841D2*
X1050841D1*
X1130841D2*
X1138841D1*
X1176667D2*
X1185215D1*
X1198841D2*
X1206841D1*
X959841Y545948D2*
X966841D1*
X1042841D2*
X1050841D1*
X1130841D2*
X1138841D1*
X1176919D2*
X1185492D1*
X1198841D2*
X1206841D1*
X959841Y544948D2*
X966841D1*
X1042841D2*
X1050841D1*
X1130841D2*
X1138841D1*
X1177213D2*
X1185674D1*
X1198841D2*
X1206841D1*
X959841Y543948D2*
X966841D1*
X1042841D2*
X1050841D1*
X1130841D2*
X1138841D1*
X1177491D2*
X1185769D1*
X1198841D2*
X1206841D1*
X959841Y542948D2*
X966841D1*
X1042841D2*
X1050841D1*
X1130841D2*
X1138841D1*
X1177674D2*
X1185813D1*
X1198841D2*
X1206841D1*
X959841Y541948D2*
X966841D1*
X1042841D2*
X1050841D1*
X1130841D2*
X1138841D1*
X1177769D2*
X1185831D1*
X1198841D2*
X1206841D1*
X959841Y540948D2*
X966841D1*
X1042841D2*
X1050841D1*
X1130841D2*
X1138841D1*
X1177813D2*
X1185837D1*
X1198841D2*
X1206841D1*
X959841Y539948D2*
X966841D1*
X996841D2*
X1017841D1*
X1042841D2*
X1050841D1*
X1130841D2*
X1138841D1*
X1177831D2*
X1185840D1*
X1198841D2*
X1206841D1*
X959841Y538948D2*
X966841D1*
X991437D2*
X1019799D1*
X1042841D2*
X1050841D1*
X1079841D2*
X1090841D1*
X1130841D2*
X1138841D1*
X1177837D2*
X1185841D1*
X1198841D2*
X1206841D1*
X1232841D2*
X1240841D1*
X1274841D2*
X1282841D1*
X1309841D2*
X1352841D1*
X1374841D2*
X1417841D1*
X959841Y537948D2*
X966841D1*
X987195D2*
X1021628D1*
X1042841D2*
X1050841D1*
X1078687D2*
X1089841D1*
X1130841D2*
X1138841D1*
X1177840D2*
X1185841D1*
X1198841D2*
X1206841D1*
X1232841D2*
X1240841D1*
X1274841D2*
X1282841D1*
X1307883D2*
X1352841D1*
X1372883D2*
X1417841D1*
X959841Y536948D2*
X966841D1*
X983971D2*
X1023187D1*
X1042841D2*
X1050841D1*
X1077439D2*
X1088841D1*
X1130841D2*
X1138841D1*
X1177841D2*
X1185841D1*
X1198841D2*
X1206841D1*
X1232841D2*
X1240841D1*
X1274841D2*
X1282841D1*
X1306050D2*
X1352837D1*
X1371050D2*
X1417837D1*
X959841Y535948D2*
X966841D1*
X982675D2*
X1024397D1*
X1042841D2*
X1050841D1*
X1076180D2*
X1087841D1*
X1130841D2*
X1138841D1*
X1177841D2*
X1185841D1*
X1198841D2*
X1206841D1*
X1232841D2*
X1240841D1*
X1274841D2*
X1282841D1*
X1304461D2*
X1352783D1*
X1369461D2*
X1417783D1*
X959841Y534948D2*
X966841D1*
X982226D2*
X1025317D1*
X1042841D2*
X1050841D1*
X1075005D2*
X1086841D1*
X1130841D2*
X1138841D1*
X1177841D2*
X1185841D1*
X1198841D2*
X1206841D1*
X1232841D2*
X1240841D1*
X1274841D2*
X1282841D1*
X1303158D2*
X1352642D1*
X1368158D2*
X1417642D1*
X959841Y533948D2*
X966841D1*
X981997D2*
X1026092D1*
X1042841D2*
X1050841D1*
X1073912D2*
X1085841D1*
X1130841D2*
X1138841D1*
X1177841D2*
X1185841D1*
X1198841D2*
X1206841D1*
X1232841D2*
X1240841D1*
X1274841D2*
X1282841D1*
X1302122D2*
X1351804D1*
X1367122D2*
X1416804D1*
X959841Y532948D2*
X966841D1*
X981897D2*
X1026783D1*
X1042841D2*
X1050841D1*
X1072869D2*
X1084837D1*
X1130841D2*
X1138841D1*
X1177837D2*
X1185837D1*
X1198841D2*
X1206841D1*
X1232841D2*
X1240841D1*
X1274841D2*
X1282841D1*
X1301295D2*
X1349726D1*
X1366295D2*
X1414726D1*
X959841Y531948D2*
X966841D1*
X981841D2*
X997841D1*
X1014444D2*
X1027330D1*
X1042841D2*
X1050841D1*
X1071852D2*
X1083802D1*
X1130841D2*
X1138841D1*
X1177802D2*
X1185802D1*
X1198841D2*
X1206841D1*
X1232841D2*
X1240841D1*
X1274841D2*
X1282841D1*
X1300563D2*
X1347453D1*
X1365563D2*
X1412453D1*
X959841Y530948D2*
X966841D1*
X1016579D2*
X1027756D1*
X1042841D2*
X1050841D1*
X1070845D2*
X1082675D1*
X1130841D2*
X1138841D1*
X1177675D2*
X1185675D1*
X1198841D2*
X1206841D1*
X1232841D2*
X1240841D1*
X1274841D2*
X1282841D1*
X1299889D2*
X1314431D1*
X1330565D2*
X1345499D1*
X1364889D2*
X1379431D1*
X1395565D2*
X1410499D1*
X959841Y529948D2*
X966841D1*
X1018117D2*
X1028142D1*
X1042841D2*
X1050841D1*
X1069842D2*
X1081435D1*
X1130841D2*
X1138841D1*
X1177431D2*
X1185435D1*
X1198841D2*
X1206841D1*
X1232841D2*
X1240841D1*
X1274841D2*
X1282841D1*
X1299349D2*
X1311676D1*
X1332854D2*
X1343841D1*
X1364349D2*
X1376676D1*
X1397854D2*
X1408841D1*
X959841Y528948D2*
X966841D1*
X1019163D2*
X1028463D1*
X1042841D2*
X1050841D1*
X1068842D2*
X1080179D1*
X1130841D2*
X1138841D1*
X1177140D2*
X1185175D1*
X1198841D2*
X1206841D1*
X1232841D2*
X1240841D1*
X1274841D2*
X1282841D1*
X1298925D2*
X1309675D1*
X1334539D2*
X1344457D1*
X1363925D2*
X1374675D1*
X1399539D2*
X1409457D1*
X959841Y527948D2*
X966841D1*
X1019881D2*
X1028663D1*
X1042841D2*
X1050841D1*
X1067841D2*
X1079004D1*
X1130841D2*
X1138841D1*
X1176834D2*
X1184965D1*
X1198841D2*
X1206841D1*
X1232841D2*
X1240841D1*
X1274841D2*
X1282841D1*
X1298536D2*
X1308227D1*
X1335744D2*
X1344996D1*
X1363536D2*
X1373227D1*
X1400744D2*
X1409996D1*
X959841Y526948D2*
X966841D1*
X1020357D2*
X1028765D1*
X1042841D2*
X1050841D1*
X1066841D2*
X1077912D1*
X1130841D2*
X1138841D1*
X1176463D2*
X1184745D1*
X1198841D2*
X1206841D1*
X1232841D2*
X1240841D1*
X1274841D2*
X1282841D1*
X1298180D2*
X1307179D1*
X1336640D2*
X1345436D1*
X1363180D2*
X1372179D1*
X1401640D2*
X1410436D1*
X959841Y525948D2*
X966841D1*
X1020626D2*
X1028811D1*
X1042841D2*
X1050841D1*
X1065837D2*
X1076869D1*
X1130841D2*
X1138841D1*
X1175993D2*
X1184459D1*
X1198841D2*
X1206841D1*
X1232841D2*
X1240841D1*
X1274841D2*
X1282841D1*
X1297853D2*
X1306466D1*
X1337275D2*
X1345803D1*
X1362853D2*
X1371466D1*
X1402275D2*
X1410803D1*
X959841Y524948D2*
X966841D1*
X1020790D2*
X1028830D1*
X1042841D2*
X1050841D1*
X1064802D2*
X1075852D1*
X1130841D2*
X1138841D1*
X1175356D2*
X1184150D1*
X1198841D2*
X1206841D1*
X1232841D2*
X1240841D1*
X1274841D2*
X1282841D1*
X1297511D2*
X1305970D1*
X1337736D2*
X1346161D1*
X1362511D2*
X1370970D1*
X1402736D2*
X1411161D1*
X959841Y523948D2*
X966841D1*
X1020973D2*
X1028837D1*
X1042841D2*
X1050841D1*
X1063675D2*
X1074845D1*
X1130841D2*
X1138841D1*
X1174428D2*
X1183838D1*
X1198841D2*
X1206841D1*
X1232841D2*
X1240841D1*
X1274841D2*
X1282841D1*
X1297209D2*
X1305556D1*
X1338135D2*
X1346470D1*
X1362209D2*
X1370556D1*
X1403135D2*
X1411470D1*
X959841Y522948D2*
X966841D1*
X1021234D2*
X1028840D1*
X1042841D2*
X1050841D1*
X1062435D2*
X1073842D1*
X1130841D2*
X1138841D1*
X1173144D2*
X1183468D1*
X1198841D2*
X1206841D1*
X1232841D2*
X1240841D1*
X1274841D2*
X1282841D1*
X1297015D2*
X1305225D1*
X1338461D2*
X1346666D1*
X1362015D2*
X1370225D1*
X1403461D2*
X1411666D1*
X959841Y521948D2*
X966841D1*
X1021499D2*
X1028841D1*
X1042841D2*
X1050841D1*
X1061179D2*
X1072842D1*
X1130841D2*
X1138841D1*
X1171559D2*
X1183037D1*
X1198841D2*
X1206841D1*
X1232841D2*
X1240841D1*
X1274841D2*
X1282841D1*
X1296916D2*
X1305021D1*
X1338662D2*
X1346766D1*
X1361916D2*
X1370021D1*
X1403662D2*
X1411766D1*
X959841Y520948D2*
X966841D1*
X1021673D2*
X1028841D1*
X1042841D2*
X1050841D1*
X1059985D2*
X1071841D1*
X1130841D2*
X1182566D1*
X1198841D2*
X1206841D1*
X1232841D2*
X1240841D1*
X1274841D2*
X1282841D1*
X1296871D2*
X1304918D1*
X1338765D2*
X1346812D1*
X1361871D2*
X1369918D1*
X1403765D2*
X1411812D1*
X959841Y519948D2*
X966841D1*
X1021731D2*
X1028841D1*
X1042841D2*
X1050841D1*
X1058702D2*
X1070841D1*
X1130841D2*
X1182044D1*
X1198841D2*
X1206841D1*
X1232841D2*
X1240841D1*
X1274841D2*
X1282841D1*
X1296852D2*
X1304871D1*
X1338811D2*
X1346830D1*
X1361852D2*
X1369871D1*
X1403811D2*
X1411830D1*
X959841Y518948D2*
X966841D1*
X1021646D2*
X1028841D1*
X1042841D2*
X1050841D1*
X1056887D2*
X1069841D1*
X1130841D2*
X1181414D1*
X1198841D2*
X1206841D1*
X1232841D2*
X1240841D1*
X1274841D2*
X1282841D1*
X1296845D2*
X1304852D1*
X1338830D2*
X1346837D1*
X1361845D2*
X1369852D1*
X1403830D2*
X1411837D1*
X959841Y517948D2*
X966841D1*
X1021425D2*
X1028841D1*
X1042841D2*
X1050841D1*
X1054159D2*
X1068841D1*
X1130841D2*
X1180602D1*
X1198841D2*
X1206841D1*
X1232841D2*
X1240841D1*
X1274841D2*
X1282841D1*
X1296843D2*
X1304845D1*
X1338837D2*
X1346840D1*
X1361843D2*
X1369845D1*
X1403837D2*
X1411840D1*
X959841Y516948D2*
X966841D1*
X1021175D2*
X1028841D1*
X1042841D2*
X1067841D1*
X1130841D2*
X1179549D1*
X1198841D2*
X1206841D1*
X1232841D2*
X1240841D1*
X1274841D2*
X1282841D1*
X1296842D2*
X1304843D1*
X1338840D2*
X1346841D1*
X1361842D2*
X1369843D1*
X1403840D2*
X1411841D1*
X959841Y515948D2*
X966841D1*
X1021002D2*
X1028841D1*
X1042841D2*
X1066841D1*
X1130841D2*
X1178193D1*
X1198841D2*
X1206841D1*
X1232841D2*
X1240841D1*
X1274841D2*
X1282841D1*
X1296841D2*
X1304846D1*
X1338841D2*
X1346837D1*
X1361841D2*
X1369846D1*
X1403841D2*
X1411837D1*
X959841Y514948D2*
X966841D1*
X1020905D2*
X1028841D1*
X1042841D2*
X1065841D1*
X1130841D2*
X1176552D1*
X1198841D2*
X1206841D1*
X1232841D2*
X1240841D1*
X1274841D2*
X1282841D1*
X1296845D2*
X1304880D1*
X1338837D2*
X1346802D1*
X1361845D2*
X1369880D1*
X1403837D2*
X1411802D1*
X959841Y513948D2*
X966841D1*
X988841D2*
X1028841D1*
X1042841D2*
X1064841D1*
X1130841D2*
X1138841D1*
X1144841D2*
X1174731D1*
X1198841D2*
X1206841D1*
X1232841D2*
X1240841D1*
X1274841D2*
X1282841D1*
X1296880D2*
X1305008D1*
X1338802D2*
X1346675D1*
X1361880D2*
X1370008D1*
X1403802D2*
X1411675D1*
X959841Y512948D2*
X966841D1*
X987229D2*
X1028841D1*
X1042841D2*
X1063841D1*
X1130841D2*
X1138841D1*
X1155841D2*
X1172841D1*
X1198841D2*
X1206841D1*
X1232841D2*
X1240841D1*
X1274841D2*
X1282841D1*
X1297008D2*
X1305251D1*
X1338671D2*
X1346435D1*
X1362008D2*
X1370251D1*
X1403671D2*
X1411435D1*
X959841Y511948D2*
X966841D1*
X985729D2*
X1028841D1*
X1042841D2*
X1064687D1*
X1130841D2*
X1138841D1*
X1198841D2*
X1206841D1*
X1232841D2*
X1240841D1*
X1274841D2*
X1282841D1*
X1297247D2*
X1305543D1*
X1338396D2*
X1346175D1*
X1362247D2*
X1370543D1*
X1403396D2*
X1411175D1*
X959841Y510948D2*
X966841D1*
X984452D2*
X1028841D1*
X1042841D2*
X1065439D1*
X1130841D2*
X1138841D1*
X1198841D2*
X1206841D1*
X1232841D2*
X1240841D1*
X1274841D2*
X1282841D1*
X1297508D2*
X1305848D1*
X1338008D2*
X1345965D1*
X1362508D2*
X1370848D1*
X1403008D2*
X1410965D1*
X959841Y509948D2*
X966841D1*
X983456D2*
X1028841D1*
X1042841D2*
X1066180D1*
X1130841D2*
X1138841D1*
X1198841D2*
X1206841D1*
X1232841D2*
X1240841D1*
X1274841D2*
X1282841D1*
X1297717D2*
X1306220D1*
X1337555D2*
X1345745D1*
X1362717D2*
X1371220D1*
X1402555D2*
X1410745D1*
X959841Y508948D2*
X966841D1*
X982632D2*
X1028841D1*
X1042841D2*
X1067001D1*
X1130841D2*
X1138841D1*
X1198841D2*
X1206841D1*
X1232841D2*
X1240841D1*
X1274841D2*
X1282841D1*
X1297941D2*
X1306685D1*
X1337040D2*
X1345459D1*
X1362941D2*
X1371685D1*
X1402040D2*
X1410459D1*
X959841Y507948D2*
X966841D1*
X981917D2*
X1018841D1*
X1020841D2*
X1028841D1*
X1042841D2*
X1050841D1*
X1056837D2*
X1067873D1*
X1130841D2*
X1138841D1*
X1198841D2*
X1206841D1*
X1232841D2*
X1240841D1*
X1274841D2*
X1282841D1*
X1298258D2*
X1307291D1*
X1336409D2*
X1345150D1*
X1363258D2*
X1372291D1*
X1401409D2*
X1410150D1*
X959841Y506948D2*
X966841D1*
X981360D2*
X1004841D1*
X1020841D2*
X1028841D1*
X1042841D2*
X1050841D1*
X1057802D2*
X1068703D1*
X1130841D2*
X1138841D1*
X1198841D2*
X1206841D1*
X1232841D2*
X1240841D1*
X1274841D2*
X1282841D1*
X1298664D2*
X1308131D1*
X1335558D2*
X1344838D1*
X1363664D2*
X1373131D1*
X1400558D2*
X1409838D1*
X959841Y505948D2*
X966841D1*
X980929D2*
X993038D1*
X1020841D2*
X1028841D1*
X1042841D2*
X1050841D1*
X1058675D2*
X1069446D1*
X1130841D2*
X1138841D1*
X1198841D2*
X1206841D1*
X1232841D2*
X1240841D1*
X1274841D2*
X1282841D1*
X1299123D2*
X1309345D1*
X1334340D2*
X1344468D1*
X1364123D2*
X1374345D1*
X1399340D2*
X1409468D1*
X959841Y504948D2*
X966841D1*
X980541D2*
X991457D1*
X1020841D2*
X1028841D1*
X1042841D2*
X1050841D1*
X1059435D2*
X1070179D1*
X1130841D2*
X1138841D1*
X1198841D2*
X1206841D1*
X1232841D2*
X1240841D1*
X1274841D2*
X1282841D1*
X1299641D2*
X1311098D1*
X1332585D2*
X1344037D1*
X1364641D2*
X1376098D1*
X1397585D2*
X1409037D1*
X959841Y503948D2*
X966841D1*
X980220D2*
X990161D1*
X1020841D2*
X1028841D1*
X1042841D2*
X1050841D1*
X1060179D2*
X1070967D1*
X1130841D2*
X1138841D1*
X1198841D2*
X1206841D1*
X1232841D2*
X1240841D1*
X1274841D2*
X1282841D1*
X1300265D2*
X1313355D1*
X1330328D2*
X1343566D1*
X1365265D2*
X1378355D1*
X1395328D2*
X1408566D1*
X959841Y502948D2*
X966841D1*
X980019D2*
X989165D1*
X1020841D2*
X1028841D1*
X1042841D2*
X1050841D1*
X1061000D2*
X1071746D1*
X1130841D2*
X1138841D1*
X1198841D2*
X1206841D1*
X1232841D2*
X1240841D1*
X1274841D2*
X1282841D1*
X1301037D2*
X1343044D1*
X1366037D2*
X1408044D1*
X959841Y501948D2*
X966841D1*
X979917D2*
X988389D1*
X1020841D2*
X1028841D1*
X1042841D2*
X1050841D1*
X1061873D2*
X1072463D1*
X1130841D2*
X1138841D1*
X1198841D2*
X1206841D1*
X1232841D2*
X1240841D1*
X1274841D2*
X1282841D1*
X1301917D2*
X1342418D1*
X1366917D2*
X1407418D1*
X959841Y500948D2*
X966841D1*
X979871D2*
X988107D1*
X1020841D2*
X1028841D1*
X1042841D2*
X1050841D1*
X1062703D2*
X1073185D1*
X1130841D2*
X1138841D1*
X1198841D2*
X1206841D1*
X1232841D2*
X1240841D1*
X1274841D2*
X1282841D1*
X1302841D2*
X1341641D1*
X1367841D2*
X1406641D1*
X959841Y499948D2*
X966841D1*
X979852D2*
X987955D1*
X1020841D2*
X1028841D1*
X1042841D2*
X1050841D1*
X1063446D2*
X1073969D1*
X1130841D2*
X1138841D1*
X1198841D2*
X1206841D1*
X1232841D2*
X1240841D1*
X1274841D2*
X1282841D1*
X1301537D2*
X1340715D1*
X1366537D2*
X1405715D1*
X959841Y498948D2*
X966841D1*
X979845D2*
X987886D1*
X1020841D2*
X1028841D1*
X1042841D2*
X1050841D1*
X1064183D2*
X1074746D1*
X1130841D2*
X1138841D1*
X1198841D2*
X1206841D1*
X1232841D2*
X1240841D1*
X1274841D2*
X1282841D1*
X1300372D2*
X1339588D1*
X1365372D2*
X1404588D1*
X959837Y497948D2*
X966841D1*
X979843D2*
X987858D1*
X1020841D2*
X1028841D1*
X1042841D2*
X1050841D1*
X1065002D2*
X1075464D1*
X1130841D2*
X1138841D1*
X1198845D2*
X1206841D1*
X1232841D2*
X1240841D1*
X1274841D2*
X1282841D1*
X1299457D2*
X1338088D1*
X1364457D2*
X1403088D1*
X959802Y496948D2*
X966841D1*
X979842D2*
X987847D1*
X1020841D2*
X1028841D1*
X1042841D2*
X1050841D1*
X1065873D2*
X1076189D1*
X1130841D2*
X1138841D1*
X1198880D2*
X1206845D1*
X1232841D2*
X1240841D1*
X1274841D2*
X1282841D1*
X1298747D2*
X1335971D1*
X1363747D2*
X1400971D1*
X959675Y495948D2*
X966841D1*
X979841D2*
X987843D1*
X1020841D2*
X1028841D1*
X1042841D2*
X1050841D1*
X1066703D2*
X1077004D1*
X1130841D2*
X1138841D1*
X1199008D2*
X1206880D1*
X1232841D2*
X1240841D1*
X1274841D2*
X1282841D1*
X1298156D2*
X1333119D1*
X1363156D2*
X1398119D1*
X959435Y494948D2*
X966841D1*
X979841D2*
X987842D1*
X1020837D2*
X1028841D1*
X1042841D2*
X1050841D1*
X1067446D2*
X1077874D1*
X1130841D2*
X1138841D1*
X1199247D2*
X1207008D1*
X1232845D2*
X1240845D1*
X1274837D2*
X1282841D1*
X1297653D2*
X1329841D1*
X1362653D2*
X1394841D1*
X959175Y493948D2*
X966841D1*
X979841D2*
X987841D1*
X1020790D2*
X1028841D1*
X1042841D2*
X1050841D1*
X1068183D2*
X1078703D1*
X1130841D2*
X1138841D1*
X1199504D2*
X1207251D1*
X1232880D2*
X1240880D1*
X1274794D2*
X1282841D1*
X1297269D2*
X1306038D1*
X1362269D2*
X1371038D1*
X958965Y492948D2*
X966841D1*
X979841D2*
X987841D1*
X1020673D2*
X1028841D1*
X1042841D2*
X1050841D1*
X1069002D2*
X1079446D1*
X1130841D2*
X1138841D1*
X1199678D2*
X1207543D1*
X1233008D2*
X1241012D1*
X1274689D2*
X1282841D1*
X1297039D2*
X1305453D1*
X1362039D2*
X1370453D1*
X958741Y491948D2*
X966841D1*
X979841D2*
X987845D1*
X1020046D2*
X1028841D1*
X1042841D2*
X1050841D1*
X1069873D2*
X1080179D1*
X1130841D2*
X1138841D1*
X1199775D2*
X1207848D1*
X1233251D2*
X1241290D1*
X1274167D2*
X1282841D1*
X1296925D2*
X1305126D1*
X1361925D2*
X1370126D1*
X958424Y490948D2*
X966837D1*
X979845D2*
X987884D1*
X1018350D2*
X1028841D1*
X1042841D2*
X1050841D1*
X1070703D2*
X1080967D1*
X1130841D2*
X1138841D1*
X1199852D2*
X1208224D1*
X1233543D2*
X1241713D1*
X1272825D2*
X1282841D1*
X1296874D2*
X1304949D1*
X1361874D2*
X1369949D1*
X958015Y489948D2*
X966802D1*
X979880D2*
X988051D1*
X1015973D2*
X1028841D1*
X1042841D2*
X1050841D1*
X1071446D2*
X1081746D1*
X1130841D2*
X1138841D1*
X1199997D2*
X1208732D1*
X1233848D2*
X1242297D1*
X1271008D2*
X1282841D1*
X1296857D2*
X1305141D1*
X1361857D2*
X1370141D1*
X957516Y488948D2*
X966675D1*
X980008D2*
X988363D1*
X1012878D2*
X1028841D1*
X1042841D2*
X1050841D1*
X1072183D2*
X1082463D1*
X1130841D2*
X1138841D1*
X1200247D2*
X1209377D1*
X1234216D2*
X1243092D1*
X1268770D2*
X1282841D1*
X1296885D2*
X1306040D1*
X1361885D2*
X1371040D1*
X956796Y487948D2*
X966431D1*
X980251D2*
X989191D1*
X1008873D2*
X1028841D1*
X1042841D2*
X1050841D1*
X1073002D2*
X1083189D1*
X1130841D2*
X1138841D1*
X1200541D2*
X1210872D1*
X1234646D2*
X1244137D1*
X1266120D2*
X1282841D1*
X1297013D2*
X1307339D1*
X1362013D2*
X1372339D1*
X955808Y486948D2*
X966140D1*
X980547D2*
X991648D1*
X1003309D2*
X1028841D1*
X1042841D2*
X1050841D1*
X1073873D2*
X1084004D1*
X1130841D2*
X1138841D1*
X1200848D2*
X1213007D1*
X1235116D2*
X1245487D1*
X1263001D2*
X1282841D1*
X1297287D2*
X1338841D1*
X1362287D2*
X1403841D1*
X952696Y485948D2*
X965834D1*
X980884D2*
X995709D1*
X995690D2*
X1028841D1*
X1042841D2*
X1050841D1*
X1074703D2*
X1084874D1*
X1130841D2*
X1138841D1*
X1201220D2*
X1215747D1*
X1235639D2*
X1247104D1*
X1259503D2*
X1282841D1*
X1297678D2*
X1340915D1*
X1362678D2*
X1405915D1*
X937841Y484948D2*
X942841D1*
X947838D2*
X965463D1*
X981347D2*
X1028841D1*
X1042841D2*
X1050841D1*
X1075446D2*
X1085703D1*
X1130841D2*
X1138841D1*
X1201685D2*
X1218618D1*
X1236264D2*
X1282841D1*
X1298162D2*
X1342702D1*
X1363162D2*
X1407702D1*
X937691Y483948D2*
X964997D1*
X981925D2*
X1019034D1*
X1021879D2*
X1028841D1*
X1042841D2*
X1050841D1*
X1076183D2*
X1086446D1*
X1130841D2*
X1138841D1*
X1202283D2*
X1220965D1*
X1237038D2*
X1272996D1*
X1274683D2*
X1282841D1*
X1298762D2*
X1344124D1*
X1363762D2*
X1409124D1*
X937482Y482948D2*
X964396D1*
X982543D2*
X1016410D1*
X1022007D2*
X1028841D1*
X1042841D2*
X1050841D1*
X1077002D2*
X1087179D1*
X1130841D2*
X1138841D1*
X1203049D2*
X1222730D1*
X1237924D2*
X1271244D1*
X1275396D2*
X1282841D1*
X1299423D2*
X1345185D1*
X1364423D2*
X1410185D1*
X937290Y481948D2*
X963595D1*
X983262D2*
X1013909D1*
X1022251D2*
X1028841D1*
X1042841D2*
X1050841D1*
X1077873D2*
X1087967D1*
X1130841D2*
X1138841D1*
X1203970D2*
X1223413D1*
X1238878D2*
X1269499D1*
X1275974D2*
X1282841D1*
X1300040D2*
X1346035D1*
X1365040D2*
X1411035D1*
X937511Y480948D2*
X962535D1*
X984233D2*
X1011332D1*
X1022546D2*
X1028841D1*
X1042841D2*
X1050841D1*
X1078702D2*
X1088745D1*
X1130841D2*
X1138841D1*
X1205084D2*
X1223645D1*
X1239900D2*
X1267635D1*
X1276431D2*
X1282841D1*
X1300156D2*
X1346760D1*
X1365156D2*
X1411760D1*
X938285Y479948D2*
X961067D1*
X985574D2*
X1008523D1*
X1022875D2*
X1028841D1*
X1042841D2*
X1050841D1*
X1079437D2*
X1089454D1*
X1130841D2*
X1138841D1*
X1206465D2*
X1223762D1*
X1241097D2*
X1265561D1*
X1276831D2*
X1282841D1*
X1299851D2*
X1347321D1*
X1364851D2*
X1412321D1*
X940125Y478948D2*
X958963D1*
X987344D2*
X1005350D1*
X1023315D2*
X1028841D1*
X1042841D2*
X1050841D1*
X1080132D2*
X1090138D1*
X1130841D2*
X1138841D1*
X1208097D2*
X1223813D1*
X1242651D2*
X1263202D1*
X1277300D2*
X1282841D1*
X1299375D2*
X1303841D1*
X1307841D2*
X1347753D1*
X1364375D2*
X1368841D1*
X1372841D2*
X1412753D1*
X942744Y477948D2*
X956116D1*
X989496D2*
X1001728D1*
X1023841D2*
X1028841D1*
X1042841D2*
X1050841D1*
X1080841D2*
X1090841D1*
X1130841D2*
X1138841D1*
X1209841D2*
X1223841D1*
X1244631D2*
X1260580D1*
X1277841D2*
X1282841D1*
X1298784D2*
X1303841D1*
X1338799D2*
X1348141D1*
X1363784D2*
X1368841D1*
X1403799D2*
X1413141D1*
X945841Y476948D2*
X952841D1*
X991841D2*
X997841D1*
X1246841D2*
X1257841D1*
X1298196D2*
X1303841D1*
X1339636D2*
X1348463D1*
X1363196D2*
X1368841D1*
X1404636D2*
X1413463D1*
X1297677Y475948D2*
X1303841D1*
X1340265D2*
X1348663D1*
X1362677D2*
X1368841D1*
X1405265D2*
X1413663D1*
X1297280Y474948D2*
X1303841D1*
X1340730D2*
X1348765D1*
X1362280D2*
X1368841D1*
X1405730D2*
X1413765D1*
X1297044Y473948D2*
X1303841D1*
X1341133D2*
X1348811D1*
X1362044D2*
X1368841D1*
X1406133D2*
X1413811D1*
X1296926Y472948D2*
X1303841D1*
X1341459D2*
X1348830D1*
X1361926D2*
X1368841D1*
X1406459D2*
X1413830D1*
X1296874Y471948D2*
X1303841D1*
X1341662D2*
X1348837D1*
X1361874D2*
X1368841D1*
X1406662D2*
X1413837D1*
X1296853Y470948D2*
X1303841D1*
X1341765D2*
X1348840D1*
X1361853D2*
X1368841D1*
X1406765D2*
X1413840D1*
X1296846Y469948D2*
X1303841D1*
X1341811D2*
X1348841D1*
X1361846D2*
X1368841D1*
X1406811D2*
X1413841D1*
X1296843Y468948D2*
X1303841D1*
X1341830D2*
X1348841D1*
X1361843D2*
X1368841D1*
X1406830D2*
X1413841D1*
X1296842Y467948D2*
X1303841D1*
X1341837D2*
X1348841D1*
X1361842D2*
X1368841D1*
X1406837D2*
X1413841D1*
X1296841Y466948D2*
X1303841D1*
X1341840D2*
X1348841D1*
X1361841D2*
X1368841D1*
X1406840D2*
X1413841D1*
X1296841Y465948D2*
X1303841D1*
X1341841D2*
X1348841D1*
X1361841D2*
X1368841D1*
X1406841D2*
X1413841D1*
X1296841Y464948D2*
X1303845D1*
X1341837D2*
X1348841D1*
X1361841D2*
X1368845D1*
X1406837D2*
X1413841D1*
X1296841Y463948D2*
X1303880D1*
X1341802D2*
X1348841D1*
X1361841D2*
X1368880D1*
X1406802D2*
X1413841D1*
X1296841Y462948D2*
X1304008D1*
X1341675D2*
X1348841D1*
X1361841D2*
X1369008D1*
X1406675D2*
X1413841D1*
X1296841Y461948D2*
X1304251D1*
X1341431D2*
X1348841D1*
X1361841D2*
X1369251D1*
X1406431D2*
X1413841D1*
X1296841Y460948D2*
X1304547D1*
X1341140D2*
X1348841D1*
X1361841D2*
X1369547D1*
X1406140D2*
X1413841D1*
X1296845Y459948D2*
X1304887D1*
X1340830D2*
X1348837D1*
X1361845D2*
X1369887D1*
X1405830D2*
X1413837D1*
X1296880Y458948D2*
X1305394D1*
X1340420D2*
X1348802D1*
X1361880D2*
X1370394D1*
X1405420D2*
X1413802D1*
X1297012Y457948D2*
X1306177D1*
X1339788D2*
X1348671D1*
X1362012D2*
X1371177D1*
X1404788D2*
X1413671D1*
X1297286Y456948D2*
X1307364D1*
X1338784D2*
X1348396D1*
X1362286D2*
X1372364D1*
X1403784D2*
X1413396D1*
X1297674Y455948D2*
X1309105D1*
X1337362D2*
X1348008D1*
X1362674D2*
X1374105D1*
X1402362D2*
X1413008D1*
X1298127Y454948D2*
X1311358D1*
X1335657D2*
X1347559D1*
X1363127D2*
X1376358D1*
X1400657D2*
X1412559D1*
X1298643Y453948D2*
X1347079D1*
X1363643D2*
X1412079D1*
X1299269Y452948D2*
X1346580D1*
X1364269D2*
X1411580D1*
X1300077Y451948D2*
X1346011D1*
X1365077D2*
X1411011D1*
X1301098Y450948D2*
X1345246D1*
X1366098D2*
X1410246D1*
X1302373Y449948D2*
X1344150D1*
X1367373D2*
X1409150D1*
X1304018Y448948D2*
X1342636D1*
X1369018D2*
X1407636D1*
X1306299Y447948D2*
X1340551D1*
X1371299D2*
X1405551D1*
X1309357Y446948D2*
X1337854D1*
X1374357D2*
X1402854D1*
X1312841Y445948D2*
X1334841D1*
X1377841D2*
X1399841D1*
X1296883Y5411948D2*
Y5410948D1*
Y5409948D1*
Y5408948D1*
Y5407948D1*
Y5406948D1*
Y5405948D1*
Y5404948D1*
Y5403948D1*
Y5402948D1*
Y5401948D1*
Y5400948D1*
Y5399948D1*
Y5398948D1*
Y5397948D1*
Y5396948D1*
Y5395948D1*
Y5394948D1*
Y5393948D1*
Y5392948D1*
Y5391948D1*
Y5390948D1*
Y5389948D1*
Y5388948D1*
Y5387948D1*
Y5386948D1*
Y5385948D1*
Y5384948D1*
Y5383948D1*
Y5382948D1*
Y5381948D1*
Y5380948D1*
Y5379948D1*
Y5378948D1*
Y5377948D1*
Y5376948D1*
Y5375948D1*
X1296871Y5374948D1*
X1296757Y5373948D1*
X1296485Y5372948D1*
X1295316Y5371948D1*
X1293883Y5370948D1*
X1306883Y5411948D2*
Y5410948D1*
Y5409948D1*
Y5408948D1*
Y5407948D1*
Y5406948D1*
Y5405948D1*
Y5404948D1*
Y5403948D1*
Y5402948D1*
Y5401948D1*
Y5400948D1*
Y5399948D1*
Y5398948D1*
Y5397948D1*
Y5396948D1*
Y5395948D1*
Y5394948D1*
Y5393948D1*
Y5392948D1*
Y5391948D1*
Y5390948D1*
Y5389948D1*
Y5388948D1*
Y5387948D1*
Y5386948D1*
Y5385948D1*
Y5384948D1*
Y5383948D1*
Y5382948D1*
Y5381948D1*
Y5380948D1*
Y5379948D1*
Y5378948D1*
Y5377948D1*
Y5376948D1*
Y5375948D1*
Y5374948D1*
Y5373948D1*
Y5372948D1*
Y5371948D1*
Y5370948D1*
Y5369948D1*
Y5368948D1*
Y5367948D1*
Y5366948D1*
Y5365948D1*
Y5364948D1*
Y5363948D1*
Y5362948D1*
Y5361948D1*
Y5360948D1*
Y5359948D1*
Y5358948D1*
Y5357948D1*
Y5356948D1*
Y5355948D1*
Y5354948D1*
Y5353948D1*
Y5352948D1*
Y5351948D1*
Y5350948D1*
Y5349948D1*
Y5348948D1*
Y5347948D1*
Y5346948D1*
Y5345948D1*
Y5344948D1*
Y5343948D1*
Y5342948D1*
Y5341948D1*
Y5340948D1*
Y5339948D1*
Y5338948D1*
Y5337948D1*
Y5336948D1*
Y5335948D1*
Y5334948D1*
Y5333948D1*
Y5332948D1*
Y5331948D1*
Y5330948D1*
Y5329948D1*
Y5328948D1*
Y5327948D1*
Y5326948D1*
Y5325948D1*
Y5324948D1*
Y5323948D1*
Y5322948D1*
Y5321948D1*
Y5320948D1*
Y5319948D1*
Y5318948D1*
Y5317948D1*
Y5316948D1*
Y5315948D1*
Y5314948D1*
Y5313948D1*
Y5312948D1*
Y5311948D1*
Y5310948D1*
Y5309948D1*
Y5308948D1*
Y5307948D1*
Y5306948D1*
Y5305948D1*
Y5304948D1*
Y5303948D1*
Y5302948D1*
Y5301948D1*
Y5300948D1*
Y5299948D1*
Y5298948D1*
Y5297948D1*
X990883Y5404948D2*
Y5403948D1*
Y5402948D1*
Y5401948D1*
Y5400948D1*
Y5399948D1*
Y5398948D1*
Y5397948D1*
Y5396948D1*
Y5395948D1*
Y5394948D1*
Y5393948D1*
Y5392948D1*
Y5391948D1*
Y5390948D1*
Y5389948D1*
Y5388948D1*
Y5387948D1*
Y5386948D1*
Y5385948D1*
Y5384948D1*
Y5383948D1*
Y5382948D1*
Y5381948D1*
Y5380948D1*
Y5379948D1*
Y5378948D1*
Y5377948D1*
Y5376948D1*
Y5375948D1*
Y5374948D1*
Y5373948D1*
Y5372948D1*
Y5371948D1*
Y5370948D1*
Y5369948D1*
Y5368948D1*
Y5367948D1*
Y5366948D1*
Y5365948D1*
Y5364948D1*
Y5363948D1*
Y5362948D1*
Y5361948D1*
Y5360948D1*
Y5359948D1*
Y5358948D1*
Y5357948D1*
Y5356948D1*
Y5355948D1*
Y5354948D1*
Y5353948D1*
Y5352948D1*
Y5351948D1*
Y5350948D1*
Y5349948D1*
Y5348948D1*
Y5347948D1*
Y5346948D1*
Y5345948D1*
Y5344948D1*
Y5343948D1*
Y5342948D1*
Y5341948D1*
Y5340948D1*
Y5339948D1*
Y5338948D1*
Y5337948D1*
Y5336948D1*
Y5335948D1*
Y5334948D1*
Y5333948D1*
Y5332948D1*
Y5331948D1*
Y5330948D1*
Y5329948D1*
Y5328948D1*
Y5327948D1*
Y5326948D1*
Y5325948D1*
Y5324948D1*
Y5323948D1*
Y5322948D1*
Y5321948D1*
Y5320948D1*
Y5319948D1*
Y5318948D1*
Y5317948D1*
Y5316948D1*
Y5315948D1*
Y5314948D1*
Y5313948D1*
Y5312948D1*
Y5311948D1*
Y5310948D1*
Y5309948D1*
Y5308948D1*
Y5307948D1*
Y5306948D1*
Y5305948D1*
Y5304948D1*
Y5303948D1*
Y5302948D1*
Y5301948D1*
Y5300948D1*
Y5299948D1*
Y5298948D1*
Y5297948D1*
X1034883Y5404948D2*
X1039068Y5403948D1*
X1042479Y5402948D1*
X1045118Y5401948D1*
X1047196Y5400948D1*
X1048917Y5399948D1*
X1050359Y5398948D1*
X1051498Y5397948D1*
X1052383Y5396948D1*
X1053147Y5395948D1*
X1053863Y5394948D1*
X1054504Y5393948D1*
X1055077Y5392948D1*
X1055611Y5391948D1*
X1056124Y5390948D1*
X1056627Y5389948D1*
X1057097Y5388948D1*
X1057502Y5387948D1*
X1057854Y5386948D1*
X1058207Y5385948D1*
X1058513Y5384948D1*
X1058708Y5383948D1*
X1058812Y5382948D1*
X1058893Y5381948D1*
X1059039Y5380948D1*
X1059285Y5379948D1*
X1059544Y5378948D1*
X1059716Y5377948D1*
X1059774Y5376948D1*
X1059689Y5375948D1*
X1059467Y5374948D1*
X1059217Y5373948D1*
X1059045Y5372948D1*
X1058953Y5371948D1*
X1058907Y5370948D1*
X1058855Y5369948D1*
X1058720Y5368948D1*
X1058475Y5367948D1*
X1058182Y5366948D1*
X1057876Y5365948D1*
X1057509Y5364948D1*
X1057078Y5363948D1*
X1056612Y5362948D1*
X1056125Y5361948D1*
X1055627Y5360948D1*
X1055089Y5359948D1*
X1054424Y5358948D1*
X1053517Y5357948D1*
X1052356Y5356948D1*
X1051021Y5355948D1*
X1049619Y5354948D1*
X1048231Y5353948D1*
X1046883Y5352948D1*
X1048687Y5351948D1*
X1050272Y5350948D1*
X1051606Y5349948D1*
X1052765Y5348948D1*
X1053800Y5347948D1*
X1054697Y5346948D1*
X1055432Y5345948D1*
X1056048Y5344948D1*
X1056597Y5343948D1*
X1057085Y5342948D1*
X1057498Y5341948D1*
X1057853Y5340948D1*
X1058206Y5339948D1*
X1058517Y5338948D1*
X1058747Y5337948D1*
X1058975Y5336948D1*
X1059260Y5335948D1*
X1059535Y5334948D1*
X1059716Y5333948D1*
X1059811Y5332948D1*
X1059855Y5331948D1*
X1059873Y5330948D1*
X1059879Y5329948D1*
X1059882Y5328948D1*
X1059883Y5327948D1*
Y5326948D1*
Y5325948D1*
Y5324948D1*
Y5323948D1*
X1059879Y5322948D1*
X1059844Y5321948D1*
X1059717Y5320948D1*
X1059477Y5319948D1*
X1059217Y5318948D1*
X1059007Y5317948D1*
X1058787Y5316948D1*
X1058501Y5315948D1*
X1058192Y5314948D1*
X1057880Y5313948D1*
X1057510Y5312948D1*
X1057079Y5311948D1*
X1056608Y5310948D1*
X1056089Y5309948D1*
X1055499Y5308948D1*
X1054853Y5307948D1*
X1054206Y5306948D1*
X1053509Y5305948D1*
X1052669Y5304948D1*
X1051638Y5303948D1*
X1050401Y5302948D1*
X1048953Y5301948D1*
X1047176Y5300948D1*
X1044867Y5299948D1*
X1042013Y5298948D1*
X1038883Y5297948D1*
X1438883Y5404948D2*
Y5403948D1*
Y5402948D1*
Y5401948D1*
Y5400948D1*
Y5399948D1*
Y5398948D1*
Y5397948D1*
Y5396948D1*
Y5395948D1*
Y5394948D1*
Y5393948D1*
Y5392948D1*
Y5391948D1*
Y5390948D1*
Y5389948D1*
Y5388948D1*
Y5387948D1*
Y5386948D1*
Y5385948D1*
Y5384948D1*
Y5383948D1*
Y5382948D1*
Y5381948D1*
Y5380948D1*
Y5379948D1*
Y5378948D1*
Y5377948D1*
Y5376948D1*
Y5375948D1*
Y5374948D1*
Y5373948D1*
Y5372948D1*
Y5371948D1*
Y5370948D1*
Y5369948D1*
Y5368948D1*
Y5367948D1*
Y5366948D1*
Y5365948D1*
Y5364948D1*
Y5363948D1*
Y5362948D1*
Y5361948D1*
Y5360948D1*
Y5359948D1*
Y5358948D1*
Y5357948D1*
Y5356948D1*
Y5355948D1*
Y5354948D1*
Y5353948D1*
Y5352948D1*
Y5351948D1*
Y5350948D1*
Y5349948D1*
Y5348948D1*
Y5347948D1*
Y5346948D1*
Y5345948D1*
Y5344948D1*
Y5343948D1*
Y5342948D1*
Y5341948D1*
Y5340948D1*
Y5339948D1*
Y5338948D1*
Y5337948D1*
Y5336948D1*
Y5335948D1*
Y5334948D1*
Y5333948D1*
Y5332948D1*
Y5331948D1*
Y5330948D1*
Y5329948D1*
Y5328948D1*
Y5327948D1*
Y5326948D1*
Y5325948D1*
Y5324948D1*
Y5323948D1*
Y5322948D1*
Y5321948D1*
Y5320948D1*
Y5319948D1*
Y5318948D1*
Y5317948D1*
Y5316948D1*
Y5315948D1*
Y5314948D1*
Y5313948D1*
Y5312948D1*
Y5311948D1*
Y5310948D1*
Y5309948D1*
Y5308948D1*
Y5307948D1*
Y5306948D1*
Y5305948D1*
Y5304948D1*
Y5303948D1*
Y5302948D1*
Y5301948D1*
Y5300948D1*
Y5299948D1*
Y5298948D1*
Y5297948D1*
X1448883Y5404948D2*
Y5403948D1*
Y5402948D1*
Y5401948D1*
Y5400948D1*
Y5399948D1*
Y5398948D1*
Y5397948D1*
Y5396948D1*
Y5395948D1*
Y5394948D1*
Y5393948D1*
Y5392948D1*
Y5391948D1*
Y5390948D1*
Y5389948D1*
Y5388948D1*
Y5387948D1*
Y5386948D1*
Y5385948D1*
Y5384948D1*
Y5383948D1*
Y5382948D1*
Y5381948D1*
Y5380948D1*
Y5379948D1*
Y5378948D1*
Y5377948D1*
Y5376948D1*
Y5375948D1*
Y5374948D1*
Y5373948D1*
Y5372948D1*
Y5371948D1*
Y5370948D1*
Y5369948D1*
Y5368948D1*
Y5367948D1*
Y5366948D1*
Y5365948D1*
Y5364948D1*
Y5363948D1*
Y5362948D1*
Y5361948D1*
Y5360948D1*
Y5359948D1*
Y5358948D1*
Y5357948D1*
Y5356948D1*
Y5355948D1*
Y5354948D1*
Y5353948D1*
Y5352948D1*
Y5351948D1*
Y5350948D1*
Y5349948D1*
Y5348948D1*
Y5347948D1*
Y5346948D1*
Y5345948D1*
Y5344948D1*
Y5343948D1*
Y5342948D1*
Y5341948D1*
Y5340948D1*
Y5339948D1*
Y5338948D1*
Y5337948D1*
Y5336948D1*
Y5335948D1*
Y5334948D1*
Y5333948D1*
Y5332948D1*
Y5331948D1*
Y5330948D1*
Y5329948D1*
Y5328948D1*
Y5327948D1*
Y5326948D1*
Y5325948D1*
Y5324948D1*
Y5323948D1*
Y5322948D1*
Y5321948D1*
Y5320948D1*
Y5319948D1*
Y5318948D1*
Y5317948D1*
Y5316948D1*
Y5315948D1*
Y5314948D1*
Y5313948D1*
Y5312948D1*
Y5311948D1*
Y5310948D1*
Y5309948D1*
Y5308948D1*
Y5307948D1*
Y5306948D1*
Y5305948D1*
Y5304948D1*
Y5303948D1*
Y5302948D1*
Y5301948D1*
Y5300948D1*
Y5299948D1*
Y5298948D1*
Y5297948D1*
X1469883Y5404948D2*
Y5403948D1*
Y5402948D1*
Y5401948D1*
Y5400948D1*
Y5399948D1*
Y5398948D1*
Y5397948D1*
Y5396948D1*
Y5395948D1*
Y5394948D1*
Y5393948D1*
Y5392948D1*
Y5391948D1*
Y5390948D1*
Y5389948D1*
Y5388948D1*
Y5387948D1*
Y5386948D1*
Y5385948D1*
Y5384948D1*
Y5383948D1*
Y5382948D1*
Y5381948D1*
Y5380948D1*
Y5379948D1*
Y5378948D1*
Y5377948D1*
Y5376948D1*
Y5375948D1*
Y5374948D1*
Y5373948D1*
Y5372948D1*
Y5371948D1*
Y5370948D1*
Y5369948D1*
Y5368948D1*
Y5367948D1*
Y5366948D1*
Y5365948D1*
Y5364948D1*
Y5363948D1*
Y5362948D1*
Y5361948D1*
Y5360948D1*
Y5359948D1*
Y5358948D1*
Y5357948D1*
Y5356948D1*
Y5355948D1*
Y5354948D1*
Y5353948D1*
Y5352948D1*
Y5351948D1*
Y5350948D1*
Y5349948D1*
Y5348948D1*
Y5347948D1*
Y5346948D1*
Y5345948D1*
Y5344948D1*
Y5343948D1*
Y5342948D1*
Y5341948D1*
Y5340948D1*
Y5339948D1*
Y5338948D1*
Y5337948D1*
Y5336948D1*
Y5335948D1*
Y5334948D1*
Y5333948D1*
Y5332948D1*
Y5331948D1*
Y5330948D1*
Y5329948D1*
Y5328948D1*
Y5327948D1*
Y5326948D1*
Y5325948D1*
Y5324948D1*
Y5323948D1*
Y5322948D1*
Y5321948D1*
Y5320948D1*
Y5319948D1*
Y5318948D1*
Y5317948D1*
Y5316948D1*
Y5315948D1*
Y5314948D1*
Y5313948D1*
Y5312948D1*
Y5311948D1*
Y5310948D1*
Y5309948D1*
Y5308948D1*
Y5307948D1*
Y5306948D1*
Y5305948D1*
Y5304948D1*
Y5303948D1*
Y5302948D1*
Y5301948D1*
Y5300948D1*
Y5299948D1*
Y5298948D1*
Y5297948D1*
X1479883Y5404948D2*
Y5403948D1*
Y5402948D1*
Y5401948D1*
Y5400948D1*
Y5399948D1*
Y5398948D1*
Y5397948D1*
Y5396948D1*
Y5395948D1*
Y5394948D1*
Y5393948D1*
Y5392948D1*
Y5391948D1*
Y5390948D1*
Y5389948D1*
Y5388948D1*
Y5387948D1*
Y5386948D1*
Y5385948D1*
Y5384948D1*
Y5383948D1*
Y5382948D1*
Y5381948D1*
Y5380948D1*
Y5379948D1*
Y5378948D1*
Y5377948D1*
Y5376948D1*
Y5375948D1*
Y5374948D1*
Y5373948D1*
Y5372948D1*
Y5371948D1*
Y5370948D1*
Y5369948D1*
Y5368948D1*
Y5367948D1*
Y5366948D1*
Y5365948D1*
Y5364948D1*
Y5363948D1*
Y5362948D1*
Y5361948D1*
Y5360948D1*
Y5359948D1*
Y5358948D1*
Y5357948D1*
Y5356948D1*
Y5355948D1*
Y5354948D1*
Y5353948D1*
Y5352948D1*
Y5351948D1*
Y5350948D1*
Y5349948D1*
Y5348948D1*
Y5347948D1*
Y5346948D1*
Y5345948D1*
Y5344948D1*
Y5343948D1*
Y5342948D1*
Y5341948D1*
Y5340948D1*
Y5339948D1*
Y5338948D1*
Y5337948D1*
Y5336948D1*
Y5335948D1*
Y5334948D1*
Y5333948D1*
Y5332948D1*
Y5331948D1*
Y5330948D1*
Y5329948D1*
Y5328948D1*
Y5327948D1*
Y5326948D1*
Y5325948D1*
Y5324948D1*
Y5323948D1*
Y5322948D1*
Y5321948D1*
Y5320948D1*
Y5319948D1*
Y5318948D1*
Y5317948D1*
Y5316948D1*
Y5315948D1*
Y5314948D1*
Y5313948D1*
Y5312948D1*
Y5311948D1*
Y5310948D1*
Y5309948D1*
Y5308948D1*
Y5307948D1*
Y5306948D1*
Y5305948D1*
Y5304948D1*
Y5303948D1*
Y5302948D1*
Y5301948D1*
Y5300948D1*
Y5299948D1*
Y5298948D1*
Y5297948D1*
X1214883Y5398948D2*
X1214422Y5397948D1*
X1214134Y5396948D1*
X1213989Y5395948D1*
X1213925Y5394948D1*
X1213899Y5393948D1*
X1213889Y5392948D1*
X1213885Y5391948D1*
X1213884Y5390948D1*
X1213883Y5389948D1*
X1213891Y5388948D1*
X1213967Y5387948D1*
X1214149Y5386948D1*
X1214928Y5385948D1*
X1215883Y5384948D1*
X1225883Y5398948D2*
X1226345Y5397948D1*
X1226632Y5396948D1*
X1226777Y5395948D1*
X1226842Y5394948D1*
X1226868Y5393948D1*
X1226878Y5392948D1*
X1226881Y5391948D1*
X1226883Y5390948D1*
X1226879Y5389948D1*
X1226840Y5388948D1*
X1226674Y5387948D1*
X1226272Y5386948D1*
X1225632Y5385948D1*
X1224883Y5384948D1*
X1000883Y5394948D2*
Y5393948D1*
Y5392948D1*
Y5391948D1*
Y5390948D1*
Y5389948D1*
Y5388948D1*
Y5387948D1*
Y5386948D1*
Y5385948D1*
Y5384948D1*
Y5383948D1*
Y5382948D1*
Y5381948D1*
Y5380948D1*
Y5379948D1*
Y5378948D1*
Y5377948D1*
Y5376948D1*
Y5375948D1*
Y5374948D1*
Y5373948D1*
Y5372948D1*
Y5371948D1*
Y5370948D1*
Y5369948D1*
Y5368948D1*
Y5367948D1*
Y5366948D1*
Y5365948D1*
Y5364948D1*
Y5363948D1*
Y5362948D1*
Y5361948D1*
Y5360948D1*
Y5359948D1*
Y5358948D1*
X1031883Y5394948D2*
X1035603Y5393948D1*
X1038853Y5392948D1*
X1041376Y5391948D1*
X1043209Y5390948D1*
X1044571Y5389948D1*
X1045608Y5388948D1*
X1046400Y5387948D1*
X1047037Y5386948D1*
X1047593Y5385948D1*
X1048080Y5384948D1*
X1048458Y5383948D1*
X1048686Y5382948D1*
X1048804Y5381948D1*
X1048890Y5380948D1*
X1049038Y5379948D1*
X1049281Y5378948D1*
X1049505Y5377948D1*
X1049553Y5376948D1*
X1049407Y5375948D1*
X1049193Y5374948D1*
X1049036Y5373948D1*
X1048946Y5372948D1*
X1048871Y5371948D1*
X1048727Y5370948D1*
X1048477Y5369948D1*
X1048179Y5368948D1*
X1047841Y5367948D1*
X1047377Y5366948D1*
X1046796Y5365948D1*
X1046142Y5364948D1*
X1045296Y5363948D1*
X1044090Y5362948D1*
X1042530Y5361948D1*
X1040739Y5360948D1*
X1038831Y5359948D1*
X1036883Y5358948D1*
X1174883Y5376948D2*
Y5375948D1*
X1177883Y5376948D2*
X1182030Y5375948D1*
X1185313Y5374948D1*
X1187713Y5373948D1*
X1189529Y5372948D1*
X1191045Y5371948D1*
X1192302Y5370948D1*
X1193283Y5369948D1*
X1194102Y5368948D1*
X1194845Y5367948D1*
X1195493Y5366948D1*
X1196039Y5365948D1*
X1196479Y5364948D1*
X1196846Y5363948D1*
X1197204Y5362948D1*
X1197512Y5361948D1*
X1197708Y5360948D1*
X1197808Y5359948D1*
X1197854Y5358948D1*
X1197872Y5357948D1*
X1197879Y5356948D1*
X1197882Y5355948D1*
X1197883Y5354948D1*
Y5353948D1*
Y5352948D1*
Y5351948D1*
Y5350948D1*
Y5349948D1*
Y5348948D1*
Y5347948D1*
Y5346948D1*
Y5345948D1*
Y5344948D1*
Y5343948D1*
Y5342948D1*
Y5341948D1*
Y5340948D1*
Y5339948D1*
Y5338948D1*
Y5337948D1*
Y5336948D1*
Y5335948D1*
Y5334948D1*
Y5333948D1*
Y5332948D1*
Y5331948D1*
Y5330948D1*
Y5329948D1*
Y5328948D1*
Y5327948D1*
Y5326948D1*
Y5325948D1*
Y5324948D1*
Y5323948D1*
Y5322948D1*
Y5321948D1*
Y5320948D1*
Y5319948D1*
Y5318948D1*
Y5317948D1*
Y5316948D1*
Y5315948D1*
Y5314948D1*
Y5313948D1*
Y5312948D1*
Y5311948D1*
Y5310948D1*
Y5309948D1*
Y5308948D1*
Y5307948D1*
Y5306948D1*
Y5305948D1*
Y5304948D1*
Y5303948D1*
Y5302948D1*
Y5301948D1*
Y5300948D1*
Y5299948D1*
Y5298948D1*
Y5297948D1*
X1109883Y5375948D2*
X1106464Y5374948D1*
X1103344Y5373948D1*
X1100608Y5372948D1*
X1098242Y5371948D1*
X1096180Y5370948D1*
X1094331Y5369948D1*
X1092480Y5368948D1*
X1090334Y5367948D1*
X1087744Y5366948D1*
X1084883Y5365948D1*
X1122883Y5375948D2*
X1124268Y5374948D1*
X1125294Y5373948D1*
X1125607Y5372948D1*
X1125769Y5371948D1*
X1125840Y5370948D1*
X1125868Y5369948D1*
X1125878Y5368948D1*
X1125881Y5367948D1*
X1125883Y5366948D1*
Y5365948D1*
Y5364948D1*
X1156883Y5375948D2*
X1150945Y5374948D1*
X1146028Y5373948D1*
X1142598Y5372948D1*
X1140213Y5371948D1*
X1139386Y5370948D1*
X1139113Y5369948D1*
X1138975Y5368948D1*
X1138917Y5367948D1*
X1138895Y5366948D1*
X1138887Y5365948D1*
X1138883Y5364948D1*
X1260883Y5375948D2*
X1258464Y5374948D1*
X1256344Y5373948D1*
X1254604Y5372948D1*
X1253202Y5371948D1*
X1252017Y5370948D1*
X1250972Y5369948D1*
X1250072Y5368948D1*
X1249335Y5367948D1*
X1248718Y5366948D1*
X1248166Y5365948D1*
X1247646Y5364948D1*
X1247141Y5363948D1*
X1246670Y5362948D1*
X1246265Y5361948D1*
X1245912Y5360948D1*
X1245560Y5359948D1*
X1245249Y5358948D1*
X1245019Y5357948D1*
X1244791Y5356948D1*
X1244507Y5355948D1*
X1244232Y5354948D1*
X1244046Y5353948D1*
X1243916Y5352948D1*
X1243745Y5351948D1*
X1243488Y5350948D1*
X1243225Y5349948D1*
X1243048Y5348948D1*
X1242954Y5347948D1*
X1242911Y5346948D1*
X1242894Y5345948D1*
X1242887Y5344948D1*
X1242884Y5343948D1*
Y5342948D1*
X1242883Y5341948D1*
Y5340948D1*
Y5339948D1*
Y5338948D1*
Y5337948D1*
Y5336948D1*
Y5335948D1*
Y5334948D1*
Y5333948D1*
Y5332948D1*
Y5331948D1*
Y5330948D1*
Y5329948D1*
Y5328948D1*
Y5327948D1*
X1242887Y5326948D1*
X1242922Y5325948D1*
X1243050Y5324948D1*
X1243289Y5323948D1*
X1243546Y5322948D1*
X1243724Y5321948D1*
X1243852Y5320948D1*
X1244022Y5319948D1*
X1244279Y5318948D1*
X1244546Y5317948D1*
X1244758Y5316948D1*
X1244983Y5315948D1*
X1245300Y5314948D1*
X1245702Y5313948D1*
X1246126Y5312948D1*
X1246513Y5311948D1*
X1246862Y5310948D1*
X1247251Y5309948D1*
X1247719Y5308948D1*
X1248285Y5307948D1*
X1248920Y5306948D1*
X1249562Y5305948D1*
X1250254Y5304948D1*
X1251063Y5303948D1*
X1251997Y5302948D1*
X1253087Y5301948D1*
X1254386Y5300948D1*
X1255968Y5299948D1*
X1257946Y5298948D1*
X1260322Y5297948D1*
X1262883Y5296948D1*
X1275883Y5375948D2*
X1280963Y5374948D1*
X1285535Y5373948D1*
X1289816Y5372948D1*
X1294249Y5371948D1*
X1298883Y5370948D1*
X1336883Y5375948D2*
X1333777Y5374948D1*
X1331195Y5373948D1*
X1329176Y5372948D1*
X1327657Y5371948D1*
X1326560Y5370948D1*
X1325697Y5369948D1*
X1324967Y5368948D1*
X1324404Y5367948D1*
X1323972Y5366948D1*
X1323583Y5365948D1*
X1323258Y5364948D1*
X1323022Y5363948D1*
X1322792Y5362948D1*
X1322507Y5361948D1*
X1322232Y5360948D1*
X1322050Y5359948D1*
X1321955Y5358948D1*
X1321912Y5357948D1*
X1321894Y5356948D1*
X1321887Y5355948D1*
X1321885Y5354948D1*
X1321884Y5353948D1*
X1321883Y5352948D1*
Y5351948D1*
Y5350948D1*
Y5349948D1*
Y5348948D1*
X1321887Y5347948D1*
X1321922Y5346948D1*
X1322050Y5345948D1*
X1322289Y5344948D1*
X1322550Y5343948D1*
X1322759Y5342948D1*
X1322983Y5341948D1*
X1323300Y5340948D1*
X1323706Y5339948D1*
X1324165Y5338948D1*
X1324683Y5337948D1*
X1325311Y5336948D1*
X1326127Y5335948D1*
X1327230Y5334948D1*
X1328866Y5333948D1*
X1331373Y5332948D1*
X1334859Y5331948D1*
X1338883Y5330948D1*
X1352883Y5375948D2*
Y5374948D1*
X906883D2*
Y5373948D1*
Y5372948D1*
Y5371948D1*
Y5370948D1*
Y5369948D1*
Y5368948D1*
Y5367948D1*
Y5366948D1*
Y5365948D1*
Y5364948D1*
Y5363948D1*
Y5362948D1*
Y5361948D1*
Y5360948D1*
Y5359948D1*
Y5358948D1*
Y5357948D1*
Y5356948D1*
Y5355948D1*
Y5354948D1*
Y5353948D1*
Y5352948D1*
Y5351948D1*
Y5350948D1*
Y5349948D1*
Y5348948D1*
Y5347948D1*
Y5346948D1*
Y5345948D1*
Y5344948D1*
Y5343948D1*
Y5342948D1*
Y5341948D1*
Y5340948D1*
Y5339948D1*
Y5338948D1*
Y5337948D1*
Y5336948D1*
Y5335948D1*
Y5334948D1*
Y5333948D1*
Y5332948D1*
Y5331948D1*
Y5330948D1*
Y5329948D1*
Y5328948D1*
Y5327948D1*
Y5326948D1*
Y5325948D1*
Y5324948D1*
Y5323948D1*
Y5322948D1*
Y5321948D1*
Y5320948D1*
Y5319948D1*
Y5318948D1*
Y5317948D1*
X906887Y5316948D1*
X906922Y5315948D1*
X907050Y5314948D1*
X907293Y5313948D1*
X907585Y5312948D1*
X907890Y5311948D1*
X908258Y5310948D1*
X908688Y5309948D1*
X909158Y5308948D1*
X909681Y5307948D1*
X910306Y5306948D1*
X911080Y5305948D1*
X911966Y5304948D1*
X912916Y5303948D1*
X913899Y5302948D1*
X914930Y5301948D1*
X916098Y5300948D1*
X917541Y5299948D1*
X919357Y5298948D1*
X921527Y5297948D1*
X923883Y5296948D1*
X916883Y5374948D2*
Y5373948D1*
Y5372948D1*
Y5371948D1*
Y5370948D1*
Y5369948D1*
Y5368948D1*
Y5367948D1*
Y5366948D1*
Y5365948D1*
Y5364948D1*
Y5363948D1*
Y5362948D1*
Y5361948D1*
Y5360948D1*
Y5359948D1*
Y5358948D1*
Y5357948D1*
Y5356948D1*
Y5355948D1*
Y5354948D1*
Y5353948D1*
Y5352948D1*
Y5351948D1*
Y5350948D1*
Y5349948D1*
Y5348948D1*
Y5347948D1*
Y5346948D1*
Y5345948D1*
Y5344948D1*
Y5343948D1*
Y5342948D1*
Y5341948D1*
Y5340948D1*
Y5339948D1*
Y5338948D1*
Y5337948D1*
Y5336948D1*
Y5335948D1*
Y5334948D1*
Y5333948D1*
Y5332948D1*
Y5331948D1*
Y5330948D1*
Y5329948D1*
Y5328948D1*
Y5327948D1*
Y5326948D1*
Y5325948D1*
Y5324948D1*
Y5323948D1*
Y5322948D1*
Y5321948D1*
Y5320948D1*
Y5319948D1*
X916887Y5318948D1*
X916922Y5317948D1*
X917054Y5316948D1*
X917328Y5315948D1*
X917716Y5314948D1*
X918169Y5313948D1*
X918685Y5312948D1*
X919311Y5311948D1*
X920123Y5310948D1*
X921175Y5309948D1*
X922527Y5308948D1*
X924146Y5307948D1*
X925883Y5306948D1*
X959883Y5374948D2*
Y5373948D1*
Y5372948D1*
Y5371948D1*
Y5370948D1*
Y5369948D1*
Y5368948D1*
Y5367948D1*
Y5366948D1*
Y5365948D1*
Y5364948D1*
Y5363948D1*
Y5362948D1*
Y5361948D1*
Y5360948D1*
Y5359948D1*
Y5358948D1*
Y5357948D1*
Y5356948D1*
Y5355948D1*
Y5354948D1*
Y5353948D1*
Y5352948D1*
Y5351948D1*
Y5350948D1*
Y5349948D1*
Y5348948D1*
Y5347948D1*
Y5346948D1*
Y5345948D1*
Y5344948D1*
Y5343948D1*
Y5342948D1*
Y5341948D1*
Y5340948D1*
Y5339948D1*
Y5338948D1*
Y5337948D1*
Y5336948D1*
Y5335948D1*
Y5334948D1*
Y5333948D1*
Y5332948D1*
Y5331948D1*
Y5330948D1*
Y5329948D1*
Y5328948D1*
Y5327948D1*
Y5326948D1*
Y5325948D1*
Y5324948D1*
Y5323948D1*
Y5322948D1*
Y5321948D1*
Y5320948D1*
Y5319948D1*
X959879Y5318948D1*
X959836Y5317948D1*
X959731Y5316948D1*
X959209Y5315948D1*
X957871Y5314948D1*
X956093Y5313948D1*
X954022Y5312948D1*
X951773Y5311948D1*
X949274Y5310948D1*
X946417Y5309948D1*
X943165Y5308948D1*
X939593Y5307948D1*
X935883Y5306948D1*
X969883Y5374948D2*
Y5373948D1*
Y5372948D1*
Y5371948D1*
Y5370948D1*
Y5369948D1*
Y5368948D1*
Y5367948D1*
Y5366948D1*
Y5365948D1*
Y5364948D1*
Y5363948D1*
Y5362948D1*
Y5361948D1*
Y5360948D1*
Y5359948D1*
Y5358948D1*
Y5357948D1*
Y5356948D1*
Y5355948D1*
Y5354948D1*
Y5353948D1*
Y5352948D1*
Y5351948D1*
Y5350948D1*
Y5349948D1*
Y5348948D1*
Y5347948D1*
Y5346948D1*
Y5345948D1*
Y5344948D1*
Y5343948D1*
Y5342948D1*
Y5341948D1*
Y5340948D1*
Y5339948D1*
Y5338948D1*
Y5337948D1*
Y5336948D1*
Y5335948D1*
Y5334948D1*
Y5333948D1*
Y5332948D1*
Y5331948D1*
Y5330948D1*
Y5329948D1*
Y5328948D1*
Y5327948D1*
Y5326948D1*
Y5325948D1*
Y5324948D1*
Y5323948D1*
Y5322948D1*
Y5321948D1*
Y5320948D1*
Y5319948D1*
Y5318948D1*
Y5317948D1*
Y5316948D1*
Y5315948D1*
Y5314948D1*
Y5313948D1*
Y5312948D1*
Y5311948D1*
Y5310948D1*
Y5309948D1*
Y5308948D1*
Y5307948D1*
Y5306948D1*
Y5305948D1*
Y5304948D1*
Y5303948D1*
Y5302948D1*
Y5301948D1*
Y5300948D1*
Y5299948D1*
Y5298948D1*
Y5297948D1*
X1075883Y5374948D2*
Y5373948D1*
Y5372948D1*
Y5371948D1*
Y5370948D1*
Y5369948D1*
Y5368948D1*
Y5367948D1*
Y5366948D1*
Y5365948D1*
Y5364948D1*
Y5363948D1*
Y5362948D1*
Y5361948D1*
Y5360948D1*
Y5359948D1*
Y5358948D1*
Y5357948D1*
Y5356948D1*
Y5355948D1*
Y5354948D1*
Y5353948D1*
Y5352948D1*
Y5351948D1*
Y5350948D1*
Y5349948D1*
Y5348948D1*
Y5347948D1*
Y5346948D1*
Y5345948D1*
Y5344948D1*
Y5343948D1*
Y5342948D1*
Y5341948D1*
Y5340948D1*
Y5339948D1*
Y5338948D1*
Y5337948D1*
Y5336948D1*
Y5335948D1*
Y5334948D1*
Y5333948D1*
Y5332948D1*
Y5331948D1*
Y5330948D1*
Y5329948D1*
Y5328948D1*
Y5327948D1*
Y5326948D1*
Y5325948D1*
Y5324948D1*
Y5323948D1*
Y5322948D1*
Y5321948D1*
Y5320948D1*
Y5319948D1*
Y5318948D1*
Y5317948D1*
Y5316948D1*
Y5315948D1*
Y5314948D1*
Y5313948D1*
Y5312948D1*
Y5311948D1*
Y5310948D1*
Y5309948D1*
Y5308948D1*
Y5307948D1*
Y5306948D1*
Y5305948D1*
Y5304948D1*
Y5303948D1*
Y5302948D1*
Y5301948D1*
Y5300948D1*
Y5299948D1*
Y5298948D1*
Y5297948D1*
X1082883Y5374948D2*
X1083229Y5373948D1*
X1083562Y5372948D1*
X1083879Y5371948D1*
X1084220Y5370948D1*
X1084568Y5369948D1*
X1085002Y5368948D1*
X1085617Y5367948D1*
X1087135Y5366948D1*
X1088883Y5365948D1*
X1214883Y5374948D2*
Y5373948D1*
Y5372948D1*
Y5371948D1*
Y5370948D1*
Y5369948D1*
Y5368948D1*
Y5367948D1*
Y5366948D1*
Y5365948D1*
Y5364948D1*
Y5363948D1*
Y5362948D1*
Y5361948D1*
Y5360948D1*
Y5359948D1*
Y5358948D1*
Y5357948D1*
Y5356948D1*
Y5355948D1*
Y5354948D1*
Y5353948D1*
Y5352948D1*
Y5351948D1*
Y5350948D1*
Y5349948D1*
Y5348948D1*
Y5347948D1*
Y5346948D1*
Y5345948D1*
Y5344948D1*
Y5343948D1*
Y5342948D1*
Y5341948D1*
Y5340948D1*
Y5339948D1*
Y5338948D1*
Y5337948D1*
Y5336948D1*
Y5335948D1*
Y5334948D1*
Y5333948D1*
Y5332948D1*
Y5331948D1*
Y5330948D1*
Y5329948D1*
Y5328948D1*
Y5327948D1*
Y5326948D1*
Y5325948D1*
Y5324948D1*
Y5323948D1*
Y5322948D1*
Y5321948D1*
Y5320948D1*
Y5319948D1*
Y5318948D1*
Y5317948D1*
Y5316948D1*
Y5315948D1*
Y5314948D1*
Y5313948D1*
Y5312948D1*
Y5311948D1*
Y5310948D1*
Y5309948D1*
Y5308948D1*
Y5307948D1*
Y5306948D1*
Y5305948D1*
Y5304948D1*
Y5303948D1*
Y5302948D1*
Y5301948D1*
Y5300948D1*
Y5299948D1*
Y5298948D1*
Y5297948D1*
X1224883Y5374948D2*
Y5373948D1*
Y5372948D1*
Y5371948D1*
Y5370948D1*
Y5369948D1*
Y5368948D1*
Y5367948D1*
Y5366948D1*
Y5365948D1*
Y5364948D1*
Y5363948D1*
Y5362948D1*
Y5361948D1*
Y5360948D1*
Y5359948D1*
Y5358948D1*
Y5357948D1*
Y5356948D1*
Y5355948D1*
Y5354948D1*
Y5353948D1*
Y5352948D1*
Y5351948D1*
Y5350948D1*
Y5349948D1*
Y5348948D1*
Y5347948D1*
Y5346948D1*
Y5345948D1*
Y5344948D1*
Y5343948D1*
Y5342948D1*
Y5341948D1*
Y5340948D1*
Y5339948D1*
Y5338948D1*
Y5337948D1*
Y5336948D1*
Y5335948D1*
Y5334948D1*
Y5333948D1*
Y5332948D1*
Y5331948D1*
Y5330948D1*
Y5329948D1*
Y5328948D1*
Y5327948D1*
Y5326948D1*
Y5325948D1*
Y5324948D1*
Y5323948D1*
Y5322948D1*
Y5321948D1*
Y5320948D1*
Y5319948D1*
Y5318948D1*
Y5317948D1*
Y5316948D1*
Y5315948D1*
Y5314948D1*
Y5313948D1*
Y5312948D1*
Y5311948D1*
Y5310948D1*
Y5309948D1*
Y5308948D1*
Y5307948D1*
Y5306948D1*
Y5305948D1*
Y5304948D1*
Y5303948D1*
Y5302948D1*
Y5301948D1*
Y5300948D1*
Y5299948D1*
Y5298948D1*
Y5297948D1*
X1367883Y5374948D2*
X1373303Y5373948D1*
X1377397Y5372948D1*
X1378941Y5371948D1*
X1379550Y5370948D1*
X1379735Y5369948D1*
X1379825Y5368948D1*
X1379862Y5367948D1*
X1379876Y5366948D1*
X1379883Y5365948D1*
X1160883Y5366948D2*
X1159883Y5365948D1*
X1176883Y5366948D2*
X1179641Y5365948D1*
X1182023Y5364948D1*
X1183821Y5363948D1*
X1185046Y5362948D1*
X1185892Y5361948D1*
X1186537Y5360948D1*
X1187060Y5359948D1*
X1187451Y5358948D1*
X1187684Y5357948D1*
X1187799Y5356948D1*
X1187851Y5355948D1*
X1187871Y5354948D1*
X1187879Y5353948D1*
X1187882Y5352948D1*
X1187883Y5351948D1*
Y5350948D1*
Y5349948D1*
Y5348948D1*
Y5347948D1*
Y5346948D1*
Y5345948D1*
Y5344948D1*
Y5343948D1*
X1113883Y5365948D2*
X1109126Y5364948D1*
X1104747Y5363948D1*
X1100985Y5362948D1*
X1097887Y5361948D1*
X1095281Y5360948D1*
X1092900Y5359948D1*
X1090629Y5358948D1*
X1088664Y5357948D1*
X1087063Y5356948D1*
X1086354Y5355948D1*
X1086102Y5354948D1*
X1085973Y5353948D1*
X1085917Y5352948D1*
X1085895Y5351948D1*
X1085887Y5350948D1*
X1085885Y5349948D1*
X1085884Y5348948D1*
X1085883Y5347948D1*
Y5346948D1*
Y5345948D1*
Y5344948D1*
Y5343948D1*
Y5342948D1*
Y5341948D1*
Y5340948D1*
Y5339948D1*
Y5338948D1*
Y5337948D1*
Y5336948D1*
Y5335948D1*
Y5334948D1*
Y5333948D1*
Y5332948D1*
Y5331948D1*
Y5330948D1*
Y5329948D1*
Y5328948D1*
Y5327948D1*
Y5326948D1*
Y5325948D1*
Y5324948D1*
Y5323948D1*
Y5322948D1*
Y5321948D1*
Y5320948D1*
Y5319948D1*
Y5318948D1*
Y5317948D1*
Y5316948D1*
Y5315948D1*
Y5314948D1*
Y5313948D1*
Y5312948D1*
Y5311948D1*
Y5310948D1*
Y5309948D1*
Y5308948D1*
Y5307948D1*
Y5306948D1*
Y5305948D1*
Y5304948D1*
Y5303948D1*
Y5302948D1*
Y5301948D1*
Y5300948D1*
Y5299948D1*
Y5298948D1*
Y5297948D1*
X1122883Y5365948D2*
X1123883Y5364948D1*
X1143883Y5365948D2*
X1142883Y5364948D1*
X1263883Y5365948D2*
X1262080Y5364948D1*
X1260499Y5363948D1*
X1259199Y5362948D1*
X1258164Y5361948D1*
X1257337Y5360948D1*
X1256605Y5359948D1*
X1255931Y5358948D1*
X1255391Y5357948D1*
X1254967Y5356948D1*
X1254582Y5355948D1*
X1254261Y5354948D1*
X1254057Y5353948D1*
X1253920Y5352948D1*
X1253747Y5351948D1*
X1253488Y5350948D1*
X1253225Y5349948D1*
X1253048Y5348948D1*
X1252954Y5347948D1*
X1252911Y5346948D1*
X1252894Y5345948D1*
X1252887Y5344948D1*
X1252884Y5343948D1*
Y5342948D1*
X1252883Y5341948D1*
Y5340948D1*
Y5339948D1*
Y5338948D1*
Y5337948D1*
Y5336948D1*
Y5335948D1*
Y5334948D1*
Y5333948D1*
Y5332948D1*
Y5331948D1*
Y5330948D1*
Y5329948D1*
Y5328948D1*
X1252887Y5327948D1*
X1252922Y5326948D1*
X1253050Y5325948D1*
X1253289Y5324948D1*
X1253546Y5323948D1*
X1253724Y5322948D1*
X1253852Y5321948D1*
X1254022Y5320948D1*
X1254283Y5319948D1*
X1254581Y5318948D1*
X1254889Y5317948D1*
X1255257Y5316948D1*
X1255688Y5315948D1*
X1256158Y5314948D1*
X1256681Y5313948D1*
X1257306Y5312948D1*
X1258087Y5311948D1*
X1259091Y5310948D1*
X1260333Y5309948D1*
X1263979Y5308948D1*
X1269747Y5307948D1*
X1276883Y5306948D1*
X1275883Y5365948D2*
X1281629Y5364948D1*
X1286890Y5363948D1*
X1291153Y5362948D1*
X1294511Y5361948D1*
X1295942Y5360948D1*
X1296446Y5359948D1*
X1296705Y5358948D1*
X1296816Y5357948D1*
X1296859Y5356948D1*
X1296875Y5355948D1*
X1296880Y5354948D1*
X1296882Y5353948D1*
X1296883Y5352948D1*
Y5351948D1*
Y5350948D1*
Y5349948D1*
Y5348948D1*
Y5347948D1*
Y5346948D1*
Y5345948D1*
Y5344948D1*
Y5343948D1*
Y5342948D1*
Y5341948D1*
Y5340948D1*
Y5339948D1*
Y5338948D1*
Y5337948D1*
Y5336948D1*
Y5335948D1*
Y5334948D1*
Y5333948D1*
Y5332948D1*
Y5331948D1*
Y5330948D1*
Y5329948D1*
Y5328948D1*
Y5327948D1*
Y5326948D1*
Y5325948D1*
Y5324948D1*
Y5323948D1*
Y5322948D1*
Y5321948D1*
Y5320948D1*
Y5319948D1*
Y5318948D1*
X1296879Y5317948D1*
X1296836Y5316948D1*
X1296731Y5315948D1*
X1296209Y5314948D1*
X1294829Y5313948D1*
X1292883Y5312948D1*
X1290399Y5311948D1*
X1287374Y5310948D1*
X1283364Y5309948D1*
X1277394Y5308948D1*
X1268883Y5307948D1*
X1258883Y5306948D1*
X1337883Y5365948D2*
X1336118Y5364948D1*
X1334665Y5363948D1*
X1333609Y5362948D1*
X1332869Y5361948D1*
X1332380Y5360948D1*
X1332107Y5359948D1*
X1331976Y5358948D1*
X1331919Y5357948D1*
X1331896Y5356948D1*
X1331888Y5355948D1*
X1331885Y5354948D1*
X1331884Y5353948D1*
X1331883Y5352948D1*
Y5351948D1*
Y5350948D1*
X1331887Y5349948D1*
X1331922Y5348948D1*
X1332054Y5347948D1*
X1332332Y5346948D1*
X1332763Y5345948D1*
X1333421Y5344948D1*
X1334509Y5343948D1*
X1336193Y5342948D1*
X1338417Y5341948D1*
X1340883Y5340948D1*
X1000883Y5348948D2*
Y5347948D1*
Y5346948D1*
Y5345948D1*
Y5344948D1*
Y5343948D1*
Y5342948D1*
Y5341948D1*
Y5340948D1*
Y5339948D1*
Y5338948D1*
Y5337948D1*
Y5336948D1*
Y5335948D1*
Y5334948D1*
Y5333948D1*
Y5332948D1*
Y5331948D1*
Y5330948D1*
Y5329948D1*
Y5328948D1*
Y5327948D1*
Y5326948D1*
Y5325948D1*
Y5324948D1*
Y5323948D1*
Y5322948D1*
Y5321948D1*
Y5320948D1*
Y5319948D1*
Y5318948D1*
Y5317948D1*
Y5316948D1*
Y5315948D1*
Y5314948D1*
Y5313948D1*
Y5312948D1*
Y5311948D1*
Y5310948D1*
Y5309948D1*
Y5308948D1*
Y5307948D1*
X1031883Y5348948D2*
X1035448Y5347948D1*
X1038451Y5346948D1*
X1040714Y5345948D1*
X1042377Y5344948D1*
X1043676Y5343948D1*
X1044768Y5342948D1*
X1045685Y5341948D1*
X1046429Y5340948D1*
X1047047Y5339948D1*
X1047596Y5338948D1*
X1048081Y5337948D1*
X1048463Y5336948D1*
X1048725Y5335948D1*
X1048967Y5334948D1*
X1049257Y5333948D1*
X1049534Y5332948D1*
X1049716Y5331948D1*
X1049811Y5330948D1*
X1049855Y5329948D1*
X1049873Y5328948D1*
X1049879Y5327948D1*
X1049882Y5326948D1*
X1049883Y5325948D1*
X1049879Y5324948D1*
X1049844Y5323948D1*
X1049717Y5322948D1*
X1049477Y5321948D1*
X1049217Y5320948D1*
X1049007Y5319948D1*
X1048783Y5318948D1*
X1048462Y5317948D1*
X1048022Y5316948D1*
X1047435Y5315948D1*
X1046677Y5314948D1*
X1045793Y5313948D1*
X1044803Y5312948D1*
X1043618Y5311948D1*
X1042054Y5310948D1*
X1039993Y5309948D1*
X1037526Y5308948D1*
X1034883Y5307948D1*
X1149883Y5343948D2*
X1147464Y5342948D1*
X1145344Y5341948D1*
X1143604Y5340948D1*
X1142206Y5339948D1*
X1141052Y5338948D1*
X1140103Y5337948D1*
X1139346Y5336948D1*
X1138722Y5335948D1*
X1138171Y5334948D1*
X1137685Y5333948D1*
X1137304Y5332948D1*
X1137041Y5331948D1*
X1136800Y5330948D1*
X1136510Y5329948D1*
X1136233Y5328948D1*
X1136051Y5327948D1*
X1135955Y5326948D1*
X1135912Y5325948D1*
X1135894Y5324948D1*
X1135887Y5323948D1*
X1135885Y5322948D1*
X1135884Y5321948D1*
X1135883Y5320948D1*
Y5319948D1*
Y5318948D1*
Y5317948D1*
Y5316948D1*
Y5315948D1*
X1135887Y5314948D1*
X1135922Y5313948D1*
X1136050Y5312948D1*
X1136289Y5311948D1*
X1136550Y5310948D1*
X1136759Y5309948D1*
X1136983Y5308948D1*
X1137304Y5307948D1*
X1137741Y5306948D1*
X1138293Y5305948D1*
X1138927Y5304948D1*
X1139602Y5303948D1*
X1140425Y5302948D1*
X1141508Y5301948D1*
X1142834Y5300948D1*
X1144407Y5299948D1*
X1146297Y5298948D1*
X1148505Y5297948D1*
X1150883Y5296948D1*
X1370883Y5340948D2*
X1373182Y5339948D1*
X1375148Y5338948D1*
X1376740Y5337948D1*
X1377984Y5336948D1*
X1378994Y5335948D1*
X1379911Y5334948D1*
X1380713Y5333948D1*
X1381322Y5332948D1*
X1381778Y5331948D1*
X1382181Y5330948D1*
X1382541Y5329948D1*
X1382871Y5328948D1*
X1383213Y5327948D1*
X1383516Y5326948D1*
X1383709Y5325948D1*
X1383809Y5324948D1*
X1383854Y5323948D1*
X1383872Y5322948D1*
X1383879Y5321948D1*
X1383882Y5320948D1*
X1383883Y5319948D1*
Y5318948D1*
Y5317948D1*
Y5316948D1*
Y5315948D1*
Y5314948D1*
X1383879Y5313948D1*
X1383844Y5312948D1*
X1383717Y5311948D1*
X1383477Y5310948D1*
X1383217Y5309948D1*
X1383007Y5308948D1*
X1382783Y5307948D1*
X1382466Y5306948D1*
X1382061Y5305948D1*
X1381601Y5304948D1*
X1381083Y5303948D1*
X1380455Y5302948D1*
X1379640Y5301948D1*
X1378544Y5300948D1*
X1376984Y5299948D1*
X1374786Y5298948D1*
X1371984Y5297948D1*
X1368883Y5296948D1*
X1174883Y5335948D2*
X1173883Y5334948D1*
X1187883Y5335948D2*
Y5334948D1*
Y5333948D1*
Y5332948D1*
Y5331948D1*
Y5330948D1*
Y5329948D1*
Y5328948D1*
Y5327948D1*
Y5326948D1*
Y5325948D1*
Y5324948D1*
Y5323948D1*
Y5322948D1*
Y5321948D1*
Y5320948D1*
Y5319948D1*
Y5318948D1*
X1187871Y5317948D1*
X1187754Y5316948D1*
X1187473Y5315948D1*
X1186087Y5314948D1*
X1184020Y5313948D1*
X1181333Y5312948D1*
X1178132Y5311948D1*
X1174475Y5310948D1*
X1170122Y5309948D1*
X1164256Y5308948D1*
X1156231Y5307948D1*
X1146883Y5306948D1*
X1167883Y5334948D2*
X1161104Y5333948D1*
X1155763Y5332948D1*
X1152163Y5331948D1*
X1149890Y5330948D1*
X1148257Y5329948D1*
X1147548Y5328948D1*
X1147032Y5327948D1*
X1146606Y5326948D1*
X1146270Y5325948D1*
X1146064Y5324948D1*
X1145960Y5323948D1*
X1145913Y5322948D1*
X1145894Y5321948D1*
X1145887Y5320948D1*
X1145885Y5319948D1*
X1145884Y5318948D1*
X1145883Y5317948D1*
X1145887Y5316948D1*
X1145922Y5315948D1*
X1146050Y5314948D1*
X1146293Y5313948D1*
X1146589Y5312948D1*
X1146933Y5311948D1*
X1147370Y5310948D1*
X1148368Y5309948D1*
X1151466Y5308948D1*
X1156531Y5307948D1*
X1162883Y5306948D1*
X1367883Y5330948D2*
X1369649Y5329948D1*
X1371101Y5328948D1*
X1372157Y5327948D1*
X1372897Y5326948D1*
X1373387Y5325948D1*
X1373660Y5324948D1*
X1373791Y5323948D1*
X1373848Y5322948D1*
X1373870Y5321948D1*
X1373879Y5320948D1*
X1373882Y5319948D1*
X1373883Y5318948D1*
Y5317948D1*
Y5316948D1*
X1373879Y5315948D1*
X1373844Y5314948D1*
X1373713Y5313948D1*
X1373434Y5312948D1*
X1373004Y5311948D1*
X1372345Y5310948D1*
X1371257Y5309948D1*
X1369573Y5308948D1*
X1367349Y5307948D1*
X1364883Y5306948D1*
X1324883D2*
Y5305948D1*
Y5304948D1*
Y5303948D1*
Y5302948D1*
Y5301948D1*
Y5300948D1*
Y5299948D1*
X1333227Y5298948D1*
X1341883Y5297948D1*
X959883Y5306948D2*
X957887Y5305948D1*
X955922Y5304948D1*
X954050Y5303948D1*
X952285Y5302948D1*
X950507Y5301948D1*
X948546Y5300948D1*
X946323Y5299948D1*
X943797Y5298948D1*
X940942Y5297948D1*
X937883Y5296948D1*
X959883Y5306948D2*
X959921Y5305948D1*
X960053Y5304948D1*
X960328Y5303948D1*
X960712Y5302948D1*
X961130Y5301948D1*
X961517Y5300948D1*
X961889Y5299948D1*
X962347Y5298948D1*
X962883Y5297948D1*
X1188883Y5306948D2*
X1186080Y5305948D1*
X1183491Y5304948D1*
X1181121Y5303948D1*
X1178823Y5302948D1*
X1176439Y5301948D1*
X1173853Y5300948D1*
X1170946Y5299948D1*
X1167620Y5298948D1*
X1163873Y5297948D1*
X1159883Y5296948D1*
X1188883Y5306948D2*
X1188887Y5305948D1*
X1188922Y5304948D1*
X1189050Y5303948D1*
X1189293Y5302948D1*
X1189585Y5301948D1*
X1189887Y5300948D1*
X1190228Y5299948D1*
X1190570Y5298948D1*
X1190883Y5297948D1*
X1294883Y5305948D2*
X1293649Y5304948D1*
X1292101Y5303948D1*
X1290157Y5302948D1*
X1287897Y5301948D1*
X1285379Y5300948D1*
X1282576Y5299948D1*
X1279398Y5298948D1*
X1275773Y5297948D1*
X1271883Y5296948D1*
X1297883Y5305948D2*
X1297921Y5304948D1*
X1298049Y5303948D1*
X1298293Y5302948D1*
X1298585Y5301948D1*
X1298887Y5300948D1*
X1299228Y5299948D1*
X1299570Y5298948D1*
X1299883Y5297948D1*
X1354883D2*
X1355883Y5296948D1*
X1042841Y568948D2*
Y567948D1*
Y566948D1*
Y565948D1*
Y564948D1*
Y563948D1*
Y562948D1*
Y561948D1*
Y560948D1*
Y559948D1*
Y558948D1*
Y557948D1*
Y556948D1*
Y555948D1*
Y554948D1*
Y553948D1*
Y552948D1*
Y551948D1*
Y550948D1*
Y549948D1*
Y548948D1*
Y547948D1*
Y546948D1*
Y545948D1*
Y544948D1*
Y543948D1*
Y542948D1*
Y541948D1*
Y540948D1*
Y539948D1*
Y538948D1*
Y537948D1*
Y536948D1*
Y535948D1*
Y534948D1*
Y533948D1*
Y532948D1*
Y531948D1*
Y530948D1*
Y529948D1*
Y528948D1*
Y527948D1*
Y526948D1*
Y525948D1*
Y524948D1*
Y523948D1*
Y522948D1*
Y521948D1*
Y520948D1*
Y519948D1*
Y518948D1*
Y517948D1*
Y516948D1*
Y515948D1*
Y514948D1*
Y513948D1*
Y512948D1*
Y511948D1*
Y510948D1*
Y509948D1*
Y508948D1*
Y507948D1*
Y506948D1*
Y505948D1*
Y504948D1*
Y503948D1*
Y502948D1*
Y501948D1*
Y500948D1*
Y499948D1*
Y498948D1*
Y497948D1*
Y496948D1*
Y495948D1*
Y494948D1*
Y493948D1*
Y492948D1*
Y491948D1*
Y490948D1*
Y489948D1*
Y488948D1*
Y487948D1*
Y486948D1*
Y485948D1*
Y484948D1*
Y483948D1*
Y482948D1*
Y481948D1*
Y480948D1*
Y479948D1*
Y478948D1*
Y477948D1*
X1050841Y568948D2*
Y567948D1*
Y566948D1*
Y565948D1*
Y564948D1*
Y563948D1*
Y562948D1*
Y561948D1*
Y560948D1*
Y559948D1*
Y558948D1*
Y557948D1*
Y556948D1*
Y555948D1*
Y554948D1*
Y553948D1*
Y552948D1*
Y551948D1*
Y550948D1*
Y549948D1*
Y548948D1*
Y547948D1*
Y546948D1*
Y545948D1*
Y544948D1*
Y543948D1*
Y542948D1*
Y541948D1*
Y540948D1*
Y539948D1*
Y538948D1*
Y537948D1*
Y536948D1*
Y535948D1*
Y534948D1*
Y533948D1*
Y532948D1*
Y531948D1*
Y530948D1*
Y529948D1*
Y528948D1*
Y527948D1*
Y526948D1*
Y525948D1*
Y524948D1*
Y523948D1*
Y522948D1*
Y521948D1*
Y520948D1*
Y519948D1*
Y518948D1*
Y517948D1*
X1055841Y516948D1*
X1198841Y568948D2*
Y567948D1*
Y566948D1*
Y565948D1*
Y564948D1*
Y563948D1*
Y562948D1*
Y561948D1*
Y560948D1*
Y559948D1*
Y558948D1*
Y557948D1*
Y556948D1*
Y555948D1*
Y554948D1*
Y553948D1*
Y552948D1*
Y551948D1*
Y550948D1*
Y549948D1*
Y548948D1*
Y547948D1*
Y546948D1*
Y545948D1*
Y544948D1*
Y543948D1*
Y542948D1*
Y541948D1*
Y540948D1*
Y539948D1*
Y538948D1*
Y537948D1*
Y536948D1*
Y535948D1*
Y534948D1*
Y533948D1*
Y532948D1*
Y531948D1*
Y530948D1*
Y529948D1*
Y528948D1*
Y527948D1*
Y526948D1*
Y525948D1*
Y524948D1*
Y523948D1*
Y522948D1*
Y521948D1*
Y520948D1*
Y519948D1*
Y518948D1*
Y517948D1*
Y516948D1*
Y515948D1*
Y514948D1*
Y513948D1*
Y512948D1*
Y511948D1*
Y510948D1*
Y509948D1*
Y508948D1*
Y507948D1*
Y506948D1*
Y505948D1*
Y504948D1*
Y503948D1*
Y502948D1*
Y501948D1*
Y500948D1*
Y499948D1*
Y498948D1*
X1198845Y497948D1*
X1198880Y496948D1*
X1199008Y495948D1*
X1199247Y494948D1*
X1199504Y493948D1*
X1199678Y492948D1*
X1199775Y491948D1*
X1199852Y490948D1*
X1199997Y489948D1*
X1200247Y488948D1*
X1200541Y487948D1*
X1200848Y486948D1*
X1201220Y485948D1*
X1201685Y484948D1*
X1202283Y483948D1*
X1203049Y482948D1*
X1203970Y481948D1*
X1205084Y480948D1*
X1206465Y479948D1*
X1208097Y478948D1*
X1209841Y477948D1*
X1206841Y568948D2*
Y567948D1*
Y566948D1*
Y565948D1*
Y564948D1*
Y563948D1*
Y562948D1*
Y561948D1*
Y560948D1*
Y559948D1*
Y558948D1*
Y557948D1*
Y556948D1*
Y555948D1*
Y554948D1*
Y553948D1*
Y552948D1*
Y551948D1*
Y550948D1*
Y549948D1*
Y548948D1*
Y547948D1*
Y546948D1*
Y545948D1*
Y544948D1*
Y543948D1*
Y542948D1*
Y541948D1*
Y540948D1*
Y539948D1*
Y538948D1*
Y537948D1*
Y536948D1*
Y535948D1*
Y534948D1*
Y533948D1*
Y532948D1*
Y531948D1*
Y530948D1*
Y529948D1*
Y528948D1*
Y527948D1*
Y526948D1*
Y525948D1*
Y524948D1*
Y523948D1*
Y522948D1*
Y521948D1*
Y520948D1*
Y519948D1*
Y518948D1*
Y517948D1*
Y516948D1*
Y515948D1*
Y514948D1*
Y513948D1*
Y512948D1*
Y511948D1*
Y510948D1*
Y509948D1*
Y508948D1*
Y507948D1*
Y506948D1*
Y505948D1*
Y504948D1*
Y503948D1*
Y502948D1*
Y501948D1*
Y500948D1*
Y499948D1*
Y498948D1*
Y497948D1*
X1206845Y496948D1*
X1206880Y495948D1*
X1207008Y494948D1*
X1207251Y493948D1*
X1207543Y492948D1*
X1207848Y491948D1*
X1208224Y490948D1*
X1208732Y489948D1*
X1209377Y488948D1*
X1210872Y487948D1*
X1213007Y486948D1*
X1215747Y485948D1*
X1218618Y484948D1*
X1220965Y483948D1*
X1222730Y482948D1*
X1223413Y481948D1*
X1223645Y480948D1*
X1223762Y479948D1*
X1223813Y478948D1*
X1223841Y477948D1*
X959841Y562948D2*
Y561948D1*
Y560948D1*
Y559948D1*
Y558948D1*
Y557948D1*
Y556948D1*
Y555948D1*
Y554948D1*
Y553948D1*
Y552948D1*
Y551948D1*
Y550948D1*
Y549948D1*
Y548948D1*
Y547948D1*
Y546948D1*
Y545948D1*
Y544948D1*
Y543948D1*
Y542948D1*
Y541948D1*
Y540948D1*
Y539948D1*
Y538948D1*
Y537948D1*
Y536948D1*
Y535948D1*
Y534948D1*
Y533948D1*
Y532948D1*
Y531948D1*
Y530948D1*
Y529948D1*
Y528948D1*
Y527948D1*
Y526948D1*
Y525948D1*
Y524948D1*
Y523948D1*
Y522948D1*
Y521948D1*
Y520948D1*
Y519948D1*
Y518948D1*
Y517948D1*
Y516948D1*
Y515948D1*
Y514948D1*
Y513948D1*
Y512948D1*
Y511948D1*
Y510948D1*
Y509948D1*
Y508948D1*
Y507948D1*
Y506948D1*
Y505948D1*
Y504948D1*
Y503948D1*
Y502948D1*
Y501948D1*
Y500948D1*
Y499948D1*
Y498948D1*
X959837Y497948D1*
X959802Y496948D1*
X959675Y495948D1*
X959435Y494948D1*
X959175Y493948D1*
X958965Y492948D1*
X958741Y491948D1*
X958424Y490948D1*
X958015Y489948D1*
X957516Y488948D1*
X956796Y487948D1*
X955808Y486948D1*
X952696Y485948D1*
X947838Y484948D1*
X941841Y483948D1*
X966841Y562948D2*
Y561948D1*
Y560948D1*
Y559948D1*
Y558948D1*
Y557948D1*
Y556948D1*
Y555948D1*
Y554948D1*
Y553948D1*
Y552948D1*
Y551948D1*
Y550948D1*
Y549948D1*
Y548948D1*
Y547948D1*
Y546948D1*
Y545948D1*
Y544948D1*
Y543948D1*
Y542948D1*
Y541948D1*
Y540948D1*
Y539948D1*
Y538948D1*
Y537948D1*
Y536948D1*
Y535948D1*
Y534948D1*
Y533948D1*
Y532948D1*
Y531948D1*
Y530948D1*
Y529948D1*
Y528948D1*
Y527948D1*
Y526948D1*
Y525948D1*
Y524948D1*
Y523948D1*
Y522948D1*
Y521948D1*
Y520948D1*
Y519948D1*
Y518948D1*
Y517948D1*
Y516948D1*
Y515948D1*
Y514948D1*
Y513948D1*
Y512948D1*
Y511948D1*
Y510948D1*
Y509948D1*
Y508948D1*
Y507948D1*
Y506948D1*
Y505948D1*
Y504948D1*
Y503948D1*
Y502948D1*
Y501948D1*
Y500948D1*
Y499948D1*
Y498948D1*
Y497948D1*
Y496948D1*
Y495948D1*
Y494948D1*
Y493948D1*
Y492948D1*
Y491948D1*
X966837Y490948D1*
X966802Y489948D1*
X966675Y488948D1*
X966431Y487948D1*
X966140Y486948D1*
X965834Y485948D1*
X965463Y484948D1*
X964997Y483948D1*
X964396Y482948D1*
X963595Y481948D1*
X962535Y480948D1*
X961067Y479948D1*
X958963Y478948D1*
X956116Y477948D1*
X952841Y476948D1*
X1130841Y562948D2*
Y561948D1*
Y560948D1*
Y559948D1*
Y558948D1*
Y557948D1*
Y556948D1*
Y555948D1*
Y554948D1*
Y553948D1*
Y552948D1*
Y551948D1*
Y550948D1*
Y549948D1*
Y548948D1*
Y547948D1*
Y546948D1*
Y545948D1*
Y544948D1*
Y543948D1*
Y542948D1*
Y541948D1*
Y540948D1*
Y539948D1*
Y538948D1*
Y537948D1*
Y536948D1*
Y535948D1*
Y534948D1*
Y533948D1*
Y532948D1*
Y531948D1*
Y530948D1*
Y529948D1*
Y528948D1*
Y527948D1*
Y526948D1*
Y525948D1*
Y524948D1*
Y523948D1*
Y522948D1*
Y521948D1*
Y520948D1*
Y519948D1*
Y518948D1*
Y517948D1*
Y516948D1*
Y515948D1*
Y514948D1*
Y513948D1*
Y512948D1*
Y511948D1*
Y510948D1*
Y509948D1*
Y508948D1*
Y507948D1*
Y506948D1*
Y505948D1*
Y504948D1*
Y503948D1*
Y502948D1*
Y501948D1*
Y500948D1*
Y499948D1*
Y498948D1*
Y497948D1*
Y496948D1*
Y495948D1*
Y494948D1*
Y493948D1*
Y492948D1*
Y491948D1*
Y490948D1*
Y489948D1*
Y488948D1*
Y487948D1*
Y486948D1*
Y485948D1*
Y484948D1*
Y483948D1*
Y482948D1*
Y481948D1*
Y480948D1*
Y479948D1*
Y478948D1*
Y477948D1*
X1168841Y562948D2*
X1172184Y561948D1*
X1174878Y560948D1*
X1176908Y559948D1*
X1178435Y558948D1*
X1179642Y557948D1*
X1180610Y556948D1*
X1181374Y555948D1*
X1182001Y554948D1*
X1182557Y553948D1*
X1183078Y552948D1*
X1183583Y551948D1*
X1184050Y550948D1*
X1184425Y549948D1*
X1184685Y548948D1*
X1184925Y547948D1*
X1185215Y546948D1*
X1185492Y545948D1*
X1185674Y544948D1*
X1185769Y543948D1*
X1185813Y542948D1*
X1185831Y541948D1*
X1185837Y540948D1*
X1185840Y539948D1*
X1185841Y538948D1*
Y537948D1*
Y536948D1*
Y535948D1*
Y534948D1*
Y533948D1*
X1185837Y532948D1*
X1185802Y531948D1*
X1185675Y530948D1*
X1185435Y529948D1*
X1185175Y528948D1*
X1184965Y527948D1*
X1184745Y526948D1*
X1184459Y525948D1*
X1184150Y524948D1*
X1183838Y523948D1*
X1183468Y522948D1*
X1183037Y521948D1*
X1182566Y520948D1*
X1182044Y519948D1*
X1181414Y518948D1*
X1180602Y517948D1*
X1179549Y516948D1*
X1178193Y515948D1*
X1176552Y514948D1*
X1174731Y513948D1*
X1172841Y512948D1*
X1138841Y554948D2*
Y553948D1*
Y552948D1*
Y551948D1*
Y550948D1*
Y549948D1*
Y548948D1*
Y547948D1*
Y546948D1*
Y545948D1*
Y544948D1*
Y543948D1*
Y542948D1*
Y541948D1*
Y540948D1*
Y539948D1*
Y538948D1*
Y537948D1*
Y536948D1*
Y535948D1*
Y534948D1*
Y533948D1*
Y532948D1*
Y531948D1*
Y530948D1*
Y529948D1*
Y528948D1*
Y527948D1*
Y526948D1*
Y525948D1*
Y524948D1*
Y523948D1*
Y522948D1*
Y521948D1*
Y520948D1*
X1167841Y554948D2*
X1169799Y553948D1*
X1171628Y552948D1*
X1173187Y551948D1*
X1174393Y550948D1*
X1175278Y549948D1*
X1175925Y548948D1*
X1176377Y547948D1*
X1176667Y546948D1*
X1176919Y545948D1*
X1177213Y544948D1*
X1177491Y543948D1*
X1177674Y542948D1*
X1177769Y541948D1*
X1177813Y540948D1*
X1177831Y539948D1*
X1177837Y538948D1*
X1177840Y537948D1*
X1177841Y536948D1*
Y535948D1*
Y534948D1*
Y533948D1*
X1177837Y532948D1*
X1177802Y531948D1*
X1177675Y530948D1*
X1177431Y529948D1*
X1177140Y528948D1*
X1176834Y527948D1*
X1176463Y526948D1*
X1175993Y525948D1*
X1175356Y524948D1*
X1174428Y523948D1*
X1173144Y522948D1*
X1171559Y521948D1*
X1169841Y520948D1*
X996841Y539948D2*
X991437Y538948D1*
X987195Y537948D1*
X983971Y536948D1*
X982675Y535948D1*
X982226Y534948D1*
X981997Y533948D1*
X981897Y532948D1*
X981841Y531948D1*
X1017841Y539948D2*
X1019799Y538948D1*
X1021628Y537948D1*
X1023187Y536948D1*
X1024397Y535948D1*
X1025317Y534948D1*
X1026092Y533948D1*
X1026783Y532948D1*
X1027330Y531948D1*
X1027756Y530948D1*
X1028142Y529948D1*
X1028463Y528948D1*
X1028663Y527948D1*
X1028765Y526948D1*
X1028811Y525948D1*
X1028830Y524948D1*
X1028837Y523948D1*
X1028840Y522948D1*
X1028841Y521948D1*
Y520948D1*
Y519948D1*
Y518948D1*
Y517948D1*
Y516948D1*
Y515948D1*
Y514948D1*
Y513948D1*
Y512948D1*
Y511948D1*
Y510948D1*
Y509948D1*
Y508948D1*
Y507948D1*
Y506948D1*
Y505948D1*
Y504948D1*
Y503948D1*
Y502948D1*
Y501948D1*
Y500948D1*
Y499948D1*
Y498948D1*
Y497948D1*
Y496948D1*
Y495948D1*
Y494948D1*
Y493948D1*
Y492948D1*
Y491948D1*
Y490948D1*
Y489948D1*
Y488948D1*
Y487948D1*
Y486948D1*
Y485948D1*
Y484948D1*
Y483948D1*
Y482948D1*
Y481948D1*
Y480948D1*
Y479948D1*
Y478948D1*
Y477948D1*
X1079841Y538948D2*
X1078687Y537948D1*
X1077439Y536948D1*
X1076180Y535948D1*
X1075005Y534948D1*
X1073912Y533948D1*
X1072869Y532948D1*
X1071852Y531948D1*
X1070845Y530948D1*
X1069842Y529948D1*
X1068842Y528948D1*
X1067841Y527948D1*
X1066841Y526948D1*
X1065837Y525948D1*
X1064802Y524948D1*
X1063675Y523948D1*
X1062435Y522948D1*
X1061179Y521948D1*
X1059985Y520948D1*
X1058702Y519948D1*
X1056887Y518948D1*
X1054159Y517948D1*
X1050841Y516948D1*
X1090841Y538948D2*
X1089841Y537948D1*
X1088841Y536948D1*
X1087841Y535948D1*
X1086841Y534948D1*
X1085841Y533948D1*
X1084837Y532948D1*
X1083802Y531948D1*
X1082675Y530948D1*
X1081435Y529948D1*
X1080179Y528948D1*
X1079004Y527948D1*
X1077912Y526948D1*
X1076869Y525948D1*
X1075852Y524948D1*
X1074845Y523948D1*
X1073842Y522948D1*
X1072842Y521948D1*
X1071841Y520948D1*
X1070841Y519948D1*
X1069841Y518948D1*
X1068841Y517948D1*
X1067841Y516948D1*
X1066841Y515948D1*
X1065841Y514948D1*
X1064841Y513948D1*
X1063841Y512948D1*
X1064687Y511948D1*
X1065439Y510948D1*
X1066180Y509948D1*
X1067001Y508948D1*
X1067873Y507948D1*
X1068703Y506948D1*
X1069446Y505948D1*
X1070179Y504948D1*
X1070967Y503948D1*
X1071746Y502948D1*
X1072463Y501948D1*
X1073185Y500948D1*
X1073969Y499948D1*
X1074746Y498948D1*
X1075464Y497948D1*
X1076189Y496948D1*
X1077004Y495948D1*
X1077874Y494948D1*
X1078703Y493948D1*
X1079446Y492948D1*
X1080179Y491948D1*
X1080967Y490948D1*
X1081746Y489948D1*
X1082463Y488948D1*
X1083189Y487948D1*
X1084004Y486948D1*
X1084874Y485948D1*
X1085703Y484948D1*
X1086446Y483948D1*
X1087179Y482948D1*
X1087967Y481948D1*
X1088745Y480948D1*
X1089454Y479948D1*
X1090138Y478948D1*
X1090841Y477948D1*
X1232841Y538948D2*
Y537948D1*
Y536948D1*
Y535948D1*
Y534948D1*
Y533948D1*
Y532948D1*
Y531948D1*
Y530948D1*
Y529948D1*
Y528948D1*
Y527948D1*
Y526948D1*
Y525948D1*
Y524948D1*
Y523948D1*
Y522948D1*
Y521948D1*
Y520948D1*
Y519948D1*
Y518948D1*
Y517948D1*
Y516948D1*
Y515948D1*
Y514948D1*
Y513948D1*
Y512948D1*
Y511948D1*
Y510948D1*
Y509948D1*
Y508948D1*
Y507948D1*
Y506948D1*
Y505948D1*
Y504948D1*
Y503948D1*
Y502948D1*
Y501948D1*
Y500948D1*
Y499948D1*
Y498948D1*
Y497948D1*
Y496948D1*
Y495948D1*
X1232845Y494948D1*
X1232880Y493948D1*
X1233008Y492948D1*
X1233251Y491948D1*
X1233543Y490948D1*
X1233848Y489948D1*
X1234216Y488948D1*
X1234646Y487948D1*
X1235116Y486948D1*
X1235639Y485948D1*
X1236264Y484948D1*
X1237038Y483948D1*
X1237924Y482948D1*
X1238878Y481948D1*
X1239900Y480948D1*
X1241097Y479948D1*
X1242651Y478948D1*
X1244631Y477948D1*
X1246841Y476948D1*
X1240841Y538948D2*
Y537948D1*
Y536948D1*
Y535948D1*
Y534948D1*
Y533948D1*
Y532948D1*
Y531948D1*
Y530948D1*
Y529948D1*
Y528948D1*
Y527948D1*
Y526948D1*
Y525948D1*
Y524948D1*
Y523948D1*
Y522948D1*
Y521948D1*
Y520948D1*
Y519948D1*
Y518948D1*
Y517948D1*
Y516948D1*
Y515948D1*
Y514948D1*
Y513948D1*
Y512948D1*
Y511948D1*
Y510948D1*
Y509948D1*
Y508948D1*
Y507948D1*
Y506948D1*
Y505948D1*
Y504948D1*
Y503948D1*
Y502948D1*
Y501948D1*
Y500948D1*
Y499948D1*
Y498948D1*
Y497948D1*
Y496948D1*
Y495948D1*
X1240845Y494948D1*
X1240880Y493948D1*
X1241012Y492948D1*
X1241290Y491948D1*
X1241713Y490948D1*
X1242297Y489948D1*
X1243092Y488948D1*
X1244137Y487948D1*
X1245487Y486948D1*
X1247104Y485948D1*
X1248841Y484948D1*
X1274841Y538948D2*
Y537948D1*
Y536948D1*
Y535948D1*
Y534948D1*
Y533948D1*
Y532948D1*
Y531948D1*
Y530948D1*
Y529948D1*
Y528948D1*
Y527948D1*
Y526948D1*
Y525948D1*
Y524948D1*
Y523948D1*
Y522948D1*
Y521948D1*
Y520948D1*
Y519948D1*
Y518948D1*
Y517948D1*
Y516948D1*
Y515948D1*
Y514948D1*
Y513948D1*
Y512948D1*
Y511948D1*
Y510948D1*
Y509948D1*
Y508948D1*
Y507948D1*
Y506948D1*
Y505948D1*
Y504948D1*
Y503948D1*
Y502948D1*
Y501948D1*
Y500948D1*
Y499948D1*
Y498948D1*
Y497948D1*
Y496948D1*
Y495948D1*
X1274837Y494948D1*
X1274794Y493948D1*
X1274689Y492948D1*
X1274167Y491948D1*
X1272825Y490948D1*
X1271008Y489948D1*
X1268770Y488948D1*
X1266120Y487948D1*
X1263001Y486948D1*
X1259503Y485948D1*
X1255841Y484948D1*
X1282841Y538948D2*
Y537948D1*
Y536948D1*
Y535948D1*
Y534948D1*
Y533948D1*
Y532948D1*
Y531948D1*
Y530948D1*
Y529948D1*
Y528948D1*
Y527948D1*
Y526948D1*
Y525948D1*
Y524948D1*
Y523948D1*
Y522948D1*
Y521948D1*
Y520948D1*
Y519948D1*
Y518948D1*
Y517948D1*
Y516948D1*
Y515948D1*
Y514948D1*
Y513948D1*
Y512948D1*
Y511948D1*
Y510948D1*
Y509948D1*
Y508948D1*
Y507948D1*
Y506948D1*
Y505948D1*
Y504948D1*
Y503948D1*
Y502948D1*
Y501948D1*
Y500948D1*
Y499948D1*
Y498948D1*
Y497948D1*
Y496948D1*
Y495948D1*
Y494948D1*
Y493948D1*
Y492948D1*
Y491948D1*
Y490948D1*
Y489948D1*
Y488948D1*
Y487948D1*
Y486948D1*
Y485948D1*
Y484948D1*
Y483948D1*
Y482948D1*
Y481948D1*
Y480948D1*
Y479948D1*
Y478948D1*
Y477948D1*
X1309841Y538948D2*
X1307883Y537948D1*
X1306050Y536948D1*
X1304461Y535948D1*
X1303158Y534948D1*
X1302122Y533948D1*
X1301295Y532948D1*
X1300563Y531948D1*
X1299889Y530948D1*
X1299349Y529948D1*
X1298925Y528948D1*
X1298536Y527948D1*
X1298180Y526948D1*
X1297853Y525948D1*
X1297511Y524948D1*
X1297209Y523948D1*
X1297015Y522948D1*
X1296916Y521948D1*
X1296871Y520948D1*
X1296852Y519948D1*
X1296845Y518948D1*
X1296843Y517948D1*
X1296842Y516948D1*
X1296841Y515948D1*
X1296845Y514948D1*
X1296880Y513948D1*
X1297008Y512948D1*
X1297247Y511948D1*
X1297508Y510948D1*
X1297717Y509948D1*
X1297941Y508948D1*
X1298258Y507948D1*
X1298664Y506948D1*
X1299123Y505948D1*
X1299641Y504948D1*
X1300265Y503948D1*
X1301037Y502948D1*
X1301917Y501948D1*
X1302841Y500948D1*
X1301537Y499948D1*
X1300372Y498948D1*
X1299457Y497948D1*
X1298747Y496948D1*
X1298156Y495948D1*
X1297653Y494948D1*
X1297269Y493948D1*
X1297039Y492948D1*
X1296925Y491948D1*
X1296874Y490948D1*
X1296857Y489948D1*
X1296885Y488948D1*
X1297013Y487948D1*
X1297287Y486948D1*
X1297678Y485948D1*
X1298162Y484948D1*
X1298762Y483948D1*
X1299423Y482948D1*
X1300040Y481948D1*
X1300156Y480948D1*
X1299851Y479948D1*
X1299375Y478948D1*
X1298784Y477948D1*
X1298196Y476948D1*
X1297677Y475948D1*
X1297280Y474948D1*
X1297044Y473948D1*
X1296926Y472948D1*
X1296874Y471948D1*
X1296853Y470948D1*
X1296846Y469948D1*
X1296843Y468948D1*
X1296842Y467948D1*
X1296841Y466948D1*
Y465948D1*
Y464948D1*
Y463948D1*
Y462948D1*
Y461948D1*
Y460948D1*
X1296845Y459948D1*
X1296880Y458948D1*
X1297012Y457948D1*
X1297286Y456948D1*
X1297674Y455948D1*
X1298127Y454948D1*
X1298643Y453948D1*
X1299269Y452948D1*
X1300077Y451948D1*
X1301098Y450948D1*
X1302373Y449948D1*
X1304018Y448948D1*
X1306299Y447948D1*
X1309357Y446948D1*
X1312841Y445948D1*
X1352841Y538948D2*
Y537948D1*
X1352837Y536948D1*
X1352783Y535948D1*
X1352642Y534948D1*
X1351804Y533948D1*
X1349726Y532948D1*
X1347453Y531948D1*
X1345499Y530948D1*
X1343841Y529948D1*
X1344457Y528948D1*
X1344996Y527948D1*
X1345436Y526948D1*
X1345803Y525948D1*
X1346161Y524948D1*
X1346470Y523948D1*
X1346666Y522948D1*
X1346766Y521948D1*
X1346812Y520948D1*
X1346830Y519948D1*
X1346837Y518948D1*
X1346840Y517948D1*
X1346841Y516948D1*
X1346837Y515948D1*
X1346802Y514948D1*
X1346675Y513948D1*
X1346435Y512948D1*
X1346175Y511948D1*
X1345965Y510948D1*
X1345745Y509948D1*
X1345459Y508948D1*
X1345150Y507948D1*
X1344838Y506948D1*
X1344468Y505948D1*
X1344037Y504948D1*
X1343566Y503948D1*
X1343044Y502948D1*
X1342418Y501948D1*
X1341641Y500948D1*
X1340715Y499948D1*
X1339588Y498948D1*
X1338088Y497948D1*
X1335971Y496948D1*
X1333119Y495948D1*
X1329841Y494948D1*
X1374841Y538948D2*
X1372883Y537948D1*
X1371050Y536948D1*
X1369461Y535948D1*
X1368158Y534948D1*
X1367122Y533948D1*
X1366295Y532948D1*
X1365563Y531948D1*
X1364889Y530948D1*
X1364349Y529948D1*
X1363925Y528948D1*
X1363536Y527948D1*
X1363180Y526948D1*
X1362853Y525948D1*
X1362511Y524948D1*
X1362209Y523948D1*
X1362015Y522948D1*
X1361916Y521948D1*
X1361871Y520948D1*
X1361852Y519948D1*
X1361845Y518948D1*
X1361843Y517948D1*
X1361842Y516948D1*
X1361841Y515948D1*
X1361845Y514948D1*
X1361880Y513948D1*
X1362008Y512948D1*
X1362247Y511948D1*
X1362508Y510948D1*
X1362717Y509948D1*
X1362941Y508948D1*
X1363258Y507948D1*
X1363664Y506948D1*
X1364123Y505948D1*
X1364641Y504948D1*
X1365265Y503948D1*
X1366037Y502948D1*
X1366917Y501948D1*
X1367841Y500948D1*
X1366537Y499948D1*
X1365372Y498948D1*
X1364457Y497948D1*
X1363747Y496948D1*
X1363156Y495948D1*
X1362653Y494948D1*
X1362269Y493948D1*
X1362039Y492948D1*
X1361925Y491948D1*
X1361874Y490948D1*
X1361857Y489948D1*
X1361885Y488948D1*
X1362013Y487948D1*
X1362287Y486948D1*
X1362678Y485948D1*
X1363162Y484948D1*
X1363762Y483948D1*
X1364423Y482948D1*
X1365040Y481948D1*
X1365156Y480948D1*
X1364851Y479948D1*
X1364375Y478948D1*
X1363784Y477948D1*
X1363196Y476948D1*
X1362677Y475948D1*
X1362280Y474948D1*
X1362044Y473948D1*
X1361926Y472948D1*
X1361874Y471948D1*
X1361853Y470948D1*
X1361846Y469948D1*
X1361843Y468948D1*
X1361842Y467948D1*
X1361841Y466948D1*
Y465948D1*
Y464948D1*
Y463948D1*
Y462948D1*
Y461948D1*
Y460948D1*
X1361845Y459948D1*
X1361880Y458948D1*
X1362012Y457948D1*
X1362286Y456948D1*
X1362674Y455948D1*
X1363127Y454948D1*
X1363643Y453948D1*
X1364269Y452948D1*
X1365077Y451948D1*
X1366098Y450948D1*
X1367373Y449948D1*
X1369018Y448948D1*
X1371299Y447948D1*
X1374357Y446948D1*
X1377841Y445948D1*
X1417841Y538948D2*
Y537948D1*
X1417837Y536948D1*
X1417783Y535948D1*
X1417642Y534948D1*
X1416804Y533948D1*
X1414726Y532948D1*
X1412453Y531948D1*
X1410499Y530948D1*
X1408841Y529948D1*
X1409457Y528948D1*
X1409996Y527948D1*
X1410436Y526948D1*
X1410803Y525948D1*
X1411161Y524948D1*
X1411470Y523948D1*
X1411666Y522948D1*
X1411766Y521948D1*
X1411812Y520948D1*
X1411830Y519948D1*
X1411837Y518948D1*
X1411840Y517948D1*
X1411841Y516948D1*
X1411837Y515948D1*
X1411802Y514948D1*
X1411675Y513948D1*
X1411435Y512948D1*
X1411175Y511948D1*
X1410965Y510948D1*
X1410745Y509948D1*
X1410459Y508948D1*
X1410150Y507948D1*
X1409838Y506948D1*
X1409468Y505948D1*
X1409037Y504948D1*
X1408566Y503948D1*
X1408044Y502948D1*
X1407418Y501948D1*
X1406641Y500948D1*
X1405715Y499948D1*
X1404588Y498948D1*
X1403088Y497948D1*
X1400971Y496948D1*
X1398119Y495948D1*
X1394841Y494948D1*
X998841Y532948D2*
X997841Y531948D1*
X1011841Y532948D2*
X1014444Y531948D1*
X1016579Y530948D1*
X1018117Y529948D1*
X1019163Y528948D1*
X1019881Y527948D1*
X1020357Y526948D1*
X1020626Y525948D1*
X1020790Y524948D1*
X1020973Y523948D1*
X1021234Y522948D1*
X1021499Y521948D1*
X1021673Y520948D1*
X1021731Y519948D1*
X1021646Y518948D1*
X1021425Y517948D1*
X1021175Y516948D1*
X1021002Y515948D1*
X1020905Y514948D1*
X1020841Y513948D1*
X1317841Y531948D2*
X1314431Y530948D1*
X1311676Y529948D1*
X1309675Y528948D1*
X1308227Y527948D1*
X1307179Y526948D1*
X1306466Y525948D1*
X1305970Y524948D1*
X1305556Y523948D1*
X1305225Y522948D1*
X1305021Y521948D1*
X1304918Y520948D1*
X1304871Y519948D1*
X1304852Y518948D1*
X1304845Y517948D1*
X1304843Y516948D1*
X1304846Y515948D1*
X1304880Y514948D1*
X1305008Y513948D1*
X1305251Y512948D1*
X1305543Y511948D1*
X1305848Y510948D1*
X1306220Y509948D1*
X1306685Y508948D1*
X1307291Y507948D1*
X1308131Y506948D1*
X1309345Y505948D1*
X1311098Y504948D1*
X1313355Y503948D1*
X1315841Y502948D1*
X1327841Y531948D2*
X1330565Y530948D1*
X1332854Y529948D1*
X1334539Y528948D1*
X1335744Y527948D1*
X1336640Y526948D1*
X1337275Y525948D1*
X1337736Y524948D1*
X1338135Y523948D1*
X1338461Y522948D1*
X1338662Y521948D1*
X1338765Y520948D1*
X1338811Y519948D1*
X1338830Y518948D1*
X1338837Y517948D1*
X1338840Y516948D1*
X1338841Y515948D1*
X1338837Y514948D1*
X1338802Y513948D1*
X1338671Y512948D1*
X1338396Y511948D1*
X1338008Y510948D1*
X1337555Y509948D1*
X1337040Y508948D1*
X1336409Y507948D1*
X1335558Y506948D1*
X1334340Y505948D1*
X1332585Y504948D1*
X1330328Y503948D1*
X1327841Y502948D1*
X1382841Y531948D2*
X1379431Y530948D1*
X1376676Y529948D1*
X1374675Y528948D1*
X1373227Y527948D1*
X1372179Y526948D1*
X1371466Y525948D1*
X1370970Y524948D1*
X1370556Y523948D1*
X1370225Y522948D1*
X1370021Y521948D1*
X1369918Y520948D1*
X1369871Y519948D1*
X1369852Y518948D1*
X1369845Y517948D1*
X1369843Y516948D1*
X1369846Y515948D1*
X1369880Y514948D1*
X1370008Y513948D1*
X1370251Y512948D1*
X1370543Y511948D1*
X1370848Y510948D1*
X1371220Y509948D1*
X1371685Y508948D1*
X1372291Y507948D1*
X1373131Y506948D1*
X1374345Y505948D1*
X1376098Y504948D1*
X1378355Y503948D1*
X1380841Y502948D1*
X1392841Y531948D2*
X1395565Y530948D1*
X1397854Y529948D1*
X1399539Y528948D1*
X1400744Y527948D1*
X1401640Y526948D1*
X1402275Y525948D1*
X1402736Y524948D1*
X1403135Y523948D1*
X1403461Y522948D1*
X1403662Y521948D1*
X1403765Y520948D1*
X1403811Y519948D1*
X1403830Y518948D1*
X1403837Y517948D1*
X1403840Y516948D1*
X1403841Y515948D1*
X1403837Y514948D1*
X1403802Y513948D1*
X1403671Y512948D1*
X1403396Y511948D1*
X1403008Y510948D1*
X1402555Y509948D1*
X1402040Y508948D1*
X1401409Y507948D1*
X1400558Y506948D1*
X1399340Y505948D1*
X1397585Y504948D1*
X1395328Y503948D1*
X1392841Y502948D1*
X988841Y513948D2*
X987229Y512948D1*
X985729Y511948D1*
X984452Y510948D1*
X983456Y509948D1*
X982632Y508948D1*
X981917Y507948D1*
X981360Y506948D1*
X980929Y505948D1*
X980541Y504948D1*
X980220Y503948D1*
X980019Y502948D1*
X979917Y501948D1*
X979871Y500948D1*
X979852Y499948D1*
X979845Y498948D1*
X979843Y497948D1*
X979842Y496948D1*
X979841Y495948D1*
Y494948D1*
Y493948D1*
Y492948D1*
Y491948D1*
X979845Y490948D1*
X979880Y489948D1*
X980008Y488948D1*
X980251Y487948D1*
X980547Y486948D1*
X980884Y485948D1*
X981347Y484948D1*
X981925Y483948D1*
X982543Y482948D1*
X983262Y481948D1*
X984233Y480948D1*
X985574Y479948D1*
X987344Y478948D1*
X989496Y477948D1*
X991841Y476948D1*
X1138841Y514948D2*
Y513948D1*
Y512948D1*
Y511948D1*
Y510948D1*
Y509948D1*
Y508948D1*
Y507948D1*
Y506948D1*
Y505948D1*
Y504948D1*
Y503948D1*
Y502948D1*
Y501948D1*
Y500948D1*
Y499948D1*
Y498948D1*
Y497948D1*
Y496948D1*
Y495948D1*
Y494948D1*
Y493948D1*
Y492948D1*
Y491948D1*
Y490948D1*
Y489948D1*
Y488948D1*
Y487948D1*
Y486948D1*
Y485948D1*
Y484948D1*
Y483948D1*
Y482948D1*
Y481948D1*
Y480948D1*
Y479948D1*
Y478948D1*
Y477948D1*
X1133841Y514948D2*
X1144841Y513948D1*
X1155841Y512948D1*
X1019841Y508948D2*
X1018841Y507948D1*
X1020841Y508948D2*
Y507948D1*
Y506948D1*
Y505948D1*
Y504948D1*
Y503948D1*
Y502948D1*
Y501948D1*
Y500948D1*
Y499948D1*
Y498948D1*
Y497948D1*
Y496948D1*
Y495948D1*
X1020837Y494948D1*
X1020790Y493948D1*
X1020673Y492948D1*
X1020046Y491948D1*
X1018350Y490948D1*
X1015973Y489948D1*
X1012878Y488948D1*
X1008873Y487948D1*
X1003309Y486948D1*
X995690Y485948D1*
X986841Y484948D1*
X1050841Y508948D2*
Y507948D1*
Y506948D1*
Y505948D1*
Y504948D1*
Y503948D1*
Y502948D1*
Y501948D1*
Y500948D1*
Y499948D1*
Y498948D1*
Y497948D1*
Y496948D1*
Y495948D1*
Y494948D1*
Y493948D1*
Y492948D1*
Y491948D1*
Y490948D1*
Y489948D1*
Y488948D1*
Y487948D1*
Y486948D1*
Y485948D1*
Y484948D1*
Y483948D1*
Y482948D1*
Y481948D1*
Y480948D1*
Y479948D1*
Y478948D1*
Y477948D1*
X1055841Y508948D2*
X1056837Y507948D1*
X1057802Y506948D1*
X1058675Y505948D1*
X1059435Y504948D1*
X1060179Y503948D1*
X1061000Y502948D1*
X1061873Y501948D1*
X1062703Y500948D1*
X1063446Y499948D1*
X1064183Y498948D1*
X1065002Y497948D1*
X1065873Y496948D1*
X1066703Y495948D1*
X1067446Y494948D1*
X1068183Y493948D1*
X1069002Y492948D1*
X1069873Y491948D1*
X1070703Y490948D1*
X1071446Y489948D1*
X1072183Y488948D1*
X1073002Y487948D1*
X1073873Y486948D1*
X1074703Y485948D1*
X1075446Y484948D1*
X1076183Y483948D1*
X1077002Y482948D1*
X1077873Y481948D1*
X1078702Y480948D1*
X1079437Y479948D1*
X1080132Y478948D1*
X1080841Y477948D1*
X1005841Y507948D2*
X1004841Y506948D1*
X994841D2*
X993038Y505948D1*
X991457Y504948D1*
X990161Y503948D1*
X989165Y502948D1*
X988389Y501948D1*
X988107Y500948D1*
X987955Y499948D1*
X987886Y498948D1*
X987858Y497948D1*
X987847Y496948D1*
X987843Y495948D1*
X987842Y494948D1*
X987841Y493948D1*
Y492948D1*
X987845Y491948D1*
X987884Y490948D1*
X988051Y489948D1*
X988363Y488948D1*
X989191Y487948D1*
X991648Y486948D1*
X995709Y485948D1*
X1000841Y484948D1*
X1306841Y494948D2*
X1306038Y493948D1*
X1305453Y492948D1*
X1305126Y491948D1*
X1304949Y490948D1*
X1305141Y489948D1*
X1306040Y488948D1*
X1307339Y487948D1*
X1308841Y486948D1*
X1371841Y494948D2*
X1371038Y493948D1*
X1370453Y492948D1*
X1370126Y491948D1*
X1369949Y490948D1*
X1370141Y489948D1*
X1371040Y488948D1*
X1372339Y487948D1*
X1373841Y486948D1*
X1338841D2*
X1340915Y485948D1*
X1342702Y484948D1*
X1344124Y483948D1*
X1345185Y482948D1*
X1346035Y481948D1*
X1346760Y480948D1*
X1347321Y479948D1*
X1347753Y478948D1*
X1348141Y477948D1*
X1348463Y476948D1*
X1348663Y475948D1*
X1348765Y474948D1*
X1348811Y473948D1*
X1348830Y472948D1*
X1348837Y471948D1*
X1348840Y470948D1*
X1348841Y469948D1*
Y468948D1*
Y467948D1*
Y466948D1*
Y465948D1*
Y464948D1*
Y463948D1*
Y462948D1*
Y461948D1*
Y460948D1*
X1348837Y459948D1*
X1348802Y458948D1*
X1348671Y457948D1*
X1348396Y456948D1*
X1348008Y455948D1*
X1347559Y454948D1*
X1347079Y453948D1*
X1346580Y452948D1*
X1346011Y451948D1*
X1345246Y450948D1*
X1344150Y449948D1*
X1342636Y448948D1*
X1340551Y447948D1*
X1337854Y446948D1*
X1334841Y445948D1*
X1403841Y486948D2*
X1405915Y485948D1*
X1407702Y484948D1*
X1409124Y483948D1*
X1410185Y482948D1*
X1411035Y481948D1*
X1411760Y480948D1*
X1412321Y479948D1*
X1412753Y478948D1*
X1413141Y477948D1*
X1413463Y476948D1*
X1413663Y475948D1*
X1413765Y474948D1*
X1413811Y473948D1*
X1413830Y472948D1*
X1413837Y471948D1*
X1413840Y470948D1*
X1413841Y469948D1*
Y468948D1*
Y467948D1*
Y466948D1*
Y465948D1*
Y464948D1*
Y463948D1*
Y462948D1*
Y461948D1*
Y460948D1*
X1413837Y459948D1*
X1413802Y458948D1*
X1413671Y457948D1*
X1413396Y456948D1*
X1413008Y455948D1*
X1412559Y454948D1*
X1412079Y453948D1*
X1411580Y452948D1*
X1411011Y451948D1*
X1410246Y450948D1*
X1409150Y449948D1*
X1407636Y448948D1*
X1405551Y447948D1*
X1402854Y446948D1*
X1399841Y445948D1*
X937841Y484948D2*
X937691Y483948D1*
X937482Y482948D1*
X937290Y481948D1*
X937511Y480948D1*
X938285Y479948D1*
X940125Y478948D1*
X942744Y477948D1*
X945841Y476948D1*
X942841Y484948D2*
X943841Y483948D1*
X1021841Y484948D2*
X1019034Y483948D1*
X1016410Y482948D1*
X1013909Y481948D1*
X1011332Y480948D1*
X1008523Y479948D1*
X1005350Y478948D1*
X1001728Y477948D1*
X997841Y476948D1*
X1021841Y484948D2*
X1021879Y483948D1*
X1022007Y482948D1*
X1022251Y481948D1*
X1022546Y480948D1*
X1022875Y479948D1*
X1023315Y478948D1*
X1023841Y477948D1*
X1274841Y484948D2*
X1272996Y483948D1*
X1271244Y482948D1*
X1269499Y481948D1*
X1267635Y480948D1*
X1265561Y479948D1*
X1263202Y478948D1*
X1260580Y477948D1*
X1257841Y476948D1*
X1273841Y484948D2*
X1274683Y483948D1*
X1275396Y482948D1*
X1275974Y481948D1*
X1276431Y480948D1*
X1276831Y479948D1*
X1277300Y478948D1*
X1277841Y477948D1*
X1303841Y479948D2*
Y478948D1*
Y477948D1*
Y476948D1*
Y475948D1*
Y474948D1*
Y473948D1*
Y472948D1*
Y471948D1*
Y470948D1*
Y469948D1*
Y468948D1*
Y467948D1*
Y466948D1*
Y465948D1*
X1303845Y464948D1*
X1303880Y463948D1*
X1304008Y462948D1*
X1304251Y461948D1*
X1304547Y460948D1*
X1304887Y459948D1*
X1305394Y458948D1*
X1306177Y457948D1*
X1307364Y456948D1*
X1309105Y455948D1*
X1311358Y454948D1*
X1313841Y453948D1*
X1306841Y479948D2*
X1307841Y478948D1*
X1368841Y479948D2*
Y478948D1*
Y477948D1*
Y476948D1*
Y475948D1*
Y474948D1*
Y473948D1*
Y472948D1*
Y471948D1*
Y470948D1*
Y469948D1*
Y468948D1*
Y467948D1*
Y466948D1*
Y465948D1*
X1368845Y464948D1*
X1368880Y463948D1*
X1369008Y462948D1*
X1369251Y461948D1*
X1369547Y460948D1*
X1369887Y459948D1*
X1370394Y458948D1*
X1371177Y457948D1*
X1372364Y456948D1*
X1374105Y455948D1*
X1376358Y454948D1*
X1378841Y453948D1*
X1371841Y479948D2*
X1372841Y478948D1*
X1337841D2*
X1338799Y477948D1*
X1339636Y476948D1*
X1340265Y475948D1*
X1340730Y474948D1*
X1341133Y473948D1*
X1341459Y472948D1*
X1341662Y471948D1*
X1341765Y470948D1*
X1341811Y469948D1*
X1341830Y468948D1*
X1341837Y467948D1*
X1341840Y466948D1*
X1341841Y465948D1*
X1341837Y464948D1*
X1341802Y463948D1*
X1341675Y462948D1*
X1341431Y461948D1*
X1341140Y460948D1*
X1340830Y459948D1*
X1340420Y458948D1*
X1339788Y457948D1*
X1338784Y456948D1*
X1337362Y455948D1*
X1335657Y454948D1*
X1333841Y453948D1*
X1402841Y478948D2*
X1403799Y477948D1*
X1404636Y476948D1*
X1405265Y475948D1*
X1405730Y474948D1*
X1406133Y473948D1*
X1406459Y472948D1*
X1406662Y471948D1*
X1406765Y470948D1*
X1406811Y469948D1*
X1406830Y468948D1*
X1406837Y467948D1*
X1406840Y466948D1*
X1406841Y465948D1*
X1406837Y464948D1*
X1406802Y463948D1*
X1406675Y462948D1*
X1406431Y461948D1*
X1406140Y460948D1*
X1405830Y459948D1*
X1405420Y458948D1*
X1404788Y457948D1*
X1403784Y456948D1*
X1402362Y455948D1*
X1400657Y454948D1*
X1398841Y453948D1*
M02*
