G04 DipTrace 3.2.0.1*
G04 uBraidsII_panel.GBL*
%MOIN*%
G04 #@! TF.FileFunction,Copper,L2,Bot*
G04 #@! TF.Part,Single*
G04 #@! TA.AperFunction,CopperBalancing*
%ADD15C,0.01*%
G04 #@! TA.AperFunction,ComponentPad*
%ADD23C,0.334646*%
%ADD24O,0.299213X0.177165*%
%FSLAX26Y26*%
G04*
G70*
G90*
G75*
G01*
G04 Bottom*
%LPD*%
X456713Y5428234D2*
D15*
X415714Y5387235D1*
X499139Y5428234D2*
X415714Y5344808D1*
X541566Y5428234D2*
X415714Y5302382D1*
X534356Y5378598D2*
X415714Y5259955D1*
X524577Y5326394D2*
X415714Y5217529D1*
X533100Y5292488D2*
X415714Y5175104D1*
X549604Y5266566D2*
X415714Y5132677D1*
X572459Y5246996D2*
X415714Y5090251D1*
X602194Y5234304D2*
X415714Y5047824D1*
X838550Y5428234D2*
X821098Y5410782D1*
X641513Y5231197D2*
X415714Y5005398D1*
X880976Y5428234D2*
X839882Y5387138D1*
X683940Y5231197D2*
X519984Y5067241D1*
X427765Y4975022D2*
X415714Y4962971D1*
X923403Y5428234D2*
X851593Y5356424D1*
X726366Y5231197D2*
X559898Y5064728D1*
X430278Y4935109D2*
X415714Y4920545D1*
X965829Y5428234D2*
X851371Y5313776D1*
X771140Y5233545D2*
X589508Y5051912D1*
X443094Y4905499D2*
X415714Y4878118D1*
X1008256Y5428234D2*
X612406Y5032383D1*
X462623Y4882601D2*
X415714Y4835692D1*
X1050682Y5428234D2*
X629075Y5006626D1*
X488366Y4865917D2*
X415714Y4793265D1*
X1093109Y5428234D2*
X638080Y4973205D1*
X521802Y4856927D2*
X415714Y4750839D1*
X1135535Y5428234D2*
X630940Y4923638D1*
X571369Y4864067D2*
X415714Y4708412D1*
X1177962Y5428234D2*
X415714Y4665986D1*
X1220387Y5428234D2*
X415714Y4623560D1*
X1262814Y5428234D2*
X541640Y4707059D1*
X457665Y4623085D2*
X415714Y4581134D1*
X1305240Y5428234D2*
X584798Y4707791D1*
X542408Y4665400D2*
X499324Y4622316D1*
X456933Y4579927D2*
X415714Y4538707D1*
X1347667Y5428234D2*
X627224Y4707791D1*
X585815Y4666381D2*
X498344Y4578909D1*
X456933Y4537500D2*
X415714Y4496281D1*
X1390093Y5428234D2*
X669651Y4707791D1*
X628241Y4666381D2*
X498344Y4536483D1*
X456933Y4495073D2*
X415714Y4453854D1*
X1432520Y5428234D2*
X712077Y4707791D1*
X670668Y4666381D2*
X498344Y4494056D1*
X456933Y4452647D2*
X415714Y4411428D1*
X1474946Y5428234D2*
X754504Y4707791D1*
X713094Y4666381D2*
X498344Y4451631D1*
X456933Y4410220D2*
X415714Y4369001D1*
X1517373Y5428234D2*
X796930Y4707791D1*
X755520Y4666381D2*
X498344Y4409205D1*
X456933Y4367794D2*
X415714Y4326575D1*
X1559799Y5428234D2*
X839357Y4707791D1*
X797946Y4666381D2*
X498344Y4366778D1*
X457071Y4325507D2*
X415714Y4284148D1*
X1525811Y5351819D2*
X881783Y4707791D1*
X840373Y4666381D2*
X498717Y4324724D1*
X464709Y4290717D2*
X415714Y4241722D1*
X1527026Y5310608D2*
X924210Y4707791D1*
X882799Y4666381D2*
X511105Y4294686D1*
X481350Y4264932D2*
X415714Y4199295D1*
X1539373Y5280529D2*
X966635Y4707791D1*
X925226Y4666381D2*
X536378Y4277533D1*
X504690Y4245846D2*
X415714Y4156869D1*
X1558652Y5257382D2*
X1009062Y4707791D1*
X967652Y4666381D2*
X575959Y4274688D1*
X536013Y4234743D2*
X415714Y4114442D1*
X1584299Y5240601D2*
X1051488Y4707791D1*
X1010079Y4666381D2*
X618386Y4274688D1*
X576976Y4233278D2*
X415714Y4072017D1*
X1814357Y5428234D2*
X1807581Y5421458D1*
X1617762Y5231639D2*
X1093915Y4707791D1*
X1052505Y4666381D2*
X660812Y4274688D1*
X619402Y4233278D2*
X415714Y4029591D1*
X1856783Y5428234D2*
X1829955Y5401406D1*
X1659747Y5231197D2*
X1136341Y4707791D1*
X1094932Y4666381D2*
X703239Y4274688D1*
X661828Y4233278D2*
X415714Y3987164D1*
X1899210Y5428234D2*
X1845907Y5374930D1*
X1702173Y5231197D2*
X1178768Y4707791D1*
X1137358Y4666381D2*
X745665Y4274688D1*
X704255Y4233278D2*
X415714Y3944738D1*
X1941636Y5428234D2*
X1853613Y5340210D1*
X1744600Y5231197D2*
X1221194Y4707791D1*
X1179785Y4666381D2*
X788092Y4274688D1*
X746681Y4233278D2*
X415714Y3902311D1*
X1967256Y5411427D2*
X1839886Y5284056D1*
X1800852Y5245022D2*
X1263622Y4707793D1*
X1222211Y4666382D2*
X830518Y4274689D1*
X789109Y4233280D2*
X415701Y3859871D1*
X1967215Y5368959D2*
X1306049Y4707793D1*
X1264638Y4666382D2*
X872945Y4274689D1*
X831535Y4233280D2*
X415701Y3817445D1*
X1967173Y5326491D2*
X1348475Y4707793D1*
X1307064Y4666382D2*
X915371Y4274689D1*
X873962Y4233280D2*
X415701Y3775018D1*
X1967133Y5284024D2*
X1390900Y4707793D1*
X1349491Y4666382D2*
X1201487Y4518379D1*
X1134500Y4451391D2*
X957798Y4274689D1*
X916388Y4233280D2*
X415701Y3732592D1*
X1967091Y5241555D2*
X1777793Y5052259D1*
X1742612Y5017076D2*
X1433327Y4707793D1*
X1391917Y4666382D2*
X1216776Y4491240D1*
X1161638Y4436102D2*
X1000224Y4274689D1*
X958815Y4233280D2*
X550604Y3825068D1*
X523888Y3798353D2*
X415701Y3690165D1*
X1967050Y5199088D2*
X1836033Y5068071D1*
X1726799Y4958837D2*
X1475753Y4707793D1*
X1434344Y4666382D2*
X1242201Y4474240D1*
X1217793Y4449831D2*
X1203049Y4435087D1*
X1178639Y4410677D2*
X1042651Y4274689D1*
X1001241Y4233280D2*
X593030Y3825068D1*
X523888Y3755927D2*
X415701Y3647740D1*
X1967008Y5156619D2*
X1871361Y5060972D1*
X1733898Y4923509D2*
X1518180Y4707793D1*
X1476770Y4666382D2*
X1085077Y4274689D1*
X1043667Y4233280D2*
X635457Y3825068D1*
X523888Y3713500D2*
X415701Y3605314D1*
X1966966Y5114152D2*
X1898374Y5045560D1*
X1749310Y4896496D2*
X1560606Y4707793D1*
X1519197Y4666382D2*
X1127504Y4274689D1*
X1086093Y4233280D2*
X664252Y3811437D1*
X523888Y3671073D2*
X415701Y3562887D1*
X1966925Y5071684D2*
X1919049Y5023808D1*
X1771062Y4875822D2*
X1603033Y4707793D1*
X1561623Y4666382D2*
X1169930Y4274689D1*
X1128520Y4233280D2*
X665302Y3770060D1*
X523888Y3628648D2*
X415701Y3520461D1*
X1966883Y5029217D2*
X1933247Y4995579D1*
X1799277Y4861610D2*
X1645459Y4707793D1*
X1604050Y4666382D2*
X1212357Y4274689D1*
X1170946Y4233280D2*
X665302Y3727634D1*
X523888Y3586222D2*
X415701Y3478034D1*
X1966843Y4986748D2*
X1938328Y4958235D1*
X1836635Y4856542D2*
X1687886Y4707793D1*
X1646476Y4666382D2*
X1254783Y4274689D1*
X1213373Y4233280D2*
X665302Y3685207D1*
X523888Y3543795D2*
X415701Y3435608D1*
X1966787Y4944266D2*
X1730312Y4707793D1*
X1688902Y4666382D2*
X1297209Y4274689D1*
X1255799Y4233280D2*
X665302Y3642782D1*
X523888Y3501369D2*
X415701Y3393181D1*
X1966745Y4901799D2*
X1772739Y4707793D1*
X1731328Y4666382D2*
X1339635Y4274689D1*
X1298226Y4233280D2*
X665302Y3600356D1*
X523888Y3458942D2*
X415701Y3350755D1*
X1966703Y4859331D2*
X1815068Y4707696D1*
X1773755Y4666382D2*
X1382062Y4274689D1*
X1340652Y4233280D2*
X932898Y3825525D1*
X899635Y3792262D2*
X665302Y3557929D1*
X523888Y3416516D2*
X415701Y3308328D1*
X1966663Y4816864D2*
X1849982Y4700182D1*
X1815850Y4666051D2*
X1424488Y4274689D1*
X1383079Y4233280D2*
X975324Y3825525D1*
X899635Y3749836D2*
X665302Y3515503D1*
X523888Y3374089D2*
X415701Y3265902D1*
X1966621Y4774395D2*
X1875849Y4683623D1*
X1846081Y4653856D2*
X1466915Y4274689D1*
X1425505Y4233280D2*
X1017751Y3825525D1*
X899635Y3707409D2*
X665302Y3473076D1*
X523888Y3331663D2*
X415701Y3223475D1*
X1966580Y4731928D2*
X1895004Y4660353D1*
X1863373Y4628720D2*
X1509341Y4274689D1*
X1467932Y4233280D2*
X1041021Y3806369D1*
X899635Y3664984D2*
X665302Y3430650D1*
X523888Y3289236D2*
X415701Y3181049D1*
X1966538Y4689459D2*
X1906205Y4629126D1*
X1866341Y4589264D2*
X1551768Y4274689D1*
X1510358Y4233280D2*
X1041049Y3763970D1*
X899635Y3622558D2*
X665302Y3388223D1*
X523888Y3246810D2*
X415701Y3138623D1*
X1966497Y4646992D2*
X1907752Y4588247D1*
X1866341Y4546837D2*
X1594194Y4274689D1*
X1552785Y4233280D2*
X1041049Y3721543D1*
X899635Y3580131D2*
X665302Y3345797D1*
X523888Y3204383D2*
X415701Y3096197D1*
X1966455Y4604524D2*
X1907752Y4545820D1*
X1866341Y4504411D2*
X1636621Y4274689D1*
X1595210Y4233280D2*
X1041049Y3679118D1*
X899635Y3537705D2*
X665302Y3303370D1*
X523888Y3161957D2*
X415701Y3053770D1*
X1966413Y4562056D2*
X1907752Y4503394D1*
X1866341Y4461984D2*
X1679047Y4274689D1*
X1637636Y4233280D2*
X1041049Y3636692D1*
X899635Y3495278D2*
X665302Y3260944D1*
X523888Y3119530D2*
X415701Y3011344D1*
X1966373Y4519588D2*
X1907752Y4460967D1*
X1866341Y4419558D2*
X1721474Y4274689D1*
X1680063Y4233280D2*
X1041049Y3594265D1*
X899635Y3452852D2*
X665302Y3218517D1*
X523888Y3077105D2*
X415701Y2968917D1*
X1966331Y4477121D2*
X1907752Y4418541D1*
X1866341Y4377131D2*
X1763900Y4274689D1*
X1722490Y4233280D2*
X1041049Y3551839D1*
X899635Y3410425D2*
X665302Y3176091D1*
X523888Y3034678D2*
X415701Y2926491D1*
X1966290Y4434652D2*
X1907752Y4376115D1*
X1866341Y4334705D2*
X1806325Y4274689D1*
X1764916Y4233280D2*
X1041049Y3509412D1*
X899635Y3367999D2*
X665302Y3133664D1*
X523888Y2992252D2*
X415701Y2884064D1*
X1966248Y4392185D2*
X1907752Y4333689D1*
X1807343Y4233280D2*
X1041049Y3466986D1*
X899635Y3325572D2*
X665302Y3091239D1*
X523888Y2949825D2*
X415701Y2841638D1*
X1966207Y4349717D2*
X1887035Y4270546D1*
X1870486Y4253995D2*
X1041049Y3424559D1*
X899635Y3283146D2*
X665302Y3048812D1*
X523888Y2907399D2*
X415701Y2799211D1*
X1966165Y4307249D2*
X1552265Y3893349D1*
X1424483Y3765567D2*
X1041049Y3382133D1*
X899635Y3240719D2*
X665302Y3006386D1*
X523888Y2864972D2*
X415701Y2756785D1*
X1966123Y4264781D2*
X1597302Y3895959D1*
X1421887Y3720545D2*
X1041049Y3339706D1*
X899635Y3198293D2*
X665302Y2963959D1*
X523888Y2822546D2*
X415701Y2714358D1*
X1966083Y4222314D2*
X1633610Y3889841D1*
X1427991Y3684222D2*
X1041049Y3297280D1*
X899635Y3155866D2*
X665302Y2921533D1*
X523888Y2780119D2*
X415701Y2671932D1*
X1966041Y4179845D2*
X1661839Y3875643D1*
X1442202Y3656007D2*
X1041049Y3254853D1*
X899635Y3113441D2*
X665302Y2879106D1*
X523888Y2737693D2*
X415701Y2629505D1*
X1966000Y4137378D2*
X1687071Y3858449D1*
X1459396Y3630774D2*
X1041049Y3212427D1*
X899635Y3071014D2*
X665302Y2836680D1*
X523888Y2695266D2*
X415701Y2587080D1*
X1965958Y4094909D2*
X1708283Y3837236D1*
X1480609Y3609562D2*
X1041049Y3170000D1*
X899635Y3028588D2*
X665302Y2794253D1*
X523888Y2652840D2*
X415701Y2544654D1*
X1965917Y4052442D2*
X1724484Y3811009D1*
X1506836Y3593361D2*
X1041049Y3127575D1*
X899635Y2986161D2*
X665302Y2751827D1*
X523888Y2610413D2*
X415701Y2502227D1*
X1965875Y4009974D2*
X1737770Y3781869D1*
X1535976Y3580076D2*
X1041049Y3085148D1*
X899635Y2943735D2*
X665302Y2709400D1*
X523888Y2567988D2*
X415701Y2459801D1*
X1965833Y3967507D2*
X1743571Y3745243D1*
X1572602Y3574276D2*
X1041049Y3042722D1*
X899635Y2901308D2*
X665302Y2666974D1*
X523888Y2525562D2*
X415701Y2417374D1*
X1965778Y3925025D2*
X1738971Y3698218D1*
X1619627Y3578874D2*
X1041049Y3000295D1*
X899635Y2858882D2*
X665302Y2624547D1*
X523888Y2483135D2*
X415701Y2374948D1*
X1965738Y3882556D2*
X1041049Y2957869D1*
X899635Y2816455D2*
X665302Y2582122D1*
X523888Y2440709D2*
X415701Y2332521D1*
X1965696Y3840089D2*
X1041049Y2915442D1*
X899635Y2774029D2*
X665302Y2539696D1*
X523888Y2398282D2*
X415701Y2290094D1*
X1965655Y3797621D2*
X1041049Y2873016D1*
X899635Y2731602D2*
X665302Y2497269D1*
X523888Y2355856D2*
X415701Y2247668D1*
X1965613Y3755154D2*
X1497133Y3286673D1*
X1461164Y3250705D2*
X1041049Y2830589D1*
X899635Y2689176D2*
X665302Y2454843D1*
X523888Y2313429D2*
X415701Y2205241D1*
X1965572Y3712686D2*
X1564377Y3311491D1*
X1436346Y3183461D2*
X1041049Y2788163D1*
X899635Y2646749D2*
X665302Y2412416D1*
X537685Y2284799D2*
X415701Y2162815D1*
X1965530Y3670218D2*
X1606098Y3310786D1*
X1437051Y3141739D2*
X1041049Y2745736D1*
X899635Y2604323D2*
X665302Y2369990D1*
X579131Y2283819D2*
X415701Y2120388D1*
X1965488Y3627751D2*
X1639493Y3301755D1*
X1446097Y3108358D2*
X1041049Y2703310D1*
X899635Y2561898D2*
X665302Y2327563D1*
X621558Y2283819D2*
X415701Y2077962D1*
X1965448Y3585282D2*
X1667598Y3287433D1*
X1460419Y3080253D2*
X1041049Y2660883D1*
X899635Y2519471D2*
X415701Y2035537D1*
X1965406Y3542815D2*
X1689433Y3266841D1*
X1481010Y3058419D2*
X1041049Y2618457D1*
X899635Y2477045D2*
X415701Y1993110D1*
X1965365Y3500346D2*
X1708133Y3243114D1*
X1504736Y3039719D2*
X1041049Y2576031D1*
X899635Y2434618D2*
X415701Y1950684D1*
X1965323Y3457879D2*
X1722454Y3215009D1*
X1532841Y3025398D2*
X1041049Y2533605D1*
X899635Y2392192D2*
X415701Y1908257D1*
X1965282Y3415411D2*
X1729152Y3179281D1*
X1568556Y3018685D2*
X1041049Y2491178D1*
X899635Y2349765D2*
X415701Y1865831D1*
X1965240Y3372944D2*
X1726072Y3133776D1*
X1614062Y3021765D2*
X1041049Y2448752D1*
X899635Y2307339D2*
X415701Y1823404D1*
X1965198Y3330475D2*
X1041049Y2406325D1*
X918999Y2284274D2*
X415701Y1780978D1*
X1965157Y3288008D2*
X1041049Y2363899D1*
X961411Y2284261D2*
X698682Y2021531D1*
X660282Y1983133D2*
X415701Y1738551D1*
X1965115Y3245539D2*
X1041049Y2321472D1*
X1003837Y2284261D2*
X765167Y2045591D1*
X636224Y1916648D2*
X415701Y1696125D1*
X1965075Y3203072D2*
X806681Y2044678D1*
X637150Y1875147D2*
X415701Y1653698D1*
X1965033Y3160604D2*
X839937Y2035508D1*
X646320Y1841891D2*
X415701Y1611272D1*
X1964992Y3118136D2*
X1498045Y2651189D1*
X1460626Y2613770D2*
X868029Y2021173D1*
X660656Y1813801D2*
X415701Y1568845D1*
X1964950Y3075668D2*
X1564819Y2675537D1*
X1436277Y2546995D2*
X889766Y2000484D1*
X681344Y1792062D2*
X415701Y1526419D1*
X1964908Y3033201D2*
X1606416Y2674709D1*
X1437106Y2505398D2*
X908356Y1976647D1*
X705168Y1773459D2*
X415701Y1483993D1*
X1964867Y2990732D2*
X1639741Y2665606D1*
X1446220Y2472087D2*
X922677Y1948543D1*
X733286Y1759151D2*
X415701Y1441567D1*
X1964825Y2948265D2*
X1667832Y2651272D1*
X1460542Y2443982D2*
X929238Y1912676D1*
X769139Y1752577D2*
X415701Y1399140D1*
X1964785Y2905797D2*
X1689612Y2630625D1*
X1481189Y2422202D2*
X925950Y1866963D1*
X814852Y1755865D2*
X415701Y1356714D1*
X1964730Y2863315D2*
X1708256Y2606843D1*
X1504971Y2403558D2*
X580256Y1478841D1*
X518888Y1417475D2*
X415701Y1314287D1*
X1964688Y2820848D2*
X1722579Y2578738D1*
X1533076Y2389236D2*
X647320Y1503480D1*
X494251Y1350411D2*
X415701Y1271861D1*
X1964646Y2778379D2*
X1729207Y2542941D1*
X1568887Y2382621D2*
X691210Y1504944D1*
X492801Y1306534D2*
X415701Y1229434D1*
X1964605Y2735912D2*
X1726003Y2497310D1*
X1614504Y2385811D2*
X726856Y1498163D1*
X499581Y1270888D2*
X415701Y1187008D1*
X1964563Y2693444D2*
X757211Y1486092D1*
X511638Y1240518D2*
X415701Y1144581D1*
X1964522Y2650976D2*
X783451Y1469906D1*
X527839Y1214293D2*
X415701Y1102155D1*
X1964480Y2608508D2*
X806033Y1450060D1*
X547671Y1191698D2*
X415701Y1059728D1*
X1964440Y2566041D2*
X825091Y1426693D1*
X571038Y1172639D2*
X415701Y1017302D1*
X1964398Y2523572D2*
X840434Y1399610D1*
X598121Y1157295D2*
X415701Y974875D1*
X1964356Y2481105D2*
X1511123Y2027871D1*
X1453941Y1970689D2*
X851470Y1368218D1*
X629513Y1146261D2*
X606469Y1123217D1*
X506680Y1023429D2*
X415701Y932450D1*
X1964315Y2438636D2*
X1572415Y2046736D1*
X1435076Y1909398D2*
X856814Y1331136D1*
X666608Y1140930D2*
X662194Y1136516D1*
X493381Y967702D2*
X415701Y890024D1*
X1964273Y2396169D2*
X1611941Y2043836D1*
X1437976Y1869871D2*
X852643Y1284539D1*
X713205Y1145101D2*
X703115Y1135010D1*
X494886Y926782D2*
X415701Y847597D1*
X1964232Y2353701D2*
X1643967Y2033437D1*
X1448375Y1837845D2*
X1092396Y1481866D1*
X1023822Y1413290D2*
X737021Y1126490D1*
X503407Y892877D2*
X415701Y805171D1*
X1964190Y2311234D2*
X1671575Y2018618D1*
X1463194Y1810238D2*
X1157100Y1504143D1*
X1001545Y1348588D2*
X766092Y1113135D1*
X516762Y863804D2*
X415701Y762744D1*
X1964150Y2268765D2*
X1692816Y1997433D1*
X1484394Y1789010D2*
X1200493Y1505109D1*
X1000564Y1305181D2*
X791214Y1095829D1*
X534054Y838669D2*
X415701Y720318D1*
X1964108Y2226298D2*
X1710411Y1972601D1*
X1509211Y1771402D2*
X1235877Y1498066D1*
X1007621Y1269811D2*
X812772Y1074962D1*
X554934Y817125D2*
X415701Y677891D1*
X1964066Y2183829D2*
X1724249Y1944013D1*
X1537814Y1757577D2*
X1266052Y1485816D1*
X1019871Y1239635D2*
X830768Y1050531D1*
X579352Y799115D2*
X415701Y635465D1*
X1964025Y2141362D2*
X1730077Y1907415D1*
X1574412Y1751749D2*
X1292113Y1469450D1*
X1036238Y1213575D2*
X844924Y1022260D1*
X607622Y784959D2*
X415701Y593038D1*
X1963983Y2098894D2*
X1724802Y1859713D1*
X1622114Y1757025D2*
X1314555Y1449466D1*
X1056222Y1191131D2*
X854480Y989391D1*
X640492Y775403D2*
X415701Y550612D1*
X1963942Y2056427D2*
X1333462Y1425946D1*
X1079740Y1172224D2*
X857643Y950127D1*
X679769Y772255D2*
X415701Y508185D1*
X1963900Y2013958D2*
X1348626Y1398684D1*
X1107003Y1157060D2*
X848680Y898738D1*
X731159Y781217D2*
X415701Y465759D1*
X1963860Y1971491D2*
X1359454Y1367085D1*
X1138602Y1146234D2*
X1117008Y1124639D1*
X1011958Y1019589D2*
X605459Y613092D1*
X526941Y534572D2*
X415701Y423333D1*
X1963818Y1929022D2*
X1364495Y1329699D1*
X1175987Y1141193D2*
X1171394Y1136598D1*
X999997Y965203D2*
X650538Y615743D1*
X526236Y491441D2*
X450504Y415709D1*
X1963776Y1886555D2*
X1359702Y1282482D1*
X1223206Y1145984D2*
X1211845Y1134625D1*
X1001972Y924752D2*
X692965Y615743D1*
X537713Y460492D2*
X492930Y415709D1*
X1963720Y1844073D2*
X1603558Y1483909D1*
X1528740Y1409092D2*
X1245461Y1125812D1*
X1010783Y891136D2*
X735391Y615743D1*
X556344Y436696D2*
X535357Y415709D1*
X1963680Y1801605D2*
X1666314Y1504239D1*
X1508411Y1346336D2*
X1274298Y1112223D1*
X1024374Y862299D2*
X774930Y612857D1*
X581286Y419211D2*
X577786Y415711D1*
X1963638Y1759138D2*
X1709265Y1504764D1*
X1507886Y1303385D2*
X1299239Y1094739D1*
X1041858Y837357D2*
X804873Y600371D1*
X1963597Y1716669D2*
X1744386Y1497458D1*
X1515192Y1268265D2*
X1320605Y1073677D1*
X1062920Y815992D2*
X827895Y580967D1*
X1963555Y1674202D2*
X1774369Y1485014D1*
X1527635Y1238282D2*
X1338407Y1049052D1*
X1087543Y798190D2*
X844564Y555211D1*
X1963513Y1631734D2*
X1800277Y1468497D1*
X1544152Y1212373D2*
X1352341Y1020562D1*
X1116035Y784256D2*
X853335Y521554D1*
X1963472Y1589266D2*
X1822567Y1448361D1*
X1564289Y1190083D2*
X1361622Y987416D1*
X1149181Y774975D2*
X844592Y470386D1*
X1963430Y1546798D2*
X1841323Y1424690D1*
X1587959Y1171327D2*
X1364343Y947710D1*
X1188887Y772255D2*
X832341Y415709D1*
X1963390Y1504331D2*
X1856335Y1397276D1*
X1615388Y1156329D2*
X1354316Y895257D1*
X1241340Y782281D2*
X874768Y415709D1*
X1963348Y1461862D2*
X1866941Y1365455D1*
X1647194Y1145709D2*
X1626470Y1124984D1*
X1518022Y1016537D2*
X917194Y415709D1*
X1963307Y1419395D2*
X1871692Y1327781D1*
X1684883Y1140971D2*
X1680013Y1136102D1*
X1506906Y962993D2*
X959621Y415709D1*
X1963265Y1376927D2*
X1866293Y1279954D1*
X1732710Y1146371D2*
X1720147Y1133810D1*
X1509198Y922860D2*
X1002047Y415709D1*
X1963223Y1334459D2*
X1753570Y1124804D1*
X1518202Y889437D2*
X1044474Y415709D1*
X1963182Y1291991D2*
X1782255Y1111063D1*
X1531930Y860739D2*
X1086900Y415709D1*
X1963140Y1249524D2*
X1807058Y1093441D1*
X1549552Y835934D2*
X1129327Y415709D1*
X1963100Y1207055D2*
X1828299Y1072255D1*
X1570738Y814694D2*
X1171753Y415709D1*
X1963058Y1164588D2*
X1845976Y1047507D1*
X1595500Y797030D2*
X1214180Y415709D1*
X1963017Y1122119D2*
X1859773Y1018877D1*
X1624130Y783234D2*
X1256606Y415709D1*
X1962975Y1079652D2*
X1868846Y985524D1*
X1657469Y774146D2*
X1299033Y415709D1*
X1962933Y1037184D2*
X1871264Y945514D1*
X1697479Y771730D2*
X1341458Y415709D1*
X1962892Y994717D2*
X1860465Y892289D1*
X1750719Y782543D2*
X1383885Y415709D1*
X1962850Y952248D2*
X1626318Y615715D1*
X1524320Y513718D2*
X1426311Y415709D1*
X1962810Y909781D2*
X1668772Y615743D1*
X1530148Y477119D2*
X1468738Y415709D1*
X1962768Y867312D2*
X1711198Y615743D1*
X1544940Y449484D2*
X1511164Y415709D1*
X1962713Y824831D2*
X1753583Y615702D1*
X1566264Y428382D2*
X1553591Y415709D1*
X1962672Y782364D2*
X1788773Y608465D1*
X1962630Y739895D2*
X1815538Y592803D1*
X1962588Y697428D2*
X1835867Y570706D1*
X1962547Y654959D2*
X1849499Y541911D1*
X1962505Y612492D2*
X1853269Y503255D1*
X1962465Y570024D2*
X1808150Y415709D1*
X1962423Y527556D2*
X1850576Y415709D1*
X1962382Y485088D2*
X1893001Y415709D1*
X1962340Y442621D2*
X1935428Y415709D1*
X1926272Y5428234D2*
X1967228Y5387277D1*
X1883845Y5428234D2*
X1967188Y5344891D1*
X1841419Y5428234D2*
X1967146Y5302507D1*
X1798992Y5428234D2*
X1804995Y5422231D1*
X1837373Y5389853D2*
X1967105Y5260122D1*
X1853669Y5331131D2*
X1967063Y5217736D1*
X1846377Y5295996D2*
X1967021Y5175352D1*
X1830675Y5269273D2*
X1966980Y5132967D1*
X1808550Y5248971D2*
X1966938Y5090581D1*
X1779727Y5235367D2*
X1966898Y5048197D1*
X1544434Y5428234D2*
X1559510Y5413157D1*
X1741471Y5231197D2*
X1966856Y5005812D1*
X1502008Y5428234D2*
X1539982Y5390260D1*
X1699045Y5231197D2*
X1868841Y5061400D1*
X1931727Y4998514D2*
X1966815Y4963427D1*
X1459581Y5428234D2*
X1527331Y5360484D1*
X1656618Y5231197D2*
X1820339Y5067476D1*
X1937803Y4950010D2*
X1966773Y4921042D1*
X1417155Y5428234D2*
X1525495Y5319894D1*
X1612976Y5232412D2*
X1787234Y5058155D1*
X1928482Y4916907D2*
X1966731Y4878657D1*
X1374728Y5428234D2*
X1761713Y5041249D1*
X1911577Y4891385D2*
X1966690Y4836272D1*
X1332302Y5428234D2*
X1742391Y5018144D1*
X1888472Y4872063D2*
X1966648Y4793887D1*
X1289875Y5428234D2*
X1729850Y4988259D1*
X1858585Y4859524D2*
X1966608Y4751501D1*
X1247449Y5428234D2*
X1727862Y4947820D1*
X1818148Y4857535D2*
X1966566Y4709117D1*
X1205022Y5428234D2*
X1966525Y4666732D1*
X1162597Y5428234D2*
X1966470Y4624361D1*
X1120171Y5428234D2*
X1847932Y4700471D1*
X1900432Y4647971D2*
X1966428Y4581976D1*
X1077744Y5428234D2*
X1798186Y4707791D1*
X1907752Y4598226D2*
X1966386Y4539591D1*
X1035318Y5428234D2*
X1755760Y4707791D1*
X1797169Y4666381D2*
X1866341Y4597209D1*
X1907752Y4555799D2*
X1966345Y4497206D1*
X992891Y5428234D2*
X1713333Y4707791D1*
X1754743Y4666381D2*
X1866341Y4554782D1*
X1907752Y4513373D2*
X1966303Y4454822D1*
X950465Y5428234D2*
X1670907Y4707791D1*
X1712316Y4666381D2*
X1866341Y4512356D1*
X1907752Y4470946D2*
X1966262Y4412436D1*
X908038Y5428234D2*
X1628480Y4707791D1*
X1669890Y4666381D2*
X1866341Y4469930D1*
X1907752Y4428520D2*
X1966220Y4370051D1*
X865612Y5428234D2*
X1586054Y4707791D1*
X1627465Y4666381D2*
X1866341Y4427504D1*
X1907752Y4386093D2*
X1966180Y4327665D1*
X823185Y5428234D2*
X1543627Y4707791D1*
X1585038Y4666381D2*
X1866341Y4385077D1*
X1907752Y4343667D2*
X1966138Y4285281D1*
X850903Y5358089D2*
X1501201Y4707791D1*
X1542612Y4666381D2*
X1866341Y4342651D1*
X1904672Y4304320D2*
X1966096Y4242896D1*
X851856Y5314710D2*
X1458774Y4707791D1*
X1500185Y4666381D2*
X1860720Y4305845D1*
X1891358Y4275207D2*
X1966055Y4200510D1*
X840476Y5283663D2*
X1416349Y4707791D1*
X1457759Y4666381D2*
X1840751Y4283388D1*
X1870946Y4253193D2*
X1966013Y4158126D1*
X821929Y5259785D2*
X1373923Y4707791D1*
X1415332Y4666381D2*
X1807025Y4274688D1*
X1843241Y4238471D2*
X1965972Y4115741D1*
X797070Y5242218D2*
X1331496Y4707791D1*
X1372906Y4666381D2*
X1764598Y4274688D1*
X1806008Y4233278D2*
X1965930Y4073356D1*
X568627Y5428234D2*
X573463Y5423398D1*
X764711Y5232150D2*
X1289070Y4707791D1*
X1330479Y4666381D2*
X1722172Y4274688D1*
X1763583Y4233278D2*
X1965890Y4030971D1*
X526201Y5428234D2*
X550350Y5404084D1*
X723238Y5231197D2*
X1246643Y4707791D1*
X1288052Y4666381D2*
X1679745Y4274688D1*
X1721156Y4233278D2*
X1965848Y3988587D1*
X483774Y5428234D2*
X533597Y5378409D1*
X680811Y5231197D2*
X1204217Y4707791D1*
X1245626Y4666381D2*
X1637319Y4274688D1*
X1678730Y4233278D2*
X1965806Y3946201D1*
X441348Y5428234D2*
X524703Y5344878D1*
X638385Y5231197D2*
X1161790Y4707791D1*
X1203199Y4666381D2*
X1594892Y4274688D1*
X1636303Y4233278D2*
X1965765Y3903816D1*
X415714Y5411441D2*
X532988Y5294165D1*
X587243Y5239912D2*
X1119362Y4707793D1*
X1160773Y4666382D2*
X1552466Y4274689D1*
X1593875Y4233280D2*
X1965723Y3861432D1*
X415714Y5369014D2*
X1076936Y4707793D1*
X1118346Y4666382D2*
X1510039Y4274689D1*
X1551449Y4233280D2*
X1965681Y3819047D1*
X415714Y5326588D2*
X1034509Y4707793D1*
X1075920Y4666382D2*
X1467613Y4274689D1*
X1509022Y4233280D2*
X1965639Y3776663D1*
X415714Y5284161D2*
X992084Y4707793D1*
X1033493Y4666382D2*
X1171829Y4528046D1*
X1203047Y4496828D2*
X1208635Y4491240D1*
X1239853Y4460024D2*
X1425186Y4274689D1*
X1466596Y4233280D2*
X1965598Y3734277D1*
X415714Y5241735D2*
X949657Y4707793D1*
X991067Y4666382D2*
X1161636Y4495812D1*
X1207618Y4449831D2*
X1382760Y4274689D1*
X1424169Y4233280D2*
X1965556Y3691892D1*
X415714Y5199308D2*
X548154Y5066870D1*
X637333Y4977689D2*
X907231Y4707793D1*
X948640Y4666382D2*
X1128906Y4486117D1*
X1197937Y4417085D2*
X1340333Y4274689D1*
X1381743Y4233280D2*
X1965516Y3649508D1*
X415714Y5156882D2*
X507411Y5065185D1*
X635650Y4936948D2*
X864804Y4707793D1*
X906214Y4666382D2*
X1297907Y4274689D1*
X1339318Y4233280D2*
X1965474Y3607122D1*
X415714Y5114455D2*
X477387Y5052783D1*
X623261Y4906909D2*
X822378Y4707793D1*
X863787Y4666382D2*
X1255480Y4274689D1*
X1296891Y4233280D2*
X1648408Y3881761D1*
X1728530Y3801640D2*
X1965433Y3564738D1*
X415714Y5072029D2*
X454143Y5033600D1*
X604064Y4883680D2*
X779951Y4707793D1*
X821361Y4666382D2*
X1213054Y4274689D1*
X1254465Y4233280D2*
X1591010Y3896732D1*
X1743500Y3744243D2*
X1965391Y3522353D1*
X415714Y5029604D2*
X437115Y5008202D1*
X578667Y4866651D2*
X737525Y4707793D1*
X778934Y4666382D2*
X1170627Y4274689D1*
X1212038Y4233280D2*
X1551816Y3893500D1*
X1740282Y3705034D2*
X1965349Y3479967D1*
X415714Y4987177D2*
X427613Y4975277D1*
X545741Y4857150D2*
X695098Y4707793D1*
X736508Y4666382D2*
X1128201Y4274689D1*
X1169612Y4233280D2*
X1518988Y3883902D1*
X1730671Y3672220D2*
X1965308Y3437583D1*
X415714Y4944751D2*
X433123Y4927340D1*
X497804Y4862660D2*
X652672Y4707793D1*
X694083Y4666382D2*
X1085776Y4274689D1*
X1127185Y4233280D2*
X1490883Y3869580D1*
X1716349Y3644115D2*
X1965266Y3395198D1*
X415714Y4902324D2*
X610245Y4707793D1*
X651656Y4666382D2*
X1043349Y4274689D1*
X1084759Y4233280D2*
X1468566Y3849472D1*
X1696240Y3621798D2*
X1965211Y3352827D1*
X415714Y4859898D2*
X567819Y4707793D1*
X609230Y4666382D2*
X1000923Y4274689D1*
X1042332Y4233280D2*
X1448402Y3827210D1*
X1673991Y3601621D2*
X1965171Y3310441D1*
X415714Y4817471D2*
X528377Y4704808D1*
X566803Y4666382D2*
X958496Y4274689D1*
X999906Y4233280D2*
X1434080Y3799105D1*
X1645886Y3587298D2*
X1965129Y3268056D1*
X415714Y4775045D2*
X499167Y4691592D1*
X529832Y4660927D2*
X916070Y4274689D1*
X957479Y4233280D2*
X1424386Y3766373D1*
X1613142Y3577617D2*
X1965087Y3225672D1*
X415714Y4732618D2*
X477070Y4671262D1*
X507238Y4641094D2*
X873643Y4274689D1*
X915052Y4233280D2*
X1421029Y3727303D1*
X1574071Y3574261D2*
X1965046Y3183286D1*
X415714Y4690192D2*
X462251Y4643655D1*
X498344Y4607563D2*
X831217Y4274689D1*
X872626Y4233280D2*
X1435682Y3670223D1*
X1517005Y3588900D2*
X1965004Y3140902D1*
X415714Y4647765D2*
X456933Y4606546D1*
X498344Y4565136D2*
X788790Y4274689D1*
X830199Y4233280D2*
X1964963Y3098517D1*
X415714Y4605339D2*
X456933Y4564119D1*
X498344Y4522710D2*
X746364Y4274689D1*
X787774Y4233280D2*
X1964921Y3056131D1*
X415714Y4562912D2*
X456933Y4521693D1*
X498344Y4480283D2*
X703937Y4274689D1*
X745348Y4233280D2*
X1964881Y3013747D1*
X415714Y4520486D2*
X456933Y4479266D1*
X498344Y4437857D2*
X661510Y4274689D1*
X702921Y4233280D2*
X1630689Y3305510D1*
X1722287Y3213913D2*
X1964839Y2971362D1*
X415714Y4478060D2*
X456933Y4436840D1*
X498344Y4395430D2*
X619084Y4274689D1*
X660495Y4233280D2*
X1579672Y3314101D1*
X1730878Y3162896D2*
X1964797Y2928976D1*
X415714Y4435634D2*
X456933Y4394413D1*
X498344Y4353004D2*
X576659Y4274689D1*
X618068Y4233280D2*
X1027398Y3823950D1*
X1039474Y3811874D2*
X1543018Y3308328D1*
X1725105Y3126243D2*
X1964756Y2886592D1*
X415714Y4393207D2*
X456933Y4351988D1*
X503453Y4305467D2*
X529135Y4279785D1*
X575642Y4233280D2*
X983396Y3825525D1*
X1041047Y3767873D2*
X1513230Y3295692D1*
X1712467Y3096453D2*
X1964714Y2844206D1*
X415714Y4350781D2*
X459820Y4306675D1*
X530343Y4236152D2*
X940970Y3825525D1*
X1041047Y3725446D2*
X1487417Y3279077D1*
X1695840Y3070655D2*
X1964673Y2801822D1*
X415714Y4308354D2*
X904966Y3819102D1*
X1041047Y3683021D2*
X1466203Y3257864D1*
X1674626Y3049442D2*
X1964631Y2759437D1*
X415714Y4265928D2*
X899635Y3782007D1*
X1041047Y3640594D2*
X1450419Y3231223D1*
X1647986Y3033656D2*
X1964591Y2717051D1*
X415714Y4223501D2*
X899635Y3739580D1*
X1041047Y3598168D2*
X1438803Y3200412D1*
X1617175Y3022041D2*
X1964549Y2674667D1*
X415714Y4181075D2*
X899635Y3697155D1*
X1041047Y3555741D2*
X1433928Y3162861D1*
X1579623Y3017167D2*
X1964507Y2632282D1*
X415714Y4138648D2*
X899635Y3654728D1*
X1041047Y3513315D2*
X1447643Y3106720D1*
X1523483Y3030881D2*
X1964466Y2589896D1*
X415714Y4096222D2*
X899635Y3612302D1*
X1041047Y3470888D2*
X1964424Y2547512D1*
X415714Y4053795D2*
X644441Y3825068D1*
X665287Y3804223D2*
X899635Y3569875D1*
X1041047Y3428462D2*
X1964383Y2505127D1*
X415714Y4011369D2*
X602014Y3825068D1*
X665301Y3761782D2*
X899635Y3527449D1*
X1041047Y3386035D2*
X1964341Y2462741D1*
X415714Y3968942D2*
X559588Y3825068D1*
X665301Y3719356D2*
X899635Y3485022D1*
X1041047Y3343609D2*
X1964301Y2420357D1*
X415714Y3926517D2*
X526787Y3815442D1*
X665301Y3676930D2*
X899635Y3442596D1*
X1041047Y3301182D2*
X1964259Y2377972D1*
X415714Y3884091D2*
X523902Y3775903D1*
X665301Y3634504D2*
X899635Y3400169D1*
X1041047Y3258756D2*
X1629929Y2669874D1*
X1722673Y2577130D2*
X1964217Y2335587D1*
X415714Y3841664D2*
X523902Y3733476D1*
X665301Y3592077D2*
X899635Y3357743D1*
X1041047Y3216329D2*
X1579341Y2678037D1*
X1730836Y2526542D2*
X1964176Y2293202D1*
X415714Y3799238D2*
X523902Y3691050D1*
X665301Y3549651D2*
X899635Y3315316D1*
X1041047Y3173903D2*
X1542688Y2672264D1*
X1725050Y2489902D2*
X1964134Y2250818D1*
X415714Y3756811D2*
X523902Y3648623D1*
X665301Y3507224D2*
X899635Y3272890D1*
X1041047Y3131478D2*
X1512980Y2659545D1*
X1712329Y2460196D2*
X1964093Y2208432D1*
X415714Y3714385D2*
X523902Y3606197D1*
X665301Y3464798D2*
X899635Y3230463D1*
X1041047Y3089051D2*
X1487238Y2642861D1*
X1695660Y2434438D2*
X1964051Y2166047D1*
X415714Y3671958D2*
X523902Y3563770D1*
X665301Y3422371D2*
X899635Y3188037D1*
X1041047Y3046625D2*
X1466025Y2621647D1*
X1674448Y2413226D2*
X1963996Y2123676D1*
X415714Y3629531D2*
X523902Y3521344D1*
X665301Y3379945D2*
X899635Y3145612D1*
X1041047Y3004198D2*
X1450294Y2594951D1*
X1647738Y2397508D2*
X1963954Y2081291D1*
X415714Y3587105D2*
X523902Y3478917D1*
X665301Y3337518D2*
X899635Y3103185D1*
X1041047Y2961772D2*
X1438762Y2564056D1*
X1616857Y2385963D2*
X1963913Y2038906D1*
X415714Y3544678D2*
X523902Y3436491D1*
X665301Y3295092D2*
X899635Y3060759D1*
X1041047Y2919345D2*
X1434012Y2526382D1*
X1579181Y2381211D2*
X1963871Y1996521D1*
X415714Y3502252D2*
X523902Y3394066D1*
X665301Y3252665D2*
X899635Y3018332D1*
X1041047Y2876919D2*
X1448029Y2469937D1*
X1522723Y2395244D2*
X1963831Y1954136D1*
X415714Y3459825D2*
X523902Y3351639D1*
X665301Y3210239D2*
X899635Y2975906D1*
X1041047Y2834492D2*
X1963789Y1911751D1*
X415714Y3417399D2*
X523902Y3309213D1*
X665301Y3167812D2*
X899635Y2933479D1*
X1041047Y2792066D2*
X1963748Y1869366D1*
X415714Y3374974D2*
X523902Y3266786D1*
X665301Y3125387D2*
X899635Y2891052D1*
X1041047Y2749639D2*
X1963706Y1826982D1*
X415714Y3332547D2*
X523902Y3224360D1*
X665301Y3082961D2*
X899635Y2848626D1*
X1041047Y2707213D2*
X1963664Y1784596D1*
X415714Y3290121D2*
X523902Y3181933D1*
X665301Y3040534D2*
X899635Y2806199D1*
X1041047Y2664786D2*
X1963623Y1742211D1*
X415714Y3247694D2*
X523902Y3139507D1*
X665301Y2998108D2*
X899635Y2763773D1*
X1041047Y2622360D2*
X1621270Y2042138D1*
X1724938Y1938470D2*
X1963581Y1699827D1*
X415714Y3205268D2*
X523902Y3097080D1*
X665301Y2955681D2*
X899635Y2721346D1*
X1041047Y2579934D2*
X1573803Y2047178D1*
X1729980Y1891001D2*
X1963541Y1657441D1*
X415714Y3162841D2*
X523902Y3054654D1*
X665301Y2913255D2*
X899635Y2678920D1*
X1041047Y2537508D2*
X1537232Y2041323D1*
X1724110Y1854445D2*
X1963499Y1615056D1*
X415714Y3120415D2*
X523902Y3012227D1*
X665301Y2870828D2*
X899635Y2636493D1*
X1041047Y2495081D2*
X1508741Y2027388D1*
X1710175Y1825954D2*
X1963458Y1572671D1*
X415714Y3077988D2*
X523902Y2969801D1*
X665301Y2828402D2*
X899635Y2594068D1*
X1041047Y2452655D2*
X1484034Y2009669D1*
X1692457Y1801247D2*
X1963416Y1530286D1*
X415714Y3035562D2*
X523902Y2927374D1*
X665301Y2785975D2*
X899635Y2551642D1*
X1041047Y2410228D2*
X1462862Y1988415D1*
X1671201Y1780075D2*
X1963374Y1487902D1*
X415714Y2993135D2*
X523902Y2884949D1*
X665301Y2743549D2*
X899635Y2509215D1*
X1041047Y2367802D2*
X1448139Y1960710D1*
X1643510Y1765339D2*
X1963333Y1445516D1*
X415714Y2950709D2*
X523902Y2842522D1*
X665301Y2701122D2*
X899635Y2466789D1*
X1041047Y2325375D2*
X1437878Y1928545D1*
X1611332Y1755091D2*
X1963291Y1403131D1*
X415714Y2908282D2*
X523902Y2800096D1*
X665301Y2658696D2*
X899635Y2424362D1*
X1034516Y2289482D2*
X1435213Y1888783D1*
X1571585Y1752412D2*
X1963251Y1360747D1*
X415714Y2865856D2*
X523902Y2757669D1*
X665301Y2616269D2*
X899635Y2381936D1*
X997310Y2284261D2*
X1454672Y1826898D1*
X1509685Y1771885D2*
X1963209Y1318361D1*
X415714Y2823430D2*
X523902Y2715243D1*
X665301Y2573844D2*
X899635Y2339509D1*
X954883Y2284261D2*
X1741105Y1498038D1*
X1863971Y1375173D2*
X1963168Y1275976D1*
X415714Y2781004D2*
X523902Y2672816D1*
X665301Y2531417D2*
X1690945Y1505772D1*
X1871705Y1325013D2*
X1963126Y1233592D1*
X415714Y2738577D2*
X523902Y2630390D1*
X665301Y2488991D2*
X1652178Y1502113D1*
X1868045Y1286245D2*
X1963084Y1191206D1*
X415714Y2696151D2*
X523902Y2587963D1*
X665301Y2446564D2*
X1619655Y1492210D1*
X1858143Y1253722D2*
X1963043Y1148822D1*
X415714Y2653724D2*
X523902Y2545537D1*
X665301Y2404138D2*
X1591660Y1477778D1*
X1843711Y1225727D2*
X1963001Y1106437D1*
X415714Y2611298D2*
X523902Y2503110D1*
X665301Y2361711D2*
X1567463Y1459549D1*
X1825480Y1201531D2*
X1962961Y1064051D1*
X415714Y2568871D2*
X523902Y2460684D1*
X665301Y2319285D2*
X1546831Y1437755D1*
X1803701Y1180885D2*
X1962919Y1021667D1*
X415714Y2526445D2*
X523902Y2418257D1*
X655522Y2286636D2*
X1529774Y1412385D1*
X1778318Y1163843D2*
X1962878Y979282D1*
X415714Y2484018D2*
X523902Y2375831D1*
X615913Y2283819D2*
X1516696Y1383037D1*
X1748970Y1150764D2*
X1810891Y1088841D1*
X1823975Y1075757D2*
X1962823Y936911D1*
X415714Y2441592D2*
X523902Y2333406D1*
X573487Y2283819D2*
X814022Y2043283D1*
X926088Y1931219D2*
X1508547Y1348759D1*
X1714692Y1142615D2*
X1724588Y1132718D1*
X1867852Y989454D2*
X1962781Y894525D1*
X415714Y2399165D2*
X768530Y2046350D1*
X929140Y1885740D2*
X1507650Y1307230D1*
X1673163Y1141718D2*
X1678764Y1136115D1*
X1871249Y943631D2*
X1962739Y852140D1*
X415714Y2356739D2*
X732815Y2039638D1*
X922442Y1850012D2*
X1522801Y1249654D1*
X1615585Y1156867D2*
X1642083Y1130370D1*
X1865504Y906950D2*
X1962698Y809756D1*
X415714Y2314312D2*
X704711Y2025316D1*
X908119Y1821907D2*
X1230925Y1499102D1*
X1357699Y1372328D2*
X1610967Y1119059D1*
X1854193Y875835D2*
X1962656Y767370D1*
X415714Y2271887D2*
X680984Y2006617D1*
X889407Y1798194D2*
X1181621Y1505979D1*
X1364576Y1323024D2*
X1584106Y1103495D1*
X1838614Y848986D2*
X1962615Y724986D1*
X415714Y2229461D2*
X660406Y1984768D1*
X867572Y1777602D2*
X1143255Y1501919D1*
X1360516Y1284657D2*
X1560959Y1084215D1*
X1819349Y825825D2*
X1962573Y682601D1*
X415714Y2187034D2*
X646084Y1956663D1*
X839467Y1763281D2*
X1110979Y1491768D1*
X1350366Y1252382D2*
X1541320Y1061428D1*
X1796560Y806186D2*
X1962533Y640215D1*
X415714Y2144608D2*
X637052Y1923269D1*
X806073Y1754248D2*
X1083193Y1477129D1*
X1335726Y1224596D2*
X1525356Y1034966D1*
X1770100Y790222D2*
X1962491Y597831D1*
X415714Y2102181D2*
X636362Y1881533D1*
X764337Y1753558D2*
X1059189Y1458706D1*
X1317303Y1200592D2*
X1513560Y1004335D1*
X1739467Y778428D2*
X1962449Y555446D1*
X415714Y2059755D2*
X661235Y1814234D1*
X697024Y1778445D2*
X1038722Y1436747D1*
X1295344Y1180125D2*
X1507152Y968316D1*
X1703449Y772020D2*
X1962408Y513060D1*
X415714Y2017328D2*
X1021860Y1411182D1*
X1269781Y1163262D2*
X1509280Y923762D1*
X1658896Y774146D2*
X1962366Y470676D1*
X415714Y1974902D2*
X1009001Y1381614D1*
X1240211Y1150404D2*
X1288875Y1101741D1*
X1329277Y1061339D2*
X1537937Y852678D1*
X1587799Y802818D2*
X1779348Y611269D1*
X1849235Y541381D2*
X1962325Y428291D1*
X415714Y1932475D2*
X1001143Y1347046D1*
X1205643Y1142546D2*
X1214228Y1133961D1*
X1361497Y986693D2*
X1732446Y615743D1*
X1852508Y495681D2*
X1932480Y415709D1*
X415714Y1890049D2*
X1000728Y1305034D1*
X1163631Y1142131D2*
X1169205Y1136558D1*
X1364093Y941669D2*
X1690020Y615743D1*
X1842039Y463723D2*
X1890054Y415709D1*
X415714Y1847622D2*
X1017495Y1245841D1*
X1104438Y1158898D2*
X1132938Y1130398D1*
X1357934Y905403D2*
X1647593Y615743D1*
X1824168Y439168D2*
X1847627Y415709D1*
X415714Y1805196D2*
X721684Y1499226D1*
X850543Y1370367D2*
X1102127Y1118783D1*
X1346319Y874591D2*
X1607142Y613768D1*
X1800000Y420911D2*
X1805201Y415709D1*
X415714Y1762770D2*
X672849Y1505634D1*
X856951Y1321533D2*
X1075528Y1102957D1*
X1330492Y847992D2*
X1576261Y602222D1*
X415714Y1720344D2*
X634677Y1501381D1*
X852698Y1283360D2*
X1052588Y1083470D1*
X1311005Y825052D2*
X1552493Y583564D1*
X415714Y1677917D2*
X602554Y1491077D1*
X842395Y1251236D2*
X1033184Y1060448D1*
X1287983Y805648D2*
X1535037Y558594D1*
X415714Y1635491D2*
X574862Y1476341D1*
X827659Y1223546D2*
X1017467Y1033738D1*
X1261273Y789932D2*
X1525148Y526056D1*
X415714Y1593064D2*
X550957Y1457822D1*
X809139Y1199639D2*
X1005976Y1002801D1*
X1230337Y778441D2*
X1530092Y478686D1*
X415714Y1550638D2*
X530585Y1435766D1*
X787083Y1179269D2*
X999983Y966369D1*
X1193904Y772448D2*
X1550643Y415709D1*
X415714Y1508211D2*
X513833Y1410092D1*
X761409Y1162516D2*
X1002883Y921042D1*
X1148577Y775348D2*
X1508217Y415709D1*
X415714Y1465785D2*
X501100Y1380399D1*
X731717Y1149782D2*
X774206Y1107293D1*
X827963Y1053535D2*
X1038224Y843274D1*
X1070810Y810689D2*
X1465790Y415709D1*
X415714Y1423358D2*
X493407Y1345665D1*
X696983Y1142091D2*
X704517Y1134555D1*
X855226Y983848D2*
X1423364Y415709D1*
X415714Y1380932D2*
X493256Y1303391D1*
X654707Y1141938D2*
X660172Y1136475D1*
X857144Y939501D2*
X1380937Y415709D1*
X415714Y1338505D2*
X511003Y1243218D1*
X594534Y1159685D2*
X624277Y1129942D1*
X850613Y903608D2*
X1338510Y415709D1*
X415714Y1296079D2*
X593728Y1118066D1*
X838735Y873058D2*
X1296084Y415709D1*
X415714Y1253652D2*
X567336Y1102031D1*
X822701Y846665D2*
X1253657Y415709D1*
X415714Y1211227D2*
X544604Y1082337D1*
X803007Y823933D2*
X1211231Y415709D1*
X415714Y1168801D2*
X525407Y1059108D1*
X779777Y804736D2*
X1168804Y415709D1*
X415714Y1126374D2*
X509911Y1032176D1*
X752846Y789241D2*
X1126378Y415709D1*
X415714Y1083948D2*
X498682Y1000978D1*
X721648Y778013D2*
X1083951Y415709D1*
X415714Y1041521D2*
X493062Y964173D1*
X684843Y772392D2*
X1041526Y415709D1*
X415714Y999094D2*
X496709Y918100D1*
X638783Y776025D2*
X999100Y415709D1*
X415714Y956668D2*
X756915Y615467D1*
X853429Y518953D2*
X956673Y415709D1*
X415714Y914241D2*
X714213Y615743D1*
X849093Y480862D2*
X914247Y415709D1*
X415714Y871815D2*
X671786Y615743D1*
X835159Y452371D2*
X871820Y415709D1*
X415714Y829388D2*
X629360Y615743D1*
X814567Y430537D2*
X829394Y415709D1*
X415714Y786962D2*
X592844Y609832D1*
X415714Y744535D2*
X565264Y594986D1*
X415714Y702109D2*
X544189Y573634D1*
X415714Y659684D2*
X529702Y545696D1*
X415714Y617257D2*
X524371Y508600D1*
X415714Y574831D2*
X574835Y415709D1*
X415714Y532404D2*
X532408Y415709D1*
X415714Y489978D2*
X489983Y415709D1*
X415714Y447551D2*
X447556Y415709D1*
X637747Y4957272D2*
X636798Y4947322D1*
X634908Y4937505D1*
X632093Y4927913D1*
X628382Y4918633D1*
X623804Y4909745D1*
X618404Y4901333D1*
X612230Y4893472D1*
X605336Y4886234D1*
X597786Y4879681D1*
X589648Y4873877D1*
X580995Y4868870D1*
X571907Y4864709D1*
X562463Y4861430D1*
X552752Y4859062D1*
X542860Y4857627D1*
X532874Y4857139D1*
X522890Y4857601D1*
X512992Y4859009D1*
X503274Y4861352D1*
X493823Y4864605D1*
X484723Y4868743D1*
X476058Y4873726D1*
X467904Y4879509D1*
X460336Y4886041D1*
X453424Y4893261D1*
X447228Y4901105D1*
X441806Y4909503D1*
X437205Y4918378D1*
X433467Y4927650D1*
X430629Y4937234D1*
X428713Y4947045D1*
X427736Y4956993D1*
X427710Y4966990D1*
X428633Y4976942D1*
X430496Y4986764D1*
X433285Y4996364D1*
X436972Y5005655D1*
X441526Y5014554D1*
X446904Y5022979D1*
X453058Y5030857D1*
X459932Y5038114D1*
X467465Y5044686D1*
X475587Y5050513D1*
X484226Y5055542D1*
X493304Y5059727D1*
X502739Y5063031D1*
X512444Y5065425D1*
X522333Y5066886D1*
X532316Y5067400D1*
X542302Y5066966D1*
X552202Y5065584D1*
X561927Y5063268D1*
X571387Y5060038D1*
X580499Y5055925D1*
X589177Y5050966D1*
X597346Y5045203D1*
X604930Y5038693D1*
X611862Y5031491D1*
X618079Y5023663D1*
X623524Y5015280D1*
X628148Y5006417D1*
X631909Y4997155D1*
X634774Y4987579D1*
X636717Y4977773D1*
X637719Y4967827D1*
X637866Y4962270D1*
X637747Y4957272D1*
X1937610D2*
X1936661Y4947322D1*
X1934772Y4937505D1*
X1931957Y4927913D1*
X1928245Y4918633D1*
X1923668Y4909745D1*
X1918268Y4901333D1*
X1912093Y4893472D1*
X1905199Y4886234D1*
X1897650Y4879681D1*
X1889512Y4873877D1*
X1880858Y4868870D1*
X1871770Y4864709D1*
X1862327Y4861430D1*
X1852615Y4859062D1*
X1842723Y4857627D1*
X1832738Y4857139D1*
X1822753Y4857601D1*
X1812856Y4859009D1*
X1803138Y4861352D1*
X1793686Y4864605D1*
X1784587Y4868743D1*
X1775921Y4873726D1*
X1767768Y4879509D1*
X1760199Y4886041D1*
X1753287Y4893261D1*
X1747092Y4901105D1*
X1741669Y4909503D1*
X1737068Y4918378D1*
X1733331Y4927650D1*
X1730492Y4937234D1*
X1728576Y4947045D1*
X1727600Y4956993D1*
X1727573Y4966990D1*
X1728496Y4976942D1*
X1730360Y4986764D1*
X1733148Y4996364D1*
X1736836Y5005655D1*
X1741390Y5014554D1*
X1746768Y5022979D1*
X1752921Y5030857D1*
X1759795Y5038114D1*
X1767328Y5044686D1*
X1775450Y5050513D1*
X1784089Y5055542D1*
X1793168Y5059727D1*
X1802602Y5063031D1*
X1812307Y5065425D1*
X1822197Y5066886D1*
X1832180Y5067400D1*
X1842165Y5066966D1*
X1852066Y5065584D1*
X1861790Y5063268D1*
X1871251Y5060038D1*
X1880362Y5055925D1*
X1889041Y5050966D1*
X1897210Y5045203D1*
X1904794Y5038693D1*
X1911726Y5031491D1*
X1917942Y5023663D1*
X1923387Y5015280D1*
X1928012Y5006417D1*
X1931773Y4997155D1*
X1934638Y4987579D1*
X1936580Y4977773D1*
X1937583Y4967827D1*
X1937730Y4962270D1*
X1937610Y4957272D1*
X1363720Y949530D2*
X1363171Y939547D1*
X1362072Y929609D1*
X1360429Y919747D1*
X1358247Y909988D1*
X1355530Y900366D1*
X1352289Y890907D1*
X1348531Y881642D1*
X1344270Y872596D1*
X1339518Y863799D1*
X1334290Y855276D1*
X1328600Y847054D1*
X1322467Y839157D1*
X1315909Y831609D1*
X1308945Y824434D1*
X1301598Y817652D1*
X1293888Y811285D1*
X1285841Y805352D1*
X1277479Y799870D1*
X1268828Y794857D1*
X1259915Y790325D1*
X1250765Y786293D1*
X1241408Y782769D1*
X1231871Y779765D1*
X1222184Y777290D1*
X1212374Y775353D1*
X1202474Y773957D1*
X1192510Y773108D1*
X1182517Y772808D1*
X1172521Y773058D1*
X1162554Y773858D1*
X1152647Y775205D1*
X1142828Y777094D1*
X1133129Y779521D1*
X1123576Y782478D1*
X1114202Y785955D1*
X1105033Y789944D1*
X1096097Y794429D1*
X1087421Y799400D1*
X1079033Y804840D1*
X1070955Y810734D1*
X1063214Y817063D1*
X1055833Y823808D1*
X1048835Y830949D1*
X1042239Y838463D1*
X1036067Y846329D1*
X1030337Y854524D1*
X1025067Y863021D1*
X1020270Y871794D1*
X1015965Y880819D1*
X1012163Y890066D1*
X1008874Y899508D1*
X1006110Y909118D1*
X1003878Y918864D1*
X1002186Y928719D1*
X1001039Y938651D1*
X1000440Y948633D1*
X1000390Y958631D1*
X1000891Y968617D1*
X1001940Y978560D1*
X1003534Y988432D1*
X1005669Y998199D1*
X1008339Y1007836D1*
X1011533Y1017310D1*
X1015244Y1026594D1*
X1019461Y1035661D1*
X1024168Y1044482D1*
X1029354Y1053030D1*
X1035004Y1061281D1*
X1041097Y1069207D1*
X1047618Y1076787D1*
X1054546Y1083997D1*
X1061860Y1090815D1*
X1069538Y1097220D1*
X1077556Y1103193D1*
X1085891Y1108717D1*
X1094517Y1113773D1*
X1103408Y1118346D1*
X1112537Y1122425D1*
X1121877Y1125996D1*
X1131399Y1129046D1*
X1141073Y1131570D1*
X1150874Y1133555D1*
X1160768Y1135000D1*
X1170726Y1135899D1*
X1180718Y1136248D1*
X1190715Y1136047D1*
X1200685Y1135297D1*
X1210600Y1133999D1*
X1220428Y1132157D1*
X1230139Y1129780D1*
X1239705Y1126870D1*
X1249097Y1123438D1*
X1258286Y1119496D1*
X1267244Y1115055D1*
X1275944Y1110127D1*
X1284360Y1104728D1*
X1292466Y1098874D1*
X1300238Y1092584D1*
X1307652Y1085875D1*
X1314686Y1078769D1*
X1321319Y1071287D1*
X1327529Y1063451D1*
X1333301Y1055286D1*
X1338613Y1046815D1*
X1343451Y1038066D1*
X1347802Y1029063D1*
X1351651Y1019835D1*
X1354986Y1010408D1*
X1357797Y1000812D1*
X1360076Y991077D1*
X1361818Y981231D1*
X1363014Y971304D1*
X1363663Y961327D1*
X1363720Y949530D1*
X856934Y949610D2*
X856385Y939627D1*
X855286Y929689D1*
X853643Y919827D1*
X851461Y910068D1*
X848744Y900446D1*
X845503Y890987D1*
X841745Y881722D1*
X837484Y872676D1*
X832732Y863879D1*
X827504Y855356D1*
X821814Y847134D1*
X815681Y839238D1*
X809123Y831689D1*
X802159Y824514D1*
X794812Y817732D1*
X787102Y811365D1*
X779055Y805432D1*
X770693Y799950D1*
X762042Y794937D1*
X753129Y790406D1*
X743979Y786373D1*
X734622Y782849D1*
X725085Y779845D1*
X715398Y777370D1*
X705588Y775433D1*
X695688Y774037D1*
X685724Y773188D1*
X675731Y772888D1*
X665735Y773138D1*
X655768Y773938D1*
X645861Y775285D1*
X636042Y777175D1*
X626343Y779601D1*
X616790Y782558D1*
X607416Y786035D1*
X598247Y790024D1*
X589311Y794509D1*
X580635Y799480D1*
X572247Y804920D1*
X564169Y810814D1*
X556428Y817143D1*
X549047Y823888D1*
X542049Y831029D1*
X535453Y838543D1*
X529281Y846409D1*
X523551Y854604D1*
X518281Y863101D1*
X513484Y871874D1*
X509178Y880899D1*
X505377Y890146D1*
X502088Y899588D1*
X499324Y909198D1*
X497092Y918944D1*
X495400Y928799D1*
X494253Y938731D1*
X493654Y948713D1*
X493604Y958711D1*
X494105Y968697D1*
X495154Y978640D1*
X496748Y988512D1*
X498883Y998280D1*
X501552Y1007916D1*
X504747Y1017390D1*
X508458Y1026675D1*
X512675Y1035741D1*
X517382Y1044562D1*
X522568Y1053110D1*
X528218Y1061361D1*
X534311Y1069287D1*
X540832Y1076867D1*
X547760Y1084077D1*
X555073Y1090895D1*
X562752Y1097301D1*
X570770Y1103273D1*
X579105Y1108797D1*
X587731Y1113853D1*
X596622Y1118427D1*
X605751Y1122505D1*
X615091Y1126076D1*
X624613Y1129126D1*
X634287Y1131650D1*
X644088Y1133635D1*
X653982Y1135080D1*
X663940Y1135979D1*
X673932Y1136328D1*
X683929Y1136127D1*
X693899Y1135377D1*
X703814Y1134079D1*
X713642Y1132238D1*
X723353Y1129860D1*
X732919Y1126950D1*
X742311Y1123518D1*
X751500Y1119576D1*
X760458Y1115135D1*
X769157Y1110207D1*
X777573Y1104808D1*
X785680Y1098954D1*
X793451Y1092664D1*
X800866Y1085955D1*
X807900Y1078849D1*
X814533Y1071367D1*
X820743Y1063531D1*
X826514Y1055366D1*
X831827Y1046895D1*
X836665Y1038146D1*
X841016Y1029143D1*
X844865Y1019915D1*
X848199Y1010488D1*
X851010Y1000892D1*
X853290Y991157D1*
X855031Y981311D1*
X856228Y971385D1*
X856877Y961407D1*
X856934Y949610D1*
X856181Y1318210D2*
X855631Y1308227D1*
X854533Y1298289D1*
X852890Y1288427D1*
X850707Y1278668D1*
X847991Y1269046D1*
X844749Y1259587D1*
X840992Y1250322D1*
X836731Y1241276D1*
X831979Y1232479D1*
X826751Y1223955D1*
X821060Y1215734D1*
X814928Y1207837D1*
X808370Y1200289D1*
X801406Y1193114D1*
X794059Y1186332D1*
X786349Y1179965D1*
X778302Y1174031D1*
X769940Y1168550D1*
X761289Y1163537D1*
X752375Y1159005D1*
X743226Y1154972D1*
X733869Y1151449D1*
X724332Y1148445D1*
X714644Y1145970D1*
X704835Y1144033D1*
X694934Y1142636D1*
X684971Y1141787D1*
X674978Y1141488D1*
X664982Y1141738D1*
X655014Y1142538D1*
X645108Y1143885D1*
X635289Y1145774D1*
X625589Y1148201D1*
X616037Y1151157D1*
X606663Y1154635D1*
X597493Y1158623D1*
X588558Y1163109D1*
X579882Y1168080D1*
X571493Y1173520D1*
X563416Y1179413D1*
X555675Y1185743D1*
X548294Y1192488D1*
X541295Y1199629D1*
X534699Y1207143D1*
X528528Y1215009D1*
X522798Y1223203D1*
X517528Y1231701D1*
X512731Y1240474D1*
X508425Y1249499D1*
X504623Y1258745D1*
X501335Y1268188D1*
X498571Y1277798D1*
X496339Y1287543D1*
X494647Y1297399D1*
X493500Y1307331D1*
X492900Y1317312D1*
X492850Y1327311D1*
X493352Y1337297D1*
X494400Y1347240D1*
X495995Y1357112D1*
X498130Y1366879D1*
X500799Y1376516D1*
X503993Y1385990D1*
X507705Y1395274D1*
X511921Y1404341D1*
X516629Y1413161D1*
X521815Y1421710D1*
X527465Y1429961D1*
X533558Y1437887D1*
X540079Y1445467D1*
X547007Y1452677D1*
X554320Y1459495D1*
X561999Y1465900D1*
X570017Y1471873D1*
X578352Y1477396D1*
X586978Y1482453D1*
X595869Y1487026D1*
X604997Y1491105D1*
X614337Y1494676D1*
X623860Y1497726D1*
X633534Y1500249D1*
X643335Y1502235D1*
X653228Y1503680D1*
X663186Y1504579D1*
X673178Y1504928D1*
X683176Y1504727D1*
X693146Y1503976D1*
X703060Y1502678D1*
X712888Y1500837D1*
X722600Y1498459D1*
X732165Y1495550D1*
X741558Y1492118D1*
X750747Y1488176D1*
X759705Y1483735D1*
X768404Y1478807D1*
X776820Y1473408D1*
X784927Y1467554D1*
X792698Y1461264D1*
X800113Y1454555D1*
X807147Y1447449D1*
X813780Y1439967D1*
X819990Y1432131D1*
X825761Y1423966D1*
X831073Y1415495D1*
X835912Y1406745D1*
X840262Y1397743D1*
X844112Y1388514D1*
X847446Y1379088D1*
X850257Y1369492D1*
X852537Y1359757D1*
X854278Y1349911D1*
X855475Y1339984D1*
X856123Y1330007D1*
X856181Y1318210D1*
X1363794Y1318545D2*
X1363244Y1308562D1*
X1362146Y1298623D1*
X1360503Y1288761D1*
X1358320Y1279003D1*
X1355604Y1269381D1*
X1352362Y1259921D1*
X1348605Y1250656D1*
X1344344Y1241610D1*
X1339592Y1232814D1*
X1334364Y1224290D1*
X1328673Y1216068D1*
X1322541Y1208172D1*
X1315983Y1200623D1*
X1309018Y1193449D1*
X1301672Y1186667D1*
X1293962Y1180299D1*
X1285915Y1174366D1*
X1277552Y1168885D1*
X1268902Y1163871D1*
X1259988Y1159340D1*
X1250839Y1155307D1*
X1241482Y1151783D1*
X1231945Y1148780D1*
X1222257Y1146304D1*
X1212448Y1144367D1*
X1202547Y1142971D1*
X1192584Y1142122D1*
X1182591Y1141823D1*
X1172594Y1142072D1*
X1162627Y1142873D1*
X1152720Y1144219D1*
X1142902Y1146109D1*
X1133202Y1148535D1*
X1123650Y1151492D1*
X1114276Y1154970D1*
X1105106Y1158958D1*
X1096171Y1163444D1*
X1087495Y1168415D1*
X1079106Y1173854D1*
X1071029Y1179748D1*
X1063287Y1186077D1*
X1055907Y1192823D1*
X1048908Y1199963D1*
X1042312Y1207478D1*
X1036140Y1215344D1*
X1030411Y1223538D1*
X1025140Y1232035D1*
X1020344Y1240808D1*
X1016038Y1249833D1*
X1012236Y1259080D1*
X1008948Y1268522D1*
X1006184Y1278133D1*
X1003951Y1287878D1*
X1002260Y1297734D1*
X1001113Y1307665D1*
X1000513Y1317647D1*
X1000463Y1327646D1*
X1000965Y1337631D1*
X1002013Y1347575D1*
X1003608Y1357446D1*
X1005743Y1367214D1*
X1008412Y1376850D1*
X1011606Y1386324D1*
X1015318Y1395609D1*
X1019534Y1404676D1*
X1024241Y1413496D1*
X1029428Y1422045D1*
X1035077Y1430295D1*
X1041171Y1438222D1*
X1047692Y1445802D1*
X1054619Y1453012D1*
X1061933Y1459829D1*
X1069612Y1466235D1*
X1077630Y1472207D1*
X1085965Y1477731D1*
X1094591Y1482787D1*
X1103482Y1487361D1*
X1112610Y1491440D1*
X1121950Y1495010D1*
X1131472Y1498060D1*
X1141147Y1500584D1*
X1150948Y1502570D1*
X1160841Y1504014D1*
X1170799Y1504913D1*
X1180791Y1505262D1*
X1190789Y1505062D1*
X1200759Y1504311D1*
X1210673Y1503013D1*
X1220501Y1501172D1*
X1230213Y1498794D1*
X1239778Y1495885D1*
X1249171Y1492453D1*
X1258360Y1488510D1*
X1267318Y1484070D1*
X1276017Y1479142D1*
X1284433Y1473743D1*
X1292539Y1467888D1*
X1300311Y1461598D1*
X1307726Y1454890D1*
X1314760Y1447783D1*
X1321392Y1440302D1*
X1327602Y1432466D1*
X1333374Y1424301D1*
X1338686Y1415829D1*
X1343525Y1407080D1*
X1347875Y1398077D1*
X1351724Y1388849D1*
X1355059Y1379423D1*
X1357870Y1369827D1*
X1360150Y1360092D1*
X1361891Y1350245D1*
X1363088Y1340319D1*
X1363736Y1330341D1*
X1363794Y1318545D1*
X1870949Y1318360D2*
X1870399Y1308377D1*
X1869301Y1298438D1*
X1867657Y1288576D1*
X1865475Y1278818D1*
X1862759Y1269196D1*
X1859517Y1259736D1*
X1855760Y1250471D1*
X1851499Y1241425D1*
X1846747Y1232629D1*
X1841518Y1224105D1*
X1835828Y1215883D1*
X1829696Y1207987D1*
X1823138Y1200438D1*
X1816173Y1193264D1*
X1808827Y1186482D1*
X1801117Y1180114D1*
X1793070Y1174181D1*
X1784707Y1168699D1*
X1776056Y1163686D1*
X1767143Y1159155D1*
X1757993Y1155122D1*
X1748636Y1151598D1*
X1739100Y1148594D1*
X1729412Y1146119D1*
X1719602Y1144182D1*
X1709702Y1142786D1*
X1699739Y1141937D1*
X1689745Y1141638D1*
X1679749Y1141887D1*
X1669782Y1142688D1*
X1659875Y1144034D1*
X1650056Y1145924D1*
X1640357Y1148350D1*
X1630804Y1151307D1*
X1621430Y1154785D1*
X1612261Y1158773D1*
X1603325Y1163259D1*
X1594650Y1168230D1*
X1586261Y1173669D1*
X1578184Y1179563D1*
X1570442Y1185892D1*
X1563062Y1192638D1*
X1556063Y1199778D1*
X1549467Y1207293D1*
X1543295Y1215159D1*
X1537566Y1223353D1*
X1532295Y1231850D1*
X1527499Y1240623D1*
X1523193Y1249648D1*
X1519391Y1258895D1*
X1516102Y1268337D1*
X1513339Y1277948D1*
X1511106Y1287693D1*
X1509415Y1297549D1*
X1508268Y1307480D1*
X1507668Y1317462D1*
X1507618Y1327461D1*
X1508119Y1337446D1*
X1509168Y1347390D1*
X1510762Y1357261D1*
X1512898Y1367029D1*
X1515567Y1376665D1*
X1518761Y1386139D1*
X1522472Y1395424D1*
X1526689Y1404491D1*
X1531396Y1413311D1*
X1536583Y1421860D1*
X1542232Y1430110D1*
X1548325Y1438037D1*
X1554846Y1445617D1*
X1561774Y1452827D1*
X1569088Y1459644D1*
X1576766Y1466050D1*
X1584785Y1472022D1*
X1593119Y1477546D1*
X1601745Y1482602D1*
X1610636Y1487176D1*
X1619765Y1491255D1*
X1629105Y1494825D1*
X1638627Y1497875D1*
X1648302Y1500399D1*
X1658102Y1502385D1*
X1667996Y1503829D1*
X1677954Y1504728D1*
X1687946Y1505077D1*
X1697944Y1504877D1*
X1707913Y1504126D1*
X1717828Y1502828D1*
X1727656Y1500987D1*
X1737367Y1498609D1*
X1746933Y1495699D1*
X1756325Y1492268D1*
X1765514Y1488325D1*
X1774472Y1483885D1*
X1783172Y1478957D1*
X1791588Y1473558D1*
X1799694Y1467703D1*
X1807466Y1461413D1*
X1814881Y1454705D1*
X1821915Y1447598D1*
X1828547Y1440117D1*
X1834757Y1432281D1*
X1840529Y1424115D1*
X1845841Y1415644D1*
X1850680Y1406895D1*
X1855030Y1397892D1*
X1858879Y1388664D1*
X1862214Y1379238D1*
X1865025Y1369642D1*
X1867304Y1359907D1*
X1869046Y1350060D1*
X1870243Y1340134D1*
X1870891Y1330156D1*
X1870949Y1318360D1*
X1593644Y414996D2*
X1586000Y418018D1*
X1577080Y422531D1*
X1568640Y427887D1*
X1560760Y434037D1*
X1553512Y440920D1*
X1546966Y448475D1*
X1541184Y456629D1*
X1536218Y465304D1*
X1532118Y474421D1*
X1528920Y483891D1*
X1526656Y493627D1*
X1525346Y503538D1*
X1525004Y513528D1*
X1525631Y523504D1*
X1527223Y533373D1*
X1529765Y543041D1*
X1533231Y552416D1*
X1537591Y561412D1*
X1542802Y569942D1*
X1548815Y577928D1*
X1555573Y585293D1*
X1563014Y591967D1*
X1571068Y597888D1*
X1579657Y603001D1*
X1588702Y607257D1*
X1598117Y610617D1*
X1607814Y613047D1*
X1617699Y614526D1*
X1627682Y615039D1*
X1754727Y614933D1*
X1764680Y613992D1*
X1774493Y612091D1*
X1784076Y609248D1*
X1793339Y605488D1*
X1802193Y600849D1*
X1810555Y595373D1*
X1818348Y589112D1*
X1825496Y582125D1*
X1831933Y574478D1*
X1837600Y566241D1*
X1842440Y557496D1*
X1846409Y548323D1*
X1849471Y538807D1*
X1851597Y529039D1*
X1852765Y519112D1*
X1853007Y512058D1*
X1852521Y502073D1*
X1851071Y492184D1*
X1848668Y482480D1*
X1845335Y473056D1*
X1841105Y463999D1*
X1836017Y455395D1*
X1830118Y447325D1*
X1823465Y439865D1*
X1816119Y433084D1*
X1808151Y427049D1*
X1799636Y421814D1*
X1790654Y417429D1*
X1784370Y415000D1*
X1963021Y415005D1*
X1967979Y5428928D1*
X1791949Y5428948D1*
X1797822Y5426110D1*
X1806440Y5421047D1*
X1814528Y5415172D1*
X1822007Y5408539D1*
X1828807Y5401214D1*
X1834866Y5393264D1*
X1840126Y5384762D1*
X1844537Y5375793D1*
X1848056Y5366436D1*
X1850652Y5356783D1*
X1852301Y5346924D1*
X1852986Y5336951D1*
X1852885Y5329894D1*
X1851916Y5319945D1*
X1849987Y5310138D1*
X1847115Y5300562D1*
X1843329Y5291311D1*
X1838665Y5282470D1*
X1833165Y5274123D1*
X1826882Y5266349D1*
X1819874Y5259220D1*
X1812209Y5252804D1*
X1803957Y5247163D1*
X1795198Y5242346D1*
X1786012Y5238403D1*
X1776488Y5235369D1*
X1766714Y5233272D1*
X1756783Y5232131D1*
X1750024Y5231909D1*
X1624741Y5231961D1*
X1614778Y5232759D1*
X1604938Y5234520D1*
X1595315Y5237226D1*
X1586000Y5240853D1*
X1577080Y5245366D1*
X1568640Y5250722D1*
X1560760Y5256871D1*
X1553512Y5263755D1*
X1546966Y5271310D1*
X1541184Y5279463D1*
X1536218Y5288139D1*
X1532118Y5297256D1*
X1528920Y5306726D1*
X1526656Y5316462D1*
X1525346Y5326373D1*
X1525004Y5336362D1*
X1525631Y5346339D1*
X1527223Y5356207D1*
X1529765Y5365875D1*
X1533231Y5375251D1*
X1537591Y5384247D1*
X1542802Y5392777D1*
X1548815Y5400762D1*
X1555573Y5408127D1*
X1563014Y5414802D1*
X1571068Y5420723D1*
X1579657Y5425836D1*
X1586112Y5428949D1*
X791949Y5428948D1*
X797822Y5426110D1*
X806440Y5421047D1*
X814528Y5415172D1*
X822007Y5408539D1*
X828807Y5401214D1*
X834866Y5393264D1*
X840126Y5384762D1*
X844537Y5375793D1*
X848056Y5366436D1*
X850652Y5356783D1*
X852301Y5346924D1*
X852986Y5336951D1*
X852885Y5329894D1*
X851916Y5319945D1*
X849987Y5310138D1*
X847115Y5300562D1*
X843329Y5291311D1*
X838665Y5282470D1*
X833165Y5274123D1*
X826882Y5266349D1*
X819874Y5259220D1*
X812209Y5252804D1*
X803957Y5247163D1*
X795198Y5242346D1*
X786012Y5238403D1*
X776488Y5235369D1*
X766714Y5233272D1*
X756783Y5232131D1*
X750024Y5231909D1*
X624741Y5231961D1*
X614778Y5232759D1*
X604938Y5234520D1*
X595315Y5237226D1*
X586000Y5240853D1*
X577080Y5245366D1*
X568640Y5250722D1*
X560760Y5256871D1*
X553512Y5263755D1*
X546966Y5271310D1*
X541184Y5279463D1*
X536218Y5288139D1*
X532118Y5297256D1*
X528920Y5306726D1*
X526656Y5316462D1*
X525346Y5326373D1*
X525004Y5336362D1*
X525631Y5346339D1*
X527223Y5356207D1*
X529765Y5365875D1*
X533231Y5375251D1*
X537591Y5384247D1*
X542802Y5392777D1*
X548815Y5400762D1*
X555573Y5408127D1*
X563014Y5414802D1*
X571068Y5420723D1*
X579657Y5425836D1*
X586112Y5428949D1*
X414996Y5428948D1*
X415000Y414983D1*
X593535Y415000D1*
X586000Y418018D1*
X577080Y422531D1*
X568640Y427887D1*
X560760Y434037D1*
X553512Y440920D1*
X546966Y448475D1*
X541184Y456629D1*
X536218Y465304D1*
X532118Y474421D1*
X528920Y483891D1*
X526656Y493627D1*
X525346Y503538D1*
X525004Y513528D1*
X525631Y523504D1*
X527223Y533373D1*
X529765Y543041D1*
X533231Y552416D1*
X537591Y561412D1*
X542802Y569942D1*
X548815Y577928D1*
X555573Y585293D1*
X563014Y591967D1*
X571068Y597888D1*
X579657Y603001D1*
X588702Y607257D1*
X598117Y610617D1*
X607814Y613047D1*
X617699Y614526D1*
X627682Y615039D1*
X754727Y614933D1*
X764680Y613992D1*
X774493Y612091D1*
X784076Y609248D1*
X793339Y605488D1*
X802193Y600849D1*
X810555Y595373D1*
X818348Y589112D1*
X825496Y582125D1*
X831933Y574478D1*
X837600Y566241D1*
X842440Y557496D1*
X846409Y548323D1*
X849471Y538807D1*
X851597Y529039D1*
X852765Y519112D1*
X853007Y512058D1*
X852521Y502073D1*
X851071Y492184D1*
X848668Y482480D1*
X845335Y473056D1*
X841105Y463999D1*
X836017Y455395D1*
X830118Y447325D1*
X823465Y439865D1*
X816119Y433084D1*
X808151Y427049D1*
X799636Y421814D1*
X790654Y417429D1*
X784370Y415000D1*
X1593535D1*
X1870720Y948936D2*
X1870171Y938953D1*
X1869072Y929014D1*
X1867429Y919152D1*
X1865247Y909394D1*
X1862530Y899772D1*
X1859289Y890312D1*
X1855531Y881047D1*
X1851270Y872001D1*
X1846518Y863205D1*
X1841290Y854681D1*
X1835600Y846459D1*
X1829467Y838563D1*
X1822909Y831014D1*
X1815945Y823840D1*
X1808598Y817058D1*
X1800888Y810690D1*
X1792841Y804757D1*
X1784479Y799276D1*
X1775828Y794262D1*
X1766915Y789731D1*
X1757765Y785698D1*
X1748408Y782175D1*
X1738871Y779171D1*
X1729184Y776696D1*
X1719374Y774759D1*
X1709474Y773362D1*
X1699510Y772513D1*
X1689517Y772214D1*
X1679521Y772463D1*
X1669554Y773264D1*
X1659647Y774610D1*
X1649828Y776500D1*
X1640129Y778927D1*
X1630576Y781883D1*
X1621202Y785361D1*
X1612033Y789349D1*
X1603097Y793835D1*
X1594421Y798806D1*
X1586033Y804245D1*
X1577955Y810139D1*
X1570214Y816469D1*
X1562833Y823214D1*
X1555835Y830354D1*
X1549239Y837869D1*
X1543067Y845735D1*
X1537337Y853929D1*
X1532067Y862427D1*
X1527270Y871199D1*
X1522965Y880224D1*
X1519163Y889471D1*
X1515874Y898913D1*
X1513110Y908524D1*
X1510878Y918269D1*
X1509186Y928125D1*
X1508039Y938056D1*
X1507440Y948038D1*
X1507390Y958037D1*
X1507891Y968022D1*
X1508940Y977966D1*
X1510534Y987837D1*
X1512669Y997605D1*
X1515339Y1007241D1*
X1518533Y1016715D1*
X1522244Y1026000D1*
X1526461Y1035067D1*
X1531168Y1043887D1*
X1536354Y1052436D1*
X1542004Y1060686D1*
X1548097Y1068613D1*
X1554618Y1076193D1*
X1561546Y1083403D1*
X1568860Y1090220D1*
X1576538Y1096626D1*
X1584556Y1102598D1*
X1592891Y1108122D1*
X1601517Y1113178D1*
X1610408Y1117752D1*
X1619537Y1121831D1*
X1628877Y1125402D1*
X1638399Y1128451D1*
X1648073Y1130975D1*
X1657874Y1132961D1*
X1667768Y1134406D1*
X1677726Y1135304D1*
X1687718Y1135654D1*
X1697715Y1135453D1*
X1707685Y1134702D1*
X1717600Y1133404D1*
X1727428Y1131563D1*
X1737139Y1129185D1*
X1746705Y1126276D1*
X1756097Y1122844D1*
X1765286Y1118902D1*
X1774244Y1114461D1*
X1782944Y1109533D1*
X1791360Y1104134D1*
X1799466Y1098280D1*
X1807238Y1091990D1*
X1814652Y1085281D1*
X1821686Y1078175D1*
X1828319Y1070693D1*
X1834529Y1062857D1*
X1840301Y1054692D1*
X1845613Y1046220D1*
X1850451Y1037471D1*
X1854802Y1028469D1*
X1858651Y1019240D1*
X1861986Y1009814D1*
X1864797Y1000218D1*
X1867076Y990483D1*
X1868818Y980636D1*
X1870014Y970710D1*
X1870663Y960732D1*
X1870720Y948936D1*
X497642Y4329639D2*
X498282Y4321168D1*
X499766Y4314140D1*
X502156Y4307365D1*
X505409Y4300961D1*
X509471Y4295035D1*
X514272Y4289690D1*
X519728Y4285018D1*
X525748Y4281098D1*
X532227Y4277997D1*
X539056Y4275769D1*
X546118Y4274451D1*
X553301Y4273980D1*
X1812701Y4274066D1*
X1819864Y4274621D1*
X1826891Y4276105D1*
X1833667Y4278495D1*
X1840071Y4281748D1*
X1845996Y4285810D1*
X1851341Y4290610D1*
X1856013Y4296067D1*
X1859933Y4302087D1*
X1863034Y4308566D1*
X1865262Y4315395D1*
X1866580Y4322457D1*
X1867051Y4329639D1*
X1866966Y4612740D1*
X1866411Y4619903D1*
X1864927Y4626930D1*
X1862537Y4633706D1*
X1859283Y4640110D1*
X1855222Y4646035D1*
X1850421Y4651381D1*
X1844966Y4656052D1*
X1838945Y4659972D1*
X1832466Y4663073D1*
X1825636Y4665302D1*
X1818575Y4666619D1*
X1811392Y4667091D1*
X551992Y4667005D1*
X544829Y4666450D1*
X537802Y4664966D1*
X531026Y4662576D1*
X524622Y4659323D1*
X518697Y4655261D1*
X513352Y4650461D1*
X508680Y4645004D1*
X504760Y4638984D1*
X501659Y4632505D1*
X499430Y4625676D1*
X498113Y4618614D1*
X497642Y4611432D1*
Y4329648D1*
X458324Y4317906D2*
X457684Y4327678D1*
X457642Y4488980D1*
Y4612097D1*
X458423Y4624231D1*
X460581Y4635404D1*
X461890Y4639789D1*
X464978Y4648693D1*
X470505Y4659822D1*
X477438Y4670134D1*
X485657Y4679454D1*
X495024Y4687621D1*
X505375Y4694495D1*
X516535Y4699959D1*
X528314Y4703921D1*
X540508Y4706311D1*
X551340Y4707049D1*
X712642Y4707091D1*
X1812058D1*
X1824717Y4706240D1*
X1836898Y4703782D1*
X1848652Y4699755D1*
X1859782Y4694227D1*
X1870094Y4687294D1*
X1879415Y4679075D1*
X1887581Y4669709D1*
X1894455Y4659357D1*
X1899718Y4648686D1*
X1903434Y4637930D1*
X1904495Y4633479D1*
X1906272Y4624224D1*
X1907009Y4613392D1*
X1907051Y4452091D1*
Y4328974D1*
X1906202Y4316315D1*
X1903743Y4304134D1*
X1899715Y4292378D1*
X1894188Y4281249D1*
X1887255Y4270937D1*
X1879035Y4261617D1*
X1869669Y4253450D1*
X1859318Y4246576D1*
X1848157Y4241112D1*
X1836379Y4237150D1*
X1824185Y4234760D1*
X1813353Y4234022D1*
X1652051Y4233980D1*
X552635D1*
X539976Y4234831D1*
X527795Y4237289D1*
X516041Y4241316D1*
X505369Y4246579D1*
X495873Y4252849D1*
X492323Y4255736D1*
X485278Y4261996D1*
X477112Y4271362D1*
X470238Y4281714D1*
X464773Y4292874D1*
X460811Y4304652D1*
X458421Y4316846D1*
X1737639Y3777524D2*
X1743978Y3737105D1*
Y3733966D1*
X1739882Y3707714D1*
X1736550Y3687068D1*
X1735580Y3684084D1*
X1723573Y3660383D1*
X1714024Y3641777D1*
X1712178Y3639239D1*
X1693436Y3620407D1*
X1678604Y3605664D1*
X1676066Y3603819D1*
X1652420Y3591702D1*
X1633759Y3582262D1*
X1630774Y3581293D1*
X1604541Y3577075D1*
X1583877Y3573865D1*
X1580738D1*
X1554486Y3577961D1*
X1533840Y3581293D1*
X1530856Y3582262D1*
X1507155Y3594269D1*
X1488549Y3603819D1*
X1486010Y3605664D1*
X1467178Y3624407D1*
X1452436Y3639239D1*
X1450591Y3641777D1*
X1438474Y3665423D1*
X1429034Y3684084D1*
X1428064Y3687068D1*
X1423846Y3713302D1*
X1420636Y3733966D1*
Y3737105D1*
X1424732Y3763357D1*
X1428064Y3784003D1*
X1429034Y3786987D1*
X1441041Y3810688D1*
X1450591Y3829294D1*
X1452436Y3831832D1*
X1471178Y3850664D1*
X1486010Y3865407D1*
X1488549Y3867252D1*
X1512194Y3879369D1*
X1530856Y3888808D1*
X1533840Y3889778D1*
X1560073Y3893996D1*
X1580738Y3897206D1*
X1583877D1*
X1610129Y3893110D1*
X1630774Y3889778D1*
X1633759Y3888808D1*
X1657459Y3876802D1*
X1676066Y3867252D1*
X1678604Y3865408D1*
X1697436Y3846664D1*
X1712180Y3831832D1*
X1714024Y3829294D1*
X1726140Y3805648D1*
X1735580Y3786987D1*
X1736550Y3784003D1*
X1737639Y3777524D1*
X1734920Y3788419D2*
X1736123Y3785513D1*
X1736856Y3782462D1*
X1743790Y3738681D1*
X1724533Y3203265D2*
X1730198Y3167105D1*
Y3163966D1*
X1726102Y3137714D1*
X1723445Y3121327D1*
X1722475Y3118343D1*
X1710467Y3094640D1*
X1702875Y3079877D1*
X1701031Y3077337D1*
X1682287Y3058507D1*
X1670505Y3046811D1*
X1667966Y3044967D1*
X1644320Y3032849D1*
X1629500Y3025367D1*
X1626516Y3024398D1*
X1600283Y3020181D1*
X1583877Y3017644D1*
X1580738D1*
X1554486Y3021740D1*
X1538098Y3024398D1*
X1535114Y3025367D1*
X1511412Y3037375D1*
X1496648Y3044967D1*
X1494109Y3046811D1*
X1475278Y3065555D1*
X1463583Y3077337D1*
X1461739Y3079877D1*
X1449621Y3103522D1*
X1442139Y3118343D1*
X1441169Y3121327D1*
X1436951Y3147559D1*
X1434416Y3163966D1*
Y3167105D1*
X1438512Y3193357D1*
X1441169Y3209744D1*
X1442139Y3212728D1*
X1454146Y3236430D1*
X1461739Y3251194D1*
X1463583Y3253734D1*
X1482327Y3272564D1*
X1494109Y3284260D1*
X1496648Y3286104D1*
X1520294Y3298222D1*
X1535114Y3305703D1*
X1538098Y3306673D1*
X1564331Y3310891D1*
X1580738Y3313427D1*
X1583877D1*
X1610129Y3309331D1*
X1626516Y3306673D1*
X1629500Y3305703D1*
X1653202Y3293697D1*
X1667966Y3286104D1*
X1670505Y3284260D1*
X1689336Y3265516D1*
X1701031Y3253734D1*
X1702875Y3251194D1*
X1714993Y3227549D1*
X1722475Y3212728D1*
X1723445Y3209744D1*
X1724533Y3203265D1*
X1721815Y3214160D2*
X1723018Y3211256D1*
X1723751Y3208203D1*
X1730010Y3168688D1*
X1724533Y2567241D2*
X1730198Y2531081D1*
Y2527942D1*
X1726102Y2501690D1*
X1723445Y2485303D1*
X1722475Y2482319D1*
X1710467Y2458617D1*
X1702875Y2443853D1*
X1701031Y2441314D1*
X1682287Y2422483D1*
X1670505Y2410787D1*
X1667966Y2408944D1*
X1644320Y2396825D1*
X1629500Y2389344D1*
X1626516Y2388374D1*
X1600283Y2384157D1*
X1583877Y2381621D1*
X1580738D1*
X1554486Y2385717D1*
X1538098Y2388374D1*
X1535114Y2389344D1*
X1511412Y2401352D1*
X1496648Y2408944D1*
X1494109Y2410787D1*
X1475278Y2429531D1*
X1463583Y2441314D1*
X1461739Y2443853D1*
X1449621Y2467499D1*
X1442139Y2482319D1*
X1441169Y2485303D1*
X1436951Y2511535D1*
X1434416Y2527942D1*
Y2531081D1*
X1438512Y2557333D1*
X1441169Y2573720D1*
X1442139Y2576705D1*
X1454146Y2600407D1*
X1461739Y2615171D1*
X1463583Y2617710D1*
X1482327Y2636541D1*
X1494109Y2648236D1*
X1496648Y2650080D1*
X1520294Y2662198D1*
X1535114Y2669680D1*
X1538098Y2670650D1*
X1564331Y2674867D1*
X1580738Y2677403D1*
X1583877D1*
X1610129Y2673307D1*
X1626516Y2670650D1*
X1629500Y2669680D1*
X1653202Y2657673D1*
X1667966Y2650080D1*
X1670505Y2648236D1*
X1689336Y2629492D1*
X1701031Y2617710D1*
X1702875Y2615171D1*
X1714993Y2591525D1*
X1722475Y2576705D1*
X1723445Y2573720D1*
X1724533Y2567241D1*
X1721815Y2578136D2*
X1723018Y2575232D1*
X1723751Y2572180D1*
X1730010Y2532664D1*
X1724533Y1937241D2*
X1730198Y1901081D1*
Y1897942D1*
X1726102Y1871690D1*
X1723445Y1855303D1*
X1722475Y1852319D1*
X1710467Y1828617D1*
X1702875Y1813853D1*
X1701031Y1811314D1*
X1682287Y1792483D1*
X1670505Y1780787D1*
X1667966Y1778944D1*
X1644320Y1766825D1*
X1629500Y1759344D1*
X1626516Y1758374D1*
X1600283Y1754157D1*
X1583877Y1751621D1*
X1580738D1*
X1554486Y1755717D1*
X1538098Y1758374D1*
X1535114Y1759344D1*
X1511412Y1771352D1*
X1496648Y1778944D1*
X1494109Y1780787D1*
X1475278Y1799531D1*
X1463583Y1811314D1*
X1461739Y1813853D1*
X1449621Y1837499D1*
X1442139Y1852319D1*
X1441169Y1855303D1*
X1436951Y1881535D1*
X1434416Y1897942D1*
Y1901081D1*
X1438512Y1927333D1*
X1441169Y1943720D1*
X1442139Y1946705D1*
X1454146Y1970407D1*
X1461739Y1985171D1*
X1463583Y1987710D1*
X1482327Y2006541D1*
X1494109Y2018236D1*
X1496648Y2020080D1*
X1520294Y2032198D1*
X1535114Y2039680D1*
X1538098Y2040650D1*
X1564331Y2044867D1*
X1580738Y2047403D1*
X1583877D1*
X1610129Y2043307D1*
X1626516Y2040650D1*
X1629500Y2039680D1*
X1653202Y2027673D1*
X1667966Y2020080D1*
X1670505Y2018236D1*
X1689336Y1999492D1*
X1701031Y1987710D1*
X1702875Y1985171D1*
X1714993Y1961525D1*
X1722475Y1946705D1*
X1723445Y1943720D1*
X1724533Y1937241D1*
X1721815Y1948136D2*
X1723018Y1945232D1*
X1723751Y1942180D1*
X1730010Y1902664D1*
X924533Y1937241D2*
X930198Y1901081D1*
Y1897942D1*
X926102Y1871690D1*
X923445Y1855303D1*
X922475Y1852319D1*
X910467Y1828617D1*
X902875Y1813853D1*
X901031Y1811314D1*
X882287Y1792483D1*
X870505Y1780787D1*
X867966Y1778944D1*
X844320Y1766825D1*
X829500Y1759344D1*
X826516Y1758374D1*
X800283Y1754157D1*
X783877Y1751621D1*
X780738D1*
X754486Y1755717D1*
X738098Y1758374D1*
X735114Y1759344D1*
X711412Y1771352D1*
X696648Y1778944D1*
X694109Y1780787D1*
X675278Y1799531D1*
X663583Y1811314D1*
X661739Y1813853D1*
X649621Y1837499D1*
X642139Y1852319D1*
X641169Y1855303D1*
X636951Y1881535D1*
X634416Y1897942D1*
Y1901081D1*
X638512Y1927333D1*
X641169Y1943720D1*
X642139Y1946705D1*
X654146Y1970407D1*
X661739Y1985171D1*
X663583Y1987710D1*
X682327Y2006541D1*
X694109Y2018236D1*
X696648Y2020080D1*
X720294Y2032198D1*
X735114Y2039680D1*
X738098Y2040650D1*
X764331Y2044867D1*
X780738Y2047403D1*
X783877D1*
X810129Y2043307D1*
X826516Y2040650D1*
X829500Y2039680D1*
X853202Y2027673D1*
X867966Y2020080D1*
X870505Y2018236D1*
X889336Y1999492D1*
X901031Y1987710D1*
X902875Y1985171D1*
X914993Y1961525D1*
X922475Y1946705D1*
X923445Y1943720D1*
X924533Y1937241D1*
X921815Y1948136D2*
X923018Y1945232D1*
X923751Y1942180D1*
X930010Y1902664D1*
X1147976Y4490535D2*
X1162332D1*
X1162408Y4511475D1*
X1162899Y4514575D1*
X1163869Y4517559D1*
X1165294Y4520356D1*
X1167138Y4522895D1*
X1169357Y4525114D1*
X1171896Y4526958D1*
X1174693Y4528383D1*
X1177677Y4529353D1*
X1180777Y4529844D1*
X1183916D1*
X1187016Y4529353D1*
X1190000Y4528383D1*
X1192797Y4526958D1*
X1195336Y4525114D1*
X1197555Y4522895D1*
X1199399Y4520356D1*
X1200824Y4517559D1*
X1201794Y4514575D1*
X1202285Y4511475D1*
X1202346Y4490550D1*
X1223286Y4490474D1*
X1226386Y4489983D1*
X1229370Y4489013D1*
X1232167Y4487588D1*
X1234706Y4485744D1*
X1236925Y4483525D1*
X1238769Y4480986D1*
X1240194Y4478189D1*
X1241164Y4475205D1*
X1241655Y4472105D1*
Y4468966D1*
X1241164Y4465866D1*
X1240194Y4462882D1*
X1238769Y4460085D1*
X1236925Y4457546D1*
X1234706Y4455327D1*
X1232167Y4453483D1*
X1229370Y4452058D1*
X1226386Y4451088D1*
X1223286Y4450597D1*
X1202361Y4450535D1*
X1202285Y4429596D1*
X1201794Y4426496D1*
X1200824Y4423512D1*
X1199399Y4420715D1*
X1197555Y4418176D1*
X1195336Y4415957D1*
X1192797Y4414113D1*
X1190000Y4412688D1*
X1187016Y4411718D1*
X1183916Y4411227D1*
X1180777D1*
X1177677Y4411718D1*
X1174693Y4412688D1*
X1171896Y4414113D1*
X1169357Y4415957D1*
X1167138Y4418176D1*
X1165294Y4420715D1*
X1163869Y4423512D1*
X1162899Y4426496D1*
X1162408Y4429596D1*
X1162346Y4450521D1*
X1141407Y4450597D1*
X1138307Y4451088D1*
X1135323Y4452058D1*
X1132526Y4453483D1*
X1129987Y4455327D1*
X1127768Y4457546D1*
X1125924Y4460085D1*
X1124499Y4462882D1*
X1123529Y4465866D1*
X1123038Y4468966D1*
Y4472105D1*
X1123529Y4475205D1*
X1124499Y4478189D1*
X1125924Y4480986D1*
X1127768Y4483525D1*
X1129987Y4485744D1*
X1132526Y4487588D1*
X1135323Y4489013D1*
X1138307Y4489983D1*
X1141407Y4490474D1*
X1147976Y4490535D1*
X920367Y3824816D2*
X1021907Y3824755D1*
X1025007Y3824264D1*
X1027991Y3823294D1*
X1030787Y3821869D1*
X1033327Y3820025D1*
X1035546Y3817806D1*
X1037390Y3815266D1*
X1038815Y3812470D1*
X1039785Y3809486D1*
X1040276Y3806386D1*
X1040337Y3779816D1*
X1040276Y2303404D1*
X1039785Y2300304D1*
X1038815Y2297320D1*
X1037390Y2294524D1*
X1035546Y2291984D1*
X1033327Y2289765D1*
X1030787Y2287921D1*
X1027991Y2286496D1*
X1025007Y2285526D1*
X1021907Y2285035D1*
X995337Y2284974D1*
X918778Y2285035D1*
X915678Y2285526D1*
X912694Y2286496D1*
X909898Y2287921D1*
X907358Y2289765D1*
X905139Y2291984D1*
X903295Y2294524D1*
X901870Y2297320D1*
X900900Y2300304D1*
X900409Y2303404D1*
X900348Y2329974D1*
X900409Y3806386D1*
X900900Y3809486D1*
X901870Y3812470D1*
X903295Y3815266D1*
X905139Y3817806D1*
X907358Y3820025D1*
X909898Y3821869D1*
X912694Y3823294D1*
X915678Y3824264D1*
X918778Y3824755D1*
X920354Y3824816D1*
X544622Y3824365D2*
X646161Y3824303D1*
X649261Y3823812D1*
X652245Y3822843D1*
X655042Y3821417D1*
X657581Y3819573D1*
X659801Y3817354D1*
X661644Y3814815D1*
X663070Y3812018D1*
X664039Y3809034D1*
X664530Y3805934D1*
X664592Y3779365D1*
X664530Y2302953D1*
X664039Y2299853D1*
X663070Y2296869D1*
X661644Y2294072D1*
X659801Y2291533D1*
X657581Y2289314D1*
X655042Y2287470D1*
X652245Y2286045D1*
X649261Y2285075D1*
X646161Y2284584D1*
X619592Y2284522D1*
X543033Y2284584D1*
X539933Y2285075D1*
X536949Y2286045D1*
X534152Y2287470D1*
X531613Y2289314D1*
X529394Y2291533D1*
X527550Y2294072D1*
X526125Y2296869D1*
X525155Y2299853D1*
X524664Y2302953D1*
X524602Y2329522D1*
X524664Y3805934D1*
X525155Y3809034D1*
X526125Y3812018D1*
X527550Y3814815D1*
X529394Y3817354D1*
X531613Y3819573D1*
X534152Y3821417D1*
X536949Y3822843D1*
X539933Y3823812D1*
X543033Y3824303D1*
X544609Y3824365D1*
D23*
X1182067Y954530D3*
X675281Y954610D3*
X674528Y1323210D3*
X1182140Y1323545D3*
X1689295Y1323360D3*
D24*
X1689000Y512058D3*
X689000D3*
D23*
X1689067Y953936D3*
D24*
X689000Y5334892D3*
X1689000D3*
M02*
