G04 DipTrace 3.2.0.1*
G04 uBraidsII_panel.GKO*
%MOIN*%
G04 #@! TF.FileFunction,Profile*
G04 #@! TF.Part,Single*
%ADD11C,0.005512*%
%FSLAX26Y26*%
G04*
G70*
G90*
G75*
G01*
G04 BoardOutline*
%LPD*%
X394000Y5449948D2*
D11*
Y394000D1*
X1984000D1*
X1989000Y5449948D1*
X394000D1*
X477642Y4328980D2*
G03X552642Y4253980I75001J1D01*
G01*
X1812051D1*
G03X1887051Y4328980I-1J75001D01*
G01*
Y4612091D1*
G03X1812051Y4687091I-75001J-1D01*
G01*
X552642D1*
G03X477642Y4612091I1J-75001D01*
G01*
Y4328980D1*
X1440575Y3735535D2*
G02X1440575Y3735535I141732J0D01*
G01*
X1454354Y3165535D2*
G02X1454354Y3165535I127953J0D01*
G01*
Y2529512D2*
G02X1454354Y2529512I127953J0D01*
G01*
Y1899512D2*
G02X1454354Y1899512I127953J0D01*
G01*
X654354D2*
G02X654354Y1899512I127953J0D01*
G01*
X1142976Y4470535D2*
X1221717D1*
X1182346Y4431165D2*
Y4509906D1*
X930929Y3054512D2*
X1009669D1*
X970299Y3015142D2*
Y3093882D1*
X554945Y3054512D2*
X633685D1*
X594315Y3015142D2*
Y3093882D1*
X920348Y3804816D2*
X1020337D1*
Y2304974D1*
X920348D1*
Y3804816D1*
X544602Y3804365D2*
X644592D1*
Y2304522D1*
X544602D1*
Y3804365D1*
M02*
