G04 DipTrace 3.2.0.1*
G04 uBraidsII_panel.GTL*
%MOIN*%
G04 #@! TF.FileFunction,Copper,L1,Top*
G04 #@! TF.Part,Single*
G04 #@! TA.AperFunction,Conductor*
%ADD14C,0.05*%
G04 #@! TA.AperFunction,CopperBalancing*
%ADD15C,0.01*%
G04 #@! TA.AperFunction,Nonconductor*
%ADD16C,0.12*%
%ADD17C,0.11*%
G04 #@! TA.AperFunction,ComponentPad*
%ADD23C,0.334646*%
%ADD24O,0.299213X0.177165*%
%FSLAX26Y26*%
G04*
G70*
G90*
G75*
G01*
G04 Top*
%LPD*%
X777193Y2155807D2*
D14*
X664000Y2269000D1*
X426730Y5228545D2*
D15*
X415714Y5217529D1*
X469156Y5228545D2*
X415714Y5175104D1*
X511583Y5228545D2*
X415714Y5132677D1*
X554009Y5228545D2*
X415714Y5090251D1*
X596434Y5228545D2*
X415714Y5047824D1*
X638861Y5228545D2*
X415714Y5005398D1*
X681287Y5228545D2*
X519984Y5067241D1*
X427765Y4975022D2*
X415714Y4962971D1*
X723714Y5228545D2*
X559898Y5064728D1*
X430278Y4935109D2*
X415714Y4920545D1*
X766140Y5228545D2*
X589508Y5051912D1*
X443094Y4905499D2*
X415714Y4878118D1*
X808567Y5228545D2*
X612406Y5032383D1*
X462623Y4882601D2*
X415714Y4835692D1*
X850993Y5228545D2*
X629075Y5006626D1*
X488366Y4865917D2*
X415714Y4793265D1*
X893420Y5228545D2*
X638080Y4973205D1*
X521802Y4856927D2*
X415714Y4750839D1*
X935846Y5228545D2*
X630940Y4923638D1*
X571369Y4864067D2*
X415714Y4708412D1*
X978273Y5228545D2*
X415714Y4665986D1*
X1020699Y5228545D2*
X415714Y4623560D1*
X1063126Y5228545D2*
X541640Y4707059D1*
X457665Y4623085D2*
X415714Y4581134D1*
X1105552Y5228545D2*
X584798Y4707791D1*
X542408Y4665400D2*
X499324Y4622316D1*
X456933Y4579927D2*
X415714Y4538707D1*
X1147978Y5228545D2*
X627224Y4707791D1*
X585815Y4666381D2*
X498344Y4578909D1*
X456933Y4537500D2*
X415714Y4496281D1*
X1190404Y5228545D2*
X669651Y4707791D1*
X628241Y4666381D2*
X498344Y4536483D1*
X456933Y4495073D2*
X415714Y4453854D1*
X1232831Y5228545D2*
X712077Y4707791D1*
X670668Y4666381D2*
X498344Y4494056D1*
X456933Y4452647D2*
X415714Y4411428D1*
X1275257Y5228545D2*
X754504Y4707791D1*
X713094Y4666381D2*
X498344Y4451631D1*
X456933Y4410220D2*
X415714Y4369001D1*
X1317684Y5228545D2*
X796930Y4707791D1*
X755520Y4666381D2*
X498344Y4409205D1*
X456933Y4367794D2*
X415714Y4326575D1*
X1360110Y5228545D2*
X839357Y4707791D1*
X797946Y4666381D2*
X498344Y4366778D1*
X457071Y4325507D2*
X415714Y4284148D1*
X1402537Y5228545D2*
X881783Y4707791D1*
X840373Y4666381D2*
X498717Y4324724D1*
X464709Y4290717D2*
X415714Y4241722D1*
X1444963Y5228545D2*
X924210Y4707791D1*
X882799Y4666381D2*
X511105Y4294686D1*
X481350Y4264932D2*
X415714Y4199295D1*
X1487390Y5228545D2*
X966635Y4707791D1*
X925226Y4666381D2*
X536378Y4277533D1*
X504690Y4245846D2*
X415714Y4156869D1*
X1529816Y5228545D2*
X1009062Y4707791D1*
X967652Y4666381D2*
X575959Y4274688D1*
X536013Y4234743D2*
X415714Y4114442D1*
X1572243Y5228545D2*
X1051488Y4707791D1*
X1010079Y4666381D2*
X618386Y4274688D1*
X576976Y4233278D2*
X415714Y4072017D1*
X1614669Y5228545D2*
X1093915Y4707791D1*
X1052505Y4666381D2*
X660812Y4274688D1*
X619402Y4233278D2*
X415714Y4029591D1*
X1657096Y5228545D2*
X1136341Y4707791D1*
X1094932Y4666381D2*
X703239Y4274688D1*
X661828Y4233278D2*
X415714Y3987164D1*
X1699521Y5228545D2*
X1178768Y4707791D1*
X1137358Y4666381D2*
X745665Y4274688D1*
X704255Y4233278D2*
X415714Y3944738D1*
X1741948Y5228545D2*
X1221194Y4707791D1*
X1179785Y4666381D2*
X788092Y4274688D1*
X746681Y4233278D2*
X473512Y3960109D1*
X422890Y3909487D2*
X415714Y3902311D1*
X1784375Y5228546D2*
X1263622Y4707793D1*
X1222211Y4666382D2*
X830518Y4274689D1*
X789109Y4233280D2*
X515940Y3960109D1*
X422891Y3867062D2*
X415701Y3859871D1*
X1826802Y5228546D2*
X1306049Y4707793D1*
X1264638Y4666382D2*
X872945Y4274689D1*
X831535Y4233280D2*
X558366Y3960109D1*
X422891Y3824635D2*
X415701Y3817445D1*
X1869228Y5228546D2*
X1348475Y4707793D1*
X1307064Y4666382D2*
X915371Y4274689D1*
X873962Y4233280D2*
X600791Y3960109D1*
X422891Y3782209D2*
X415701Y3775018D1*
X1911655Y5228546D2*
X1390900Y4707793D1*
X1349491Y4666382D2*
X1201487Y4518379D1*
X1134500Y4451391D2*
X957798Y4274689D1*
X916388Y4233280D2*
X643218Y3960109D1*
X422891Y3739782D2*
X415701Y3732592D1*
X1954081Y5228546D2*
X1777793Y5052259D1*
X1742612Y5017076D2*
X1433327Y4707793D1*
X1391917Y4666382D2*
X1216776Y4491240D1*
X1161638Y4436102D2*
X1000224Y4274689D1*
X958815Y4233280D2*
X685644Y3960109D1*
X422891Y3697356D2*
X415701Y3690165D1*
X1967050Y5199088D2*
X1836033Y5068071D1*
X1726799Y4958837D2*
X1475753Y4707793D1*
X1434344Y4666382D2*
X1242201Y4474240D1*
X1217793Y4449831D2*
X1203049Y4435087D1*
X1178639Y4410677D2*
X1042651Y4274689D1*
X1001241Y4233280D2*
X728071Y3960109D1*
X422891Y3654929D2*
X415701Y3647740D1*
X1967008Y5156619D2*
X1871361Y5060972D1*
X1733898Y4923509D2*
X1518180Y4707793D1*
X1476770Y4666382D2*
X1085077Y4274689D1*
X1043667Y4233280D2*
X770497Y3960109D1*
X422891Y3612503D2*
X415701Y3605314D1*
X1966966Y5114152D2*
X1898374Y5045560D1*
X1749310Y4896496D2*
X1560606Y4707793D1*
X1519197Y4666382D2*
X1127504Y4274689D1*
X1086093Y4233280D2*
X812924Y3960109D1*
X422891Y3570076D2*
X415701Y3562887D1*
X1966925Y5071684D2*
X1919049Y5023808D1*
X1771062Y4875822D2*
X1603033Y4707793D1*
X1561623Y4666382D2*
X1169930Y4274689D1*
X1128520Y4233280D2*
X855350Y3960109D1*
X422891Y3527650D2*
X415701Y3520461D1*
X1966883Y5029217D2*
X1933247Y4995579D1*
X1799277Y4861610D2*
X1645459Y4707793D1*
X1604050Y4666382D2*
X1212357Y4274689D1*
X1170946Y4233280D2*
X897777Y3960109D1*
X422891Y3485224D2*
X415701Y3478034D1*
X1966843Y4986748D2*
X1938328Y4958235D1*
X1836635Y4856542D2*
X1687886Y4707793D1*
X1646476Y4666382D2*
X1254783Y4274689D1*
X1213373Y4233280D2*
X940203Y3960109D1*
X422891Y3442798D2*
X415701Y3435608D1*
X1966787Y4944266D2*
X1730312Y4707793D1*
X1688902Y4666382D2*
X1297209Y4274689D1*
X1255799Y4233280D2*
X982630Y3960109D1*
X422891Y3400371D2*
X415701Y3393181D1*
X1966745Y4901799D2*
X1772739Y4707793D1*
X1731328Y4666382D2*
X1339635Y4274689D1*
X1298226Y4233280D2*
X1025056Y3960109D1*
X422891Y3357945D2*
X415701Y3350755D1*
X1966703Y4859331D2*
X1815068Y4707696D1*
X1773755Y4666382D2*
X1382062Y4274689D1*
X1340652Y4233280D2*
X1067483Y3960109D1*
X422891Y3315518D2*
X415701Y3308328D1*
X1966663Y4816864D2*
X1849982Y4700182D1*
X1815850Y4666051D2*
X1424488Y4274689D1*
X1383079Y4233280D2*
X1109908Y3960109D1*
X422891Y3273092D2*
X415701Y3265902D1*
X1966621Y4774395D2*
X1875849Y4683623D1*
X1846081Y4653856D2*
X1466915Y4274689D1*
X1425505Y4233280D2*
X1130114Y3937888D1*
X422891Y3230665D2*
X415701Y3223475D1*
X1966580Y4731928D2*
X1895004Y4660353D1*
X1863373Y4628720D2*
X1509341Y4274689D1*
X1467932Y4233280D2*
X1130114Y3895462D1*
X422891Y3188239D2*
X415701Y3181049D1*
X1966538Y4689459D2*
X1906205Y4629126D1*
X1866341Y4589264D2*
X1551768Y4274689D1*
X1510358Y4233280D2*
X1130114Y3853035D1*
X422891Y3145812D2*
X415701Y3138623D1*
X1966497Y4646992D2*
X1907752Y4588247D1*
X1866341Y4546837D2*
X1594194Y4274689D1*
X1552785Y4233280D2*
X1130114Y3810609D1*
X422891Y3103386D2*
X415701Y3096197D1*
X1966455Y4604524D2*
X1907752Y4545820D1*
X1866341Y4504411D2*
X1636621Y4274689D1*
X1595210Y4233280D2*
X1130114Y3768182D1*
X422891Y3060959D2*
X415701Y3053770D1*
X1966413Y4562056D2*
X1907752Y4503394D1*
X1866341Y4461984D2*
X1679047Y4274689D1*
X1637636Y4233280D2*
X1130114Y3725756D1*
X422891Y3018533D2*
X415701Y3011344D1*
X1966373Y4519588D2*
X1907752Y4460967D1*
X1866341Y4419558D2*
X1721474Y4274689D1*
X1680063Y4233280D2*
X1439597Y3992814D1*
X1326234Y3879450D2*
X1130114Y3683329D1*
X422891Y2976106D2*
X415701Y2968917D1*
X1966331Y4477121D2*
X1907752Y4418541D1*
X1866341Y4377131D2*
X1763900Y4274689D1*
X1722490Y4233280D2*
X1511648Y4022437D1*
X1296610Y3807399D2*
X1130114Y3640903D1*
X422891Y2933681D2*
X415701Y2926491D1*
X1966290Y4434652D2*
X1907752Y4376115D1*
X1866341Y4334705D2*
X1806325Y4274689D1*
X1764916Y4233280D2*
X1562056Y4030420D1*
X1288627Y3756991D2*
X1130114Y3598476D1*
X422891Y2891255D2*
X415701Y2884064D1*
X1966248Y4392185D2*
X1907752Y4333689D1*
X1807343Y4233280D2*
X1604413Y4030350D1*
X1288697Y3714633D2*
X1130114Y3556050D1*
X422891Y2848828D2*
X415701Y2841638D1*
X1966207Y4349717D2*
X1887035Y4270546D1*
X1870486Y4253995D2*
X1641026Y4024537D1*
X1294497Y3678007D2*
X1130114Y3513625D1*
X422891Y2806402D2*
X415701Y2799211D1*
X1966165Y4307249D2*
X1676533Y4017617D1*
X1301416Y3642500D2*
X1130114Y3471198D1*
X422891Y2763975D2*
X415701Y2756785D1*
X1966123Y4264781D2*
X1705038Y4003696D1*
X1315350Y3614008D2*
X1130114Y3428772D1*
X422891Y2721549D2*
X415701Y2714358D1*
X1966083Y4222314D2*
X1733143Y3989374D1*
X1329659Y3585890D2*
X1130114Y3386345D1*
X422891Y2679122D2*
X415701Y2671932D1*
X1966041Y4179845D2*
X1760018Y3973824D1*
X1345223Y3559028D2*
X1130114Y3343919D1*
X422891Y2636696D2*
X415701Y2629505D1*
X1966000Y4137378D2*
X1781467Y3952845D1*
X1366202Y3537580D2*
X1130114Y3301492D1*
X422891Y2594269D2*
X415701Y2587080D1*
X1965958Y4094909D2*
X1802680Y3931633D1*
X1387415Y3516367D2*
X1130114Y3259066D1*
X422891Y2551843D2*
X415701Y2544654D1*
X1965917Y4052442D2*
X1823051Y3909576D1*
X1409471Y3495996D2*
X1130114Y3216639D1*
X422891Y2509416D2*
X415701Y2502227D1*
X1965875Y4009974D2*
X1837815Y3881913D1*
X1437119Y3481219D2*
X1130114Y3174213D1*
X422891Y2466990D2*
X415701Y2459801D1*
X1965833Y3967507D2*
X1852136Y3853808D1*
X1465224Y3466898D2*
X1409504Y3411176D1*
X1336675Y3338348D2*
X1130114Y3131786D1*
X422891Y2424563D2*
X415701Y2417374D1*
X1965778Y3925025D2*
X1865188Y3824433D1*
X1295063Y3254310D2*
X1130114Y3089360D1*
X422891Y2382138D2*
X415701Y2374948D1*
X1965738Y3882556D2*
X1871264Y3788084D1*
X1286514Y3203335D2*
X1130114Y3046933D1*
X422891Y2339711D2*
X415701Y2332521D1*
X1965696Y3840089D2*
X1877064Y3751458D1*
X1281819Y3156213D2*
X1130114Y3004507D1*
X422891Y2297285D2*
X415701Y2290094D1*
X1965655Y3797621D2*
X1874344Y3706311D1*
X1287550Y3119517D2*
X1130114Y2962081D1*
X422891Y2254858D2*
X415701Y2247668D1*
X1965613Y3755154D2*
X1866361Y3655902D1*
X1293350Y3082891D2*
X1130114Y2919655D1*
X438360Y2227899D2*
X415701Y2205241D1*
X1965572Y3712686D2*
X1829445Y3576559D1*
X1742474Y3489588D2*
X1695702Y3442816D1*
X1305049Y3052163D2*
X1130114Y2877228D1*
X480785Y2227899D2*
X415701Y2162815D1*
X1965530Y3670218D2*
X1723807Y3428495D1*
X1319370Y3024058D2*
X1130114Y2834802D1*
X523211Y2227899D2*
X415701Y2120388D1*
X1965488Y3627751D2*
X1751885Y3414146D1*
X1333719Y2995980D2*
X1130114Y2792375D1*
X565638Y2227899D2*
X415701Y2077962D1*
X1965448Y3585282D2*
X1775169Y3395004D1*
X1352846Y2972682D2*
X1130114Y2749949D1*
X608064Y2227899D2*
X415701Y2035537D1*
X1965406Y3542815D2*
X1796382Y3373791D1*
X1374060Y2951469D2*
X1130114Y2707522D1*
X648516Y2225925D2*
X415701Y1993110D1*
X1965365Y3500346D2*
X1817596Y3352577D1*
X1395273Y2930256D2*
X1130114Y2665096D1*
X669730Y2204711D2*
X611592Y2146573D1*
X535020Y2070003D2*
X415701Y1950684D1*
X1965323Y3457879D2*
X1834955Y3327512D1*
X1420340Y2912895D2*
X1130114Y2622669D1*
X494555Y1987110D2*
X415701Y1908257D1*
X1965282Y3415411D2*
X1849277Y3299407D1*
X1440794Y2890923D2*
X1130114Y2580243D1*
X777770Y2227899D2*
X770705Y2220835D1*
X486144Y1936273D2*
X415701Y1865831D1*
X1965240Y3372944D2*
X1863598Y3271302D1*
X1437659Y2845361D2*
X1130114Y2537816D1*
X820197Y2227899D2*
X792207Y2199911D1*
X481697Y1889400D2*
X415701Y1823404D1*
X1965198Y3330475D2*
X1873046Y3238322D1*
X1434509Y2799786D2*
X1412612Y2777887D1*
X1333581Y2698857D2*
X1130114Y2495390D1*
X862623Y2227899D2*
X828861Y2194138D1*
X487455Y1852732D2*
X415701Y1780978D1*
X1965157Y3288008D2*
X1878846Y3201696D1*
X1293806Y2616656D2*
X1130114Y2452965D1*
X905050Y2227899D2*
X865487Y2188337D1*
X493270Y1816121D2*
X415701Y1738551D1*
X1965115Y3245539D2*
X1883514Y3163938D1*
X1285492Y2565916D2*
X1130114Y2410538D1*
X947476Y2227899D2*
X896050Y2176474D1*
X505119Y1785543D2*
X415701Y1696125D1*
X1965075Y3203072D2*
X1876277Y3114274D1*
X1281239Y2519236D2*
X1130114Y2368112D1*
X989903Y2227899D2*
X924155Y2162152D1*
X519441Y1757438D2*
X415701Y1653698D1*
X1965033Y3160604D2*
X1861735Y3057306D1*
X1287012Y2482583D2*
X1130114Y2325685D1*
X1032328Y2227899D2*
X952218Y2147789D1*
X533819Y1729390D2*
X415701Y1611272D1*
X1964992Y3118136D2*
X1715991Y2869135D1*
X1292840Y2445984D2*
X1130114Y2283259D1*
X1074755Y2227899D2*
X975392Y2128537D1*
X553071Y1706215D2*
X415701Y1568845D1*
X1964950Y3075668D2*
X1719361Y2830079D1*
X1304799Y2415517D2*
X1129409Y2240127D1*
X1117871Y2228591D2*
X996606Y2107324D1*
X574283Y1685001D2*
X415701Y1526419D1*
X1964908Y3033201D2*
X1724056Y2792348D1*
X1319121Y2387413D2*
X1017819Y2086110D1*
X595497Y1663789D2*
X415701Y1483993D1*
X1964867Y2990732D2*
X1752092Y2777957D1*
X1333512Y2359377D2*
X1035041Y2060907D1*
X619486Y1645352D2*
X415701Y1441567D1*
X1964825Y2948265D2*
X1775182Y2758622D1*
X1352846Y2336286D2*
X1049362Y2032802D1*
X617180Y1600618D2*
X415701Y1399140D1*
X1964785Y2905797D2*
X1796396Y2737408D1*
X1374060Y2315072D2*
X1063671Y2004684D1*
X614873Y1555886D2*
X415701Y1356714D1*
X1964730Y2863315D2*
X1817609Y2716196D1*
X1395273Y2293860D2*
X1072966Y1971551D1*
X626253Y1524840D2*
X583156Y1481741D1*
X515988Y1414575D2*
X415701Y1314287D1*
X1964688Y2820848D2*
X1834720Y2690881D1*
X1396793Y2252953D2*
X1078765Y1934925D1*
X668335Y1524493D2*
X648521Y1504681D1*
X493063Y1349223D2*
X415701Y1271861D1*
X1964646Y2778379D2*
X1849042Y2662776D1*
X1393657Y2207391D2*
X1083282Y1897014D1*
X710761Y1524493D2*
X692122Y1505856D1*
X491875Y1305609D2*
X415701Y1229434D1*
X1964605Y2735912D2*
X1863365Y2634671D1*
X1390509Y2161815D2*
X1075907Y1847214D1*
X753188Y1524493D2*
X727656Y1498963D1*
X498781Y1270088D2*
X415701Y1187008D1*
X1964563Y2693444D2*
X1872521Y2601402D1*
X1335612Y2064492D2*
X1060660Y1789541D1*
X795614Y1524493D2*
X757958Y1486837D1*
X510892Y1239773D2*
X415701Y1144581D1*
X1964522Y2650976D2*
X1878322Y2564776D1*
X1296900Y1983354D2*
X943297Y1629751D1*
X838041Y1524493D2*
X784171Y1470625D1*
X527121Y1213575D2*
X415701Y1102155D1*
X1964480Y2608508D2*
X1882713Y2526740D1*
X1288738Y1932765D2*
X945727Y1589755D1*
X880466Y1524493D2*
X806751Y1450778D1*
X546966Y1190993D2*
X415701Y1059728D1*
X1964440Y2566041D2*
X1875255Y2476857D1*
X1284843Y1886445D2*
X948172Y1549773D1*
X922907Y1524508D2*
X825823Y1427424D1*
X570320Y1171921D2*
X415701Y1017302D1*
X1964398Y2523572D2*
X1859470Y2418644D1*
X1290630Y1849804D2*
X841194Y1400369D1*
X597361Y1156537D2*
X415701Y974875D1*
X1964356Y2481105D2*
X1766496Y2283244D1*
X1296486Y1813234D2*
X852298Y1369046D1*
X628698Y1145446D2*
X608291Y1125039D1*
X504857Y1021606D2*
X415701Y932450D1*
X1964315Y2438636D2*
X1769866Y2244188D1*
X1308667Y1782988D2*
X857781Y1332102D1*
X665642Y1139963D2*
X663278Y1137600D1*
X492290Y966612D2*
X415701Y890024D1*
X1964273Y2396169D2*
X1773236Y2205131D1*
X1322988Y1754883D2*
X853942Y1285837D1*
X711894Y1143789D2*
X703986Y1135881D1*
X494003Y925898D2*
X415701Y847597D1*
X1964232Y2353701D2*
X1776605Y2166075D1*
X1337407Y1726875D2*
X1095007Y1484476D1*
X1021211Y1410680D2*
X845642Y1235110D1*
X747898Y1137367D2*
X737794Y1127262D1*
X502619Y892089D2*
X415701Y805171D1*
X1964190Y2311234D2*
X1779962Y2127004D1*
X1356894Y1703936D2*
X1158274Y1505316D1*
X1000371Y1347413D2*
X888068Y1235110D1*
X516030Y863073D2*
X415701Y762744D1*
X1964150Y2268765D2*
X1800442Y2105059D1*
X1355941Y1660556D2*
X1201419Y1506034D1*
X999652Y1304269D2*
X930495Y1235110D1*
X533349Y837965D2*
X415701Y720318D1*
X1964108Y2226298D2*
X1821642Y2083832D1*
X1352806Y1614996D2*
X1236677Y1498867D1*
X1006820Y1269010D2*
X972921Y1235110D1*
X815709Y1077898D2*
X813470Y1075659D1*
X554217Y816407D2*
X415701Y677891D1*
X1964066Y2183829D2*
X1838573Y2058337D1*
X1349656Y1569420D2*
X1266785Y1486547D1*
X1019139Y1238903D2*
X1015345Y1235109D1*
X858135Y1077898D2*
X831499Y1051262D1*
X578634Y798398D2*
X440340Y660102D1*
X1964025Y2141362D2*
X1852896Y2030232D1*
X1353814Y1531151D2*
X1292831Y1470168D1*
X900560Y1077898D2*
X845697Y1023034D1*
X606849Y784186D2*
X482766Y660102D1*
X1963983Y2098894D2*
X1867218Y2002129D1*
X1392980Y1527891D2*
X1315260Y1450171D1*
X942987Y1077898D2*
X855336Y990247D1*
X639635Y774546D2*
X525192Y660102D1*
X1963942Y2056427D2*
X1876139Y1968623D1*
X1435407Y1527891D2*
X1334180Y1426665D1*
X985413Y1077898D2*
X858665Y951150D1*
X678748Y771232D2*
X567618Y660102D1*
X1963900Y2013958D2*
X1881940Y1931997D1*
X1477833Y1527891D2*
X1349386Y1399444D1*
X1027840Y1077898D2*
X850227Y900285D1*
X729613Y779671D2*
X610045Y660102D1*
X1963860Y1971491D2*
X1886110Y1893741D1*
X1520260Y1527891D2*
X1360282Y1367915D1*
X1010218Y1017849D2*
X852478Y860109D1*
X747898Y755529D2*
X652471Y660102D1*
X1963818Y1929022D2*
X1878501Y1843706D1*
X1562686Y1527891D2*
X1365462Y1330667D1*
X998934Y964139D2*
X894904Y860109D1*
X748575Y713780D2*
X694898Y660102D1*
X1963776Y1886555D2*
X1861707Y1784486D1*
X1605113Y1527891D2*
X1361042Y1283822D1*
X1001102Y923882D2*
X937331Y860109D1*
X780118Y702896D2*
X737324Y660102D1*
X1963720Y1844073D2*
X1817001Y1697354D1*
X1647539Y1527891D2*
X1605961Y1486314D1*
X1526337Y1406689D2*
X1354759Y1235110D1*
X1010010Y890364D2*
X979757Y860109D1*
X822545Y702896D2*
X779751Y660102D1*
X1963680Y1801605D2*
X1820371Y1658298D1*
X1689966Y1527891D2*
X1667474Y1505399D1*
X1507264Y1345190D2*
X1397185Y1235110D1*
X864971Y702896D2*
X822177Y660102D1*
X1963638Y1759138D2*
X1823741Y1619241D1*
X1732392Y1527891D2*
X1710176Y1505676D1*
X1506988Y1302487D2*
X1439612Y1235110D1*
X907398Y702896D2*
X864604Y660102D1*
X1963597Y1716669D2*
X1827112Y1580184D1*
X1774819Y1527891D2*
X1745186Y1498260D1*
X1514391Y1267463D2*
X1482038Y1235110D1*
X1324825Y1077898D2*
X1321308Y1074382D1*
X949824Y702896D2*
X907030Y660102D1*
X1963555Y1674202D2*
X1829377Y1540022D1*
X1817976Y1528623D2*
X1775114Y1485761D1*
X1526903Y1237550D2*
X1524459Y1235106D1*
X1367252Y1077898D2*
X1339138Y1049785D1*
X992251Y702896D2*
X949457Y660102D1*
X1963513Y1631734D2*
X1800995Y1469215D1*
X1409678Y1077898D2*
X1353115Y1021335D1*
X1034676Y702896D2*
X991883Y660102D1*
X1963472Y1589266D2*
X1823272Y1449066D1*
X1452104Y1077898D2*
X1362479Y988273D1*
X1077102Y702896D2*
X1034310Y660102D1*
X1963430Y1546798D2*
X1842041Y1425408D1*
X1494530Y1077898D2*
X1365379Y948747D1*
X1119529Y702896D2*
X1076735Y660102D1*
X1963390Y1504331D2*
X1857080Y1398021D1*
X1536957Y1077898D2*
X1355919Y896860D1*
X1161955Y702896D2*
X1119161Y660102D1*
X1963348Y1461862D2*
X1867783Y1366298D1*
X1516337Y1014853D2*
X1361594Y860109D1*
X1204382Y702896D2*
X1161588Y660102D1*
X1963307Y1419395D2*
X1872659Y1328747D1*
X1505841Y961930D2*
X1404021Y860109D1*
X1246808Y702896D2*
X1204014Y660102D1*
X1963265Y1376927D2*
X1867659Y1281322D1*
X1508328Y921990D2*
X1446448Y860109D1*
X1289235Y702896D2*
X1246441Y660102D1*
X1963223Y1334459D2*
X1863875Y1235110D1*
X1517429Y888664D2*
X1488874Y860109D1*
X1331661Y702896D2*
X1288867Y660102D1*
X1963182Y1291991D2*
X1906302Y1235110D1*
X1374088Y702896D2*
X1331294Y660102D1*
X1963140Y1249524D2*
X1948728Y1235110D1*
X1416514Y702896D2*
X1373720Y660102D1*
X1833942Y1077898D2*
X1829017Y1072974D1*
X1458941Y702896D2*
X1416147Y660102D1*
X1876369Y1077898D2*
X1846709Y1048239D1*
X1501367Y702896D2*
X1458573Y660102D1*
X1918795Y1077898D2*
X1860547Y1019650D1*
X1543794Y702896D2*
X1501000Y660102D1*
X1961222Y1077898D2*
X1869717Y986394D1*
X1586219Y702896D2*
X1543427Y660102D1*
X1962933Y1037184D2*
X1872314Y946564D1*
X1628646Y702896D2*
X1585853Y660102D1*
X1962892Y994717D2*
X1862121Y893945D1*
X1671072Y702896D2*
X1628278Y660102D1*
X1962850Y952248D2*
X1870711Y860109D1*
X1713499Y702896D2*
X1670705Y660102D1*
X1962810Y909781D2*
X1913138Y860109D1*
X1755925Y702896D2*
X1713131Y660102D1*
X1962768Y867312D2*
X1955564Y860109D1*
X1798352Y702896D2*
X1755558Y660102D1*
X1840778Y702896D2*
X1797984Y660102D1*
X1883205Y702896D2*
X1840411Y660102D1*
X1925631Y702896D2*
X1882837Y660102D1*
X1962588Y697428D2*
X1925264Y660102D1*
X1956255Y5228545D2*
X1967063Y5217736D1*
X1913828Y5228545D2*
X1967021Y5175352D1*
X1871402Y5228545D2*
X1966980Y5132967D1*
X1828975Y5228545D2*
X1966938Y5090581D1*
X1786550Y5228545D2*
X1966898Y5048197D1*
X1744123Y5228545D2*
X1966856Y5005812D1*
X1701697Y5228545D2*
X1868841Y5061400D1*
X1931727Y4998514D2*
X1966815Y4963427D1*
X1659270Y5228545D2*
X1820339Y5067476D1*
X1937803Y4950010D2*
X1966773Y4921042D1*
X1616844Y5228545D2*
X1787234Y5058155D1*
X1928482Y4916907D2*
X1966731Y4878657D1*
X1574417Y5228545D2*
X1761713Y5041249D1*
X1911577Y4891385D2*
X1966690Y4836272D1*
X1531991Y5228545D2*
X1742391Y5018144D1*
X1888472Y4872063D2*
X1966648Y4793887D1*
X1489564Y5228545D2*
X1729850Y4988259D1*
X1858585Y4859524D2*
X1966608Y4751501D1*
X1447138Y5228545D2*
X1727862Y4947820D1*
X1818148Y4857535D2*
X1966566Y4709117D1*
X1404711Y5228545D2*
X1966525Y4666732D1*
X1362285Y5228545D2*
X1966470Y4624361D1*
X1319858Y5228545D2*
X1847932Y4700471D1*
X1900432Y4647971D2*
X1966428Y4581976D1*
X1277432Y5228545D2*
X1798186Y4707791D1*
X1907752Y4598226D2*
X1966386Y4539591D1*
X1235007Y5228545D2*
X1755760Y4707791D1*
X1797169Y4666381D2*
X1866341Y4597209D1*
X1907752Y4555799D2*
X1966345Y4497206D1*
X1192580Y5228545D2*
X1713333Y4707791D1*
X1754743Y4666381D2*
X1866341Y4554782D1*
X1907752Y4513373D2*
X1966303Y4454822D1*
X1150154Y5228545D2*
X1670907Y4707791D1*
X1712316Y4666381D2*
X1866341Y4512356D1*
X1907752Y4470946D2*
X1966262Y4412436D1*
X1107727Y5228545D2*
X1628480Y4707791D1*
X1669890Y4666381D2*
X1866341Y4469930D1*
X1907752Y4428520D2*
X1966220Y4370051D1*
X1065301Y5228545D2*
X1586054Y4707791D1*
X1627465Y4666381D2*
X1866341Y4427504D1*
X1907752Y4386093D2*
X1966180Y4327665D1*
X1022874Y5228545D2*
X1543627Y4707791D1*
X1585038Y4666381D2*
X1866341Y4385077D1*
X1907752Y4343667D2*
X1966138Y4285281D1*
X980448Y5228545D2*
X1501201Y4707791D1*
X1542612Y4666381D2*
X1866341Y4342651D1*
X1904672Y4304320D2*
X1966096Y4242896D1*
X938021Y5228545D2*
X1458774Y4707791D1*
X1500185Y4666381D2*
X1860720Y4305845D1*
X1891358Y4275207D2*
X1966055Y4200510D1*
X895594Y5228545D2*
X1416349Y4707791D1*
X1457759Y4666381D2*
X1840751Y4283388D1*
X1870946Y4253193D2*
X1966013Y4158126D1*
X853168Y5228545D2*
X1373923Y4707791D1*
X1415332Y4666381D2*
X1807025Y4274688D1*
X1843241Y4238471D2*
X1965972Y4115741D1*
X810741Y5228545D2*
X1331496Y4707791D1*
X1372906Y4666381D2*
X1764598Y4274688D1*
X1806008Y4233278D2*
X1965930Y4073356D1*
X768315Y5228545D2*
X1289070Y4707791D1*
X1330479Y4666381D2*
X1722172Y4274688D1*
X1763583Y4233278D2*
X1965890Y4030971D1*
X725888Y5228545D2*
X1246643Y4707791D1*
X1288052Y4666381D2*
X1679745Y4274688D1*
X1721156Y4233278D2*
X1965848Y3988587D1*
X683463Y5228545D2*
X1204217Y4707791D1*
X1245626Y4666381D2*
X1637319Y4274688D1*
X1678730Y4233278D2*
X1965806Y3946201D1*
X641037Y5228545D2*
X1161790Y4707791D1*
X1203199Y4666381D2*
X1594892Y4274688D1*
X1636303Y4233278D2*
X1965765Y3903816D1*
X598609Y5228546D2*
X1119362Y4707793D1*
X1160773Y4666382D2*
X1552466Y4274689D1*
X1593875Y4233280D2*
X1965723Y3861432D1*
X556182Y5228546D2*
X1076936Y4707793D1*
X1118346Y4666382D2*
X1510039Y4274689D1*
X1551449Y4233280D2*
X1965681Y3819047D1*
X513756Y5228546D2*
X1034509Y4707793D1*
X1075920Y4666382D2*
X1467613Y4274689D1*
X1509022Y4233280D2*
X1965639Y3776663D1*
X471329Y5228546D2*
X992084Y4707793D1*
X1033493Y4666382D2*
X1171829Y4528046D1*
X1203047Y4496828D2*
X1208635Y4491240D1*
X1239853Y4460024D2*
X1425186Y4274689D1*
X1466596Y4233280D2*
X1688432Y4011444D1*
X1856983Y3842892D2*
X1965598Y3734277D1*
X428903Y5228546D2*
X949657Y4707793D1*
X991067Y4666382D2*
X1161636Y4495812D1*
X1207618Y4449831D2*
X1382760Y4274689D1*
X1424169Y4233280D2*
X1631642Y4025807D1*
X1871346Y3786104D2*
X1965556Y3691892D1*
X415714Y5199308D2*
X548154Y5066870D1*
X637333Y4977689D2*
X907231Y4707793D1*
X948640Y4666382D2*
X1128906Y4486117D1*
X1197937Y4417085D2*
X1340333Y4274689D1*
X1381743Y4233280D2*
X1582172Y4032850D1*
X1878403Y3736619D2*
X1965516Y3649508D1*
X415714Y5156882D2*
X507411Y5065185D1*
X635650Y4936948D2*
X864804Y4707793D1*
X906214Y4666382D2*
X1297907Y4274689D1*
X1339318Y4233280D2*
X1544703Y4027892D1*
X1873445Y3699151D2*
X1965474Y3607122D1*
X415714Y5114455D2*
X477387Y5052783D1*
X623261Y4906909D2*
X822378Y4707793D1*
X863787Y4666382D2*
X1255480Y4274689D1*
X1296891Y4233280D2*
X1508077Y4022092D1*
X1867631Y3662539D2*
X1965433Y3564738D1*
X415714Y5072029D2*
X454143Y5033600D1*
X604064Y4883680D2*
X779951Y4707793D1*
X821361Y4666382D2*
X1213054Y4274689D1*
X1254465Y4233280D2*
X1475774Y4011969D1*
X1857508Y3630236D2*
X1965391Y3522353D1*
X415714Y5029604D2*
X437115Y5008202D1*
X578667Y4866651D2*
X737525Y4707793D1*
X778934Y4666382D2*
X1170627Y4274689D1*
X1212038Y4233280D2*
X1447671Y3997647D1*
X1843199Y3602117D2*
X1965349Y3479967D1*
X415714Y4987177D2*
X427613Y4975277D1*
X545741Y4857150D2*
X695098Y4707793D1*
X736508Y4666382D2*
X1128201Y4274689D1*
X1169612Y4233280D2*
X1419566Y3983325D1*
X1828878Y3574013D2*
X1965308Y3437583D1*
X415714Y4944751D2*
X433123Y4927340D1*
X497804Y4862660D2*
X652672Y4707793D1*
X694083Y4666382D2*
X1085776Y4274689D1*
X1127185Y4233280D2*
X1395383Y3965081D1*
X1810634Y3549831D2*
X1965266Y3395198D1*
X415714Y4902324D2*
X610245Y4707793D1*
X651656Y4666382D2*
X1043349Y4274689D1*
X1084759Y4233280D2*
X1374169Y3943869D1*
X1789421Y3528617D2*
X1965211Y3352827D1*
X415714Y4859898D2*
X567819Y4707793D1*
X609230Y4666382D2*
X1000923Y4274689D1*
X1042332Y4233280D2*
X1352957Y3922655D1*
X1768207Y3507404D2*
X1965171Y3310441D1*
X415714Y4817471D2*
X528377Y4704808D1*
X566803Y4666382D2*
X958496Y4274689D1*
X999906Y4233280D2*
X1335045Y3898140D1*
X1743694Y3489491D2*
X1965129Y3268056D1*
X415714Y4775045D2*
X499167Y4691592D1*
X529832Y4660927D2*
X916070Y4274689D1*
X957479Y4233280D2*
X1320722Y3870037D1*
X1715589Y3475169D2*
X1965087Y3225672D1*
X415714Y4732618D2*
X477070Y4671262D1*
X507238Y4641094D2*
X873643Y4274689D1*
X915052Y4233280D2*
X1306400Y3841932D1*
X1687484Y3460848D2*
X1717185Y3431147D1*
X1848157Y3300175D2*
X1965046Y3183286D1*
X415714Y4690192D2*
X462251Y4643655D1*
X498344Y4607563D2*
X831217Y4274689D1*
X872626Y4233280D2*
X1296678Y3809228D1*
X1873818Y3232088D2*
X1965004Y3140902D1*
X415714Y4647765D2*
X456933Y4606546D1*
X498344Y4565136D2*
X788790Y4274689D1*
X830199Y4233280D2*
X1103370Y3960109D1*
X1130113Y3933366D2*
X1290878Y3772602D1*
X1881801Y3181678D2*
X1964963Y3098517D1*
X415714Y4605339D2*
X456933Y4564119D1*
X498344Y4522710D2*
X746364Y4274689D1*
X787774Y4233280D2*
X1060944Y3960109D1*
X1130113Y3890940D2*
X1286238Y3734816D1*
X1880640Y3140412D2*
X1964921Y3056131D1*
X415714Y4562912D2*
X456933Y4521693D1*
X498344Y4480283D2*
X703937Y4274689D1*
X745348Y4233280D2*
X1018517Y3960109D1*
X1130113Y3848513D2*
X1293612Y3685014D1*
X1874840Y3103786D2*
X1964881Y3013747D1*
X415714Y4520486D2*
X456933Y4479266D1*
X498344Y4437857D2*
X661510Y4274689D1*
X702921Y4233280D2*
X976091Y3960109D1*
X1130113Y3806088D2*
X1309688Y3626513D1*
X1472051Y3464148D2*
X1485552Y3450647D1*
X1867672Y3068528D2*
X1964839Y2971362D1*
X415714Y4478060D2*
X456933Y4436840D1*
X498344Y4395430D2*
X619084Y4274689D1*
X660495Y4233280D2*
X933664Y3960109D1*
X1130113Y3763661D2*
X1457102Y3436671D1*
X1853682Y3040092D2*
X1964797Y2928976D1*
X415714Y4435634D2*
X456933Y4394413D1*
X498344Y4353004D2*
X576659Y4274689D1*
X618068Y4233280D2*
X891238Y3960109D1*
X1130113Y3721235D2*
X1428997Y3422349D1*
X1839361Y3011987D2*
X1964756Y2886592D1*
X415714Y4393207D2*
X456933Y4351988D1*
X503453Y4305467D2*
X529135Y4279785D1*
X575642Y4233280D2*
X848811Y3960109D1*
X1130113Y3678808D2*
X1402109Y3406812D1*
X1823837Y2985084D2*
X1964714Y2844206D1*
X415714Y4350781D2*
X459820Y4306675D1*
X530343Y4236152D2*
X806385Y3960109D1*
X1130113Y3636382D2*
X1380592Y3385903D1*
X1802928Y2963567D2*
X1964673Y2801822D1*
X415714Y4308354D2*
X763958Y3960109D1*
X1130113Y3593955D2*
X1359378Y3364690D1*
X1781714Y2942353D2*
X1964631Y2759437D1*
X415714Y4265928D2*
X721533Y3960109D1*
X1130113Y3551529D2*
X1338801Y3342841D1*
X1759852Y2921790D2*
X1964591Y2717051D1*
X415714Y4223501D2*
X679106Y3960109D1*
X1130113Y3509102D2*
X1323774Y3315441D1*
X1732466Y2906749D2*
X1964549Y2674667D1*
X415714Y4181075D2*
X636680Y3960109D1*
X1130113Y3466676D2*
X1309453Y3287336D1*
X1714760Y2882029D2*
X1964507Y2632282D1*
X415714Y4138648D2*
X594253Y3960109D1*
X1130113Y3424249D2*
X1295877Y3258486D1*
X1718752Y2835610D2*
X1964466Y2589896D1*
X415714Y4096222D2*
X551827Y3960109D1*
X1130113Y3381823D2*
X1289331Y3222605D1*
X1847440Y2664496D2*
X1964424Y2547512D1*
X415714Y4053795D2*
X509400Y3960109D1*
X1130113Y3339396D2*
X1283530Y3185979D1*
X1873072Y2596437D2*
X1964383Y2505127D1*
X415714Y4011369D2*
X466974Y3960109D1*
X1130113Y3296970D2*
X1284055Y3143029D1*
X1881068Y2546014D2*
X1964341Y2462741D1*
X415714Y3968942D2*
X428262Y3956395D1*
X1130113Y3254545D2*
X1292038Y3092619D1*
X1879895Y2504762D2*
X1964301Y2420357D1*
X415714Y3926517D2*
X422890Y3919340D1*
X1130113Y3212118D2*
X1322062Y3020168D1*
X1437193Y2905037D2*
X1441386Y2900844D1*
X1874094Y2468136D2*
X1964259Y2377972D1*
X415714Y3884091D2*
X422890Y3876913D1*
X1130113Y3169692D2*
X1438652Y2861152D1*
X1866927Y2432878D2*
X1964217Y2335587D1*
X415714Y3841664D2*
X422890Y3834488D1*
X1130113Y3127265D2*
X1435903Y2821474D1*
X1852950Y2404428D2*
X1964176Y2293202D1*
X415714Y3799238D2*
X422890Y3792062D1*
X1130113Y3084839D2*
X1428266Y2786685D1*
X1838629Y2376323D2*
X1964134Y2250818D1*
X415714Y3756811D2*
X422890Y3749635D1*
X1130113Y3042412D2*
X1401362Y2771161D1*
X1823092Y2349433D2*
X1964093Y2208432D1*
X415714Y3714385D2*
X422890Y3707209D1*
X1130113Y2999986D2*
X1379860Y2750239D1*
X1802182Y2327916D2*
X1964051Y2166047D1*
X415714Y3671958D2*
X422890Y3664782D1*
X1130113Y2957559D2*
X1358647Y2729026D1*
X1780969Y2306703D2*
X1963996Y2123676D1*
X415714Y3629531D2*
X422890Y3622356D1*
X1130113Y2915133D2*
X1338068Y2707177D1*
X1766785Y2278461D2*
X1963954Y2081291D1*
X415714Y3587105D2*
X422890Y3579929D1*
X1130113Y2872706D2*
X1323029Y2679790D1*
X1770790Y2232029D2*
X1963913Y2038906D1*
X415714Y3544678D2*
X422890Y3537503D1*
X1130113Y2830280D2*
X1308720Y2651672D1*
X1774795Y2185597D2*
X1963871Y1996521D1*
X415714Y3502252D2*
X422890Y3495076D1*
X1130113Y2787853D2*
X1295144Y2622822D1*
X1778801Y2139165D2*
X1963831Y1954136D1*
X415714Y3459825D2*
X422890Y3452650D1*
X1130113Y2745427D2*
X1288598Y2586941D1*
X1859303Y2016238D2*
X1963789Y1911751D1*
X415714Y3417399D2*
X422890Y3410223D1*
X1130113Y2703001D2*
X1282798Y2550315D1*
X1878058Y1955056D2*
X1963748Y1869366D1*
X415714Y3374974D2*
X422890Y3367797D1*
X1130113Y2660575D2*
X1283310Y2507378D1*
X1885888Y1904799D2*
X1963706Y1826982D1*
X415714Y3332547D2*
X422890Y3325370D1*
X1130113Y2618148D2*
X1291291Y2456969D1*
X1882256Y1866004D2*
X1963664Y1784596D1*
X415714Y3290121D2*
X422890Y3282945D1*
X1130113Y2575722D2*
X1321329Y2384504D1*
X1876455Y1829378D2*
X1963623Y1742211D1*
X415714Y3247694D2*
X422890Y3240518D1*
X1130113Y2533295D2*
X1397593Y2265815D1*
X1867976Y1795432D2*
X1963581Y1699827D1*
X415714Y3205268D2*
X422890Y3198092D1*
X1130113Y2490869D2*
X1394844Y2226138D1*
X1853668Y1767314D2*
X1963541Y1657441D1*
X415714Y3162841D2*
X422890Y3155665D1*
X1130113Y2448442D2*
X1392110Y2186445D1*
X1839361Y1739194D2*
X1963499Y1615056D1*
X415714Y3120415D2*
X422890Y3113239D1*
X1130113Y2406016D2*
X1389375Y2146753D1*
X1822787Y1713341D2*
X1963458Y1572671D1*
X415714Y3077988D2*
X422890Y3070812D1*
X1130113Y2363589D2*
X1379266Y2114437D1*
X1818824Y1674878D2*
X1963416Y1530286D1*
X415714Y3035562D2*
X422890Y3028386D1*
X1130113Y2321163D2*
X1358052Y2093223D1*
X1822829Y1628448D2*
X1963374Y1487902D1*
X415714Y2993135D2*
X422890Y2985959D1*
X1130113Y2278736D2*
X1338276Y2070573D1*
X1826820Y1582029D2*
X1963333Y1445516D1*
X415714Y2950709D2*
X422890Y2943533D1*
X1128967Y2237457D2*
X1323761Y2042663D1*
X1828961Y1537462D2*
X1963291Y1403131D1*
X415714Y2908282D2*
X422890Y2901106D1*
X1096097Y2227899D2*
X1309440Y2014558D1*
X1796105Y1527891D2*
X1963251Y1360747D1*
X415714Y2865856D2*
X422890Y2858680D1*
X1053671Y2227899D2*
X1296885Y1984685D1*
X1753678Y1527891D2*
X1963209Y1318361D1*
X415714Y2823430D2*
X422890Y2816253D1*
X1011244Y2227899D2*
X1290946Y1948197D1*
X1711252Y1527891D2*
X1739627Y1499516D1*
X1865449Y1373696D2*
X1963168Y1275976D1*
X415714Y2781004D2*
X422890Y2773828D1*
X968818Y2227899D2*
X1285146Y1911571D1*
X1668825Y1527891D2*
X1689937Y1506781D1*
X1872727Y1323991D2*
X1961606Y1235110D1*
X415714Y2738577D2*
X422890Y2731402D1*
X926391Y2227899D2*
X1288295Y1865996D1*
X1626399Y1527891D2*
X1651336Y1502955D1*
X1868887Y1285404D2*
X1919181Y1235110D1*
X415714Y2696151D2*
X422890Y2688975D1*
X883965Y2227899D2*
X1296304Y1815559D1*
X1583974Y1527891D2*
X1618895Y1492970D1*
X1858916Y1252949D2*
X1876755Y1235110D1*
X415714Y2653724D2*
X422890Y2646549D1*
X841538Y2227899D2*
X891210Y2178228D1*
X1061087Y2008352D2*
X1333193Y1736245D1*
X1541547Y1527891D2*
X1590928Y1478510D1*
X415714Y2611298D2*
X422890Y2604122D1*
X799113Y2227899D2*
X833896Y2193115D1*
X1075988Y1951024D2*
X1356533Y1670479D1*
X1499121Y1527891D2*
X1566760Y1460252D1*
X1949114Y1077898D2*
X1962961Y1064051D1*
X415714Y2568871D2*
X422890Y2561696D1*
X1083295Y1901291D2*
X1353799Y1630786D1*
X1456694Y1527891D2*
X1546113Y1438472D1*
X1906688Y1077898D2*
X1962919Y1021667D1*
X415714Y2526445D2*
X422890Y2519269D1*
X1078710Y1863450D2*
X1351051Y1591109D1*
X1414268Y1527891D2*
X1529042Y1413117D1*
X1864261Y1077898D2*
X1962878Y979282D1*
X415714Y2484018D2*
X422890Y2476843D1*
X1072909Y1826824D2*
X1348316Y1551416D1*
X1371841Y1527891D2*
X1515908Y1383824D1*
X1832841Y1066891D2*
X1962823Y936911D1*
X415714Y2441592D2*
X422890Y2434416D1*
X629407Y2227899D2*
X676634Y2180672D1*
X1063531Y1793774D2*
X1507664Y1349643D1*
X1869122Y988184D2*
X1962781Y894525D1*
X415714Y2399165D2*
X422890Y2391990D1*
X586980Y2227899D2*
X648529Y2166350D1*
X1049210Y1765669D2*
X1506545Y1308335D1*
X1872188Y942692D2*
X1954770Y860109D1*
X415714Y2356739D2*
X422890Y2349563D1*
X544554Y2227899D2*
X620424Y2152029D1*
X1034888Y1737566D2*
X1520853Y1251601D1*
X1866319Y906135D2*
X1912344Y860109D1*
X415714Y2314312D2*
X422890Y2307136D1*
X502127Y2227899D2*
X595289Y2134739D1*
X1017612Y1712416D2*
X1229490Y1500538D1*
X1359135Y1370891D2*
X1494916Y1235110D1*
X1854938Y875088D2*
X1869917Y860109D1*
X415714Y2271887D2*
X422890Y2264710D1*
X459701Y2227899D2*
X574076Y2113525D1*
X996398Y1691203D2*
X1180627Y1506974D1*
X1365571Y1322029D2*
X1452490Y1235110D1*
X415714Y2229461D2*
X552862Y2092312D1*
X975185Y1669990D2*
X1142412Y1502761D1*
X1361358Y1283815D2*
X1410063Y1235110D1*
X1942277Y702896D2*
X1962573Y682601D1*
X415714Y2187034D2*
X533665Y2069083D1*
X951955Y1650793D2*
X1110220Y1492528D1*
X1351125Y1251622D2*
X1367638Y1235110D1*
X1524849Y1077898D2*
X1540602Y1062146D1*
X1899850Y702896D2*
X1942644Y660102D1*
X415714Y2144608D2*
X519302Y2041018D1*
X944028Y1616294D2*
X1082474Y1477846D1*
X1482424Y1077898D2*
X1524609Y1035713D1*
X1857425Y702896D2*
X1900218Y660102D1*
X415714Y2102181D2*
X504980Y2012915D1*
X946790Y1571105D2*
X1058471Y1459424D1*
X1439997Y1077898D2*
X1512760Y1005135D1*
X1814999Y702896D2*
X1857793Y660102D1*
X415714Y2059755D2*
X493214Y1982255D1*
X945243Y1530226D2*
X1038004Y1437465D1*
X1397571Y1077898D2*
X1506227Y969241D1*
X1772572Y702896D2*
X1815366Y660102D1*
X415714Y2017328D2*
X487400Y1945643D1*
X908549Y1524493D2*
X1021113Y1411929D1*
X1355144Y1077898D2*
X1508064Y924978D1*
X1730146Y702896D2*
X1772940Y660102D1*
X415714Y1974902D2*
X481655Y1908961D1*
X866122Y1524493D2*
X1008214Y1382402D1*
X1333503Y1057113D2*
X1530507Y860109D1*
X1687719Y702896D2*
X1730513Y660102D1*
X415714Y1932475D2*
X486226Y1861963D1*
X823696Y1524493D2*
X1000245Y1347944D1*
X1362740Y985449D2*
X1488080Y860109D1*
X1645293Y702896D2*
X1688087Y660102D1*
X415714Y1890049D2*
X494706Y1811058D1*
X781269Y1524493D2*
X999610Y1306152D1*
X1365033Y940731D2*
X1445654Y860109D1*
X1602866Y702896D2*
X1645660Y660102D1*
X415714Y1847622D2*
X535710Y1727627D1*
X610500Y1652837D2*
X619346Y1643990D1*
X738843Y1524493D2*
X1015424Y1247913D1*
X1358735Y904602D2*
X1403227Y860109D1*
X1560440Y702896D2*
X1603234Y660102D1*
X415714Y1805196D2*
X617261Y1603648D1*
X696416Y1524493D2*
X720276Y1500635D1*
X851951Y1368958D2*
X985799Y1235110D1*
X1347064Y873845D2*
X1360801Y860109D1*
X1518013Y702896D2*
X1560807Y660102D1*
X415714Y1762770D2*
X615190Y1563294D1*
X653990Y1524493D2*
X671856Y1506629D1*
X857946Y1320538D2*
X943373Y1235110D1*
X1475587Y702896D2*
X1518381Y660102D1*
X415714Y1720344D2*
X633848Y1502209D1*
X853526Y1282531D2*
X900946Y1235110D1*
X1433160Y702896D2*
X1475954Y660102D1*
X415714Y1677917D2*
X601794Y1491837D1*
X843155Y1250476D2*
X858520Y1235110D1*
X1015732Y1077898D2*
X1032466Y1061165D1*
X1390734Y702896D2*
X1433528Y660102D1*
X415714Y1635491D2*
X574144Y1477060D1*
X973306Y1077898D2*
X1016722Y1034483D1*
X1348308Y702896D2*
X1391101Y660102D1*
X415714Y1593064D2*
X550252Y1458526D1*
X930881Y1077898D2*
X1005163Y1003615D1*
X1305882Y702896D2*
X1348675Y660102D1*
X415714Y1550638D2*
X529882Y1436470D1*
X888454Y1077898D2*
X999030Y967322D1*
X1263455Y702896D2*
X1306249Y660102D1*
X415714Y1508211D2*
X513088Y1410837D1*
X846028Y1077898D2*
X1001626Y922299D1*
X1221029Y702896D2*
X1263823Y660102D1*
X415714Y1465785D2*
X500312Y1381186D1*
X732504Y1148996D2*
X747896Y1133602D1*
X831236Y1050262D2*
X1021390Y860109D1*
X1178602Y702896D2*
X1221396Y660102D1*
X415714Y1423358D2*
X492509Y1346563D1*
X697881Y1141193D2*
X703302Y1135770D1*
X856441Y982633D2*
X978963Y860109D1*
X1136176Y702896D2*
X1178970Y660102D1*
X415714Y1380932D2*
X492136Y1304509D1*
X655827Y1140820D2*
X659245Y1137400D1*
X858070Y938576D2*
X936537Y860109D1*
X1093749Y702896D2*
X1136543Y660102D1*
X415714Y1338505D2*
X508833Y1245386D1*
X596703Y1157517D2*
X623476Y1130743D1*
X851413Y902806D2*
X894110Y860109D1*
X1051323Y702896D2*
X1094117Y660102D1*
X415714Y1296079D2*
X592983Y1118811D1*
X839480Y872312D2*
X851684Y860109D1*
X1008896Y702896D2*
X1051690Y660102D1*
X415714Y1253652D2*
X566618Y1102749D1*
X966470Y702896D2*
X1009264Y660102D1*
X415714Y1211227D2*
X543899Y1083041D1*
X924043Y702896D2*
X966837Y660102D1*
X415714Y1168801D2*
X524689Y1059825D1*
X881617Y702896D2*
X924411Y660102D1*
X415714Y1126374D2*
X509151Y1032936D1*
X839190Y702896D2*
X881984Y660102D1*
X415714Y1083948D2*
X497869Y1001793D1*
X722463Y777198D2*
X747896Y751765D1*
X796765Y702896D2*
X839558Y660102D1*
X415714Y1041521D2*
X492109Y965126D1*
X685795Y771440D2*
X797131Y660102D1*
X415714Y999094D2*
X495424Y919385D1*
X640055Y774753D2*
X754706Y660102D1*
X415714Y956668D2*
X535046Y837336D1*
X558005Y814377D2*
X712280Y660102D1*
X415714Y914241D2*
X669853Y660102D1*
X415714Y871815D2*
X627427Y660102D1*
X415714Y829388D2*
X585000Y660102D1*
X415714Y786962D2*
X542573Y660102D1*
X415714Y744535D2*
X500147Y660102D1*
X415714Y702109D2*
X457720Y660102D1*
X637747Y4957272D2*
X636798Y4947322D1*
X634908Y4937505D1*
X632093Y4927913D1*
X628382Y4918633D1*
X623804Y4909745D1*
X618404Y4901333D1*
X612230Y4893472D1*
X605336Y4886234D1*
X597786Y4879681D1*
X589648Y4873877D1*
X580995Y4868870D1*
X571907Y4864709D1*
X562463Y4861430D1*
X552752Y4859062D1*
X542860Y4857627D1*
X532874Y4857139D1*
X522890Y4857601D1*
X512992Y4859009D1*
X503274Y4861352D1*
X493823Y4864605D1*
X484723Y4868743D1*
X476058Y4873726D1*
X467904Y4879509D1*
X460336Y4886041D1*
X453424Y4893261D1*
X447228Y4901105D1*
X441806Y4909503D1*
X437205Y4918378D1*
X433467Y4927650D1*
X430629Y4937234D1*
X428713Y4947045D1*
X427736Y4956993D1*
X427710Y4966990D1*
X428633Y4976942D1*
X430496Y4986764D1*
X433285Y4996364D1*
X436972Y5005655D1*
X441526Y5014554D1*
X446904Y5022979D1*
X453058Y5030857D1*
X459932Y5038114D1*
X467465Y5044686D1*
X475587Y5050513D1*
X484226Y5055542D1*
X493304Y5059727D1*
X502739Y5063031D1*
X512444Y5065425D1*
X522333Y5066886D1*
X532316Y5067400D1*
X542302Y5066966D1*
X552202Y5065584D1*
X561927Y5063268D1*
X571387Y5060038D1*
X580499Y5055925D1*
X589177Y5050966D1*
X597346Y5045203D1*
X604930Y5038693D1*
X611862Y5031491D1*
X618079Y5023663D1*
X623524Y5015280D1*
X628148Y5006417D1*
X631909Y4997155D1*
X634774Y4987579D1*
X636717Y4977773D1*
X637719Y4967827D1*
X637866Y4962270D1*
X637747Y4957272D1*
X1937610D2*
X1936661Y4947322D1*
X1934772Y4937505D1*
X1931957Y4927913D1*
X1928245Y4918633D1*
X1923668Y4909745D1*
X1918268Y4901333D1*
X1912093Y4893472D1*
X1905199Y4886234D1*
X1897650Y4879681D1*
X1889512Y4873877D1*
X1880858Y4868870D1*
X1871770Y4864709D1*
X1862327Y4861430D1*
X1852615Y4859062D1*
X1842723Y4857627D1*
X1832738Y4857139D1*
X1822753Y4857601D1*
X1812856Y4859009D1*
X1803138Y4861352D1*
X1793686Y4864605D1*
X1784587Y4868743D1*
X1775921Y4873726D1*
X1767768Y4879509D1*
X1760199Y4886041D1*
X1753287Y4893261D1*
X1747092Y4901105D1*
X1741669Y4909503D1*
X1737068Y4918378D1*
X1733331Y4927650D1*
X1730492Y4937234D1*
X1728576Y4947045D1*
X1727600Y4956993D1*
X1727573Y4966990D1*
X1728496Y4976942D1*
X1730360Y4986764D1*
X1733148Y4996364D1*
X1736836Y5005655D1*
X1741390Y5014554D1*
X1746768Y5022979D1*
X1752921Y5030857D1*
X1759795Y5038114D1*
X1767328Y5044686D1*
X1775450Y5050513D1*
X1784089Y5055542D1*
X1793168Y5059727D1*
X1802602Y5063031D1*
X1812307Y5065425D1*
X1822197Y5066886D1*
X1832180Y5067400D1*
X1842165Y5066966D1*
X1852066Y5065584D1*
X1861790Y5063268D1*
X1871251Y5060038D1*
X1880362Y5055925D1*
X1889041Y5050966D1*
X1897210Y5045203D1*
X1904794Y5038693D1*
X1911726Y5031491D1*
X1917942Y5023663D1*
X1923387Y5015280D1*
X1928012Y5006417D1*
X1931773Y4997155D1*
X1934638Y4987579D1*
X1936580Y4977773D1*
X1937583Y4967827D1*
X1937730Y4962270D1*
X1937610Y4957272D1*
X1364722Y949530D2*
X1364175Y939547D1*
X1363083Y929608D1*
X1361448Y919744D1*
X1359277Y909984D1*
X1356575Y900357D1*
X1353350Y890892D1*
X1349613Y881618D1*
X1345373Y872563D1*
X1340646Y863752D1*
X1338071Y859398D1*
X1532692Y859400D1*
X1527613Y868378D1*
X1523175Y877337D1*
X1519234Y886526D1*
X1515801Y895917D1*
X1512886Y905482D1*
X1510499Y915192D1*
X1508647Y925017D1*
X1507335Y934929D1*
X1506568Y944899D1*
X1506346Y954895D1*
X1506673Y964888D1*
X1507545Y974849D1*
X1508961Y984747D1*
X1510916Y994552D1*
X1513404Y1004238D1*
X1516419Y1013770D1*
X1519950Y1023125D1*
X1523988Y1032272D1*
X1528520Y1041185D1*
X1533533Y1049836D1*
X1539012Y1058199D1*
X1544940Y1066252D1*
X1551299Y1073967D1*
X1555480Y1078585D1*
X1316207Y1078600D1*
X1321707Y1072378D1*
X1327945Y1064563D1*
X1333745Y1056419D1*
X1339092Y1047969D1*
X1343969Y1039240D1*
X1348360Y1030257D1*
X1352252Y1021047D1*
X1355636Y1011639D1*
X1358500Y1002059D1*
X1360836Y992336D1*
X1362636Y982501D1*
X1363896Y972583D1*
X1364612Y962609D1*
X1364790Y954530D1*
X1364722Y949530D1*
X1026081Y859388D2*
X1020613Y868972D1*
X1016175Y877932D1*
X1012234Y887121D1*
X1008801Y896512D1*
X1005886Y906076D1*
X1003499Y915786D1*
X1001647Y925612D1*
X1000335Y935524D1*
X999568Y945493D1*
X999346Y955490D1*
X999673Y965483D1*
X1000545Y975444D1*
X1001961Y985341D1*
X1003916Y995147D1*
X1006404Y1004832D1*
X1009419Y1014365D1*
X1012950Y1023719D1*
X1016988Y1032866D1*
X1021520Y1041780D1*
X1026533Y1050430D1*
X1032012Y1058794D1*
X1037940Y1066846D1*
X1044299Y1074562D1*
X1047944Y1078613D1*
X809488Y1078600D1*
X814921Y1072458D1*
X821159Y1064643D1*
X826959Y1056499D1*
X832306Y1048049D1*
X837182Y1039320D1*
X841573Y1030337D1*
X845466Y1021127D1*
X848850Y1011719D1*
X851714Y1002139D1*
X854050Y992416D1*
X855850Y982581D1*
X857110Y972663D1*
X857825Y962689D1*
X858004Y954610D1*
X857730Y944615D1*
X856911Y934650D1*
X855546Y924745D1*
X853643Y914929D1*
X851205Y905232D1*
X848241Y895682D1*
X844759Y886310D1*
X840769Y877142D1*
X836283Y868206D1*
X831243Y859412D1*
X1026051Y859400D1*
X748588Y787253D2*
X740808Y784041D1*
X731381Y780713D1*
X721783Y777904D1*
X712049Y775625D1*
X702203Y773882D1*
X692277Y772680D1*
X682299Y772022D1*
X672302Y771912D1*
X662312Y772348D1*
X652362Y773331D1*
X642480Y774856D1*
X632697Y776919D1*
X623041Y779514D1*
X613541Y782634D1*
X604226Y786269D1*
X595125Y790408D1*
X586262Y795038D1*
X577667Y800146D1*
X569364Y805717D1*
X561378Y811734D1*
X553732Y818178D1*
X546451Y825031D1*
X539556Y832272D1*
X533068Y839879D1*
X527005Y847831D1*
X521386Y856101D1*
X516228Y864667D1*
X511546Y873501D1*
X507354Y882579D1*
X503667Y891873D1*
X500491Y901354D1*
X497840Y910995D1*
X495719Y920766D1*
X494138Y930639D1*
X493097Y940584D1*
X492602Y950570D1*
X492655Y960568D1*
X493255Y970550D1*
X494399Y980483D1*
X496085Y990337D1*
X498307Y1000087D1*
X501060Y1009699D1*
X504335Y1019147D1*
X508121Y1028400D1*
X512407Y1037434D1*
X517181Y1046219D1*
X522429Y1054730D1*
X528135Y1062941D1*
X534281Y1070828D1*
X540849Y1078366D1*
X547820Y1085535D1*
X555172Y1092311D1*
X562885Y1098675D1*
X570933Y1104608D1*
X579294Y1110091D1*
X587942Y1115109D1*
X596853Y1119646D1*
X605997Y1123689D1*
X615350Y1127226D1*
X624882Y1130245D1*
X634564Y1132739D1*
X644369Y1134699D1*
X654266Y1136121D1*
X664227Y1136999D1*
X674219Y1137329D1*
X684217Y1137114D1*
X694186Y1136353D1*
X704098Y1135046D1*
X713925Y1133199D1*
X723636Y1130819D1*
X733203Y1127909D1*
X742596Y1124482D1*
X748593Y1121966D1*
X748600Y1156168D1*
X740055Y1152640D1*
X730627Y1149312D1*
X721030Y1146504D1*
X711295Y1144224D1*
X701450Y1142482D1*
X691524Y1141280D1*
X681546Y1140622D1*
X671549Y1140512D1*
X661559Y1140948D1*
X651609Y1141930D1*
X641727Y1143455D1*
X631944Y1145518D1*
X622287Y1148114D1*
X612787Y1151234D1*
X603472Y1154869D1*
X594371Y1159008D1*
X585509Y1163638D1*
X576913Y1168745D1*
X568610Y1174316D1*
X560625Y1180333D1*
X552979Y1186778D1*
X545698Y1193631D1*
X538803Y1200871D1*
X532315Y1208479D1*
X526252Y1216430D1*
X520633Y1224701D1*
X515475Y1233266D1*
X510793Y1242101D1*
X506601Y1251178D1*
X502913Y1260472D1*
X499738Y1269954D1*
X497087Y1279594D1*
X494966Y1289366D1*
X493385Y1299239D1*
X492344Y1309184D1*
X491849Y1319169D1*
X491902Y1329168D1*
X492501Y1339150D1*
X493646Y1349083D1*
X495332Y1358937D1*
X497554Y1368686D1*
X500307Y1378299D1*
X503581Y1387747D1*
X507367Y1397000D1*
X511654Y1406034D1*
X516428Y1414819D1*
X521676Y1423329D1*
X527382Y1431541D1*
X533528Y1439428D1*
X540096Y1446966D1*
X547067Y1454135D1*
X554419Y1460911D1*
X562131Y1467274D1*
X570180Y1473207D1*
X578541Y1478690D1*
X587189Y1483709D1*
X596100Y1488245D1*
X605244Y1492289D1*
X614597Y1495825D1*
X624129Y1498845D1*
X633811Y1501339D1*
X643615Y1503299D1*
X653513Y1504720D1*
X663474Y1505598D1*
X673466Y1505929D1*
X683463Y1505714D1*
X693433Y1504953D1*
X703345Y1503646D1*
X713172Y1501799D1*
X722883Y1499419D1*
X732450Y1496509D1*
X741843Y1493081D1*
X751034Y1489144D1*
X759996Y1484711D1*
X768702Y1479795D1*
X777126Y1474409D1*
X785244Y1468571D1*
X793029Y1462297D1*
X800459Y1455606D1*
X807513Y1448520D1*
X814168Y1441058D1*
X820406Y1433243D1*
X826206Y1425098D1*
X831552Y1416648D1*
X836429Y1407920D1*
X840820Y1398937D1*
X844713Y1389727D1*
X848097Y1380319D1*
X850961Y1370739D1*
X853297Y1361016D1*
X855097Y1351181D1*
X856357Y1341262D1*
X857072Y1331289D1*
X857251Y1323210D1*
X856976Y1313215D1*
X856157Y1303249D1*
X854793Y1293345D1*
X852890Y1283529D1*
X850451Y1273832D1*
X847488Y1264282D1*
X844005Y1254909D1*
X840016Y1245741D1*
X835530Y1236806D1*
X834196Y1234396D1*
X1022652Y1234400D1*
X1018406Y1242436D1*
X1014214Y1251513D1*
X1010526Y1260807D1*
X1007350Y1270289D1*
X1004699Y1279929D1*
X1002579Y1289701D1*
X1000997Y1299573D1*
X999957Y1309518D1*
X999462Y1319504D1*
X999514Y1329503D1*
X1000114Y1339484D1*
X1001259Y1349417D1*
X1002945Y1359272D1*
X1005167Y1369021D1*
X1007920Y1378634D1*
X1011194Y1388081D1*
X1014980Y1397335D1*
X1019266Y1406369D1*
X1024041Y1415154D1*
X1029289Y1423664D1*
X1034995Y1431875D1*
X1041140Y1439762D1*
X1047709Y1447301D1*
X1054680Y1454470D1*
X1062031Y1461245D1*
X1069744Y1467609D1*
X1077793Y1473542D1*
X1086154Y1479025D1*
X1094802Y1484043D1*
X1103713Y1488580D1*
X1112857Y1492623D1*
X1122210Y1496160D1*
X1131741Y1499180D1*
X1141424Y1501673D1*
X1151228Y1503634D1*
X1161126Y1505055D1*
X1171087Y1505933D1*
X1181079Y1506264D1*
X1191076Y1506049D1*
X1201046Y1505287D1*
X1210958Y1503980D1*
X1220785Y1502134D1*
X1230496Y1499753D1*
X1240063Y1496844D1*
X1249455Y1493416D1*
X1258647Y1489479D1*
X1267609Y1485046D1*
X1276315Y1480130D1*
X1284739Y1474744D1*
X1292857Y1468906D1*
X1300642Y1462631D1*
X1308072Y1455941D1*
X1315126Y1448854D1*
X1321781Y1441392D1*
X1328018Y1433577D1*
X1333819Y1425433D1*
X1339165Y1416983D1*
X1344042Y1408255D1*
X1348433Y1399272D1*
X1352325Y1390062D1*
X1355710Y1380654D1*
X1358573Y1371073D1*
X1360909Y1361350D1*
X1362710Y1351516D1*
X1363970Y1341597D1*
X1364685Y1331623D1*
X1364864Y1323545D1*
X1364589Y1313550D1*
X1363770Y1303584D1*
X1362406Y1293680D1*
X1360503Y1283864D1*
X1358064Y1274167D1*
X1355101Y1264617D1*
X1351618Y1255244D1*
X1347629Y1246076D1*
X1343143Y1237140D1*
X1341618Y1234390D1*
X1529684Y1234400D1*
X1525560Y1242251D1*
X1521369Y1251328D1*
X1517681Y1260622D1*
X1514505Y1270104D1*
X1511854Y1279744D1*
X1509734Y1289516D1*
X1508152Y1299388D1*
X1507112Y1309333D1*
X1506617Y1319319D1*
X1506669Y1329318D1*
X1507269Y1339299D1*
X1508413Y1349232D1*
X1510100Y1359087D1*
X1512322Y1368836D1*
X1515075Y1378449D1*
X1518349Y1387896D1*
X1522135Y1397150D1*
X1526421Y1406184D1*
X1531196Y1414969D1*
X1536444Y1423479D1*
X1542150Y1431690D1*
X1548295Y1439577D1*
X1554864Y1447115D1*
X1561835Y1454285D1*
X1569186Y1461060D1*
X1576899Y1467424D1*
X1584948Y1473357D1*
X1593308Y1478840D1*
X1601957Y1483858D1*
X1610867Y1488395D1*
X1620012Y1492438D1*
X1629365Y1495975D1*
X1638896Y1498995D1*
X1648579Y1501488D1*
X1658383Y1503449D1*
X1668281Y1504870D1*
X1678241Y1505748D1*
X1688234Y1506079D1*
X1698231Y1505864D1*
X1708201Y1505102D1*
X1718113Y1503795D1*
X1727940Y1501949D1*
X1737651Y1499568D1*
X1747218Y1496659D1*
X1756610Y1493231D1*
X1765802Y1489294D1*
X1774764Y1484861D1*
X1783470Y1479945D1*
X1791894Y1474559D1*
X1800012Y1468720D1*
X1807797Y1462446D1*
X1815227Y1455756D1*
X1822281Y1448669D1*
X1828936Y1441207D1*
X1835173Y1433392D1*
X1840974Y1425248D1*
X1846320Y1416798D1*
X1851197Y1408070D1*
X1855588Y1399087D1*
X1859480Y1389877D1*
X1862865Y1380469D1*
X1865728Y1370888D1*
X1868064Y1361165D1*
X1869865Y1351331D1*
X1871125Y1341412D1*
X1871840Y1331438D1*
X1872018Y1323360D1*
X1871744Y1313365D1*
X1870925Y1303399D1*
X1869560Y1293495D1*
X1867657Y1283678D1*
X1865219Y1273982D1*
X1862256Y1264432D1*
X1858773Y1255059D1*
X1854783Y1245891D1*
X1850298Y1236955D1*
X1849000Y1234400D1*
X1963824D1*
X1967782Y5229280D1*
X747126Y5229259D1*
X414997D1*
X415000Y659396D1*
X1963277Y659400D1*
X1963306Y703618D1*
X764000Y703600D1*
X761591Y703790D1*
X759241Y704354D1*
X757009Y705278D1*
X754948Y706541D1*
X753110Y708110D1*
X751541Y709948D1*
X750278Y712009D1*
X749354Y714241D1*
X748790Y716591D1*
X748600Y719000D1*
Y787261D1*
X1871722Y948936D2*
X1871175Y938953D1*
X1870083Y929013D1*
X1868448Y919150D1*
X1866277Y909390D1*
X1863575Y899762D1*
X1860350Y890298D1*
X1856613Y881024D1*
X1852373Y871969D1*
X1847646Y863157D1*
X1845430Y859408D1*
X1963472Y859400D1*
X1963677Y1078618D1*
X1822652Y1078600D1*
X1828707Y1071783D1*
X1834945Y1063969D1*
X1840745Y1055824D1*
X1846092Y1047374D1*
X1850969Y1038646D1*
X1855360Y1029663D1*
X1859252Y1020453D1*
X1862636Y1011045D1*
X1865500Y1001465D1*
X1867836Y991741D1*
X1869636Y981907D1*
X1870896Y971988D1*
X1871612Y962014D1*
X1871790Y953936D1*
X1871722Y948936D1*
X1867125Y2000155D2*
X1869146Y1995560D1*
X1870849Y1990861D1*
X1872238Y1986059D1*
X1873621Y1979325D1*
X1884895Y1908004D1*
X1885394Y1903030D1*
X1885562Y1898034D1*
X1885398Y1893038D1*
X1884634Y1886206D1*
X1873316Y1814892D1*
X1872253Y1810008D1*
X1870869Y1805203D1*
X1869169Y1800503D1*
X1866331Y1794241D1*
X1833530Y1729915D1*
X1831010Y1725597D1*
X1828210Y1721457D1*
X1825140Y1717510D1*
X1820507Y1712433D1*
X1815382Y1707310D1*
X1829400Y1544000D1*
X1829210Y1541591D1*
X1828647Y1539241D1*
X1827722Y1537008D1*
X1826459Y1534948D1*
X1824890Y1533110D1*
X1823052Y1531541D1*
X1820992Y1530278D1*
X1818759Y1529353D1*
X1816409Y1528790D1*
X1814000Y1528600D1*
X1362941Y1528636D1*
X1360550Y1528991D1*
X1358244Y1529715D1*
X1356081Y1530791D1*
X1354113Y1532193D1*
X1352387Y1533886D1*
X1350948Y1535827D1*
X1349829Y1537969D1*
X1349060Y1540260D1*
X1348660Y1542643D1*
X1348636Y1545059D1*
X1359512Y1702752D1*
X1348551Y1713730D1*
X1345224Y1717461D1*
X1342152Y1721404D1*
X1339348Y1725543D1*
X1335950Y1731518D1*
X1303189Y1795865D1*
X1301177Y1800442D1*
X1299474Y1805142D1*
X1298085Y1809945D1*
X1296702Y1816677D1*
X1285428Y1887999D1*
X1284929Y1892972D1*
X1284761Y1897969D1*
X1284925Y1902966D1*
X1285690Y1909797D1*
X1297007Y1981110D1*
X1298070Y1985996D1*
X1299454Y1990799D1*
X1301154Y1995500D1*
X1303992Y2001761D1*
X1336793Y2066088D1*
X1339312Y2070406D1*
X1342114Y2074546D1*
X1345182Y2078492D1*
X1349816Y2083568D1*
X1388445Y2122197D1*
X1400064Y2290769D1*
X1396038Y2294518D1*
X1345092Y2345495D1*
X1341765Y2349226D1*
X1338693Y2353169D1*
X1335888Y2357308D1*
X1332491Y2363283D1*
X1299730Y2427630D1*
X1297718Y2432207D1*
X1296014Y2436907D1*
X1294626Y2441710D1*
X1293243Y2448442D1*
X1281969Y2519764D1*
X1281470Y2524738D1*
X1281302Y2529734D1*
X1281466Y2534731D1*
X1282231Y2541562D1*
X1293547Y2612875D1*
X1294610Y2617761D1*
X1295995Y2622564D1*
X1297694Y2627265D1*
X1300533Y2633526D1*
X1333333Y2697853D1*
X1335853Y2702171D1*
X1338655Y2706311D1*
X1341723Y2710257D1*
X1346357Y2715333D1*
X1397430Y2766377D1*
X1401161Y2769703D1*
X1405105Y2772776D1*
X1409244Y2775580D1*
X1415219Y2778978D1*
X1434415Y2788757D1*
X1442290Y2902789D1*
X1415955Y2916206D1*
X1411579Y2918622D1*
X1407373Y2921323D1*
X1403354Y2924297D1*
X1399528Y2927543D1*
X1386264Y2940680D1*
X1345828Y2981146D1*
X1342501Y2984877D1*
X1339429Y2988820D1*
X1336625Y2992959D1*
X1333227Y2998934D1*
X1300466Y3063281D1*
X1298454Y3067858D1*
X1296751Y3072558D1*
X1295362Y3077361D1*
X1293979Y3084093D1*
X1282705Y3155415D1*
X1282206Y3160388D1*
X1282038Y3165385D1*
X1282202Y3170382D1*
X1282967Y3177213D1*
X1294283Y3248526D1*
X1295346Y3253412D1*
X1296731Y3258215D1*
X1298430Y3262916D1*
X1301269Y3269177D1*
X1334070Y3333504D1*
X1336589Y3337822D1*
X1339391Y3341962D1*
X1342459Y3345908D1*
X1347093Y3350984D1*
X1398167Y3402028D1*
X1401898Y3405354D1*
X1405841Y3408427D1*
X1409980Y3411231D1*
X1415955Y3414629D1*
X1480302Y3447390D1*
X1484879Y3449402D1*
X1489579Y3451105D1*
X1494381Y3452493D1*
X1499272Y3453562D1*
X1491117Y3455773D1*
X1486417Y3457479D1*
X1480806Y3460034D1*
X1418083Y3491993D1*
X1413711Y3494420D1*
X1409525Y3497150D1*
X1405541Y3500171D1*
X1401769Y3503480D1*
X1349820Y3555392D1*
X1346462Y3559096D1*
X1343377Y3563029D1*
X1340577Y3567171D1*
X1337539Y3572537D1*
X1305156Y3636108D1*
X1303108Y3640668D1*
X1301387Y3645361D1*
X1300005Y3650165D1*
X1298774Y3656207D1*
X1287619Y3726675D1*
X1287080Y3731644D1*
X1286895Y3736639D1*
X1287066Y3741635D1*
X1287762Y3747762D1*
X1298929Y3818227D1*
X1299951Y3823121D1*
X1301319Y3827929D1*
X1303025Y3832627D1*
X1305580Y3838239D1*
X1337976Y3901804D1*
X1340461Y3906142D1*
X1343247Y3910293D1*
X1346322Y3914235D1*
X1350486Y3918781D1*
X1400938Y3969224D1*
X1404642Y3972583D1*
X1408575Y3975668D1*
X1412717Y3978467D1*
X1418083Y3981505D1*
X1481654Y4013888D1*
X1486214Y4015937D1*
X1490907Y4017657D1*
X1495711Y4019039D1*
X1501753Y4020270D1*
X1572220Y4031425D1*
X1577190Y4031965D1*
X1582185Y4032150D1*
X1587181Y4031979D1*
X1593308Y4031282D1*
X1663773Y4020115D1*
X1668667Y4019093D1*
X1673474Y4017726D1*
X1678173Y4016020D1*
X1683785Y4013465D1*
X1747350Y3981068D1*
X1751688Y3978584D1*
X1755839Y3975798D1*
X1759781Y3972723D1*
X1764327Y3968559D1*
X1814770Y3918106D1*
X1818129Y3914403D1*
X1821214Y3910470D1*
X1824013Y3906328D1*
X1827051Y3900962D1*
X1859434Y3837391D1*
X1861483Y3832832D1*
X1863203Y3828138D1*
X1864585Y3823333D1*
X1865816Y3817291D1*
X1876971Y3746824D1*
X1877510Y3741854D1*
X1877696Y3736860D1*
X1877526Y3731864D1*
X1876828Y3725736D1*
X1865661Y3655272D1*
X1864639Y3650379D1*
X1863272Y3645571D1*
X1861566Y3640871D1*
X1859010Y3635260D1*
X1826615Y3571694D1*
X1824130Y3567357D1*
X1821344Y3563206D1*
X1818270Y3559265D1*
X1814105Y3554718D1*
X1763652Y3504274D1*
X1759949Y3500916D1*
X1756016Y3497831D1*
X1751874Y3495031D1*
X1746508Y3491993D1*
X1682937Y3459610D1*
X1678378Y3457562D1*
X1673684Y3455841D1*
X1665547Y3453572D1*
X1670433Y3452509D1*
X1675236Y3451125D1*
X1679937Y3449425D1*
X1686198Y3446587D1*
X1750525Y3413786D1*
X1754843Y3411266D1*
X1758983Y3408465D1*
X1762929Y3405396D1*
X1768007Y3400762D1*
X1819049Y3349689D1*
X1822375Y3345958D1*
X1825448Y3342014D1*
X1828252Y3337877D1*
X1831650Y3331900D1*
X1864411Y3267554D1*
X1866423Y3262976D1*
X1868126Y3258277D1*
X1869514Y3253475D1*
X1870898Y3246741D1*
X1881903Y3177260D1*
X930896Y1899361D2*
X923618Y1945311D1*
X902501Y1986752D1*
X869613Y2019640D1*
X828171Y2040755D1*
X782231Y2048029D1*
X736293Y2040752D1*
X694852Y2019635D1*
X661963Y1986747D1*
X640849Y1945304D1*
X636098Y1915299D1*
X636948Y1917455D1*
X641169Y1943720D1*
X642139Y1946705D1*
X654147Y1970407D1*
X661739Y1985171D1*
X663583Y1987710D1*
X682327Y2006541D1*
X694109Y2018236D1*
X696648Y2020080D1*
X720294Y2032198D1*
X735114Y2039680D1*
X738098Y2040650D1*
X764331Y2044866D1*
X780738Y2047403D1*
X783877D1*
X810129Y2043307D1*
X826516Y2040650D1*
X829500Y2039680D1*
X853202Y2027672D1*
X867966Y2020080D1*
X870505Y2018236D1*
X889336Y1999492D1*
X901031Y1987710D1*
X902875Y1985171D1*
X914993Y1961525D1*
X922475Y1946705D1*
X923445Y1943720D1*
X927663Y1917488D1*
X930198Y1901081D1*
Y1897942D1*
X927316Y1879349D1*
X928008Y1881143D1*
X930895Y1899373D1*
X923618Y1945311D1*
X923018Y1945232D1*
X923751Y1942180D1*
X930010Y1902664D1*
X1064198Y2001522D2*
X1066219Y1996928D1*
X1067923Y1992228D1*
X1069311Y1987427D1*
X1070694Y1980693D1*
X1081969Y1909371D1*
X1082467Y1904398D1*
X1082635Y1899402D1*
X1082471Y1894406D1*
X1081707Y1887573D1*
X1070390Y1816260D1*
X1069327Y1811375D1*
X1067942Y1806571D1*
X1066243Y1801870D1*
X1063404Y1795609D1*
X1030604Y1731282D1*
X1028084Y1726965D1*
X1025283Y1722824D1*
X1022214Y1718878D1*
X1017580Y1713801D1*
X966507Y1662759D1*
X962776Y1659432D1*
X958832Y1656360D1*
X954694Y1653555D1*
X948718Y1650157D1*
X941530Y1646496D1*
X947954Y1540609D1*
X947764Y1538201D1*
X947201Y1535850D1*
X946276Y1533618D1*
X945013Y1531558D1*
X943444Y1529719D1*
X941606Y1528151D1*
X939546Y1526887D1*
X937314Y1525963D1*
X934963Y1525399D1*
X932554Y1525209D1*
X629387Y1525219D1*
X626991Y1525533D1*
X624673Y1526217D1*
X622491Y1527255D1*
X620499Y1528622D1*
X618744Y1530285D1*
X617272Y1532201D1*
X616117Y1534323D1*
X615307Y1536600D1*
X614865Y1538976D1*
X614801Y1541391D1*
X620290Y1647832D1*
X611375Y1652573D1*
X607169Y1655274D1*
X603151Y1658248D1*
X599324Y1661495D1*
X586060Y1674631D1*
X545625Y1715097D1*
X542298Y1718828D1*
X539226Y1722772D1*
X536421Y1726911D1*
X533024Y1732886D1*
X500262Y1797232D1*
X498251Y1801810D1*
X496547Y1806509D1*
X495159Y1811312D1*
X493776Y1818045D1*
X482501Y1889366D1*
X482003Y1894340D1*
X481835Y1899336D1*
X481999Y1904333D1*
X482764Y1911164D1*
X494080Y1982478D1*
X495143Y1987364D1*
X496528Y1992167D1*
X498227Y1996867D1*
X501066Y2003129D1*
X533866Y2067455D1*
X536386Y2071773D1*
X539188Y2075913D1*
X542256Y2079860D1*
X546890Y2084936D1*
X597963Y2135979D1*
X601694Y2139306D1*
X605638Y2142378D1*
X609777Y2145182D1*
X615752Y2148580D1*
X680098Y2181341D1*
X684676Y2183353D1*
X689394Y2185062D1*
X688521Y2187345D1*
X647269Y2228597D1*
X437791Y2228647D1*
X435406Y2229025D1*
X433106Y2229772D1*
X430954Y2230869D1*
X428999Y2232290D1*
X427290Y2233999D1*
X425869Y2235954D1*
X424772Y2238106D1*
X424025Y2240406D1*
X423647Y2242791D1*
X423600Y2294000D1*
X423647Y3945209D1*
X424025Y3947594D1*
X424772Y3949894D1*
X425869Y3952046D1*
X427290Y3954001D1*
X428999Y3955710D1*
X430954Y3957131D1*
X433106Y3958228D1*
X435406Y3958975D1*
X437791Y3959353D1*
X489000Y3959400D1*
X1115209Y3959353D1*
X1117594Y3958975D1*
X1119894Y3958228D1*
X1122046Y3957131D1*
X1124001Y3955710D1*
X1125710Y3954001D1*
X1127131Y3952046D1*
X1128228Y3949894D1*
X1128975Y3947594D1*
X1129353Y3945209D1*
X1129400Y3894000D1*
X1129353Y2242791D1*
X1128975Y2240406D1*
X1128228Y2238106D1*
X1127131Y2235954D1*
X1125710Y2233999D1*
X1124001Y2232290D1*
X1122046Y2230869D1*
X1119894Y2229772D1*
X1117594Y2229025D1*
X1115209Y2228647D1*
X1064000Y2228600D1*
X761520D1*
X790858Y2199277D1*
X818722Y2194929D1*
X865344Y2187524D1*
X870230Y2186461D1*
X875033Y2185076D1*
X879734Y2183377D1*
X885995Y2180538D1*
X950322Y2147738D1*
X954639Y2145218D1*
X958780Y2142416D1*
X962726Y2139348D1*
X967803Y2134714D1*
X1018845Y2083640D1*
X1022172Y2079909D1*
X1025244Y2075966D1*
X1028049Y2071828D1*
X1031446Y2065852D1*
X1064207Y2001505D1*
X1066219Y1996928D1*
X1067923Y1992228D1*
X1069311Y1987427D1*
X1070694Y1980693D1*
X1081699Y1911211D1*
X1864402Y3267571D2*
X1866423Y3262976D1*
X1868126Y3258277D1*
X1869514Y3253475D1*
X1870898Y3246741D1*
X1882172Y3175420D1*
X1882671Y3170446D1*
X1882839Y3165450D1*
X1882675Y3160454D1*
X1881911Y3153622D1*
X1870593Y3082308D1*
X1869530Y3077424D1*
X1868146Y3072619D1*
X1866446Y3067919D1*
X1863608Y3061657D1*
X1830807Y2997331D1*
X1828287Y2993013D1*
X1825487Y2988873D1*
X1822417Y2984927D1*
X1817783Y2979849D1*
X1766710Y2928807D1*
X1762979Y2925480D1*
X1759035Y2922408D1*
X1754898Y2919604D1*
X1748921Y2916206D1*
X1712741Y2897772D1*
X1721837Y2792385D1*
X1749789Y2778135D1*
X1754106Y2775615D1*
X1758247Y2772814D1*
X1762193Y2769745D1*
X1767270Y2765112D1*
X1818312Y2714038D1*
X1821639Y2710307D1*
X1824711Y2706364D1*
X1827516Y2702226D1*
X1830913Y2696249D1*
X1863675Y2631903D1*
X1865686Y2627325D1*
X1867390Y2622626D1*
X1868778Y2617824D1*
X1870161Y2611091D1*
X1881436Y2539769D1*
X1881934Y2534795D1*
X1882102Y2529799D1*
X1881938Y2524803D1*
X1881175Y2517971D1*
X1869857Y2446657D1*
X1868794Y2441773D1*
X1867409Y2436969D1*
X1865710Y2432268D1*
X1862871Y2426007D1*
X1830071Y2361680D1*
X1827551Y2357362D1*
X1824751Y2353222D1*
X1821681Y2349276D1*
X1817047Y2344198D1*
X1765959Y2293143D1*
X1765324Y2287946D1*
X1779388Y2124686D1*
X1821772Y2082273D1*
X1825098Y2078542D1*
X1828171Y2074598D1*
X1830975Y2070461D1*
X1834373Y2064484D1*
X1867134Y2000138D1*
X1869146Y1995560D1*
X1870849Y1990861D1*
X1872238Y1986059D1*
X1873621Y1979325D1*
X1884626Y1909844D1*
X1863665Y2631920D2*
X1865686Y2627325D1*
X1867390Y2622626D1*
X1868778Y2617824D1*
X1870161Y2611091D1*
X1881167Y2541609D1*
X1859425Y3837408D2*
X1861483Y3832831D1*
X1863203Y3828138D1*
X1864585Y3823333D1*
X1865816Y3817291D1*
X1876822Y3747807D1*
X497642Y4329639D2*
X498282Y4321168D1*
X499766Y4314140D1*
X502156Y4307365D1*
X505409Y4300961D1*
X509471Y4295035D1*
X514272Y4289690D1*
X519727Y4285018D1*
X525748Y4281098D1*
X532227Y4277997D1*
X539056Y4275769D1*
X546118Y4274451D1*
X553301Y4273980D1*
X1812701Y4274066D1*
X1819864Y4274621D1*
X1826891Y4276105D1*
X1833667Y4278495D1*
X1840071Y4281748D1*
X1845996Y4285810D1*
X1851341Y4290610D1*
X1856013Y4296067D1*
X1859933Y4302087D1*
X1863034Y4308566D1*
X1865262Y4315395D1*
X1866580Y4322457D1*
X1867051Y4329639D1*
X1866966Y4612740D1*
X1866411Y4619903D1*
X1864927Y4626930D1*
X1862537Y4633706D1*
X1859283Y4640110D1*
X1855222Y4646035D1*
X1850421Y4651381D1*
X1844965Y4656052D1*
X1838945Y4659972D1*
X1832466Y4663073D1*
X1825636Y4665302D1*
X1818575Y4666619D1*
X1811392Y4667091D1*
X551992Y4667005D1*
X544829Y4666450D1*
X537802Y4664966D1*
X531026Y4662576D1*
X524622Y4659323D1*
X518697Y4655261D1*
X513352Y4650461D1*
X508680Y4645005D1*
X504760Y4638984D1*
X501659Y4632505D1*
X499430Y4625676D1*
X498113Y4618614D1*
X497642Y4611432D1*
Y4329648D1*
X458491Y4316315D2*
X457684Y4327678D1*
X457642Y4488980D1*
Y4612097D1*
X458492Y4624756D1*
X460950Y4636937D1*
X464978Y4648692D1*
X470505Y4659822D1*
X477438Y4670134D1*
X485657Y4679454D1*
X495024Y4687621D1*
X504916Y4694231D1*
X515094Y4699319D1*
X519370Y4700950D1*
X528314Y4703921D1*
X540508Y4706311D1*
X551340Y4707049D1*
X712642Y4707091D1*
X1812058D1*
X1824717Y4706241D1*
X1836898Y4703782D1*
X1848652Y4699755D1*
X1859782Y4694227D1*
X1870094Y4687294D1*
X1879415Y4679075D1*
X1887581Y4669709D1*
X1894455Y4659357D1*
X1899920Y4648197D1*
X1903882Y4636419D1*
X1906272Y4624224D1*
X1907009Y4613392D1*
X1907051Y4452091D1*
Y4328974D1*
X1906201Y4316315D1*
X1903743Y4304134D1*
X1899919Y4292867D1*
X1894941Y4282635D1*
X1892542Y4278738D1*
X1887255Y4270937D1*
X1879035Y4261617D1*
X1869669Y4253450D1*
X1859318Y4246576D1*
X1848157Y4241112D1*
X1836379Y4237150D1*
X1824185Y4234760D1*
X1813353Y4234022D1*
X1652051Y4233980D1*
X552635D1*
X539976Y4234831D1*
X527795Y4237289D1*
X516041Y4241316D1*
X504911Y4246844D1*
X494598Y4253777D1*
X485278Y4261996D1*
X477112Y4271362D1*
X470238Y4281714D1*
X464773Y4292874D1*
X460811Y4304652D1*
X458684Y4315206D1*
X1724533Y3203265D2*
X1730010Y3168688D1*
X1731100Y3165409D1*
X1723822Y3211360D1*
X1702705Y3252801D1*
X1669816Y3285689D1*
X1628374Y3306803D1*
X1582434Y3314077D1*
X1536496Y3306801D1*
X1495055Y3285684D1*
X1462167Y3252795D1*
X1441052Y3211353D1*
X1433778Y3165413D1*
X1441055Y3119475D1*
X1462172Y3078034D1*
X1495060Y3045146D1*
X1536503Y3024031D1*
X1582442Y3016757D1*
X1628381Y3024034D1*
X1669822Y3045151D1*
X1702710Y3078039D1*
X1723824Y3119482D1*
X1731098Y3165421D1*
X1723822Y3211360D1*
X1723018Y3211256D1*
X1723751Y3208203D1*
X1730198Y3167105D1*
Y3163966D1*
X1726102Y3137714D1*
X1723445Y3121327D1*
X1722475Y3118343D1*
X1710467Y3094640D1*
X1702875Y3079877D1*
X1701031Y3077337D1*
X1682287Y3058507D1*
X1670505Y3046811D1*
X1667966Y3044967D1*
X1644320Y3032849D1*
X1629500Y3025367D1*
X1626516Y3024398D1*
X1600283Y3020180D1*
X1583877Y3017644D1*
X1580738D1*
X1554486Y3021740D1*
X1538098Y3024398D1*
X1535114Y3025367D1*
X1511412Y3037374D1*
X1496648Y3044967D1*
X1494109Y3046811D1*
X1475278Y3065555D1*
X1463583Y3077337D1*
X1461739Y3079877D1*
X1449621Y3103522D1*
X1442139Y3118343D1*
X1441169Y3121327D1*
X1436951Y3147559D1*
X1434416Y3163966D1*
Y3167105D1*
X1438512Y3193357D1*
X1441169Y3209744D1*
X1442139Y3212728D1*
X1454147Y3236430D1*
X1461739Y3251194D1*
X1463583Y3253734D1*
X1482327Y3272564D1*
X1494109Y3284260D1*
X1496648Y3286104D1*
X1520294Y3298222D1*
X1535114Y3305703D1*
X1538098Y3306673D1*
X1564331Y3310890D1*
X1580738Y3313427D1*
X1583877D1*
X1610129Y3309331D1*
X1626516Y3306673D1*
X1629500Y3305703D1*
X1653202Y3293696D1*
X1667966Y3286104D1*
X1670505Y3284260D1*
X1689336Y3265516D1*
X1701031Y3253734D1*
X1702875Y3251194D1*
X1714993Y3227549D1*
X1722475Y3212728D1*
X1721818Y3214155D1*
X1723018Y3211256D1*
X1723751Y3208203D1*
X1724533Y3203265D1*
X921815Y1948136D2*
X923018Y1945232D1*
X1147976Y4490535D2*
X1162332D1*
X1162408Y4511475D1*
X1162899Y4514575D1*
X1163869Y4517559D1*
X1165294Y4520356D1*
X1167138Y4522895D1*
X1169357Y4525114D1*
X1171896Y4526958D1*
X1174693Y4528383D1*
X1177677Y4529353D1*
X1180777Y4529844D1*
X1183916D1*
X1187016Y4529353D1*
X1190000Y4528383D1*
X1192797Y4526958D1*
X1195336Y4525114D1*
X1197555Y4522895D1*
X1199399Y4520356D1*
X1200824Y4517559D1*
X1201794Y4514575D1*
X1202285Y4511475D1*
X1202346Y4490550D1*
X1223286Y4490474D1*
X1226386Y4489983D1*
X1229370Y4489013D1*
X1232167Y4487588D1*
X1234706Y4485744D1*
X1236925Y4483525D1*
X1238769Y4480986D1*
X1240194Y4478189D1*
X1241164Y4475205D1*
X1241655Y4472105D1*
Y4468966D1*
X1241164Y4465866D1*
X1240194Y4462882D1*
X1238769Y4460085D1*
X1236925Y4457546D1*
X1234706Y4455327D1*
X1232167Y4453483D1*
X1229370Y4452058D1*
X1226386Y4451088D1*
X1223286Y4450597D1*
X1202361Y4450535D1*
X1202285Y4429596D1*
X1201794Y4426496D1*
X1200824Y4423512D1*
X1199399Y4420715D1*
X1197555Y4418176D1*
X1195336Y4415957D1*
X1192797Y4414113D1*
X1190000Y4412688D1*
X1187016Y4411718D1*
X1183916Y4411227D1*
X1180777D1*
X1177677Y4411718D1*
X1174693Y4412688D1*
X1171896Y4414113D1*
X1169357Y4415957D1*
X1167138Y4418176D1*
X1165294Y4420715D1*
X1163869Y4423512D1*
X1162899Y4426496D1*
X1162408Y4429596D1*
X1162346Y4450521D1*
X1141407Y4450597D1*
X1138307Y4451088D1*
X1135323Y4452058D1*
X1132526Y4453483D1*
X1129987Y4455327D1*
X1127768Y4457546D1*
X1125924Y4460085D1*
X1124499Y4462882D1*
X1123529Y4465866D1*
X1123038Y4468966D1*
Y4472105D1*
X1123529Y4475205D1*
X1124499Y4478189D1*
X1125924Y4480986D1*
X1127768Y4483525D1*
X1129987Y4485744D1*
X1132526Y4487588D1*
X1135323Y4489013D1*
X1138307Y4489983D1*
X1141407Y4490474D1*
X1147976Y4490535D1*
X410635Y5417290D2*
X558734D1*
X819249D2*
X1558734D1*
X1819249D2*
X1961117D1*
X410635Y5407421D2*
X548323D1*
X829659D2*
X1548323D1*
X1829659D2*
X1961117D1*
X410635Y5397552D2*
X540257D1*
X837745D2*
X1540257D1*
X1837745D2*
X1961117D1*
X410635Y5387684D2*
X533929D1*
X844073D2*
X1533929D1*
X1844073D2*
X1961117D1*
X410635Y5377815D2*
X528987D1*
X849014D2*
X1528987D1*
X1849014D2*
X1961117D1*
X410635Y5367946D2*
X525238D1*
X852765D2*
X1525238D1*
X1852765D2*
X1961117D1*
X410635Y5358077D2*
X522542D1*
X855459D2*
X1522542D1*
X1855459D2*
X1961117D1*
X410635Y5348209D2*
X520823D1*
X857178D2*
X1520823D1*
X1857178D2*
X1961117D1*
X410635Y5338340D2*
X520042D1*
X857959D2*
X1520042D1*
X1857959D2*
X1961117D1*
X410635Y5328471D2*
X520178D1*
X857803D2*
X1520178D1*
X1857803D2*
X1961117D1*
X410635Y5318602D2*
X521234D1*
X856769D2*
X1521234D1*
X1856769D2*
X1961117D1*
X410635Y5308734D2*
X523245D1*
X854757D2*
X1523245D1*
X1854757D2*
X1961117D1*
X410635Y5298865D2*
X526234D1*
X851749D2*
X1526234D1*
X1851749D2*
X1961117D1*
X410635Y5288996D2*
X530335D1*
X847667D2*
X1530335D1*
X1847667D2*
X1961117D1*
X410635Y5279127D2*
X535686D1*
X842315D2*
X1535686D1*
X1842315D2*
X1961117D1*
X410635Y5269259D2*
X542483D1*
X835499D2*
X1542483D1*
X1835499D2*
X1961117D1*
X410635Y5259390D2*
X551175D1*
X826807D2*
X1551175D1*
X1826807D2*
X1961117D1*
X563365Y5249660D2*
X557491Y5254412D1*
X550286Y5261343D1*
X543761Y5268915D1*
X537970Y5277063D1*
X532966Y5285717D1*
X528790Y5294799D1*
X525482Y5304232D1*
X523067Y5313933D1*
X521568Y5323816D1*
X520999Y5333797D1*
X521364Y5343786D1*
X522660Y5353698D1*
X524874Y5363446D1*
X527990Y5372945D1*
X531978Y5382112D1*
X536804Y5390865D1*
X542427Y5399130D1*
X548795Y5406835D1*
X555857Y5413911D1*
X563547Y5420298D1*
X571799Y5425938D1*
X573873Y5427152D1*
X409646Y5427159D1*
X409626Y5249678D1*
X563318Y5249659D1*
X856890Y5329894D2*
X855957Y5319941D1*
X854098Y5310119D1*
X851332Y5300513D1*
X847681Y5291207D1*
X843177Y5282283D1*
X837860Y5273819D1*
X831776Y5265887D1*
X824979Y5258558D1*
X817526Y5251895D1*
X814640Y5249657D1*
X1563318Y5249659D1*
X1557491Y5254412D1*
X1550286Y5261343D1*
X1543761Y5268915D1*
X1537970Y5277063D1*
X1532966Y5285717D1*
X1528790Y5294799D1*
X1525482Y5304232D1*
X1523067Y5313933D1*
X1521568Y5323816D1*
X1520999Y5333797D1*
X1521364Y5343786D1*
X1522660Y5353698D1*
X1524874Y5363446D1*
X1527990Y5372945D1*
X1531978Y5382112D1*
X1536804Y5390865D1*
X1542427Y5399130D1*
X1548795Y5406835D1*
X1555857Y5413911D1*
X1563547Y5420298D1*
X1571799Y5425938D1*
X1573873Y5427152D1*
X804177Y5427159D1*
X811798Y5422238D1*
X819681Y5416091D1*
X826957Y5409234D1*
X833559Y5401728D1*
X839433Y5393640D1*
X844526Y5385038D1*
X848794Y5375999D1*
X852199Y5366601D1*
X854713Y5356925D1*
X856312Y5347058D1*
X856984Y5337084D1*
X856890Y5329894D1*
X1856890D2*
X1855957Y5319941D1*
X1854098Y5310119D1*
X1851332Y5300513D1*
X1847681Y5291207D1*
X1843177Y5282283D1*
X1837860Y5273819D1*
X1831776Y5265887D1*
X1824979Y5258558D1*
X1817526Y5251895D1*
X1814640Y5249657D1*
X1962106Y5249659D1*
X1962126Y5427139D1*
X1804177Y5427159D1*
X1811798Y5422238D1*
X1819681Y5416091D1*
X1826957Y5409234D1*
X1833559Y5401728D1*
X1839433Y5393640D1*
X1844526Y5385038D1*
X1848794Y5375999D1*
X1852199Y5366601D1*
X1854713Y5356925D1*
X1856312Y5347058D1*
X1856984Y5337084D1*
X1856890Y5329894D1*
X420009Y629131D2*
X1957991D1*
X420009Y619262D2*
X1957991D1*
X420009Y609394D2*
X590392D1*
X787608D2*
X1590392D1*
X1787608D2*
X1957991D1*
X420009Y599525D2*
X570744D1*
X807256D2*
X1570744D1*
X1807256D2*
X1957991D1*
X420009Y589656D2*
X557756D1*
X820244D2*
X1557756D1*
X1820244D2*
X1957991D1*
X420009Y579787D2*
X548068D1*
X829932D2*
X1548068D1*
X1829932D2*
X1957991D1*
X420009Y569919D2*
X540588D1*
X837412D2*
X1540588D1*
X1837412D2*
X1957991D1*
X420009Y560050D2*
X534728D1*
X843272D2*
X1534728D1*
X1843272D2*
X1957991D1*
X420009Y550181D2*
X530236D1*
X847764D2*
X1530236D1*
X1847764D2*
X1957991D1*
X420009Y540312D2*
X526896D1*
X851104D2*
X1526896D1*
X1851104D2*
X1957991D1*
X420009Y530444D2*
X524631D1*
X853369D2*
X1524631D1*
X1853369D2*
X1957991D1*
X420009Y520575D2*
X523341D1*
X854659D2*
X1523341D1*
X1854659D2*
X1957991D1*
X420009Y510706D2*
X523009D1*
X854991D2*
X1523009D1*
X1854991D2*
X1957991D1*
X420009Y500837D2*
X523596D1*
X854404D2*
X1523596D1*
X1854404D2*
X1957991D1*
X420009Y490969D2*
X525159D1*
X852841D2*
X1525159D1*
X1852841D2*
X1957991D1*
X420009Y481100D2*
X527717D1*
X850283D2*
X1527717D1*
X1850283D2*
X1957991D1*
X420009Y471231D2*
X531349D1*
X846651D2*
X1531349D1*
X1846651D2*
X1957991D1*
X420009Y461362D2*
X536193D1*
X841807D2*
X1536193D1*
X1841807D2*
X1957991D1*
X420009Y451493D2*
X542444D1*
X835556D2*
X1542444D1*
X1835556D2*
X1957991D1*
X420009Y441625D2*
X550491D1*
X827509D2*
X1550491D1*
X1827509D2*
X1957991D1*
X420009Y431756D2*
X560920D1*
X817080D2*
X1560920D1*
X1817080D2*
X1957991D1*
X420009Y421887D2*
X575197D1*
X802803D2*
X1575197D1*
X1802803D2*
X1957991D1*
X420009Y412018D2*
X598615D1*
X779385D2*
X1598615D1*
X1779385D2*
X1957991D1*
X1601509Y411503D2*
X1592067Y414472D1*
X1582862Y418371D1*
X1574075Y423136D1*
X1565786Y428723D1*
X1558071Y435080D1*
X1551003Y442147D1*
X1544646Y449862D1*
X1539058Y458151D1*
X1534293Y466938D1*
X1530394Y476142D1*
X1527395Y485678D1*
X1525327Y495458D1*
X1524207Y505391D1*
X1524047Y515386D1*
X1524846Y525350D1*
X1526600Y535192D1*
X1529290Y544819D1*
X1532891Y554143D1*
X1537371Y563079D1*
X1542689Y571543D1*
X1548795Y579458D1*
X1555634Y586749D1*
X1563139Y593350D1*
X1571245Y599201D1*
X1579875Y604245D1*
X1588949Y608438D1*
X1598385Y611740D1*
X1608093Y614122D1*
X1617986Y615559D1*
X1627990Y616039D1*
X1755014Y615920D1*
X1764965Y614962D1*
X1774777Y613051D1*
X1784360Y610207D1*
X1793626Y606457D1*
X1802488Y601835D1*
X1810867Y596382D1*
X1818682Y590150D1*
X1825864Y583196D1*
X1832344Y575585D1*
X1838064Y567387D1*
X1842970Y558677D1*
X1847017Y549537D1*
X1850168Y540051D1*
X1852392Y530306D1*
X1853672Y520391D1*
X1854007Y512058D1*
X1853526Y502073D1*
X1852089Y492181D1*
X1849709Y482472D1*
X1846407Y473037D1*
X1842215Y463962D1*
X1837171Y455332D1*
X1831322Y447226D1*
X1824720Y439719D1*
X1817429Y432882D1*
X1809514Y426774D1*
X1801051Y421457D1*
X1792115Y416975D1*
X1782791Y413373D1*
X1776400Y411504D1*
X1958980Y411500D1*
X1959000Y638980D1*
X419020Y639000D1*
X419000Y411520D1*
X601520Y411500D1*
X592067Y414472D1*
X582862Y418371D1*
X574075Y423136D1*
X565786Y428723D1*
X558071Y435080D1*
X551003Y442147D1*
X544646Y449862D1*
X539058Y458151D1*
X534293Y466938D1*
X530394Y476142D1*
X527395Y485678D1*
X525327Y495458D1*
X524207Y505391D1*
X524047Y515386D1*
X524846Y525350D1*
X526600Y535192D1*
X529290Y544819D1*
X532891Y554143D1*
X537371Y563079D1*
X542689Y571543D1*
X548795Y579458D1*
X555634Y586749D1*
X563139Y593350D1*
X571245Y599201D1*
X579875Y604245D1*
X588949Y608438D1*
X598385Y611740D1*
X608093Y614122D1*
X617986Y615559D1*
X627990Y616039D1*
X755014Y615920D1*
X764965Y614962D1*
X774777Y613051D1*
X784360Y610207D1*
X793626Y606457D1*
X802488Y601835D1*
X810867Y596382D1*
X818682Y590150D1*
X825864Y583196D1*
X832344Y575585D1*
X838064Y567387D1*
X842970Y558677D1*
X847017Y549537D1*
X850168Y540051D1*
X852392Y530306D1*
X853672Y520391D1*
X854007Y512058D1*
X853526Y502073D1*
X852089Y492181D1*
X849709Y482472D1*
X846407Y473037D1*
X842215Y463962D1*
X837171Y455332D1*
X831322Y447226D1*
X824720Y439719D1*
X817429Y432882D1*
X809514Y426774D1*
X801051Y421457D1*
X792115Y416975D1*
X782791Y413373D1*
X776400Y411504D1*
X1601520Y411500D1*
X809112Y829131D2*
X1048167D1*
X1315967D2*
X1554612D1*
X1823525D2*
X1957991D1*
X799033Y819262D2*
X1058224D1*
X1305908D2*
X1564572D1*
X1813564D2*
X1957991D1*
X787177Y809394D2*
X1070060D1*
X1294072D2*
X1576291D1*
X1801845D2*
X1957991D1*
X772900Y799525D2*
X1084319D1*
X1279815D2*
X1590373D1*
X1787764D2*
X1957991D1*
X770009Y789656D2*
X1102307D1*
X1261827D2*
X1608068D1*
X1770068D2*
X1957991D1*
X770009Y779787D2*
X1127659D1*
X1236475D2*
X1632756D1*
X1745381D2*
X1957991D1*
X770009Y769919D2*
X1957991D1*
X770009Y760050D2*
X1957991D1*
X770009Y750181D2*
X1957991D1*
X770009Y740312D2*
X1957991D1*
X770009Y730444D2*
X1957991D1*
X1323638Y839009D2*
X1317147Y831482D1*
X1310214Y824277D1*
X1302896Y817462D1*
X1295218Y811058D1*
X1287201Y805083D1*
X1278869Y799556D1*
X1270247Y794492D1*
X1261361Y789909D1*
X1252238Y785818D1*
X1242903Y782232D1*
X1233387Y779163D1*
X1223718Y776618D1*
X1213924Y774606D1*
X1204034Y773133D1*
X1194079Y772202D1*
X1184087Y771819D1*
X1174089Y771982D1*
X1164117Y772692D1*
X1154197Y773945D1*
X1144360Y775740D1*
X1134636Y778071D1*
X1125055Y780929D1*
X1115644Y784307D1*
X1106433Y788196D1*
X1097448Y792583D1*
X1088715Y797453D1*
X1080264Y802795D1*
X1072115Y808591D1*
X1064298Y814824D1*
X1056832Y821475D1*
X1049741Y828525D1*
X1043046Y835951D1*
X1040514Y839003D1*
X816793Y839000D1*
X810361Y831562D1*
X803428Y824357D1*
X796110Y817542D1*
X788432Y811138D1*
X780415Y805163D1*
X772083Y799636D1*
X768992Y797764D1*
X769000Y724020D1*
X1958980Y724000D1*
X1959000Y838980D1*
X1831129Y839000D1*
X1824147Y830887D1*
X1817214Y823682D1*
X1809896Y816867D1*
X1802218Y810463D1*
X1794201Y804488D1*
X1785869Y798962D1*
X1777247Y793898D1*
X1768361Y789315D1*
X1759238Y785223D1*
X1749903Y781638D1*
X1740387Y778568D1*
X1730718Y776024D1*
X1720924Y774012D1*
X1711034Y772538D1*
X1701079Y771608D1*
X1691087Y771224D1*
X1681089Y771387D1*
X1671117Y772097D1*
X1661197Y773350D1*
X1651360Y775146D1*
X1641636Y777476D1*
X1632055Y780335D1*
X1622644Y783713D1*
X1613433Y787601D1*
X1604448Y791988D1*
X1595715Y796858D1*
X1587264Y802201D1*
X1579115Y807996D1*
X1571298Y814230D1*
X1563832Y820881D1*
X1556741Y827930D1*
X1550046Y835357D1*
X1547016Y839009D1*
X1323629Y839000D1*
X814112Y1204131D2*
X1042833D1*
X1321436D2*
X1549827D1*
X1828760D2*
X1957991D1*
X804991Y1194262D2*
X1052013D1*
X1312276D2*
X1558987D1*
X1819600D2*
X1957991D1*
X794345Y1184394D2*
X1062717D1*
X1301572D2*
X1569651D1*
X1808936D2*
X1957991D1*
X781728Y1174525D2*
X1075392D1*
X1288877D2*
X1582287D1*
X1796299D2*
X1957991D1*
X770009Y1164656D2*
X1090900D1*
X1273369D2*
X1597736D1*
X1780849D2*
X1957991D1*
X770009Y1154787D2*
X1111076D1*
X1253193D2*
X1617795D1*
X1760811D2*
X1957991D1*
X770009Y1144919D2*
X1142659D1*
X1221612D2*
X1648967D1*
X1729619D2*
X1957991D1*
X770009Y1135050D2*
X1152776D1*
X1211357D2*
X1663869D1*
X1714268D2*
X1957991D1*
X770009Y1125181D2*
X1115744D1*
X1248388D2*
X1624319D1*
X1753799D2*
X1957991D1*
X770009Y1115312D2*
X1094260D1*
X1269873D2*
X1602365D1*
X1775772D2*
X1957991D1*
X779424Y1105444D2*
X1078049D1*
X1286084D2*
X1585920D1*
X1792217D2*
X1957991D1*
X1070215Y1099008D2*
X1077719Y1104528D1*
X1086080Y1110010D1*
X1094728Y1115029D1*
X1103639Y1119566D1*
X1112783Y1123609D1*
X1122136Y1127146D1*
X1131668Y1130165D1*
X1141350Y1132659D1*
X1151155Y1134619D1*
X1161052Y1136041D1*
X1171013Y1136919D1*
X1181005Y1137249D1*
X1191003Y1137034D1*
X1200972Y1136273D1*
X1210885Y1134966D1*
X1220711Y1133119D1*
X1230423Y1130739D1*
X1239990Y1127829D1*
X1249382Y1124402D1*
X1258573Y1120465D1*
X1267535Y1116031D1*
X1276241Y1111115D1*
X1284665Y1105730D1*
X1293906Y1099012D1*
X1577965Y1099000D1*
X1584719Y1103933D1*
X1593080Y1109416D1*
X1601728Y1114434D1*
X1610639Y1118971D1*
X1619783Y1123014D1*
X1629136Y1126551D1*
X1638668Y1129571D1*
X1648350Y1132064D1*
X1658155Y1134025D1*
X1668052Y1135446D1*
X1678013Y1136324D1*
X1688005Y1136655D1*
X1698003Y1136440D1*
X1707972Y1135678D1*
X1717885Y1134371D1*
X1727711Y1132525D1*
X1737423Y1130144D1*
X1746990Y1127235D1*
X1756382Y1123807D1*
X1765573Y1119870D1*
X1774535Y1115437D1*
X1783241Y1110521D1*
X1791665Y1105135D1*
X1800167Y1098995D1*
X1958980Y1099000D1*
X1959000Y1213980D1*
X1835660Y1214000D1*
X1830904Y1207883D1*
X1824375Y1200311D1*
X1817442Y1193106D1*
X1810125Y1186291D1*
X1802446Y1179887D1*
X1794429Y1173912D1*
X1786097Y1168386D1*
X1777475Y1163322D1*
X1768589Y1158739D1*
X1759466Y1154647D1*
X1750131Y1151062D1*
X1740615Y1147992D1*
X1730946Y1145448D1*
X1721152Y1143436D1*
X1711262Y1141962D1*
X1701307Y1141031D1*
X1691315Y1140648D1*
X1681318Y1140811D1*
X1671345Y1141521D1*
X1661425Y1142774D1*
X1651588Y1144570D1*
X1641865Y1146900D1*
X1632283Y1149759D1*
X1622873Y1153136D1*
X1613661Y1157025D1*
X1604676Y1161412D1*
X1595944Y1166282D1*
X1587492Y1171625D1*
X1579344Y1177420D1*
X1571526Y1183654D1*
X1564060Y1190304D1*
X1556970Y1197354D1*
X1550274Y1204781D1*
X1543996Y1212563D1*
X1542938Y1213991D1*
X1328395Y1214000D1*
X1323749Y1208068D1*
X1317220Y1200496D1*
X1310287Y1193291D1*
X1302970Y1186476D1*
X1295291Y1180072D1*
X1287274Y1174097D1*
X1278942Y1168571D1*
X1270320Y1163507D1*
X1261434Y1158924D1*
X1252311Y1154832D1*
X1242976Y1151247D1*
X1233461Y1148177D1*
X1223791Y1145633D1*
X1213997Y1143621D1*
X1204108Y1142147D1*
X1194152Y1141217D1*
X1184160Y1140833D1*
X1174163Y1140996D1*
X1164190Y1141706D1*
X1154270Y1142959D1*
X1144433Y1144755D1*
X1134710Y1147085D1*
X1125129Y1149944D1*
X1115718Y1153322D1*
X1106507Y1157210D1*
X1097521Y1161597D1*
X1088789Y1166467D1*
X1080337Y1171810D1*
X1072189Y1177605D1*
X1064371Y1183839D1*
X1056906Y1190490D1*
X1049815Y1197539D1*
X1043119Y1204966D1*
X1035923Y1213987D1*
X821012Y1214000D1*
X816136Y1207734D1*
X809608Y1200161D1*
X802675Y1192957D1*
X795357Y1186142D1*
X787678Y1179738D1*
X779661Y1173762D1*
X771329Y1168236D1*
X769008Y1166829D1*
X769000Y1111480D1*
X777879Y1105810D1*
X787241Y1098995D1*
X1070192Y1099000D1*
X1468995Y2979131D2*
X1684260D1*
X1468311Y2969262D2*
X1685119D1*
X1467627Y2959394D2*
X1685959D1*
X1466944Y2949525D2*
X1686819D1*
X1466260Y2939656D2*
X1687659D1*
X1465576Y2929787D2*
X1688517D1*
X1464912Y2919919D2*
X1689377D1*
X1464228Y2910050D2*
X1690217D1*
X1463545Y2900181D2*
X1691076D1*
X1462861Y2890312D2*
X1691916D1*
X1462177Y2880444D2*
X1692776D1*
X1461495Y2870575D2*
X1693615D1*
X1460811Y2860706D2*
X1694475D1*
X1460147Y2850837D2*
X1695315D1*
X1459463Y2840969D2*
X1696173D1*
X1458780Y2831100D2*
X1697033D1*
X1458096Y2821231D2*
X1697873D1*
X1457412Y2811362D2*
X1698732D1*
X1456728Y2801493D2*
X1699572D1*
X1456064Y2791625D2*
X1700432D1*
X1455381Y2781756D2*
X1701272D1*
X1454697Y2771887D2*
X1702131D1*
X1454013Y2762018D2*
X1702971D1*
X1453331Y2752150D2*
X1703831D1*
X1452647Y2742281D2*
X1704689D1*
X1451963Y2732412D2*
X1705529D1*
X1451299Y2722543D2*
X1706388D1*
X1450615Y2712675D2*
X1707228D1*
X1449932Y2702806D2*
X1708088D1*
X1449248Y2692937D2*
X1708928D1*
X1448564Y2683068D2*
X1709787D1*
X1447881Y2673199D2*
X1552795D1*
X1611807D2*
X1710627D1*
X1447217Y2663331D2*
X1521525D1*
X1643096D2*
X1711487D1*
X1446533Y2653462D2*
X1502151D1*
X1662471D2*
X1712345D1*
X1445849Y2643593D2*
X1488381D1*
X1676240D2*
X1713185D1*
X1445167Y2633724D2*
X1478517D1*
X1686104D2*
X1714045D1*
X1444483Y2623856D2*
X1468635D1*
X1695967D2*
X1714885D1*
X1443799Y2613987D2*
X1460060D1*
X1704541D2*
X1715744D1*
X1443115Y2604118D2*
X1455041D1*
X1709580D2*
X1716584D1*
X1442451Y2594249D2*
X1450001D1*
X1441768Y2584381D2*
X1444993D1*
X1434951Y2485693D2*
X1440080D1*
X1434268Y2475824D2*
X1444377D1*
X1720244D2*
X1727638D1*
X1433604Y2465955D2*
X1449416D1*
X1715205D2*
X1728499D1*
X1432920Y2456087D2*
X1454436D1*
X1710185D2*
X1729357D1*
X1432236Y2446218D2*
X1459455D1*
X1705147D2*
X1730197D1*
X1431552Y2436349D2*
X1467463D1*
X1697159D2*
X1731056D1*
X1430869Y2426480D2*
X1477327D1*
X1687276D2*
X1731896D1*
X1430185Y2416612D2*
X1487189D1*
X1677412D2*
X1732756D1*
X1429501Y2406743D2*
X1499827D1*
X1664776D2*
X1733615D1*
X1428837Y2396874D2*
X1519201D1*
X1645420D2*
X1734455D1*
X1428155Y2387005D2*
X1545353D1*
X1619268D2*
X1735315D1*
X1427471Y2377136D2*
X1736155D1*
X1426787Y2367268D2*
X1737013D1*
X1426104Y2357399D2*
X1737853D1*
X1425420Y2347530D2*
X1738713D1*
X1424756Y2337661D2*
X1739552D1*
X1424072Y2327793D2*
X1740412D1*
X1423388Y2317924D2*
X1741272D1*
X1422705Y2308055D2*
X1742112D1*
X1422021Y2298186D2*
X1742971D1*
X1421337Y2288318D2*
X1743811D1*
X1420655Y2278449D2*
X1744669D1*
X1419991Y2268580D2*
X1745509D1*
X1419307Y2258711D2*
X1746369D1*
X1418623Y2248843D2*
X1747228D1*
X1417940Y2238974D2*
X1748068D1*
X1417256Y2229105D2*
X1748928D1*
X1416572Y2219236D2*
X1749768D1*
X1415908Y2209367D2*
X1750627D1*
X1415224Y2199499D2*
X1751467D1*
X1414541Y2189630D2*
X1752327D1*
X1413857Y2179761D2*
X1753167D1*
X1413173Y2169892D2*
X1754025D1*
X1412491Y2160024D2*
X1754885D1*
X1411807Y2150155D2*
X1755724D1*
X1411143Y2140286D2*
X1756584D1*
X1410459Y2130417D2*
X1757424D1*
X1409776Y2120549D2*
X1758283D1*
X1409092Y2110680D2*
X1759123D1*
X1408408Y2100811D2*
X1759983D1*
X1407724Y2090942D2*
X1760823D1*
X1407060Y2081073D2*
X1761681D1*
X1406377Y2071205D2*
X1762541D1*
X1405693Y2061336D2*
X1763381D1*
X1405009Y2051467D2*
X1764240D1*
X1404327Y2041598D2*
X1542697D1*
X1621924D2*
X1765080D1*
X1403643Y2031730D2*
X1518381D1*
X1646240D2*
X1765940D1*
X1402959Y2021861D2*
X1499005D1*
X1665615D2*
X1766780D1*
X1402295Y2011992D2*
X1486780D1*
X1677841D2*
X1767639D1*
X1401612Y2002123D2*
X1476916D1*
X1687705D2*
X1768479D1*
X1400928Y1992255D2*
X1467033D1*
X1697568D2*
X1769337D1*
X1400244Y1982386D2*
X1459260D1*
X1705361D2*
X1770197D1*
X1399560Y1972517D2*
X1454220D1*
X1710400D2*
X1771037D1*
X1398877Y1962648D2*
X1449201D1*
X1715420D2*
X1771896D1*
X1398213Y1952780D2*
X1444163D1*
X1720459D2*
X1772736D1*
X1397529Y1942911D2*
X1440001D1*
X1724619D2*
X1773596D1*
X1396845Y1933042D2*
X1438420D1*
X1726201D2*
X1774436D1*
X1396163Y1923173D2*
X1436857D1*
X1727764D2*
X1775295D1*
X1395479Y1913304D2*
X1435295D1*
X1729327D2*
X1776155D1*
X1394795Y1903436D2*
X1433732D1*
X1730888D2*
X1776995D1*
X1394112Y1893567D2*
X1434045D1*
X1730576D2*
X1777853D1*
X1393448Y1883698D2*
X1435608D1*
X1729013D2*
X1778693D1*
X1392764Y1873829D2*
X1437169D1*
X1727451D2*
X1779552D1*
X1392080Y1863961D2*
X1438732D1*
X1725869D2*
X1780392D1*
X1391396Y1854092D2*
X1440509D1*
X1724112D2*
X1781252D1*
X1390713Y1844223D2*
X1445197D1*
X1719424D2*
X1782092D1*
X1390029Y1834354D2*
X1450217D1*
X1714385D2*
X1782951D1*
X1389365Y1824486D2*
X1455256D1*
X1709365D2*
X1783811D1*
X1388681Y1814617D2*
X1460295D1*
X1704327D2*
X1784651D1*
X1387999Y1804748D2*
X1469064D1*
X1695556D2*
X1785509D1*
X1387315Y1794879D2*
X1478928D1*
X1685673D2*
X1786349D1*
X1386631Y1785010D2*
X1488791D1*
X1675811D2*
X1787209D1*
X1385948Y1775142D2*
X1502971D1*
X1661651D2*
X1788049D1*
X1385264Y1765273D2*
X1522345D1*
X1642276D2*
X1788908D1*
X1384600Y1755404D2*
X1555451D1*
X1609151D2*
X1789748D1*
X1383916Y1745535D2*
X1790608D1*
X1383232Y1735667D2*
X1791467D1*
X1382549Y1725798D2*
X1792307D1*
X1381865Y1715929D2*
X1793167D1*
X1381181Y1706060D2*
X1794005D1*
X1380517Y1696192D2*
X1794865D1*
X1379833Y1686323D2*
X1795705D1*
X1379151Y1676454D2*
X1796564D1*
X1378467Y1666585D2*
X1797404D1*
X1377783Y1656717D2*
X1798264D1*
X1377100Y1646848D2*
X1799123D1*
X1376416Y1636979D2*
X1799963D1*
X1375752Y1627110D2*
X1800823D1*
X1375068Y1617241D2*
X1801663D1*
X1374385Y1607373D2*
X1802521D1*
X1373701Y1597504D2*
X1803361D1*
X1373017Y1587635D2*
X1804220D1*
X1372333Y1577766D2*
X1805080D1*
X1371651Y1567898D2*
X1805920D1*
X1370987Y1558029D2*
X1806780D1*
X1726307Y2502983D2*
X1723445Y2485303D1*
X1722475Y2482319D1*
X1710467Y2458617D1*
X1702875Y2443853D1*
X1701031Y2441314D1*
X1682287Y2422483D1*
X1670505Y2410787D1*
X1667966Y2408944D1*
X1644320Y2396825D1*
X1629500Y2389344D1*
X1626516Y2388374D1*
X1600283Y2384157D1*
X1583877Y2381621D1*
X1580738D1*
X1554486Y2385717D1*
X1538098Y2388374D1*
X1535114Y2389344D1*
X1511412Y2401352D1*
X1496648Y2408944D1*
X1494109Y2410787D1*
X1475278Y2429531D1*
X1463583Y2441314D1*
X1461739Y2443853D1*
X1449621Y2467499D1*
X1442139Y2482319D1*
X1441169Y2485303D1*
X1436951Y2511535D1*
X1436106Y2516879D1*
X1369356Y1548982D1*
X1808551Y1549000D1*
X1726308Y2503000D1*
X1439193Y2561635D2*
X1441169Y2573720D1*
X1442139Y2576705D1*
X1454146Y2600407D1*
X1461739Y2615171D1*
X1463583Y2617710D1*
X1482327Y2636541D1*
X1494109Y2648236D1*
X1496648Y2650080D1*
X1520294Y2662198D1*
X1535114Y2669680D1*
X1538098Y2670650D1*
X1564331Y2674867D1*
X1580738Y2677403D1*
X1583877D1*
X1610129Y2673307D1*
X1626516Y2670650D1*
X1629500Y2669680D1*
X1653202Y2657673D1*
X1667966Y2650080D1*
X1670505Y2648236D1*
X1689336Y2629492D1*
X1701031Y2617710D1*
X1702875Y2615171D1*
X1714993Y2591525D1*
X1719436Y2582807D1*
X1684412Y2989010D1*
X1468668Y2989000D1*
X1439196Y2561655D1*
X1723760Y1942122D2*
X1730198Y1901081D1*
Y1897942D1*
X1726102Y1871690D1*
X1723445Y1855303D1*
X1722475Y1852319D1*
X1710467Y1828617D1*
X1702875Y1813853D1*
X1701031Y1811314D1*
X1682287Y1792483D1*
X1670505Y1780787D1*
X1667966Y1778944D1*
X1644320Y1766825D1*
X1629500Y1759344D1*
X1626516Y1758374D1*
X1600283Y1754157D1*
X1583877Y1751621D1*
X1580738D1*
X1554486Y1755717D1*
X1538098Y1758374D1*
X1535114Y1759344D1*
X1511412Y1771352D1*
X1496648Y1778944D1*
X1494109Y1780787D1*
X1475278Y1799531D1*
X1463583Y1811314D1*
X1461739Y1813853D1*
X1449621Y1837499D1*
X1442139Y1852319D1*
X1441169Y1855303D1*
X1436951Y1881535D1*
X1434416Y1897942D1*
Y1901081D1*
X1438512Y1927333D1*
X1441169Y1943720D1*
X1442139Y1946705D1*
X1454146Y1970407D1*
X1461739Y1985171D1*
X1463583Y1987710D1*
X1482327Y2006541D1*
X1494109Y2018236D1*
X1496648Y2020080D1*
X1520294Y2032198D1*
X1535114Y2039680D1*
X1538098Y2040650D1*
X1564331Y2044867D1*
X1580738Y2047403D1*
X1583877D1*
X1610129Y2043307D1*
X1626516Y2040650D1*
X1629500Y2039680D1*
X1653202Y2027673D1*
X1667966Y2020080D1*
X1670505Y2018236D1*
X1689336Y1999492D1*
X1701031Y1987710D1*
X1702875Y1985171D1*
X1714993Y1961525D1*
X1722475Y1946705D1*
X1723445Y1943720D1*
X1727661Y1917488D1*
X1730010Y1902664D1*
X650760Y1823067D2*
X655967D1*
X650252Y1813198D2*
X661163D1*
X903455D2*
X909912D1*
X649744Y1803329D2*
X670479D1*
X894139D2*
X910517D1*
X649236Y1793461D2*
X680343D1*
X884256D2*
X911123D1*
X648728Y1783592D2*
X690224D1*
X874392D2*
X911728D1*
X648220Y1773723D2*
X705752D1*
X858865D2*
X912315D1*
X647693Y1763854D2*
X725127D1*
X839491D2*
X912920D1*
X647185Y1753986D2*
X764404D1*
X800193D2*
X913525D1*
X646678Y1744117D2*
X914131D1*
X646171Y1734248D2*
X914736D1*
X645663Y1724379D2*
X915343D1*
X645155Y1714510D2*
X915928D1*
X644647Y1704642D2*
X916533D1*
X644139Y1694773D2*
X917139D1*
X643631Y1684904D2*
X917744D1*
X643123Y1675035D2*
X918349D1*
X642615Y1665167D2*
X918955D1*
X642108Y1655298D2*
X919541D1*
X641600Y1645429D2*
X920147D1*
X641092Y1635560D2*
X920752D1*
X640584Y1625692D2*
X921357D1*
X640076Y1615823D2*
X921963D1*
X639549Y1605954D2*
X922549D1*
X639041Y1596085D2*
X923155D1*
X638533Y1586217D2*
X923760D1*
X638025Y1576348D2*
X924365D1*
X637517Y1566479D2*
X924971D1*
X637010Y1556610D2*
X925576D1*
X636503Y1546741D2*
X926163D1*
X910033Y1827765D2*
X902875Y1813853D1*
X901031Y1811314D1*
X882287Y1792483D1*
X870505Y1780787D1*
X867966Y1778944D1*
X844320Y1766825D1*
X829500Y1759344D1*
X826516Y1758374D1*
X800283Y1754157D1*
X783877Y1751621D1*
X780738D1*
X754486Y1755717D1*
X738098Y1758374D1*
X735114Y1759344D1*
X711412Y1771352D1*
X696648Y1778944D1*
X694109Y1780787D1*
X675278Y1799531D1*
X663583Y1811314D1*
X661739Y1813853D1*
X650428Y1835915D1*
X635444Y1545580D1*
X927231Y1545609D1*
X910028Y1827759D1*
X445009Y3929131D2*
X1107991D1*
X445009Y3919262D2*
X1107991D1*
X445009Y3909394D2*
X1107991D1*
X445009Y3899525D2*
X1107991D1*
X445009Y3889656D2*
X1107991D1*
X445009Y3879787D2*
X1107991D1*
X445009Y3869919D2*
X1107991D1*
X445009Y3860050D2*
X1107991D1*
X445009Y3850181D2*
X1107991D1*
X445009Y3840312D2*
X1107991D1*
X445009Y3830444D2*
X1107991D1*
X445009Y3820575D2*
X531896D1*
X657315D2*
X907033D1*
X1033663D2*
X1107991D1*
X445009Y3810706D2*
X524631D1*
X664560D2*
X900236D1*
X1040459D2*
X1107991D1*
X445009Y3800837D2*
X523596D1*
X665596D2*
X899357D1*
X1041337D2*
X1107991D1*
X445009Y3790969D2*
X523596D1*
X665596D2*
X899357D1*
X1041337D2*
X1107991D1*
X445009Y3781100D2*
X523596D1*
X665596D2*
X899357D1*
X1041337D2*
X1107991D1*
X445009Y3771231D2*
X523596D1*
X665596D2*
X899357D1*
X1041337D2*
X1107991D1*
X445009Y3761362D2*
X523596D1*
X665596D2*
X899357D1*
X1041337D2*
X1107991D1*
X445009Y3751493D2*
X523596D1*
X665596D2*
X899357D1*
X1041337D2*
X1107991D1*
X445009Y3741625D2*
X523596D1*
X665596D2*
X899357D1*
X1041337D2*
X1107991D1*
X445009Y3731756D2*
X523596D1*
X665596D2*
X899357D1*
X1041337D2*
X1107991D1*
X445009Y3721887D2*
X523596D1*
X665596D2*
X899357D1*
X1041337D2*
X1107991D1*
X445009Y3712018D2*
X523596D1*
X665596D2*
X899357D1*
X1041337D2*
X1107991D1*
X445009Y3702150D2*
X523596D1*
X665596D2*
X899357D1*
X1041337D2*
X1107991D1*
X445009Y3692281D2*
X523596D1*
X665596D2*
X899357D1*
X1041337D2*
X1107991D1*
X445009Y3682412D2*
X523596D1*
X665596D2*
X899357D1*
X1041337D2*
X1107991D1*
X445009Y3672543D2*
X523596D1*
X665596D2*
X899357D1*
X1041337D2*
X1107991D1*
X445009Y3662675D2*
X523596D1*
X665596D2*
X899357D1*
X1041337D2*
X1107991D1*
X445009Y3652806D2*
X523596D1*
X665596D2*
X899357D1*
X1041337D2*
X1107991D1*
X445009Y3642937D2*
X523596D1*
X665596D2*
X899357D1*
X1041337D2*
X1107991D1*
X445009Y3633068D2*
X523596D1*
X665596D2*
X899357D1*
X1041337D2*
X1107991D1*
X445009Y3623199D2*
X523596D1*
X665596D2*
X899357D1*
X1041337D2*
X1107991D1*
X445009Y3613331D2*
X523596D1*
X665596D2*
X899357D1*
X1041337D2*
X1107991D1*
X445009Y3603462D2*
X523596D1*
X665596D2*
X899357D1*
X1041337D2*
X1107991D1*
X445009Y3593593D2*
X523596D1*
X665596D2*
X899357D1*
X1041337D2*
X1107991D1*
X445009Y3583724D2*
X523596D1*
X665596D2*
X899357D1*
X1041337D2*
X1107991D1*
X445009Y3573856D2*
X523596D1*
X665596D2*
X899357D1*
X1041337D2*
X1107991D1*
X445009Y3563987D2*
X523596D1*
X665596D2*
X899357D1*
X1041337D2*
X1107991D1*
X445009Y3554118D2*
X523596D1*
X665596D2*
X899357D1*
X1041337D2*
X1107991D1*
X445009Y3544249D2*
X523596D1*
X665596D2*
X899357D1*
X1041337D2*
X1107991D1*
X445009Y3534381D2*
X523596D1*
X665596D2*
X899357D1*
X1041337D2*
X1107991D1*
X445009Y3524512D2*
X523596D1*
X665596D2*
X899357D1*
X1041337D2*
X1107991D1*
X445009Y3514643D2*
X523596D1*
X665596D2*
X899357D1*
X1041337D2*
X1107991D1*
X445009Y3504774D2*
X523596D1*
X665596D2*
X899357D1*
X1041337D2*
X1107991D1*
X445009Y3494906D2*
X523596D1*
X665596D2*
X899357D1*
X1041337D2*
X1107991D1*
X445009Y3485037D2*
X523596D1*
X665596D2*
X899357D1*
X1041337D2*
X1107991D1*
X445009Y3475168D2*
X523596D1*
X665596D2*
X899357D1*
X1041337D2*
X1107991D1*
X445009Y3465299D2*
X523596D1*
X665596D2*
X899357D1*
X1041337D2*
X1107991D1*
X445009Y3455430D2*
X523596D1*
X665596D2*
X899357D1*
X1041337D2*
X1107991D1*
X445009Y3445562D2*
X523596D1*
X665596D2*
X899357D1*
X1041337D2*
X1107991D1*
X445009Y3435693D2*
X523596D1*
X665596D2*
X899357D1*
X1041337D2*
X1107991D1*
X445009Y3425824D2*
X523596D1*
X665596D2*
X899357D1*
X1041337D2*
X1107991D1*
X445009Y3415955D2*
X523596D1*
X665596D2*
X899357D1*
X1041337D2*
X1107991D1*
X445009Y3406087D2*
X523596D1*
X665596D2*
X899357D1*
X1041337D2*
X1107991D1*
X445009Y3396218D2*
X523596D1*
X665596D2*
X899357D1*
X1041337D2*
X1107991D1*
X445009Y3386349D2*
X523596D1*
X665596D2*
X899357D1*
X1041337D2*
X1107991D1*
X445009Y3376480D2*
X523596D1*
X665596D2*
X899357D1*
X1041337D2*
X1107991D1*
X445009Y3366612D2*
X523596D1*
X665596D2*
X899357D1*
X1041337D2*
X1107991D1*
X445009Y3356743D2*
X523596D1*
X665596D2*
X899357D1*
X1041337D2*
X1107991D1*
X445009Y3346874D2*
X523596D1*
X665596D2*
X899357D1*
X1041337D2*
X1107991D1*
X445009Y3337005D2*
X523596D1*
X665596D2*
X899357D1*
X1041337D2*
X1107991D1*
X445009Y3327136D2*
X523596D1*
X665596D2*
X899357D1*
X1041337D2*
X1107991D1*
X445009Y3317268D2*
X523596D1*
X665596D2*
X899357D1*
X1041337D2*
X1107991D1*
X445009Y3307399D2*
X523596D1*
X665596D2*
X899357D1*
X1041337D2*
X1107991D1*
X445009Y3297530D2*
X523596D1*
X665596D2*
X899357D1*
X1041337D2*
X1107991D1*
X445009Y3287661D2*
X523596D1*
X665596D2*
X899357D1*
X1041337D2*
X1107991D1*
X445009Y3277793D2*
X523596D1*
X665596D2*
X899357D1*
X1041337D2*
X1107991D1*
X445009Y3267924D2*
X523596D1*
X665596D2*
X899357D1*
X1041337D2*
X1107991D1*
X445009Y3258055D2*
X523596D1*
X665596D2*
X899357D1*
X1041337D2*
X1107991D1*
X445009Y3248186D2*
X523596D1*
X665596D2*
X899357D1*
X1041337D2*
X1107991D1*
X445009Y3238318D2*
X523596D1*
X665596D2*
X899357D1*
X1041337D2*
X1107991D1*
X445009Y3228449D2*
X523596D1*
X665596D2*
X899357D1*
X1041337D2*
X1107991D1*
X445009Y3218580D2*
X523596D1*
X665596D2*
X899357D1*
X1041337D2*
X1107991D1*
X445009Y3208711D2*
X523596D1*
X665596D2*
X899357D1*
X1041337D2*
X1107991D1*
X445009Y3198843D2*
X523596D1*
X665596D2*
X899357D1*
X1041337D2*
X1107991D1*
X445009Y3188974D2*
X523596D1*
X665596D2*
X899357D1*
X1041337D2*
X1107991D1*
X445009Y3179105D2*
X523596D1*
X665596D2*
X899357D1*
X1041337D2*
X1107991D1*
X445009Y3169236D2*
X523596D1*
X665596D2*
X899357D1*
X1041337D2*
X1107991D1*
X445009Y3159367D2*
X523596D1*
X665596D2*
X899357D1*
X1041337D2*
X1107991D1*
X445009Y3149499D2*
X523596D1*
X665596D2*
X899357D1*
X1041337D2*
X1107991D1*
X445009Y3139630D2*
X523596D1*
X665596D2*
X899357D1*
X1041337D2*
X1107991D1*
X445009Y3129761D2*
X523596D1*
X665596D2*
X899357D1*
X1041337D2*
X1107991D1*
X445009Y3119892D2*
X523596D1*
X665596D2*
X899357D1*
X1041337D2*
X1107991D1*
X445009Y3110024D2*
X523596D1*
X665596D2*
X899357D1*
X1041337D2*
X1107991D1*
X445009Y3100155D2*
X523596D1*
X665596D2*
X899357D1*
X1041337D2*
X1107991D1*
X445009Y3090286D2*
X523596D1*
X665596D2*
X899357D1*
X1041337D2*
X1107991D1*
X445009Y3080417D2*
X523596D1*
X665596D2*
X899357D1*
X1041337D2*
X1107991D1*
X445009Y3070549D2*
X523596D1*
X665596D2*
X899357D1*
X1041337D2*
X1107991D1*
X445009Y3060680D2*
X523596D1*
X665596D2*
X899357D1*
X1041337D2*
X1107991D1*
X445009Y3050811D2*
X523596D1*
X665596D2*
X899357D1*
X1041337D2*
X1107991D1*
X445009Y3040942D2*
X523596D1*
X665596D2*
X899357D1*
X1041337D2*
X1107991D1*
X445009Y3031073D2*
X523596D1*
X665596D2*
X899357D1*
X1041337D2*
X1107991D1*
X445009Y3021205D2*
X523596D1*
X665596D2*
X899357D1*
X1041337D2*
X1107991D1*
X445009Y3011336D2*
X523596D1*
X665596D2*
X899357D1*
X1041337D2*
X1107991D1*
X445009Y3001467D2*
X523596D1*
X665596D2*
X899357D1*
X1041337D2*
X1107991D1*
X445009Y2991598D2*
X523596D1*
X665596D2*
X899357D1*
X1041337D2*
X1107991D1*
X445009Y2981730D2*
X523596D1*
X665596D2*
X899357D1*
X1041337D2*
X1107991D1*
X445009Y2971861D2*
X523596D1*
X665596D2*
X899357D1*
X1041337D2*
X1107991D1*
X445009Y2961992D2*
X523596D1*
X665596D2*
X899357D1*
X1041337D2*
X1107991D1*
X445009Y2952123D2*
X523596D1*
X665596D2*
X899357D1*
X1041337D2*
X1107991D1*
X445009Y2942255D2*
X523596D1*
X665596D2*
X899357D1*
X1041337D2*
X1107991D1*
X445009Y2932386D2*
X523596D1*
X665596D2*
X899357D1*
X1041337D2*
X1107991D1*
X445009Y2922517D2*
X523596D1*
X665596D2*
X899357D1*
X1041337D2*
X1107991D1*
X445009Y2912648D2*
X523596D1*
X665596D2*
X899357D1*
X1041337D2*
X1107991D1*
X445009Y2902780D2*
X523596D1*
X665596D2*
X899357D1*
X1041337D2*
X1107991D1*
X445009Y2892911D2*
X523596D1*
X665596D2*
X899357D1*
X1041337D2*
X1107991D1*
X445009Y2883042D2*
X523596D1*
X665596D2*
X899357D1*
X1041337D2*
X1107991D1*
X445009Y2873173D2*
X523596D1*
X665596D2*
X899357D1*
X1041337D2*
X1107991D1*
X445009Y2863304D2*
X523596D1*
X665596D2*
X899357D1*
X1041337D2*
X1107991D1*
X445009Y2853436D2*
X523596D1*
X665596D2*
X899357D1*
X1041337D2*
X1107991D1*
X445009Y2843567D2*
X523596D1*
X665596D2*
X899357D1*
X1041337D2*
X1107991D1*
X445009Y2833698D2*
X523596D1*
X665596D2*
X899357D1*
X1041337D2*
X1107991D1*
X445009Y2823829D2*
X523596D1*
X665596D2*
X899357D1*
X1041337D2*
X1107991D1*
X445009Y2813961D2*
X523596D1*
X665596D2*
X899357D1*
X1041337D2*
X1107991D1*
X445009Y2804092D2*
X523596D1*
X665596D2*
X899357D1*
X1041337D2*
X1107991D1*
X445009Y2794223D2*
X523596D1*
X665596D2*
X899357D1*
X1041337D2*
X1107991D1*
X445009Y2784354D2*
X523596D1*
X665596D2*
X899357D1*
X1041337D2*
X1107991D1*
X445009Y2774486D2*
X523596D1*
X665596D2*
X899357D1*
X1041337D2*
X1107991D1*
X445009Y2764617D2*
X523596D1*
X665596D2*
X899357D1*
X1041337D2*
X1107991D1*
X445009Y2754748D2*
X523596D1*
X665596D2*
X899357D1*
X1041337D2*
X1107991D1*
X445009Y2744879D2*
X523596D1*
X665596D2*
X899357D1*
X1041337D2*
X1107991D1*
X445009Y2735010D2*
X523596D1*
X665596D2*
X899357D1*
X1041337D2*
X1107991D1*
X445009Y2725142D2*
X523596D1*
X665596D2*
X899357D1*
X1041337D2*
X1107991D1*
X445009Y2715273D2*
X523596D1*
X665596D2*
X899357D1*
X1041337D2*
X1107991D1*
X445009Y2705404D2*
X523596D1*
X665596D2*
X899357D1*
X1041337D2*
X1107991D1*
X445009Y2695535D2*
X523596D1*
X665596D2*
X899357D1*
X1041337D2*
X1107991D1*
X445009Y2685667D2*
X523596D1*
X665596D2*
X899357D1*
X1041337D2*
X1107991D1*
X445009Y2675798D2*
X523596D1*
X665596D2*
X899357D1*
X1041337D2*
X1107991D1*
X445009Y2665929D2*
X523596D1*
X665596D2*
X899357D1*
X1041337D2*
X1107991D1*
X445009Y2656060D2*
X523596D1*
X665596D2*
X899357D1*
X1041337D2*
X1107991D1*
X445009Y2646192D2*
X523596D1*
X665596D2*
X899357D1*
X1041337D2*
X1107991D1*
X445009Y2636323D2*
X523596D1*
X665596D2*
X899357D1*
X1041337D2*
X1107991D1*
X445009Y2626454D2*
X523596D1*
X665596D2*
X899357D1*
X1041337D2*
X1107991D1*
X445009Y2616585D2*
X523596D1*
X665596D2*
X899357D1*
X1041337D2*
X1107991D1*
X445009Y2606717D2*
X523596D1*
X665596D2*
X899357D1*
X1041337D2*
X1107991D1*
X445009Y2596848D2*
X523596D1*
X665596D2*
X899357D1*
X1041337D2*
X1107991D1*
X445009Y2586979D2*
X523596D1*
X665596D2*
X899357D1*
X1041337D2*
X1107991D1*
X445009Y2577110D2*
X523596D1*
X665596D2*
X899357D1*
X1041337D2*
X1107991D1*
X445009Y2567241D2*
X523596D1*
X665596D2*
X899357D1*
X1041337D2*
X1107991D1*
X445009Y2557373D2*
X523596D1*
X665596D2*
X899357D1*
X1041337D2*
X1107991D1*
X445009Y2547504D2*
X523596D1*
X665596D2*
X899357D1*
X1041337D2*
X1107991D1*
X445009Y2537635D2*
X523596D1*
X665596D2*
X899357D1*
X1041337D2*
X1107991D1*
X445009Y2527766D2*
X523596D1*
X665596D2*
X899357D1*
X1041337D2*
X1107991D1*
X445009Y2517898D2*
X523596D1*
X665596D2*
X899357D1*
X1041337D2*
X1107991D1*
X445009Y2508029D2*
X523596D1*
X665596D2*
X899357D1*
X1041337D2*
X1107991D1*
X445009Y2498160D2*
X523596D1*
X665596D2*
X899357D1*
X1041337D2*
X1107991D1*
X445009Y2488291D2*
X523596D1*
X665596D2*
X899357D1*
X1041337D2*
X1107991D1*
X445009Y2478423D2*
X523596D1*
X665596D2*
X899357D1*
X1041337D2*
X1107991D1*
X445009Y2468554D2*
X523596D1*
X665596D2*
X899357D1*
X1041337D2*
X1107991D1*
X445009Y2458685D2*
X523596D1*
X665596D2*
X899357D1*
X1041337D2*
X1107991D1*
X445009Y2448816D2*
X523596D1*
X665596D2*
X899357D1*
X1041337D2*
X1107991D1*
X445009Y2438948D2*
X523596D1*
X665596D2*
X899357D1*
X1041337D2*
X1107991D1*
X445009Y2429079D2*
X523596D1*
X665596D2*
X899357D1*
X1041337D2*
X1107991D1*
X445009Y2419210D2*
X523596D1*
X665596D2*
X899357D1*
X1041337D2*
X1107991D1*
X445009Y2409341D2*
X523596D1*
X665596D2*
X899357D1*
X1041337D2*
X1107991D1*
X445009Y2399472D2*
X523596D1*
X665596D2*
X899357D1*
X1041337D2*
X1107991D1*
X445009Y2389604D2*
X523596D1*
X665596D2*
X899357D1*
X1041337D2*
X1107991D1*
X445009Y2379735D2*
X523596D1*
X665596D2*
X899357D1*
X1041337D2*
X1107991D1*
X445009Y2369866D2*
X523596D1*
X665596D2*
X899357D1*
X1041337D2*
X1107991D1*
X445009Y2359997D2*
X523596D1*
X665596D2*
X899357D1*
X1041337D2*
X1107991D1*
X445009Y2350129D2*
X523596D1*
X665596D2*
X899357D1*
X1041337D2*
X1107991D1*
X445009Y2340260D2*
X523596D1*
X665596D2*
X899357D1*
X1041337D2*
X1107991D1*
X445009Y2330391D2*
X523596D1*
X665596D2*
X899357D1*
X1041337D2*
X1107991D1*
X445009Y2320522D2*
X523596D1*
X665596D2*
X899357D1*
X1041337D2*
X1107991D1*
X445009Y2310654D2*
X523596D1*
X665596D2*
X899357D1*
X1041337D2*
X1107991D1*
X445009Y2300785D2*
X523948D1*
X665244D2*
X899787D1*
X1040888D2*
X1107991D1*
X445009Y2290916D2*
X528948D1*
X660244D2*
X905119D1*
X1035556D2*
X1107991D1*
X445009Y2281047D2*
X1107991D1*
X445009Y2271178D2*
X1107991D1*
X445009Y2261310D2*
X1107991D1*
X445009Y2251441D2*
X1107991D1*
X920367Y3824816D2*
X1021907Y3824755D1*
X1025007Y3824264D1*
X1027991Y3823294D1*
X1030787Y3821869D1*
X1033327Y3820025D1*
X1035546Y3817806D1*
X1037390Y3815266D1*
X1038815Y3812470D1*
X1039785Y3809486D1*
X1040276Y3806386D1*
X1040337Y3779816D1*
X1040276Y2303404D1*
X1039785Y2300304D1*
X1038815Y2297320D1*
X1037390Y2294524D1*
X1035546Y2291984D1*
X1033327Y2289765D1*
X1030787Y2287921D1*
X1027991Y2286496D1*
X1025007Y2285526D1*
X1021907Y2285035D1*
X995337Y2284974D1*
X918778Y2285035D1*
X915678Y2285526D1*
X912694Y2286496D1*
X909898Y2287921D1*
X907358Y2289765D1*
X905139Y2291984D1*
X903295Y2294524D1*
X901870Y2297320D1*
X900900Y2300304D1*
X900409Y2303404D1*
X900348Y2329974D1*
X900409Y3806386D1*
X900900Y3809486D1*
X901870Y3812470D1*
X903295Y3815266D1*
X905139Y3817806D1*
X907358Y3820025D1*
X909898Y3821869D1*
X912694Y3823294D1*
X915678Y3824264D1*
X918778Y3824755D1*
X920354Y3824816D1*
X544622Y3824365D2*
X646161Y3824303D1*
X649261Y3823812D1*
X652245Y3822843D1*
X655042Y3821417D1*
X657581Y3819573D1*
X659801Y3817354D1*
X661644Y3814815D1*
X663070Y3812018D1*
X664039Y3809034D1*
X664530Y3805934D1*
X664592Y3779365D1*
X664530Y2302953D1*
X664039Y2299853D1*
X663070Y2296869D1*
X661644Y2294072D1*
X659801Y2291533D1*
X657581Y2289314D1*
X655042Y2287470D1*
X652245Y2286045D1*
X649261Y2285075D1*
X646161Y2284584D1*
X619592Y2284522D1*
X543033Y2284584D1*
X539933Y2285075D1*
X536949Y2286045D1*
X534152Y2287470D1*
X531613Y2289314D1*
X529394Y2291533D1*
X527550Y2294072D1*
X526125Y2296869D1*
X525155Y2299853D1*
X524664Y2302953D1*
X524602Y2329522D1*
X524664Y3805934D1*
X525155Y3809034D1*
X526125Y3812018D1*
X527550Y3814815D1*
X529394Y3817354D1*
X531613Y3819573D1*
X534152Y3821417D1*
X536949Y3822843D1*
X539933Y3823812D1*
X543033Y3824303D1*
X544609Y3824365D1*
X1108980Y3939000D2*
X444020D1*
X444000Y2249020D1*
X1108980Y2249000D1*
X1109000Y3938980D1*
D23*
X1182067Y954530D3*
X675281Y954610D3*
X674528Y1323210D3*
X1182140Y1323545D3*
X1689295Y1323360D3*
D24*
X1689000Y512058D3*
X689000D3*
D23*
X1689067Y953936D3*
D24*
X689000Y5334892D3*
X1689000D3*
X1360161Y1898001D2*
D16*
G02X1360161Y1898001I225000J0D01*
G01*
X557235Y1899369D2*
G02X557235Y1899369I225000J0D01*
G01*
X1357438Y3165417D2*
G02X1357438Y3165417I225000J0D01*
G01*
X1356702Y2529766D2*
G02X1356702Y2529766I225000J0D01*
G01*
X1357295Y3736749D2*
D17*
G02X1357295Y3736749I225000J0D01*
G01*
M02*
